ISO-10303-21;
HEADER;
/* Generated by software containing ST-Developer
 * from STEP Tools, Inc. (www.steptools.com) 
 */
/* OPTION: using custom renumber hook */

FILE_DESCRIPTION(
/* description */ ('STEP AP242 Edition 2',
'CAx-IF Rec.Pracs.---Representation and Presentation of Product Manufa
cturing Information (PMI)---4.0---2014-10-13',
'CAx-IF Rec.Pracs.---3D Tessellated Geometry---0.4---2014-09-14','2;1',
'CAx-IF Rec.Pracs.---User Defined Attributes---1.5---2016-08-15'),
/* implementation_level */ '2;1');

FILE_NAME(
/* name */ 'Part Studio 1 - Part 6',
/* time_stamp */ '2026-09-06T11:57:18Z',
/* author */ (''),
/* organization */ (''),
/* preprocessor_version */ 'ST-DEVELOPER v20',
/* originating_system */ 'ONSHAPE BY PTC INC, 1.220',
/* authorisation */ '  ');

FILE_SCHEMA (('AP242_MANAGED_MODEL_BASED_3D_ENGINEERING_MIM_LF { 1 0 10303 442 3 1 4 }'));
ENDSEC;

DATA;
#10=SHAPE_REPRESENTATION_RELATIONSHIP('','',#183,#11);
#11=ADVANCED_BREP_SHAPE_REPRESENTATION('',(#181),#333);
#12=PLANE('',#197);
#13=PLANE('',#198);
#14=CIRCLE('',#186,0.000374705980075662);
#15=CIRCLE('',#187,0.000374705980075662);
#16=CIRCLE('',#189,0.000376523921204487);
#17=CIRCLE('',#190,0.000376523921204487);
#18=CIRCLE('',#192,0.000380137747744853);
#19=CIRCLE('',#193,0.000380137747744853);
#20=CIRCLE('',#195,0.000382270832375386);
#21=CIRCLE('',#196,0.000382270832375386);
#22=CYLINDRICAL_SURFACE('',#185,0.000374705980075662);
#23=CYLINDRICAL_SURFACE('',#188,0.000376523921204487);
#24=CYLINDRICAL_SURFACE('',#191,0.000380137747744853);
#25=CYLINDRICAL_SURFACE('',#194,0.000382270832375386);
#26=LINE('',#251,#34);
#27=LINE('',#257,#35);
#28=LINE('',#270,#36);
#29=LINE('',#278,#37);
#30=LINE('',#284,#38);
#31=LINE('',#299,#39);
#32=LINE('',#316,#40);
#33=LINE('',#324,#41);
#34=VECTOR('',#201,1.);
#35=VECTOR('',#202,1.);
#36=VECTOR('',#203,1.);
#37=VECTOR('',#208,1.);
#38=VECTOR('',#215,1.);
#39=VECTOR('',#218,1.);
#40=VECTOR('',#219,1.);
#41=VECTOR('',#224,1.);
#42=ORIENTED_EDGE('',*,*,#90,.F.);
#43=ORIENTED_EDGE('',*,*,#91,.F.);
#44=ORIENTED_EDGE('',*,*,#92,.T.);
#45=ORIENTED_EDGE('',*,*,#93,.T.);
#46=ORIENTED_EDGE('',*,*,#94,.F.);
#47=ORIENTED_EDGE('',*,*,#95,.F.);
#48=ORIENTED_EDGE('',*,*,#96,.T.);
#49=ORIENTED_EDGE('',*,*,#91,.T.);
#50=ORIENTED_EDGE('',*,*,#97,.F.);
#51=ORIENTED_EDGE('',*,*,#98,.F.);
#52=ORIENTED_EDGE('',*,*,#99,.T.);
#53=ORIENTED_EDGE('',*,*,#95,.T.);
#54=ORIENTED_EDGE('',*,*,#100,.F.);
#55=ORIENTED_EDGE('',*,*,#101,.F.);
#56=ORIENTED_EDGE('',*,*,#102,.T.);
#57=ORIENTED_EDGE('',*,*,#98,.T.);
#58=ORIENTED_EDGE('',*,*,#103,.F.);
#59=ORIENTED_EDGE('',*,*,#104,.F.);
#60=ORIENTED_EDGE('',*,*,#105,.T.);
#61=ORIENTED_EDGE('',*,*,#101,.T.);
#62=ORIENTED_EDGE('',*,*,#106,.F.);
#63=ORIENTED_EDGE('',*,*,#107,.F.);
#64=ORIENTED_EDGE('',*,*,#108,.T.);
#65=ORIENTED_EDGE('',*,*,#104,.T.);
#66=ORIENTED_EDGE('',*,*,#109,.F.);
#67=ORIENTED_EDGE('',*,*,#110,.F.);
#68=ORIENTED_EDGE('',*,*,#111,.T.);
#69=ORIENTED_EDGE('',*,*,#107,.T.);
#70=ORIENTED_EDGE('',*,*,#112,.F.);
#71=ORIENTED_EDGE('',*,*,#93,.F.);
#72=ORIENTED_EDGE('',*,*,#113,.T.);
#73=ORIENTED_EDGE('',*,*,#110,.T.);
#74=ORIENTED_EDGE('',*,*,#92,.F.);
#75=ORIENTED_EDGE('',*,*,#96,.F.);
#76=ORIENTED_EDGE('',*,*,#99,.F.);
#77=ORIENTED_EDGE('',*,*,#102,.F.);
#78=ORIENTED_EDGE('',*,*,#105,.F.);
#79=ORIENTED_EDGE('',*,*,#108,.F.);
#80=ORIENTED_EDGE('',*,*,#111,.F.);
#81=ORIENTED_EDGE('',*,*,#113,.F.);
#82=ORIENTED_EDGE('',*,*,#90,.T.);
#83=ORIENTED_EDGE('',*,*,#112,.T.);
#84=ORIENTED_EDGE('',*,*,#109,.T.);
#85=ORIENTED_EDGE('',*,*,#106,.T.);
#86=ORIENTED_EDGE('',*,*,#103,.T.);
#87=ORIENTED_EDGE('',*,*,#100,.T.);
#88=ORIENTED_EDGE('',*,*,#97,.T.);
#89=ORIENTED_EDGE('',*,*,#94,.T.);
#90=EDGE_CURVE('',#114,#115,#130,.T.);
#91=EDGE_CURVE('',#116,#114,#26,.T.);
#92=EDGE_CURVE('',#116,#117,#131,.T.);
#93=EDGE_CURVE('',#117,#115,#27,.T.);
#94=EDGE_CURVE('',#118,#114,#132,.T.);
#95=EDGE_CURVE('',#119,#118,#28,.T.);
#96=EDGE_CURVE('',#119,#116,#133,.T.);
#97=EDGE_CURVE('',#120,#118,#14,.T.);
#98=EDGE_CURVE('',#121,#120,#29,.T.);
#99=EDGE_CURVE('',#121,#119,#15,.T.);
#100=EDGE_CURVE('',#122,#120,#16,.T.);
#101=EDGE_CURVE('',#123,#122,#30,.T.);
#102=EDGE_CURVE('',#123,#121,#17,.T.);
#103=EDGE_CURVE('',#124,#122,#134,.T.);
#104=EDGE_CURVE('',#125,#124,#31,.T.);
#105=EDGE_CURVE('',#125,#123,#135,.T.);
#106=EDGE_CURVE('',#126,#124,#136,.T.);
#107=EDGE_CURVE('',#127,#126,#32,.T.);
#108=EDGE_CURVE('',#127,#125,#137,.T.);
#109=EDGE_CURVE('',#128,#126,#18,.T.);
#110=EDGE_CURVE('',#129,#128,#33,.T.);
#111=EDGE_CURVE('',#129,#127,#19,.T.);
#112=EDGE_CURVE('',#115,#128,#20,.T.);
#113=EDGE_CURVE('',#117,#129,#21,.T.);
#114=VERTEX_POINT('',#249);
#115=VERTEX_POINT('',#250);
#116=VERTEX_POINT('',#252);
#117=VERTEX_POINT('',#256);
#118=VERTEX_POINT('',#269);
#119=VERTEX_POINT('',#271);
#120=VERTEX_POINT('',#277);
#121=VERTEX_POINT('',#279);
#122=VERTEX_POINT('',#283);
#123=VERTEX_POINT('',#285);
#124=VERTEX_POINT('',#298);
#125=VERTEX_POINT('',#300);
#126=VERTEX_POINT('',#315);
#127=VERTEX_POINT('',#317);
#128=VERTEX_POINT('',#323);
#129=VERTEX_POINT('',#325);
#130=B_SPLINE_CURVE_WITH_KNOTS('',2,(#246,#247,#248),.UNSPECIFIED.,.F.,
 .F.,(3,3),(0.,1.),.PIECEWISE_BEZIER_KNOTS.);
#131=B_SPLINE_CURVE_WITH_KNOTS('',2,(#253,#254,#255),.UNSPECIFIED.,.F.,
 .F.,(3,3),(0.,1.),.PIECEWISE_BEZIER_KNOTS.);
#132=B_SPLINE_CURVE_WITH_KNOTS('',2,(#266,#267,#268),.UNSPECIFIED.,.F.,
 .F.,(3,3),(0.,1.),.PIECEWISE_BEZIER_KNOTS.);
#133=B_SPLINE_CURVE_WITH_KNOTS('',2,(#272,#273,#274),.UNSPECIFIED.,.F.,
 .F.,(3,3),(0.,1.),.PIECEWISE_BEZIER_KNOTS.);
#134=B_SPLINE_CURVE_WITH_KNOTS('',2,(#295,#296,#297),.UNSPECIFIED.,.F.,
 .F.,(3,3),(0.,1.),.PIECEWISE_BEZIER_KNOTS.);
#135=B_SPLINE_CURVE_WITH_KNOTS('',2,(#301,#302,#303),.UNSPECIFIED.,.F.,
 .F.,(3,3),(0.,1.),.PIECEWISE_BEZIER_KNOTS.);
#136=B_SPLINE_CURVE_WITH_KNOTS('',2,(#312,#313,#314),.UNSPECIFIED.,.F.,
 .F.,(3,3),(0.,1.),.PIECEWISE_BEZIER_KNOTS.);
#137=B_SPLINE_CURVE_WITH_KNOTS('',2,(#318,#319,#320),.UNSPECIFIED.,.F.,
 .F.,(3,3),(0.,1.),.PIECEWISE_BEZIER_KNOTS.);
#138=EDGE_LOOP('',(#42,#43,#44,#45));
#139=EDGE_LOOP('',(#46,#47,#48,#49));
#140=EDGE_LOOP('',(#50,#51,#52,#53));
#141=EDGE_LOOP('',(#54,#55,#56,#57));
#142=EDGE_LOOP('',(#58,#59,#60,#61));
#143=EDGE_LOOP('',(#62,#63,#64,#65));
#144=EDGE_LOOP('',(#66,#67,#68,#69));
#145=EDGE_LOOP('',(#70,#71,#72,#73));
#146=EDGE_LOOP('',(#74,#75,#76,#77,#78,#79,#80,#81));
#147=EDGE_LOOP('',(#82,#83,#84,#85,#86,#87,#88,#89));
#148=FACE_BOUND('',#138,.T.);
#149=FACE_BOUND('',#139,.T.);
#150=FACE_BOUND('',#140,.T.);
#151=FACE_BOUND('',#141,.T.);
#152=FACE_BOUND('',#142,.T.);
#153=FACE_BOUND('',#143,.T.);
#154=FACE_BOUND('',#144,.T.);
#155=FACE_BOUND('',#145,.T.);
#156=FACE_BOUND('',#146,.T.);
#157=FACE_BOUND('',#147,.T.);
#158=B_SPLINE_SURFACE_WITH_KNOTS('',3,1,((#238,#239),(#240,#241),(#242,
#243),(#244,#245)),.SURF_OF_LINEAR_EXTRUSION.,.F.,.F.,.F.,(4,4),(2,2),(0.,
1.),(0.,1.),.PIECEWISE_BEZIER_KNOTS.);
#159=B_SPLINE_SURFACE_WITH_KNOTS('',3,1,((#258,#259),(#260,#261),(#262,
#263),(#264,#265)),.SURF_OF_LINEAR_EXTRUSION.,.F.,.F.,.F.,(4,4),(2,2),(0.,
1.),(0.,1.),.PIECEWISE_BEZIER_KNOTS.);
#160=B_SPLINE_SURFACE_WITH_KNOTS('',3,1,((#287,#288),(#289,#290),(#291,
#292),(#293,#294)),.SURF_OF_LINEAR_EXTRUSION.,.F.,.F.,.F.,(4,4),(2,2),(0.,
1.),(0.,1.),.PIECEWISE_BEZIER_KNOTS.);
#161=B_SPLINE_SURFACE_WITH_KNOTS('',3,1,((#304,#305),(#306,#307),(#308,
#309),(#310,#311)),.SURF_OF_LINEAR_EXTRUSION.,.F.,.F.,.F.,(4,4),(2,2),(0.,
1.),(0.,1.),.PIECEWISE_BEZIER_KNOTS.);
#162=ADVANCED_FACE('',(#148),#158,.T.);
#163=ADVANCED_FACE('',(#149),#159,.T.);
#164=ADVANCED_FACE('',(#150),#22,.T.);
#165=ADVANCED_FACE('',(#151),#23,.T.);
#166=ADVANCED_FACE('',(#152),#160,.T.);
#167=ADVANCED_FACE('',(#153),#161,.T.);
#168=ADVANCED_FACE('',(#154),#24,.T.);
#169=ADVANCED_FACE('',(#155),#25,.T.);
#170=ADVANCED_FACE('',(#156),#12,.T.);
#171=ADVANCED_FACE('',(#157),#13,.F.);
#172=CLOSED_SHELL('',(#162,#163,#164,#165,#166,#167,#168,#169,#170,#171));
#173=STYLED_ITEM('',(#174),#181);
#174=PRESENTATION_STYLE_ASSIGNMENT((#175));
#175=SURFACE_STYLE_USAGE(.BOTH.,#176);
#176=SURFACE_SIDE_STYLE('',(#177));
#177=SURFACE_STYLE_FILL_AREA(#178);
#178=FILL_AREA_STYLE('',(#179));
#179=FILL_AREA_STYLE_COLOUR('',#180);
#180=COLOUR_RGB('',0.325490196078431,0.529411764705882,0.752941176470588);
#181=MANIFOLD_SOLID_BREP('Part 6',#172);
#182=SHAPE_DEFINITION_REPRESENTATION(#338,#183);
#183=SHAPE_REPRESENTATION('Part 6',(#184),#333);
#184=AXIS2_PLACEMENT_3D('',#237,#199,#200);
#185=AXIS2_PLACEMENT_3D('',#275,#204,#205);
#186=AXIS2_PLACEMENT_3D('',#276,#206,#207);
#187=AXIS2_PLACEMENT_3D('',#280,#209,#210);
#188=AXIS2_PLACEMENT_3D('',#281,#211,#212);
#189=AXIS2_PLACEMENT_3D('',#282,#213,#214);
#190=AXIS2_PLACEMENT_3D('',#286,#216,#217);
#191=AXIS2_PLACEMENT_3D('',#321,#220,#221);
#192=AXIS2_PLACEMENT_3D('',#322,#222,#223);
#193=AXIS2_PLACEMENT_3D('',#326,#225,#226);
#194=AXIS2_PLACEMENT_3D('',#327,#227,#228);
#195=AXIS2_PLACEMENT_3D('',#328,#229,#230);
#196=AXIS2_PLACEMENT_3D('',#329,#231,#232);
#197=AXIS2_PLACEMENT_3D('',#330,#233,#234);
#198=AXIS2_PLACEMENT_3D('',#331,#235,#236);
#199=DIRECTION('',(0.,0.,1.));
#200=DIRECTION('',(1.,0.,0.));
#201=DIRECTION('',(0.,0.,-1.));
#202=DIRECTION('',(0.,0.,-1.));
#203=DIRECTION('',(0.,0.,-1.));
#204=DIRECTION('',(0.,0.,-1.));
#205=DIRECTION('',(-0.369951186655064,-0.9290511931495,0.));
#206=DIRECTION('',(0.,0.,-1.));
#207=DIRECTION('',(-1.,0.,0.));
#208=DIRECTION('',(0.,0.,-1.));
#209=DIRECTION('',(0.,0.,-1.));
#210=DIRECTION('',(-1.,0.,0.));
#211=DIRECTION('',(0.,0.,-1.));
#212=DIRECTION('',(0.370732483549488,-0.928739697461688,0.));
#213=DIRECTION('',(0.,0.,-1.));
#214=DIRECTION('',(-1.,0.,0.));
#215=DIRECTION('',(0.,0.,-1.));
#216=DIRECTION('',(0.,0.,-1.));
#217=DIRECTION('',(-1.,0.,0.));
#218=DIRECTION('',(0.,0.,-1.));
#219=DIRECTION('',(0.,0.,-1.));
#220=DIRECTION('',(0.,0.,-1.));
#221=DIRECTION('',(0.365693709329132,0.930735252881882,0.));
#222=DIRECTION('',(0.,0.,-1.));
#223=DIRECTION('',(-1.,0.,0.));
#224=DIRECTION('',(0.,0.,-1.));
#225=DIRECTION('',(0.,0.,-1.));
#226=DIRECTION('',(-1.,0.,0.));
#227=DIRECTION('',(0.,0.,-1.));
#228=DIRECTION('',(-0.359875665624725,0.933000270788364,0.));
#229=DIRECTION('',(0.,0.,-1.));
#230=DIRECTION('',(-1.,0.,0.));
#231=DIRECTION('',(0.,0.,-1.));
#232=DIRECTION('',(-1.,0.,0.));
#233=DIRECTION('',(0.,0.,1.));
#234=DIRECTION('',(1.,0.,0.));
#235=DIRECTION('',(0.,0.,1.));
#236=DIRECTION('',(1.,0.,0.));
#237=CARTESIAN_POINT('',(0.,0.,0.));
#238=CARTESIAN_POINT('',(-0.0329499451746768,0.0328791720841178,0.0232));
#239=CARTESIAN_POINT('',(-0.0329499451746768,0.0328791720841178,0.0222));
#240=CARTESIAN_POINT('',(-0.0329499451746768,0.0330274559894827,0.0232));
#241=CARTESIAN_POINT('',(-0.0329499451746768,0.0330274559894827,0.0222));
#242=CARTESIAN_POINT('',(-0.0329134989900716,0.033136169751562,0.0232));
#243=CARTESIAN_POINT('',(-0.0329134989900716,0.033136169751562,0.0222));
#244=CARTESIAN_POINT('',(-0.0328406066208614,0.0332053133703557,0.0232));
#245=CARTESIAN_POINT('',(-0.0328406066208614,0.0332053133703557,0.0222));
#246=CARTESIAN_POINT('',(-0.0329499451746768,0.0328791720841178,0.0222));
#247=CARTESIAN_POINT('',(-0.0329499451746768,0.0331015979421651,0.0222));
#248=CARTESIAN_POINT('',(-0.0328406066208614,0.0332053133703557,0.0222));
#249=CARTESIAN_POINT('',(-0.0329499451746768,0.0328791720841178,0.0222));
#250=CARTESIAN_POINT('',(-0.0328406066208614,0.0332053133703557,0.0222));
#251=CARTESIAN_POINT('',(-0.0329499451746768,0.0328791720841178,0.0232));
#252=CARTESIAN_POINT('',(-0.0329499451746768,0.0328791720841178,0.0232));
#253=CARTESIAN_POINT('',(-0.0329499451746768,0.0328791720841178,0.0232));
#254=CARTESIAN_POINT('',(-0.0329499451746768,0.0331015979421651,0.0232));
#255=CARTESIAN_POINT('',(-0.0328406066208614,0.0332053133703557,0.0232));
#256=CARTESIAN_POINT('',(-0.0328406066208614,0.0332053133703557,0.0232));
#257=CARTESIAN_POINT('',(-0.0328406066208614,0.0332053133703557,0.0232));
#258=CARTESIAN_POINT('',(-0.0328406066208614,0.0325530307978799,0.0232));
#259=CARTESIAN_POINT('',(-0.0328406066208614,0.0325530307978799,0.0222));
#260=CARTESIAN_POINT('',(-0.0329134989900716,0.032624673583618,0.0232));
#261=CARTESIAN_POINT('',(-0.0329134989900716,0.032624673583618,0.0222));
#262=CARTESIAN_POINT('',(-0.0329499451746768,0.0327333873456973,0.0232));
#263=CARTESIAN_POINT('',(-0.0329499451746768,0.0327333873456973,0.0222));
#264=CARTESIAN_POINT('',(-0.0329499451746768,0.0328791720841178,0.0232));
#265=CARTESIAN_POINT('',(-0.0329499451746768,0.0328791720841178,0.0222));
#266=CARTESIAN_POINT('',(-0.0328406066208614,0.0325530307978799,0.0222));
#267=CARTESIAN_POINT('',(-0.0329499451746768,0.032660494976487,0.0222));
#268=CARTESIAN_POINT('',(-0.0329499451746768,0.0328791720841178,0.0222));
#269=CARTESIAN_POINT('',(-0.0328406066208614,0.0325530307978799,0.0222));
#270=CARTESIAN_POINT('',(-0.0328406066208614,0.0325530307978799,0.0232));
#271=CARTESIAN_POINT('',(-0.0328406066208614,0.0325530307978799,0.0232));
#272=CARTESIAN_POINT('',(-0.0328406066208614,0.0325530307978799,0.0232));
#273=CARTESIAN_POINT('',(-0.0329499451746768,0.032660494976487,0.0232));
#274=CARTESIAN_POINT('',(-0.0329499451746768,0.0328791720841178,0.0232));
#275=CARTESIAN_POINT('',(-0.0325786948462417,0.0328206759577096,0.0232));
#276=CARTESIAN_POINT('',(-0.0325786948462417,0.0328206759577096,0.0222));
#277=CARTESIAN_POINT('',(-0.0325663399683175,0.0324458699693333,0.0222));
#278=CARTESIAN_POINT('',(-0.0325663230487188,0.0324455666192728,0.0232));
#279=CARTESIAN_POINT('',(-0.0325663399683175,0.0324458699693333,0.0232));
#280=CARTESIAN_POINT('',(-0.0325786948462417,0.0328206759577096,0.0232));
#281=CARTESIAN_POINT('',(-0.0325605351679312,0.0328222324650571,0.0232));
#282=CARTESIAN_POINT('',(-0.0325605351679312,0.0328222324650571,0.0222));
#283=CARTESIAN_POINT('',(-0.0322970378104648,0.0325530307978799,0.0222));
#284=CARTESIAN_POINT('',(-0.0322970378104648,0.0325530307978799,0.0232));
#285=CARTESIAN_POINT('',(-0.0322970378104648,0.0325530307978799,0.0232));
#286=CARTESIAN_POINT('',(-0.0325605351679312,0.0328222324650571,0.0232));
#287=CARTESIAN_POINT('',(-0.0321839505062329,0.0328791720841178,0.0232));
#288=CARTESIAN_POINT('',(-0.0321839505062329,0.0328791720841178,0.0222));
#289=CARTESIAN_POINT('',(-0.0321839505062329,0.0327333873456973,0.0232));
#290=CARTESIAN_POINT('',(-0.0321839505062329,0.0327333873456973,0.0222));
#291=CARTESIAN_POINT('',(-0.0322216462743102,0.032624673583618,0.0232));
#292=CARTESIAN_POINT('',(-0.0322216462743102,0.032624673583618,0.0222));
#293=CARTESIAN_POINT('',(-0.0322970378104648,0.0325530307978799,0.0232));
#294=CARTESIAN_POINT('',(-0.0322970378104648,0.0325530307978799,0.0222));
#295=CARTESIAN_POINT('',(-0.0321839505062329,0.0328791720841178,0.0222));
#296=CARTESIAN_POINT('',(-0.0321839505062329,0.032660494976487,0.0222));
#297=CARTESIAN_POINT('',(-0.0322970378104648,0.0325530307978799,0.0222));
#298=CARTESIAN_POINT('',(-0.0321839505062329,0.0328791720841178,0.0222));
#299=CARTESIAN_POINT('',(-0.0321839505062329,0.0328791720841178,0.0232));
#300=CARTESIAN_POINT('',(-0.0321839505062329,0.0328791720841178,0.0232));
#301=CARTESIAN_POINT('',(-0.0321839505062329,0.0328791720841178,0.0232));
#302=CARTESIAN_POINT('',(-0.0321839505062329,0.032660494976487,0.0232));
#303=CARTESIAN_POINT('',(-0.0322970378104648,0.0325530307978799,0.0232));
#304=CARTESIAN_POINT('',(-0.0322970378104648,0.0332034389951475,0.0232));
#305=CARTESIAN_POINT('',(-0.0322970378104648,0.0332034389951475,0.0222));
#306=CARTESIAN_POINT('',(-0.0322216462743102,0.0331330457928816,0.0232));
#307=CARTESIAN_POINT('',(-0.0322216462743102,0.0331330457928816,0.0222));
#308=CARTESIAN_POINT('',(-0.0321839505062329,0.0330249568225383,0.0232));
#309=CARTESIAN_POINT('',(-0.0321839505062329,0.0330249568225383,0.0222));
#310=CARTESIAN_POINT('',(-0.0321839505062329,0.0328791720841178,0.0232));
#311=CARTESIAN_POINT('',(-0.0321839505062329,0.0328791720841178,0.0222));
#312=CARTESIAN_POINT('',(-0.0322970378104648,0.0332034389951475,0.0222));
#313=CARTESIAN_POINT('',(-0.0321839505062329,0.0330978491917486,0.0222));
#314=CARTESIAN_POINT('',(-0.0321839505062329,0.0328791720841178,0.0222));
#315=CARTESIAN_POINT('',(-0.0322970378104648,0.0332034389951475,0.0222));
#316=CARTESIAN_POINT('',(-0.0322970378104648,0.0332034389951475,0.0232));
#317=CARTESIAN_POINT('',(-0.0322970378104648,0.0332034389951475,0.0232));
#318=CARTESIAN_POINT('',(-0.0322970378104648,0.0332034389951475,0.0232));
#319=CARTESIAN_POINT('',(-0.0321839505062329,0.0330978491917486,0.0232));
#320=CARTESIAN_POINT('',(-0.0321839505062329,0.0328791720841178,0.0232));
#321=CARTESIAN_POINT('',(-0.0325599572960376,0.0329287205634569,0.0232));
#322=CARTESIAN_POINT('',(-0.0325599572960376,0.0329287205634569,0.0222));
#323=CARTESIAN_POINT('',(-0.0325663282657018,0.0333086943961909,0.0222));
#324=CARTESIAN_POINT('',(-0.0325663230487188,0.0333090287985463,0.0232));
#325=CARTESIAN_POINT('',(-0.0325663282657018,0.0333086943961909,0.0232));
#326=CARTESIAN_POINT('',(-0.0325599572960376,0.0329287205634569,0.0232));
#327=CARTESIAN_POINT('',(-0.0325797516238068,0.0329263248571472,0.0232));
#328=CARTESIAN_POINT('',(-0.0325797516238068,0.0329263248571472,0.0222));
#329=CARTESIAN_POINT('',(-0.0325797516238068,0.0329263248571472,0.0232));
#330=CARTESIAN_POINT('',(-0.035336010574676,0.0221931616239257,0.0232));
#331=CARTESIAN_POINT('',(-0.035336010574676,0.0221931616239257,0.0222));
#332=MECHANICAL_DESIGN_GEOMETRIC_PRESENTATION_REPRESENTATION('',(#173),
#333);
#333=(
GEOMETRIC_REPRESENTATION_CONTEXT(3)
GLOBAL_UNCERTAINTY_ASSIGNED_CONTEXT((#334))
GLOBAL_UNIT_ASSIGNED_CONTEXT((#337,#336,#335))
REPRESENTATION_CONTEXT('Part 6','TOP_LEVEL_ASSEMBLY_PART')
);
#334=UNCERTAINTY_MEASURE_WITH_UNIT(LENGTH_MEASURE(2.E-5),#337,
'DISTANCE_ACCURACY_VALUE','Maximum Tolerance applied to model');
#335=(
NAMED_UNIT(*)
SI_UNIT($,.STERADIAN.)
SOLID_ANGLE_UNIT()
);
#336=(
NAMED_UNIT(*)
PLANE_ANGLE_UNIT()
SI_UNIT($,.RADIAN.)
);
#337=(
LENGTH_UNIT()
NAMED_UNIT(*)
SI_UNIT($,.METRE.)
);
#338=PRODUCT_DEFINITION_SHAPE('','',#339);
#339=PRODUCT_DEFINITION('','',#341,#340);
#340=PRODUCT_DEFINITION_CONTEXT('',#347,'design');
#341=PRODUCT_DEFINITION_FORMATION_WITH_SPECIFIED_SOURCE('','',#343,
 .NOT_KNOWN.);
#342=PRODUCT_RELATED_PRODUCT_CATEGORY('','',(#343));
#343=PRODUCT('Part 6','Part 6','Part 6',(#345));
#344=PRODUCT_CATEGORY('','');
#345=PRODUCT_CONTEXT('',#347,'mechanical');
#346=APPLICATION_PROTOCOL_DEFINITION('international standard',
'ap242_managed_model_based_3d_engineering',2020,#347);
#347=APPLICATION_CONTEXT('managed model based 3d engineering');
ENDSEC;
END-ISO-10303-21;
