ISO-10303-21;
HEADER;
/* Generated by software containing ST-Developer
 * from STEP Tools, Inc. (www.steptools.com) 
 */
/* OPTION: using custom renumber hook */

FILE_DESCRIPTION(
/* description */ ('STEP AP242 Edition 2',
'CAx-IF Rec.Pracs.---Representation and Presentation of Product Manufa
cturing Information (PMI)---4.0---2014-10-13',
'CAx-IF Rec.Pracs.---3D Tessellated Geometry---0.4---2014-09-14','2;1',
'CAx-IF Rec.Pracs.---User Defined Attributes---1.5---2016-08-15'),
/* implementation_level */ '2;1');

FILE_NAME(
/* name */ 'Part Studio 1 - Part 19',
/* time_stamp */ '2026-09-06T11:57:17Z',
/* author */ (''),
/* organization */ (''),
/* preprocessor_version */ 'ST-DEVELOPER v20',
/* originating_system */ 'ONSHAPE BY PTC INC, 1.220',
/* authorisation */ '  ');

FILE_SCHEMA (('AP242_MANAGED_MODEL_BASED_3D_ENGINEERING_MIM_LF { 1 0 10303 442 3 1 4 }'));
ENDSEC;

DATA;
#10=SHAPE_REPRESENTATION_RELATIONSHIP('','',#214,#11);
#11=ADVANCED_BREP_SHAPE_REPRESENTATION('',(#212),#348);
#12=CIRCLE('',#222,0.0781069136345823);
#13=CIRCLE('',#223,0.0781069136345823);
#14=CIRCLE('',#225,0.00301211719618542);
#15=CIRCLE('',#226,0.00301211719618542);
#16=CIRCLE('',#228,0.0121538070943779);
#17=CIRCLE('',#229,0.0121538070943779);
#18=CYLINDRICAL_SURFACE('',#221,0.0781069136345823);
#19=CYLINDRICAL_SURFACE('',#224,0.00301211719618542);
#20=CYLINDRICAL_SURFACE('',#227,0.0121538070943779);
#21=ORIENTED_EDGE('',*,*,#75,.F.);
#22=ORIENTED_EDGE('',*,*,#76,.F.);
#23=ORIENTED_EDGE('',*,*,#77,.T.);
#24=ORIENTED_EDGE('',*,*,#78,.T.);
#25=ORIENTED_EDGE('',*,*,#79,.F.);
#26=ORIENTED_EDGE('',*,*,#80,.F.);
#27=ORIENTED_EDGE('',*,*,#81,.T.);
#28=ORIENTED_EDGE('',*,*,#76,.T.);
#29=ORIENTED_EDGE('',*,*,#82,.F.);
#30=ORIENTED_EDGE('',*,*,#83,.F.);
#31=ORIENTED_EDGE('',*,*,#84,.T.);
#32=ORIENTED_EDGE('',*,*,#80,.T.);
#33=ORIENTED_EDGE('',*,*,#85,.F.);
#34=ORIENTED_EDGE('',*,*,#86,.F.);
#35=ORIENTED_EDGE('',*,*,#87,.T.);
#36=ORIENTED_EDGE('',*,*,#83,.T.);
#37=ORIENTED_EDGE('',*,*,#88,.F.);
#38=ORIENTED_EDGE('',*,*,#89,.F.);
#39=ORIENTED_EDGE('',*,*,#90,.T.);
#40=ORIENTED_EDGE('',*,*,#86,.T.);
#41=ORIENTED_EDGE('',*,*,#91,.F.);
#42=ORIENTED_EDGE('',*,*,#92,.F.);
#43=ORIENTED_EDGE('',*,*,#93,.T.);
#44=ORIENTED_EDGE('',*,*,#89,.T.);
#45=ORIENTED_EDGE('',*,*,#94,.F.);
#46=ORIENTED_EDGE('',*,*,#95,.F.);
#47=ORIENTED_EDGE('',*,*,#96,.T.);
#48=ORIENTED_EDGE('',*,*,#92,.T.);
#49=ORIENTED_EDGE('',*,*,#97,.F.);
#50=ORIENTED_EDGE('',*,*,#98,.F.);
#51=ORIENTED_EDGE('',*,*,#99,.T.);
#52=ORIENTED_EDGE('',*,*,#95,.T.);
#53=ORIENTED_EDGE('',*,*,#100,.F.);
#54=ORIENTED_EDGE('',*,*,#78,.F.);
#55=ORIENTED_EDGE('',*,*,#101,.T.);
#56=ORIENTED_EDGE('',*,*,#98,.T.);
#57=ORIENTED_EDGE('',*,*,#77,.F.);
#58=ORIENTED_EDGE('',*,*,#81,.F.);
#59=ORIENTED_EDGE('',*,*,#84,.F.);
#60=ORIENTED_EDGE('',*,*,#87,.F.);
#61=ORIENTED_EDGE('',*,*,#90,.F.);
#62=ORIENTED_EDGE('',*,*,#93,.F.);
#63=ORIENTED_EDGE('',*,*,#96,.F.);
#64=ORIENTED_EDGE('',*,*,#99,.F.);
#65=ORIENTED_EDGE('',*,*,#101,.F.);
#66=ORIENTED_EDGE('',*,*,#75,.T.);
#67=ORIENTED_EDGE('',*,*,#100,.T.);
#68=ORIENTED_EDGE('',*,*,#97,.T.);
#69=ORIENTED_EDGE('',*,*,#94,.T.);
#70=ORIENTED_EDGE('',*,*,#91,.T.);
#71=ORIENTED_EDGE('',*,*,#88,.T.);
#72=ORIENTED_EDGE('',*,*,#85,.T.);
#73=ORIENTED_EDGE('',*,*,#82,.T.);
#74=ORIENTED_EDGE('',*,*,#79,.T.);
#75=EDGE_CURVE('',#102,#103,#120,.T.);
#76=EDGE_CURVE('',#104,#102,#121,.T.);
#77=EDGE_CURVE('',#104,#105,#122,.T.);
#78=EDGE_CURVE('',#105,#103,#123,.T.);
#79=EDGE_CURVE('',#106,#102,#124,.T.);
#80=EDGE_CURVE('',#107,#106,#125,.T.);
#81=EDGE_CURVE('',#107,#104,#126,.T.);
#82=EDGE_CURVE('',#108,#106,#127,.T.);
#83=EDGE_CURVE('',#109,#108,#128,.T.);
#84=EDGE_CURVE('',#109,#107,#129,.T.);
#85=EDGE_CURVE('',#110,#108,#130,.T.);
#86=EDGE_CURVE('',#111,#110,#131,.T.);
#87=EDGE_CURVE('',#111,#109,#132,.T.);
#88=EDGE_CURVE('',#112,#110,#133,.T.);
#89=EDGE_CURVE('',#113,#112,#134,.T.);
#90=EDGE_CURVE('',#113,#111,#135,.T.);
#91=EDGE_CURVE('',#114,#112,#12,.T.);
#92=EDGE_CURVE('',#115,#114,#136,.T.);
#93=EDGE_CURVE('',#115,#113,#13,.T.);
#94=EDGE_CURVE('',#116,#114,#14,.T.);
#95=EDGE_CURVE('',#117,#116,#137,.T.);
#96=EDGE_CURVE('',#117,#115,#15,.T.);
#97=EDGE_CURVE('',#118,#116,#16,.T.);
#98=EDGE_CURVE('',#119,#118,#138,.T.);
#99=EDGE_CURVE('',#119,#117,#17,.T.);
#100=EDGE_CURVE('',#103,#118,#139,.T.);
#101=EDGE_CURVE('',#105,#119,#140,.T.);
#102=VERTEX_POINT('',#293);
#103=VERTEX_POINT('',#294);
#104=VERTEX_POINT('',#296);
#105=VERTEX_POINT('',#298);
#106=VERTEX_POINT('',#302);
#107=VERTEX_POINT('',#304);
#108=VERTEX_POINT('',#308);
#109=VERTEX_POINT('',#310);
#110=VERTEX_POINT('',#314);
#111=VERTEX_POINT('',#316);
#112=VERTEX_POINT('',#320);
#113=VERTEX_POINT('',#322);
#114=VERTEX_POINT('',#326);
#115=VERTEX_POINT('',#328);
#116=VERTEX_POINT('',#332);
#117=VERTEX_POINT('',#334);
#118=VERTEX_POINT('',#338);
#119=VERTEX_POINT('',#340);
#120=LINE('',#292,#141);
#121=LINE('',#295,#142);
#122=LINE('',#297,#143);
#123=LINE('',#299,#144);
#124=LINE('',#301,#145);
#125=LINE('',#303,#146);
#126=LINE('',#305,#147);
#127=LINE('',#307,#148);
#128=LINE('',#309,#149);
#129=LINE('',#311,#150);
#130=LINE('',#313,#151);
#131=LINE('',#315,#152);
#132=LINE('',#317,#153);
#133=LINE('',#319,#154);
#134=LINE('',#321,#155);
#135=LINE('',#323,#156);
#136=LINE('',#327,#157);
#137=LINE('',#333,#158);
#138=LINE('',#339,#159);
#139=LINE('',#343,#160);
#140=LINE('',#344,#161);
#141=VECTOR('',#237,1.);
#142=VECTOR('',#238,1.);
#143=VECTOR('',#239,1.);
#144=VECTOR('',#240,1.);
#145=VECTOR('',#243,1.);
#146=VECTOR('',#244,1.);
#147=VECTOR('',#245,1.);
#148=VECTOR('',#248,1.);
#149=VECTOR('',#249,1.);
#150=VECTOR('',#250,1.);
#151=VECTOR('',#253,1.);
#152=VECTOR('',#254,1.);
#153=VECTOR('',#255,1.);
#154=VECTOR('',#258,1.);
#155=VECTOR('',#259,1.);
#156=VECTOR('',#260,1.);
#157=VECTOR('',#265,1.);
#158=VECTOR('',#272,1.);
#159=VECTOR('',#279,1.);
#160=VECTOR('',#284,1.);
#161=VECTOR('',#285,1.);
#162=EDGE_LOOP('',(#21,#22,#23,#24));
#163=EDGE_LOOP('',(#25,#26,#27,#28));
#164=EDGE_LOOP('',(#29,#30,#31,#32));
#165=EDGE_LOOP('',(#33,#34,#35,#36));
#166=EDGE_LOOP('',(#37,#38,#39,#40));
#167=EDGE_LOOP('',(#41,#42,#43,#44));
#168=EDGE_LOOP('',(#45,#46,#47,#48));
#169=EDGE_LOOP('',(#49,#50,#51,#52));
#170=EDGE_LOOP('',(#53,#54,#55,#56));
#171=EDGE_LOOP('',(#57,#58,#59,#60,#61,#62,#63,#64,#65));
#172=EDGE_LOOP('',(#66,#67,#68,#69,#70,#71,#72,#73,#74));
#173=FACE_BOUND('',#162,.T.);
#174=FACE_BOUND('',#163,.T.);
#175=FACE_BOUND('',#164,.T.);
#176=FACE_BOUND('',#165,.T.);
#177=FACE_BOUND('',#166,.T.);
#178=FACE_BOUND('',#167,.T.);
#179=FACE_BOUND('',#168,.T.);
#180=FACE_BOUND('',#169,.T.);
#181=FACE_BOUND('',#170,.T.);
#182=FACE_BOUND('',#171,.T.);
#183=FACE_BOUND('',#172,.T.);
#184=PLANE('',#216);
#185=PLANE('',#217);
#186=PLANE('',#218);
#187=PLANE('',#219);
#188=PLANE('',#220);
#189=PLANE('',#230);
#190=PLANE('',#231);
#191=PLANE('',#232);
#192=ADVANCED_FACE('',(#173),#184,.T.);
#193=ADVANCED_FACE('',(#174),#185,.T.);
#194=ADVANCED_FACE('',(#175),#186,.T.);
#195=ADVANCED_FACE('',(#176),#187,.T.);
#196=ADVANCED_FACE('',(#177),#188,.T.);
#197=ADVANCED_FACE('',(#178),#18,.T.);
#198=ADVANCED_FACE('',(#179),#19,.T.);
#199=ADVANCED_FACE('',(#180),#20,.T.);
#200=ADVANCED_FACE('',(#181),#189,.T.);
#201=ADVANCED_FACE('',(#182),#190,.T.);
#202=ADVANCED_FACE('',(#183),#191,.F.);
#203=CLOSED_SHELL('',(#192,#193,#194,#195,#196,#197,#198,#199,#200,#201,
#202));
#204=STYLED_ITEM('',(#205),#212);
#205=PRESENTATION_STYLE_ASSIGNMENT((#206));
#206=SURFACE_STYLE_USAGE(.BOTH.,#207);
#207=SURFACE_SIDE_STYLE('',(#208));
#208=SURFACE_STYLE_FILL_AREA(#209);
#209=FILL_AREA_STYLE('',(#210));
#210=FILL_AREA_STYLE_COLOUR('',#211);
#211=COLOUR_RGB('',0.325490196078431,0.529411764705882,0.752941176470588);
#212=MANIFOLD_SOLID_BREP('Part 19',#203);
#213=SHAPE_DEFINITION_REPRESENTATION(#353,#214);
#214=SHAPE_REPRESENTATION('Part 19',(#215),#348);
#215=AXIS2_PLACEMENT_3D('',#290,#233,#234);
#216=AXIS2_PLACEMENT_3D('',#291,#235,#236);
#217=AXIS2_PLACEMENT_3D('',#300,#241,#242);
#218=AXIS2_PLACEMENT_3D('',#306,#246,#247);
#219=AXIS2_PLACEMENT_3D('',#312,#251,#252);
#220=AXIS2_PLACEMENT_3D('',#318,#256,#257);
#221=AXIS2_PLACEMENT_3D('',#324,#261,#262);
#222=AXIS2_PLACEMENT_3D('',#325,#263,#264);
#223=AXIS2_PLACEMENT_3D('',#329,#266,#267);
#224=AXIS2_PLACEMENT_3D('',#330,#268,#269);
#225=AXIS2_PLACEMENT_3D('',#331,#270,#271);
#226=AXIS2_PLACEMENT_3D('',#335,#273,#274);
#227=AXIS2_PLACEMENT_3D('',#336,#275,#276);
#228=AXIS2_PLACEMENT_3D('',#337,#277,#278);
#229=AXIS2_PLACEMENT_3D('',#341,#280,#281);
#230=AXIS2_PLACEMENT_3D('',#342,#282,#283);
#231=AXIS2_PLACEMENT_3D('',#345,#286,#287);
#232=AXIS2_PLACEMENT_3D('',#346,#288,#289);
#233=DIRECTION('',(0.,0.,1.));
#234=DIRECTION('',(1.,0.,0.));
#235=DIRECTION('',(0.,-1.,0.));
#236=DIRECTION('',(0.,0.,-1.));
#237=DIRECTION('',(-1.,0.,0.));
#238=DIRECTION('',(0.,0.,-1.));
#239=DIRECTION('',(-1.,0.,0.));
#240=DIRECTION('',(0.,0.,-1.));
#241=DIRECTION('',(1.,0.,0.));
#242=DIRECTION('',(0.,0.,-1.));
#243=DIRECTION('',(0.,-1.,0.));
#244=DIRECTION('',(0.,0.,-1.));
#245=DIRECTION('',(0.,-1.,0.));
#246=DIRECTION('',(0.,1.,0.));
#247=DIRECTION('',(0.,0.,1.));
#248=DIRECTION('',(1.,0.,0.));
#249=DIRECTION('',(0.,0.,-1.));
#250=DIRECTION('',(1.,0.,0.));
#251=DIRECTION('',(-0.611764018259383,0.791040318797426,0.));
#252=DIRECTION('',(-0.791040318797426,-0.611764018259383,0.));
#253=DIRECTION('',(0.791040318797426,0.611764018259383,0.));
#254=DIRECTION('',(0.,0.,-1.));
#255=DIRECTION('',(0.791040318797426,0.611764018259383,0.));
#256=DIRECTION('',(-0.791382768118942,-0.611320958518847,0.));
#257=DIRECTION('',(0.611320958518847,-0.791382768118942,0.));
#258=DIRECTION('',(-0.611320958518847,0.791382768118942,0.));
#259=DIRECTION('',(0.,0.,-1.));
#260=DIRECTION('',(-0.611320958518847,0.791382768118942,0.));
#261=DIRECTION('',(0.,0.,-1.));
#262=DIRECTION('',(0.635242578883301,-0.772312673710391,0.));
#263=DIRECTION('',(0.,0.,-1.));
#264=DIRECTION('',(-1.,0.,0.));
#265=DIRECTION('',(0.,0.,-1.));
#266=DIRECTION('',(0.,0.,-1.));
#267=DIRECTION('',(-1.,0.,0.));
#268=DIRECTION('',(0.,0.,-1.));
#269=DIRECTION('',(0.68503987720106,-0.728505570770984,0.));
#270=DIRECTION('',(0.,0.,-1.));
#271=DIRECTION('',(-1.,0.,0.));
#272=DIRECTION('',(0.,0.,-1.));
#273=DIRECTION('',(0.,0.,-1.));
#274=DIRECTION('',(-1.,0.,0.));
#275=DIRECTION('',(0.,0.,-1.));
#276=DIRECTION('',(-0.999450599758843,0.03314360634705,0.));
#277=DIRECTION('',(0.,0.,-1.));
#278=DIRECTION('',(-1.,0.,0.));
#279=DIRECTION('',(0.,0.,-1.));
#280=DIRECTION('',(0.,0.,-1.));
#281=DIRECTION('',(-1.,0.,0.));
#282=DIRECTION('',(-1.,0.,0.));
#283=DIRECTION('',(0.,0.,1.));
#284=DIRECTION('',(0.,1.,0.));
#285=DIRECTION('',(0.,1.,0.));
#286=DIRECTION('',(0.,0.,1.));
#287=DIRECTION('',(1.,0.,0.));
#288=DIRECTION('',(0.,0.,1.));
#289=DIRECTION('',(1.,0.,0.));
#290=CARTESIAN_POINT('',(0.,0.,0.));
#291=CARTESIAN_POINT('',(-0.0410911815943421,0.0104363232478514,0.0232));
#292=CARTESIAN_POINT('',(-0.0410911815943421,0.0104363232478514,0.0222));
#293=CARTESIAN_POINT('',(-0.0408166590248977,0.0104363232478514,0.0222));
#294=CARTESIAN_POINT('',(-0.0413657041637865,0.0104363232478514,0.0222));
#295=CARTESIAN_POINT('',(-0.0408166590248977,0.0104363232478514,0.0232));
#296=CARTESIAN_POINT('',(-0.0408166590248977,0.0104363232478514,0.0232));
#297=CARTESIAN_POINT('',(-0.0410911815943421,0.0104363232478514,0.0232));
#298=CARTESIAN_POINT('',(-0.0413657041637865,0.0104363232478514,0.0232));
#299=CARTESIAN_POINT('',(-0.0413657041637865,0.0104363232478514,0.0232));
#300=CARTESIAN_POINT('',(-0.0408166590248977,0.0129151643936847,0.0232));
#301=CARTESIAN_POINT('',(-0.0408166590248977,0.0129151643936847,0.0222));
#302=CARTESIAN_POINT('',(-0.0408166590248977,0.015394005539518,0.0222));
#303=CARTESIAN_POINT('',(-0.0408166590248977,0.015394005539518,0.0232));
#304=CARTESIAN_POINT('',(-0.0408166590248977,0.015394005539518,0.0232));
#305=CARTESIAN_POINT('',(-0.0408166590248977,0.0129151643936847,0.0232));
#306=CARTESIAN_POINT('',(-0.0410537466985088,0.015394005539518,0.0232));
#307=CARTESIAN_POINT('',(-0.0410537466985088,0.015394005539518,0.0222));
#308=CARTESIAN_POINT('',(-0.0412908343721199,0.015394005539518,0.0222));
#309=CARTESIAN_POINT('',(-0.0412908343721199,0.015394005539518,0.0232));
#310=CARTESIAN_POINT('',(-0.0412908343721199,0.015394005539518,0.0232));
#311=CARTESIAN_POINT('',(-0.0410537466985088,0.015394005539518,0.0232));
#312=CARTESIAN_POINT('',(-0.0419467588512865,0.0148867355742403,0.0232));
#313=CARTESIAN_POINT('',(-0.0419467588512865,0.0148867355742403,0.0222));
#314=CARTESIAN_POINT('',(-0.0426026833304533,0.0143794656089625,0.0222));
#315=CARTESIAN_POINT('',(-0.0426026833304533,0.0143794656089625,0.0232));
#316=CARTESIAN_POINT('',(-0.0426026833304533,0.0143794656089625,0.0232));
#317=CARTESIAN_POINT('',(-0.0419467588512865,0.0148867355742403,0.0232));
#318=CARTESIAN_POINT('',(-0.0424534862818421,0.0141863232478514,0.0232));
#319=CARTESIAN_POINT('',(-0.0424534862818421,0.0141863232478514,0.0222));
#320=CARTESIAN_POINT('',(-0.0423044961405407,0.0139934487376576,0.0222));
#321=CARTESIAN_POINT('',(-0.0423044961405407,0.0139934487376576,0.0232));
#322=CARTESIAN_POINT('',(-0.0423044961405407,0.0139934487376576,0.0232));
#323=CARTESIAN_POINT('',(-0.0424534862818421,0.0141863232478514,0.0232));
#324=CARTESIAN_POINT('',(-0.0913603712225834,0.0747734707634445,0.0232));
#325=CARTESIAN_POINT('',(-0.0913603712225834,0.0747734707634445,0.0222));
#326=CARTESIAN_POINT('',(-0.0414973533468872,0.0146542983252824,0.0222));
#327=CARTESIAN_POINT('',(-0.0414975401012865,0.0146545307131292,0.0232));
#328=CARTESIAN_POINT('',(-0.0414973533468872,0.0146542983252824,0.0232));
#329=CARTESIAN_POINT('',(-0.0913603712225834,0.0747734707634445,0.0232));
#330=CARTESIAN_POINT('',(-0.0434770043638643,0.0169249665526599,0.0232));
#331=CARTESIAN_POINT('',(-0.0434770043638643,0.0169249665526599,0.0222));
#332=CARTESIAN_POINT('',(-0.0413387359172815,0.0148034911098791,0.0222));
#333=CARTESIAN_POINT('',(-0.0413387359172141,0.0148034911098487,0.0232));
#334=CARTESIAN_POINT('',(-0.0413387359172815,0.0148034911098791,0.0232));
#335=CARTESIAN_POINT('',(-0.0434770043638643,0.0169249665526599,0.0232));
#336=CARTESIAN_POINT('',(-0.0292117894454492,0.0139959044860545,0.0232));
#337=CARTESIAN_POINT('',(-0.0292117894454492,0.0139959044860545,0.0222));
#338=CARTESIAN_POINT('',(-0.0413656358031614,0.0139693095085488,0.0222));
#339=CARTESIAN_POINT('',(-0.0413657041637865,0.0139693093589625,0.0232));
#340=CARTESIAN_POINT('',(-0.0413656358031613,0.0139693095085488,0.02319999975));
#341=CARTESIAN_POINT('',(-0.0292117894454492,0.0139959044860545,0.0232));
#342=CARTESIAN_POINT('',(-0.0413657041637865,0.0122028163034069,0.0232));
#343=CARTESIAN_POINT('',(-0.0413657041637865,0.0122028163034069,0.0222));
#344=CARTESIAN_POINT('',(-0.0413657041637865,0.0122028163034069,0.0232));
#345=CARTESIAN_POINT('',(-0.035336010574676,0.0221931616239257,0.0232));
#346=CARTESIAN_POINT('',(-0.035336010574676,0.0221931616239257,0.0222));
#347=MECHANICAL_DESIGN_GEOMETRIC_PRESENTATION_REPRESENTATION('',(#204),
#348);
#348=(
GEOMETRIC_REPRESENTATION_CONTEXT(3)
GLOBAL_UNCERTAINTY_ASSIGNED_CONTEXT((#349))
GLOBAL_UNIT_ASSIGNED_CONTEXT((#352,#351,#350))
REPRESENTATION_CONTEXT('Part 19','TOP_LEVEL_ASSEMBLY_PART')
);
#349=UNCERTAINTY_MEASURE_WITH_UNIT(LENGTH_MEASURE(2.2E-6),#352,
'DISTANCE_ACCURACY_VALUE','Maximum Tolerance applied to model');
#350=(
NAMED_UNIT(*)
SI_UNIT($,.STERADIAN.)
SOLID_ANGLE_UNIT()
);
#351=(
NAMED_UNIT(*)
PLANE_ANGLE_UNIT()
SI_UNIT($,.RADIAN.)
);
#352=(
LENGTH_UNIT()
NAMED_UNIT(*)
SI_UNIT($,.METRE.)
);
#353=PRODUCT_DEFINITION_SHAPE('','',#354);
#354=PRODUCT_DEFINITION('','',#356,#355);
#355=PRODUCT_DEFINITION_CONTEXT('',#362,'design');
#356=PRODUCT_DEFINITION_FORMATION_WITH_SPECIFIED_SOURCE('','',#358,
 .NOT_KNOWN.);
#357=PRODUCT_RELATED_PRODUCT_CATEGORY('','',(#358));
#358=PRODUCT('Part 19','Part 19','Part 19',(#360));
#359=PRODUCT_CATEGORY('','');
#360=PRODUCT_CONTEXT('',#362,'mechanical');
#361=APPLICATION_PROTOCOL_DEFINITION('international standard',
'ap242_managed_model_based_3d_engineering',2020,#362);
#362=APPLICATION_CONTEXT('managed model based 3d engineering');
ENDSEC;
END-ISO-10303-21;
