ISO-10303-21;
HEADER;
/* Generated by software containing ST-Developer
 * from STEP Tools, Inc. (www.steptools.com) 
 */
/* OPTION: using custom renumber hook */

FILE_DESCRIPTION(
/* description */ ('STEP AP242 Edition 2',
'CAx-IF Rec.Pracs.---Representation and Presentation of Product Manufa
cturing Information (PMI)---4.0---2014-10-13',
'CAx-IF Rec.Pracs.---3D Tessellated Geometry---0.4---2014-09-14','2;1',
'CAx-IF Rec.Pracs.---User Defined Attributes---1.5---2016-08-15'),
/* implementation_level */ '2;1');

FILE_NAME(
/* name */ 'Part Studio 1 - Part 17',
/* time_stamp */ '2026-09-06T11:57:17Z',
/* author */ (''),
/* organization */ (''),
/* preprocessor_version */ 'ST-DEVELOPER v20',
/* originating_system */ 'ONSHAPE BY PTC INC, 1.220',
/* authorisation */ '  ');

FILE_SCHEMA (('AP242_MANAGED_MODEL_BASED_3D_ENGINEERING_MIM_LF { 1 0 10303 442 3 1 4 }'));
ENDSEC;

DATA;
#10=SHAPE_REPRESENTATION_RELATIONSHIP('','',#511,#11);
#11=ADVANCED_BREP_SHAPE_REPRESENTATION('',(#509),#897);
#12=PLANE('',#513);
#13=PLANE('',#514);
#14=PLANE('',#515);
#15=PLANE('',#516);
#16=PLANE('',#517);
#17=PLANE('',#518);
#18=PLANE('',#519);
#19=PLANE('',#520);
#20=PLANE('',#521);
#21=PLANE('',#522);
#22=PLANE('',#523);
#23=PLANE('',#524);
#24=LINE('',#609,#68);
#25=LINE('',#615,#69);
#26=LINE('',#628,#70);
#27=LINE('',#645,#71);
#28=LINE('',#662,#72);
#29=LINE('',#679,#73);
#30=LINE('',#696,#74);
#31=LINE('',#713,#75);
#32=LINE('',#719,#76);
#33=LINE('',#721,#77);
#34=LINE('',#723,#78);
#35=LINE('',#725,#79);
#36=LINE('',#728,#80);
#37=LINE('',#730,#81);
#38=LINE('',#732,#82);
#39=LINE('',#734,#83);
#40=LINE('',#736,#84);
#41=LINE('',#738,#85);
#42=LINE('',#740,#86);
#43=LINE('',#742,#87);
#44=LINE('',#744,#88);
#45=LINE('',#746,#89);
#46=LINE('',#748,#90);
#47=LINE('',#750,#91);
#48=LINE('',#752,#92);
#49=LINE('',#754,#93);
#50=LINE('',#756,#94);
#51=LINE('',#758,#95);
#52=LINE('',#760,#96);
#53=LINE('',#762,#97);
#54=LINE('',#764,#98);
#55=LINE('',#766,#99);
#56=LINE('',#768,#100);
#57=LINE('',#770,#101);
#58=LINE('',#772,#102);
#59=LINE('',#774,#103);
#60=LINE('',#776,#104);
#61=LINE('',#778,#105);
#62=LINE('',#780,#106);
#63=LINE('',#793,#107);
#64=LINE('',#810,#108);
#65=LINE('',#827,#109);
#66=LINE('',#844,#110);
#67=LINE('',#861,#111);
#68=VECTOR('',#527,1.);
#69=VECTOR('',#528,1.);
#70=VECTOR('',#529,1.);
#71=VECTOR('',#530,1.);
#72=VECTOR('',#531,1.);
#73=VECTOR('',#532,1.);
#74=VECTOR('',#533,1.);
#75=VECTOR('',#534,1.);
#76=VECTOR('',#537,1.);
#77=VECTOR('',#538,1.);
#78=VECTOR('',#539,1.);
#79=VECTOR('',#542,1.);
#80=VECTOR('',#543,1.);
#81=VECTOR('',#544,1.);
#82=VECTOR('',#545,1.);
#83=VECTOR('',#548,1.);
#84=VECTOR('',#549,1.);
#85=VECTOR('',#550,1.);
#86=VECTOR('',#553,1.);
#87=VECTOR('',#554,1.);
#88=VECTOR('',#555,1.);
#89=VECTOR('',#558,1.);
#90=VECTOR('',#559,1.);
#91=VECTOR('',#560,1.);
#92=VECTOR('',#563,1.);
#93=VECTOR('',#564,1.);
#94=VECTOR('',#565,1.);
#95=VECTOR('',#568,1.);
#96=VECTOR('',#569,1.);
#97=VECTOR('',#570,1.);
#98=VECTOR('',#573,1.);
#99=VECTOR('',#574,1.);
#100=VECTOR('',#575,1.);
#101=VECTOR('',#578,1.);
#102=VECTOR('',#579,1.);
#103=VECTOR('',#580,1.);
#104=VECTOR('',#583,1.);
#105=VECTOR('',#584,1.);
#106=VECTOR('',#585,1.);
#107=VECTOR('',#586,1.);
#108=VECTOR('',#587,1.);
#109=VECTOR('',#588,1.);
#110=VECTOR('',#589,1.);
#111=VECTOR('',#590,1.);
#112=ORIENTED_EDGE('',*,*,#256,.F.);
#113=ORIENTED_EDGE('',*,*,#257,.F.);
#114=ORIENTED_EDGE('',*,*,#258,.T.);
#115=ORIENTED_EDGE('',*,*,#259,.T.);
#116=ORIENTED_EDGE('',*,*,#260,.F.);
#117=ORIENTED_EDGE('',*,*,#261,.F.);
#118=ORIENTED_EDGE('',*,*,#262,.T.);
#119=ORIENTED_EDGE('',*,*,#257,.T.);
#120=ORIENTED_EDGE('',*,*,#263,.F.);
#121=ORIENTED_EDGE('',*,*,#264,.F.);
#122=ORIENTED_EDGE('',*,*,#265,.T.);
#123=ORIENTED_EDGE('',*,*,#261,.T.);
#124=ORIENTED_EDGE('',*,*,#266,.F.);
#125=ORIENTED_EDGE('',*,*,#267,.F.);
#126=ORIENTED_EDGE('',*,*,#268,.T.);
#127=ORIENTED_EDGE('',*,*,#264,.T.);
#128=ORIENTED_EDGE('',*,*,#269,.F.);
#129=ORIENTED_EDGE('',*,*,#270,.F.);
#130=ORIENTED_EDGE('',*,*,#271,.T.);
#131=ORIENTED_EDGE('',*,*,#267,.T.);
#132=ORIENTED_EDGE('',*,*,#272,.F.);
#133=ORIENTED_EDGE('',*,*,#273,.F.);
#134=ORIENTED_EDGE('',*,*,#274,.T.);
#135=ORIENTED_EDGE('',*,*,#270,.T.);
#136=ORIENTED_EDGE('',*,*,#275,.F.);
#137=ORIENTED_EDGE('',*,*,#276,.F.);
#138=ORIENTED_EDGE('',*,*,#277,.T.);
#139=ORIENTED_EDGE('',*,*,#273,.T.);
#140=ORIENTED_EDGE('',*,*,#278,.F.);
#141=ORIENTED_EDGE('',*,*,#279,.F.);
#142=ORIENTED_EDGE('',*,*,#280,.T.);
#143=ORIENTED_EDGE('',*,*,#276,.T.);
#144=ORIENTED_EDGE('',*,*,#281,.F.);
#145=ORIENTED_EDGE('',*,*,#282,.F.);
#146=ORIENTED_EDGE('',*,*,#283,.T.);
#147=ORIENTED_EDGE('',*,*,#284,.T.);
#148=ORIENTED_EDGE('',*,*,#285,.F.);
#149=ORIENTED_EDGE('',*,*,#286,.F.);
#150=ORIENTED_EDGE('',*,*,#287,.T.);
#151=ORIENTED_EDGE('',*,*,#282,.T.);
#152=ORIENTED_EDGE('',*,*,#288,.F.);
#153=ORIENTED_EDGE('',*,*,#289,.F.);
#154=ORIENTED_EDGE('',*,*,#290,.T.);
#155=ORIENTED_EDGE('',*,*,#286,.T.);
#156=ORIENTED_EDGE('',*,*,#291,.F.);
#157=ORIENTED_EDGE('',*,*,#292,.F.);
#158=ORIENTED_EDGE('',*,*,#293,.T.);
#159=ORIENTED_EDGE('',*,*,#289,.T.);
#160=ORIENTED_EDGE('',*,*,#294,.F.);
#161=ORIENTED_EDGE('',*,*,#295,.F.);
#162=ORIENTED_EDGE('',*,*,#296,.T.);
#163=ORIENTED_EDGE('',*,*,#292,.T.);
#164=ORIENTED_EDGE('',*,*,#297,.F.);
#165=ORIENTED_EDGE('',*,*,#298,.F.);
#166=ORIENTED_EDGE('',*,*,#299,.T.);
#167=ORIENTED_EDGE('',*,*,#295,.T.);
#168=ORIENTED_EDGE('',*,*,#300,.F.);
#169=ORIENTED_EDGE('',*,*,#301,.F.);
#170=ORIENTED_EDGE('',*,*,#302,.T.);
#171=ORIENTED_EDGE('',*,*,#298,.T.);
#172=ORIENTED_EDGE('',*,*,#303,.F.);
#173=ORIENTED_EDGE('',*,*,#304,.F.);
#174=ORIENTED_EDGE('',*,*,#305,.T.);
#175=ORIENTED_EDGE('',*,*,#301,.T.);
#176=ORIENTED_EDGE('',*,*,#306,.F.);
#177=ORIENTED_EDGE('',*,*,#307,.F.);
#178=ORIENTED_EDGE('',*,*,#308,.T.);
#179=ORIENTED_EDGE('',*,*,#304,.T.);
#180=ORIENTED_EDGE('',*,*,#309,.F.);
#181=ORIENTED_EDGE('',*,*,#310,.F.);
#182=ORIENTED_EDGE('',*,*,#311,.T.);
#183=ORIENTED_EDGE('',*,*,#307,.T.);
#184=ORIENTED_EDGE('',*,*,#312,.F.);
#185=ORIENTED_EDGE('',*,*,#313,.F.);
#186=ORIENTED_EDGE('',*,*,#314,.T.);
#187=ORIENTED_EDGE('',*,*,#310,.T.);
#188=ORIENTED_EDGE('',*,*,#315,.F.);
#189=ORIENTED_EDGE('',*,*,#316,.F.);
#190=ORIENTED_EDGE('',*,*,#317,.T.);
#191=ORIENTED_EDGE('',*,*,#313,.T.);
#192=ORIENTED_EDGE('',*,*,#318,.F.);
#193=ORIENTED_EDGE('',*,*,#319,.F.);
#194=ORIENTED_EDGE('',*,*,#320,.T.);
#195=ORIENTED_EDGE('',*,*,#316,.T.);
#196=ORIENTED_EDGE('',*,*,#321,.F.);
#197=ORIENTED_EDGE('',*,*,#322,.F.);
#198=ORIENTED_EDGE('',*,*,#323,.T.);
#199=ORIENTED_EDGE('',*,*,#319,.T.);
#200=ORIENTED_EDGE('',*,*,#324,.F.);
#201=ORIENTED_EDGE('',*,*,#284,.F.);
#202=ORIENTED_EDGE('',*,*,#325,.T.);
#203=ORIENTED_EDGE('',*,*,#322,.T.);
#204=ORIENTED_EDGE('',*,*,#326,.F.);
#205=ORIENTED_EDGE('',*,*,#259,.F.);
#206=ORIENTED_EDGE('',*,*,#327,.T.);
#207=ORIENTED_EDGE('',*,*,#279,.T.);
#208=ORIENTED_EDGE('',*,*,#283,.F.);
#209=ORIENTED_EDGE('',*,*,#287,.F.);
#210=ORIENTED_EDGE('',*,*,#290,.F.);
#211=ORIENTED_EDGE('',*,*,#293,.F.);
#212=ORIENTED_EDGE('',*,*,#296,.F.);
#213=ORIENTED_EDGE('',*,*,#299,.F.);
#214=ORIENTED_EDGE('',*,*,#302,.F.);
#215=ORIENTED_EDGE('',*,*,#305,.F.);
#216=ORIENTED_EDGE('',*,*,#308,.F.);
#217=ORIENTED_EDGE('',*,*,#311,.F.);
#218=ORIENTED_EDGE('',*,*,#314,.F.);
#219=ORIENTED_EDGE('',*,*,#317,.F.);
#220=ORIENTED_EDGE('',*,*,#320,.F.);
#221=ORIENTED_EDGE('',*,*,#323,.F.);
#222=ORIENTED_EDGE('',*,*,#325,.F.);
#223=ORIENTED_EDGE('',*,*,#258,.F.);
#224=ORIENTED_EDGE('',*,*,#262,.F.);
#225=ORIENTED_EDGE('',*,*,#265,.F.);
#226=ORIENTED_EDGE('',*,*,#268,.F.);
#227=ORIENTED_EDGE('',*,*,#271,.F.);
#228=ORIENTED_EDGE('',*,*,#274,.F.);
#229=ORIENTED_EDGE('',*,*,#277,.F.);
#230=ORIENTED_EDGE('',*,*,#280,.F.);
#231=ORIENTED_EDGE('',*,*,#327,.F.);
#232=ORIENTED_EDGE('',*,*,#281,.T.);
#233=ORIENTED_EDGE('',*,*,#324,.T.);
#234=ORIENTED_EDGE('',*,*,#321,.T.);
#235=ORIENTED_EDGE('',*,*,#318,.T.);
#236=ORIENTED_EDGE('',*,*,#315,.T.);
#237=ORIENTED_EDGE('',*,*,#312,.T.);
#238=ORIENTED_EDGE('',*,*,#309,.T.);
#239=ORIENTED_EDGE('',*,*,#306,.T.);
#240=ORIENTED_EDGE('',*,*,#303,.T.);
#241=ORIENTED_EDGE('',*,*,#300,.T.);
#242=ORIENTED_EDGE('',*,*,#297,.T.);
#243=ORIENTED_EDGE('',*,*,#294,.T.);
#244=ORIENTED_EDGE('',*,*,#291,.T.);
#245=ORIENTED_EDGE('',*,*,#288,.T.);
#246=ORIENTED_EDGE('',*,*,#285,.T.);
#247=ORIENTED_EDGE('',*,*,#256,.T.);
#248=ORIENTED_EDGE('',*,*,#326,.T.);
#249=ORIENTED_EDGE('',*,*,#278,.T.);
#250=ORIENTED_EDGE('',*,*,#275,.T.);
#251=ORIENTED_EDGE('',*,*,#272,.T.);
#252=ORIENTED_EDGE('',*,*,#269,.T.);
#253=ORIENTED_EDGE('',*,*,#266,.T.);
#254=ORIENTED_EDGE('',*,*,#263,.T.);
#255=ORIENTED_EDGE('',*,*,#260,.T.);
#256=EDGE_CURVE('',#328,#329,#376,.T.);
#257=EDGE_CURVE('',#330,#328,#24,.T.);
#258=EDGE_CURVE('',#330,#331,#377,.T.);
#259=EDGE_CURVE('',#331,#329,#25,.T.);
#260=EDGE_CURVE('',#332,#328,#378,.T.);
#261=EDGE_CURVE('',#333,#332,#26,.T.);
#262=EDGE_CURVE('',#333,#330,#379,.T.);
#263=EDGE_CURVE('',#334,#332,#380,.T.);
#264=EDGE_CURVE('',#335,#334,#27,.T.);
#265=EDGE_CURVE('',#335,#333,#381,.T.);
#266=EDGE_CURVE('',#336,#334,#382,.T.);
#267=EDGE_CURVE('',#337,#336,#28,.T.);
#268=EDGE_CURVE('',#337,#335,#383,.T.);
#269=EDGE_CURVE('',#338,#336,#384,.T.);
#270=EDGE_CURVE('',#339,#338,#29,.T.);
#271=EDGE_CURVE('',#339,#337,#385,.T.);
#272=EDGE_CURVE('',#340,#338,#386,.T.);
#273=EDGE_CURVE('',#341,#340,#30,.T.);
#274=EDGE_CURVE('',#341,#339,#387,.T.);
#275=EDGE_CURVE('',#342,#340,#388,.T.);
#276=EDGE_CURVE('',#343,#342,#31,.T.);
#277=EDGE_CURVE('',#343,#341,#389,.T.);
#278=EDGE_CURVE('',#344,#342,#32,.T.);
#279=EDGE_CURVE('',#345,#344,#33,.T.);
#280=EDGE_CURVE('',#345,#343,#34,.T.);
#281=EDGE_CURVE('',#346,#347,#35,.T.);
#282=EDGE_CURVE('',#348,#346,#36,.T.);
#283=EDGE_CURVE('',#348,#349,#37,.T.);
#284=EDGE_CURVE('',#349,#347,#38,.T.);
#285=EDGE_CURVE('',#350,#346,#39,.T.);
#286=EDGE_CURVE('',#351,#350,#40,.T.);
#287=EDGE_CURVE('',#351,#348,#41,.T.);
#288=EDGE_CURVE('',#352,#350,#42,.T.);
#289=EDGE_CURVE('',#353,#352,#43,.T.);
#290=EDGE_CURVE('',#353,#351,#44,.T.);
#291=EDGE_CURVE('',#354,#352,#45,.T.);
#292=EDGE_CURVE('',#355,#354,#46,.T.);
#293=EDGE_CURVE('',#355,#353,#47,.T.);
#294=EDGE_CURVE('',#356,#354,#48,.T.);
#295=EDGE_CURVE('',#357,#356,#49,.T.);
#296=EDGE_CURVE('',#357,#355,#50,.T.);
#297=EDGE_CURVE('',#358,#356,#51,.T.);
#298=EDGE_CURVE('',#359,#358,#52,.T.);
#299=EDGE_CURVE('',#359,#357,#53,.T.);
#300=EDGE_CURVE('',#360,#358,#54,.T.);
#301=EDGE_CURVE('',#361,#360,#55,.T.);
#302=EDGE_CURVE('',#361,#359,#56,.T.);
#303=EDGE_CURVE('',#362,#360,#57,.T.);
#304=EDGE_CURVE('',#363,#362,#58,.T.);
#305=EDGE_CURVE('',#363,#361,#59,.T.);
#306=EDGE_CURVE('',#364,#362,#60,.T.);
#307=EDGE_CURVE('',#365,#364,#61,.T.);
#308=EDGE_CURVE('',#365,#363,#62,.T.);
#309=EDGE_CURVE('',#366,#364,#390,.T.);
#310=EDGE_CURVE('',#367,#366,#63,.T.);
#311=EDGE_CURVE('',#367,#365,#391,.T.);
#312=EDGE_CURVE('',#368,#366,#392,.T.);
#313=EDGE_CURVE('',#369,#368,#64,.T.);
#314=EDGE_CURVE('',#369,#367,#393,.T.);
#315=EDGE_CURVE('',#370,#368,#394,.T.);
#316=EDGE_CURVE('',#371,#370,#65,.T.);
#317=EDGE_CURVE('',#371,#369,#395,.T.);
#318=EDGE_CURVE('',#372,#370,#396,.T.);
#319=EDGE_CURVE('',#373,#372,#66,.T.);
#320=EDGE_CURVE('',#373,#371,#397,.T.);
#321=EDGE_CURVE('',#374,#372,#398,.T.);
#322=EDGE_CURVE('',#375,#374,#67,.T.);
#323=EDGE_CURVE('',#375,#373,#399,.T.);
#324=EDGE_CURVE('',#347,#374,#400,.T.);
#325=EDGE_CURVE('',#349,#375,#401,.T.);
#326=EDGE_CURVE('',#329,#344,#402,.T.);
#327=EDGE_CURVE('',#331,#345,#403,.T.);
#328=VERTEX_POINT('',#607);
#329=VERTEX_POINT('',#608);
#330=VERTEX_POINT('',#610);
#331=VERTEX_POINT('',#614);
#332=VERTEX_POINT('',#627);
#333=VERTEX_POINT('',#629);
#334=VERTEX_POINT('',#644);
#335=VERTEX_POINT('',#646);
#336=VERTEX_POINT('',#661);
#337=VERTEX_POINT('',#663);
#338=VERTEX_POINT('',#678);
#339=VERTEX_POINT('',#680);
#340=VERTEX_POINT('',#695);
#341=VERTEX_POINT('',#697);
#342=VERTEX_POINT('',#712);
#343=VERTEX_POINT('',#714);
#344=VERTEX_POINT('',#720);
#345=VERTEX_POINT('',#722);
#346=VERTEX_POINT('',#726);
#347=VERTEX_POINT('',#727);
#348=VERTEX_POINT('',#729);
#349=VERTEX_POINT('',#731);
#350=VERTEX_POINT('',#735);
#351=VERTEX_POINT('',#737);
#352=VERTEX_POINT('',#741);
#353=VERTEX_POINT('',#743);
#354=VERTEX_POINT('',#747);
#355=VERTEX_POINT('',#749);
#356=VERTEX_POINT('',#753);
#357=VERTEX_POINT('',#755);
#358=VERTEX_POINT('',#759);
#359=VERTEX_POINT('',#761);
#360=VERTEX_POINT('',#765);
#361=VERTEX_POINT('',#767);
#362=VERTEX_POINT('',#771);
#363=VERTEX_POINT('',#773);
#364=VERTEX_POINT('',#777);
#365=VERTEX_POINT('',#779);
#366=VERTEX_POINT('',#792);
#367=VERTEX_POINT('',#794);
#368=VERTEX_POINT('',#809);
#369=VERTEX_POINT('',#811);
#370=VERTEX_POINT('',#826);
#371=VERTEX_POINT('',#828);
#372=VERTEX_POINT('',#843);
#373=VERTEX_POINT('',#845);
#374=VERTEX_POINT('',#860);
#375=VERTEX_POINT('',#862);
#376=B_SPLINE_CURVE_WITH_KNOTS('',2,(#604,#605,#606),.UNSPECIFIED.,.F.,
 .F.,(3,3),(0.,1.),.PIECEWISE_BEZIER_KNOTS.);
#377=B_SPLINE_CURVE_WITH_KNOTS('',2,(#611,#612,#613),.UNSPECIFIED.,.F.,
 .F.,(3,3),(0.,1.),.PIECEWISE_BEZIER_KNOTS.);
#378=B_SPLINE_CURVE_WITH_KNOTS('',2,(#624,#625,#626),.UNSPECIFIED.,.F.,
 .F.,(3,3),(0.,1.),.PIECEWISE_BEZIER_KNOTS.);
#379=B_SPLINE_CURVE_WITH_KNOTS('',2,(#630,#631,#632),.UNSPECIFIED.,.F.,
 .F.,(3,3),(0.,1.),.PIECEWISE_BEZIER_KNOTS.);
#380=B_SPLINE_CURVE_WITH_KNOTS('',2,(#641,#642,#643),.UNSPECIFIED.,.F.,
 .F.,(3,3),(0.,1.),.PIECEWISE_BEZIER_KNOTS.);
#381=B_SPLINE_CURVE_WITH_KNOTS('',2,(#647,#648,#649),.UNSPECIFIED.,.F.,
 .F.,(3,3),(0.,1.),.PIECEWISE_BEZIER_KNOTS.);
#382=B_SPLINE_CURVE_WITH_KNOTS('',2,(#658,#659,#660),.UNSPECIFIED.,.F.,
 .F.,(3,3),(0.,1.),.PIECEWISE_BEZIER_KNOTS.);
#383=B_SPLINE_CURVE_WITH_KNOTS('',2,(#664,#665,#666),.UNSPECIFIED.,.F.,
 .F.,(3,3),(0.,1.),.PIECEWISE_BEZIER_KNOTS.);
#384=B_SPLINE_CURVE_WITH_KNOTS('',2,(#675,#676,#677),.UNSPECIFIED.,.F.,
 .F.,(3,3),(0.,1.),.PIECEWISE_BEZIER_KNOTS.);
#385=B_SPLINE_CURVE_WITH_KNOTS('',2,(#681,#682,#683),.UNSPECIFIED.,.F.,
 .F.,(3,3),(0.,1.),.PIECEWISE_BEZIER_KNOTS.);
#386=B_SPLINE_CURVE_WITH_KNOTS('',2,(#692,#693,#694),.UNSPECIFIED.,.F.,
 .F.,(3,3),(0.,1.),.PIECEWISE_BEZIER_KNOTS.);
#387=B_SPLINE_CURVE_WITH_KNOTS('',2,(#698,#699,#700),.UNSPECIFIED.,.F.,
 .F.,(3,3),(0.,1.),.PIECEWISE_BEZIER_KNOTS.);
#388=B_SPLINE_CURVE_WITH_KNOTS('',2,(#709,#710,#711),.UNSPECIFIED.,.F.,
 .F.,(3,3),(0.,1.),.PIECEWISE_BEZIER_KNOTS.);
#389=B_SPLINE_CURVE_WITH_KNOTS('',2,(#715,#716,#717),.UNSPECIFIED.,.F.,
 .F.,(3,3),(0.,1.),.PIECEWISE_BEZIER_KNOTS.);
#390=B_SPLINE_CURVE_WITH_KNOTS('',2,(#789,#790,#791),.UNSPECIFIED.,.F.,
 .F.,(3,3),(0.,1.),.PIECEWISE_BEZIER_KNOTS.);
#391=B_SPLINE_CURVE_WITH_KNOTS('',2,(#795,#796,#797),.UNSPECIFIED.,.F.,
 .F.,(3,3),(0.,1.),.PIECEWISE_BEZIER_KNOTS.);
#392=B_SPLINE_CURVE_WITH_KNOTS('',2,(#806,#807,#808),.UNSPECIFIED.,.F.,
 .F.,(3,3),(0.,1.),.PIECEWISE_BEZIER_KNOTS.);
#393=B_SPLINE_CURVE_WITH_KNOTS('',2,(#812,#813,#814),.UNSPECIFIED.,.F.,
 .F.,(3,3),(0.,1.),.PIECEWISE_BEZIER_KNOTS.);
#394=B_SPLINE_CURVE_WITH_KNOTS('',2,(#823,#824,#825),.UNSPECIFIED.,.F.,
 .F.,(3,3),(0.,1.),.PIECEWISE_BEZIER_KNOTS.);
#395=B_SPLINE_CURVE_WITH_KNOTS('',2,(#829,#830,#831),.UNSPECIFIED.,.F.,
 .F.,(3,3),(0.,1.),.PIECEWISE_BEZIER_KNOTS.);
#396=B_SPLINE_CURVE_WITH_KNOTS('',2,(#840,#841,#842),.UNSPECIFIED.,.F.,
 .F.,(3,3),(0.,1.),.PIECEWISE_BEZIER_KNOTS.);
#397=B_SPLINE_CURVE_WITH_KNOTS('',2,(#846,#847,#848),.UNSPECIFIED.,.F.,
 .F.,(3,3),(0.,1.),.PIECEWISE_BEZIER_KNOTS.);
#398=B_SPLINE_CURVE_WITH_KNOTS('',2,(#857,#858,#859),.UNSPECIFIED.,.F.,
 .F.,(3,3),(0.,1.),.PIECEWISE_BEZIER_KNOTS.);
#399=B_SPLINE_CURVE_WITH_KNOTS('',2,(#863,#864,#865),.UNSPECIFIED.,.F.,
 .F.,(3,3),(0.,1.),.PIECEWISE_BEZIER_KNOTS.);
#400=B_SPLINE_CURVE_WITH_KNOTS('',2,(#874,#875,#876),.UNSPECIFIED.,.F.,
 .F.,(3,3),(0.,1.),.PIECEWISE_BEZIER_KNOTS.);
#401=B_SPLINE_CURVE_WITH_KNOTS('',2,(#877,#878,#879),.UNSPECIFIED.,.F.,
 .F.,(3,3),(0.,1.),.PIECEWISE_BEZIER_KNOTS.);
#402=B_SPLINE_CURVE_WITH_KNOTS('',2,(#888,#889,#890),.UNSPECIFIED.,.F.,
 .F.,(3,3),(0.,1.),.PIECEWISE_BEZIER_KNOTS.);
#403=B_SPLINE_CURVE_WITH_KNOTS('',2,(#891,#892,#893),.UNSPECIFIED.,.F.,
 .F.,(3,3),(0.,1.),.PIECEWISE_BEZIER_KNOTS.);
#404=EDGE_LOOP('',(#112,#113,#114,#115));
#405=EDGE_LOOP('',(#116,#117,#118,#119));
#406=EDGE_LOOP('',(#120,#121,#122,#123));
#407=EDGE_LOOP('',(#124,#125,#126,#127));
#408=EDGE_LOOP('',(#128,#129,#130,#131));
#409=EDGE_LOOP('',(#132,#133,#134,#135));
#410=EDGE_LOOP('',(#136,#137,#138,#139));
#411=EDGE_LOOP('',(#140,#141,#142,#143));
#412=EDGE_LOOP('',(#144,#145,#146,#147));
#413=EDGE_LOOP('',(#148,#149,#150,#151));
#414=EDGE_LOOP('',(#152,#153,#154,#155));
#415=EDGE_LOOP('',(#156,#157,#158,#159));
#416=EDGE_LOOP('',(#160,#161,#162,#163));
#417=EDGE_LOOP('',(#164,#165,#166,#167));
#418=EDGE_LOOP('',(#168,#169,#170,#171));
#419=EDGE_LOOP('',(#172,#173,#174,#175));
#420=EDGE_LOOP('',(#176,#177,#178,#179));
#421=EDGE_LOOP('',(#180,#181,#182,#183));
#422=EDGE_LOOP('',(#184,#185,#186,#187));
#423=EDGE_LOOP('',(#188,#189,#190,#191));
#424=EDGE_LOOP('',(#192,#193,#194,#195));
#425=EDGE_LOOP('',(#196,#197,#198,#199));
#426=EDGE_LOOP('',(#200,#201,#202,#203));
#427=EDGE_LOOP('',(#204,#205,#206,#207));
#428=EDGE_LOOP('',(#208,#209,#210,#211,#212,#213,#214,#215,#216,#217,#218,
#219,#220,#221,#222));
#429=EDGE_LOOP('',(#223,#224,#225,#226,#227,#228,#229,#230,#231));
#430=EDGE_LOOP('',(#232,#233,#234,#235,#236,#237,#238,#239,#240,#241,#242,
#243,#244,#245,#246));
#431=EDGE_LOOP('',(#247,#248,#249,#250,#251,#252,#253,#254,#255));
#432=FACE_BOUND('',#404,.T.);
#433=FACE_BOUND('',#405,.T.);
#434=FACE_BOUND('',#406,.T.);
#435=FACE_BOUND('',#407,.T.);
#436=FACE_BOUND('',#408,.T.);
#437=FACE_BOUND('',#409,.T.);
#438=FACE_BOUND('',#410,.T.);
#439=FACE_BOUND('',#411,.T.);
#440=FACE_BOUND('',#412,.T.);
#441=FACE_BOUND('',#413,.T.);
#442=FACE_BOUND('',#414,.T.);
#443=FACE_BOUND('',#415,.T.);
#444=FACE_BOUND('',#416,.T.);
#445=FACE_BOUND('',#417,.T.);
#446=FACE_BOUND('',#418,.T.);
#447=FACE_BOUND('',#419,.T.);
#448=FACE_BOUND('',#420,.T.);
#449=FACE_BOUND('',#421,.T.);
#450=FACE_BOUND('',#422,.T.);
#451=FACE_BOUND('',#423,.T.);
#452=FACE_BOUND('',#424,.T.);
#453=FACE_BOUND('',#425,.T.);
#454=FACE_BOUND('',#426,.T.);
#455=FACE_BOUND('',#427,.T.);
#456=FACE_BOUND('',#428,.T.);
#457=FACE_BOUND('',#429,.T.);
#458=FACE_BOUND('',#430,.T.);
#459=FACE_BOUND('',#431,.T.);
#460=B_SPLINE_SURFACE_WITH_KNOTS('',3,1,((#596,#597),(#598,#599),(#600,
#601),(#602,#603)),.SURF_OF_LINEAR_EXTRUSION.,.F.,.F.,.F.,(4,4),(2,2),(0.,
1.),(0.,1.),.PIECEWISE_BEZIER_KNOTS.);
#461=B_SPLINE_SURFACE_WITH_KNOTS('',3,1,((#616,#617),(#618,#619),(#620,
#621),(#622,#623)),.SURF_OF_LINEAR_EXTRUSION.,.F.,.F.,.F.,(4,4),(2,2),(0.,
1.),(0.,1.),.PIECEWISE_BEZIER_KNOTS.);
#462=B_SPLINE_SURFACE_WITH_KNOTS('',3,1,((#633,#634),(#635,#636),(#637,
#638),(#639,#640)),.SURF_OF_LINEAR_EXTRUSION.,.F.,.F.,.F.,(4,4),(2,2),(0.,
1.),(0.,1.),.PIECEWISE_BEZIER_KNOTS.);
#463=B_SPLINE_SURFACE_WITH_KNOTS('',3,1,((#650,#651),(#652,#653),(#654,
#655),(#656,#657)),.SURF_OF_LINEAR_EXTRUSION.,.F.,.F.,.F.,(4,4),(2,2),(0.,
1.),(0.,1.),.PIECEWISE_BEZIER_KNOTS.);
#464=B_SPLINE_SURFACE_WITH_KNOTS('',3,1,((#667,#668),(#669,#670),(#671,
#672),(#673,#674)),.SURF_OF_LINEAR_EXTRUSION.,.F.,.F.,.F.,(4,4),(2,2),(0.,
1.),(0.,1.),.PIECEWISE_BEZIER_KNOTS.);
#465=B_SPLINE_SURFACE_WITH_KNOTS('',3,1,((#684,#685),(#686,#687),(#688,
#689),(#690,#691)),.SURF_OF_LINEAR_EXTRUSION.,.F.,.F.,.F.,(4,4),(2,2),(0.,
1.),(0.,1.),.PIECEWISE_BEZIER_KNOTS.);
#466=B_SPLINE_SURFACE_WITH_KNOTS('',3,1,((#701,#702),(#703,#704),(#705,
#706),(#707,#708)),.SURF_OF_LINEAR_EXTRUSION.,.F.,.F.,.F.,(4,4),(2,2),(0.,
1.),(0.,1.),.PIECEWISE_BEZIER_KNOTS.);
#467=B_SPLINE_SURFACE_WITH_KNOTS('',3,1,((#781,#782),(#783,#784),(#785,
#786),(#787,#788)),.SURF_OF_LINEAR_EXTRUSION.,.F.,.F.,.F.,(4,4),(2,2),(0.,
1.),(0.,1.),.PIECEWISE_BEZIER_KNOTS.);
#468=B_SPLINE_SURFACE_WITH_KNOTS('',3,1,((#798,#799),(#800,#801),(#802,
#803),(#804,#805)),.SURF_OF_LINEAR_EXTRUSION.,.F.,.F.,.F.,(4,4),(2,2),(0.,
1.),(0.,1.),.PIECEWISE_BEZIER_KNOTS.);
#469=B_SPLINE_SURFACE_WITH_KNOTS('',3,1,((#815,#816),(#817,#818),(#819,
#820),(#821,#822)),.SURF_OF_LINEAR_EXTRUSION.,.F.,.F.,.F.,(4,4),(2,2),(0.,
1.),(0.,1.),.PIECEWISE_BEZIER_KNOTS.);
#470=B_SPLINE_SURFACE_WITH_KNOTS('',3,1,((#832,#833),(#834,#835),(#836,
#837),(#838,#839)),.SURF_OF_LINEAR_EXTRUSION.,.F.,.F.,.F.,(4,4),(2,2),(0.,
1.),(0.,1.),.PIECEWISE_BEZIER_KNOTS.);
#471=B_SPLINE_SURFACE_WITH_KNOTS('',3,1,((#849,#850),(#851,#852),(#853,
#854),(#855,#856)),.SURF_OF_LINEAR_EXTRUSION.,.F.,.F.,.F.,(4,4),(2,2),(0.,
1.),(0.,1.),.PIECEWISE_BEZIER_KNOTS.);
#472=B_SPLINE_SURFACE_WITH_KNOTS('',3,1,((#866,#867),(#868,#869),(#870,
#871),(#872,#873)),.SURF_OF_LINEAR_EXTRUSION.,.F.,.F.,.F.,(4,4),(2,2),(0.,
1.),(0.,1.),.PIECEWISE_BEZIER_KNOTS.);
#473=B_SPLINE_SURFACE_WITH_KNOTS('',3,1,((#880,#881),(#882,#883),(#884,
#885),(#886,#887)),.SURF_OF_LINEAR_EXTRUSION.,.F.,.F.,.F.,(4,4),(2,2),(0.,
1.),(0.,1.),.PIECEWISE_BEZIER_KNOTS.);
#474=ADVANCED_FACE('',(#432),#460,.T.);
#475=ADVANCED_FACE('',(#433),#461,.T.);
#476=ADVANCED_FACE('',(#434),#462,.T.);
#477=ADVANCED_FACE('',(#435),#463,.T.);
#478=ADVANCED_FACE('',(#436),#464,.T.);
#479=ADVANCED_FACE('',(#437),#465,.T.);
#480=ADVANCED_FACE('',(#438),#466,.T.);
#481=ADVANCED_FACE('',(#439),#12,.T.);
#482=ADVANCED_FACE('',(#440),#13,.T.);
#483=ADVANCED_FACE('',(#441),#14,.T.);
#484=ADVANCED_FACE('',(#442),#15,.T.);
#485=ADVANCED_FACE('',(#443),#16,.T.);
#486=ADVANCED_FACE('',(#444),#17,.T.);
#487=ADVANCED_FACE('',(#445),#18,.T.);
#488=ADVANCED_FACE('',(#446),#19,.T.);
#489=ADVANCED_FACE('',(#447),#20,.T.);
#490=ADVANCED_FACE('',(#448),#21,.T.);
#491=ADVANCED_FACE('',(#449),#467,.T.);
#492=ADVANCED_FACE('',(#450),#468,.T.);
#493=ADVANCED_FACE('',(#451),#469,.T.);
#494=ADVANCED_FACE('',(#452),#470,.T.);
#495=ADVANCED_FACE('',(#453),#471,.T.);
#496=ADVANCED_FACE('',(#454),#472,.T.);
#497=ADVANCED_FACE('',(#455),#473,.T.);
#498=ADVANCED_FACE('',(#456,#457),#22,.T.);
#499=ADVANCED_FACE('',(#458,#459),#23,.F.);
#500=CLOSED_SHELL('',(#474,#475,#476,#477,#478,#479,#480,#481,#482,#483,
#484,#485,#486,#487,#488,#489,#490,#491,#492,#493,#494,#495,#496,#497,#498,
#499));
#501=STYLED_ITEM('',(#502),#509);
#502=PRESENTATION_STYLE_ASSIGNMENT((#503));
#503=SURFACE_STYLE_USAGE(.BOTH.,#504);
#504=SURFACE_SIDE_STYLE('',(#505));
#505=SURFACE_STYLE_FILL_AREA(#506);
#506=FILL_AREA_STYLE('',(#507));
#507=FILL_AREA_STYLE_COLOUR('',#508);
#508=COLOUR_RGB('',0.325490196078431,0.529411764705882,0.752941176470588);
#509=MANIFOLD_SOLID_BREP('Part 17',#500);
#510=SHAPE_DEFINITION_REPRESENTATION(#902,#511);
#511=SHAPE_REPRESENTATION('Part 17',(#512),#897);
#512=AXIS2_PLACEMENT_3D('',#595,#525,#526);
#513=AXIS2_PLACEMENT_3D('',#718,#535,#536);
#514=AXIS2_PLACEMENT_3D('',#724,#540,#541);
#515=AXIS2_PLACEMENT_3D('',#733,#546,#547);
#516=AXIS2_PLACEMENT_3D('',#739,#551,#552);
#517=AXIS2_PLACEMENT_3D('',#745,#556,#557);
#518=AXIS2_PLACEMENT_3D('',#751,#561,#562);
#519=AXIS2_PLACEMENT_3D('',#757,#566,#567);
#520=AXIS2_PLACEMENT_3D('',#763,#571,#572);
#521=AXIS2_PLACEMENT_3D('',#769,#576,#577);
#522=AXIS2_PLACEMENT_3D('',#775,#581,#582);
#523=AXIS2_PLACEMENT_3D('',#894,#591,#592);
#524=AXIS2_PLACEMENT_3D('',#895,#593,#594);
#525=DIRECTION('',(0.,0.,1.));
#526=DIRECTION('',(1.,0.,0.));
#527=DIRECTION('',(0.,0.,-1.));
#528=DIRECTION('',(0.,0.,-1.));
#529=DIRECTION('',(0.,0.,-1.));
#530=DIRECTION('',(0.,0.,-1.));
#531=DIRECTION('',(0.,0.,-1.));
#532=DIRECTION('',(0.,0.,-1.));
#533=DIRECTION('',(0.,0.,-1.));
#534=DIRECTION('',(0.,0.,-1.));
#535=DIRECTION('',(-1.,0.,0.));
#536=DIRECTION('',(0.,0.,1.));
#537=DIRECTION('',(0.,1.,0.));
#538=DIRECTION('',(0.,0.,-1.));
#539=DIRECTION('',(0.,1.,0.));
#540=DIRECTION('',(0.,-1.,0.));
#541=DIRECTION('',(0.,0.,-1.));
#542=DIRECTION('',(-1.,0.,0.));
#543=DIRECTION('',(0.,0.,-1.));
#544=DIRECTION('',(-1.,0.,0.));
#545=DIRECTION('',(0.,0.,-1.));
#546=DIRECTION('',(-0.988888894104195,-0.148656500420878,0.));
#547=DIRECTION('',(0.148656500420878,-0.988888894104195,0.));
#548=DIRECTION('',(-0.148656500420878,0.988888894104195,0.));
#549=DIRECTION('',(0.,0.,-1.));
#550=DIRECTION('',(-0.148656500420878,0.988888894104195,0.));
#551=DIRECTION('',(0.,-1.,0.));
#552=DIRECTION('',(0.,0.,-1.));
#553=DIRECTION('',(-1.,0.,0.));
#554=DIRECTION('',(0.,0.,-1.));
#555=DIRECTION('',(-1.,0.,0.));
#556=DIRECTION('',(1.,0.,0.));
#557=DIRECTION('',(0.,0.,-1.));
#558=DIRECTION('',(0.,-1.,0.));
#559=DIRECTION('',(0.,0.,-1.));
#560=DIRECTION('',(0.,-1.,0.));
#561=DIRECTION('',(0.,1.,0.));
#562=DIRECTION('',(0.,0.,1.));
#563=DIRECTION('',(1.,0.,0.));
#564=DIRECTION('',(0.,0.,-1.));
#565=DIRECTION('',(1.,0.,0.));
#566=DIRECTION('',(-1.,0.,0.));
#567=DIRECTION('',(0.,0.,1.));
#568=DIRECTION('',(0.,1.,0.));
#569=DIRECTION('',(0.,0.,-1.));
#570=DIRECTION('',(0.,1.,0.));
#571=DIRECTION('',(-0.998548302510375,-0.0538636013802248,0.));
#572=DIRECTION('',(0.0538636013802248,-0.998548302510376,0.));
#573=DIRECTION('',(-0.0538636013802248,0.998548302510376,0.));
#574=DIRECTION('',(0.,0.,-1.));
#575=DIRECTION('',(-0.0538636013802248,0.998548302510376,0.));
#576=DIRECTION('',(-0.996056818377215,-0.0887176113534409,0.));
#577=DIRECTION('',(0.0887176113534409,-0.996056818377215,0.));
#578=DIRECTION('',(-0.0887176113534409,0.996056818377215,0.));
#579=DIRECTION('',(0.,0.,-1.));
#580=DIRECTION('',(-0.0887176113534409,0.996056818377215,0.));
#581=DIRECTION('',(0.,1.,0.));
#582=DIRECTION('',(0.,0.,1.));
#583=DIRECTION('',(1.,0.,0.));
#584=DIRECTION('',(0.,0.,-1.));
#585=DIRECTION('',(1.,0.,0.));
#586=DIRECTION('',(0.,0.,-1.));
#587=DIRECTION('',(0.,0.,-1.));
#588=DIRECTION('',(0.,0.,-1.));
#589=DIRECTION('',(0.,0.,-1.));
#590=DIRECTION('',(0.,0.,-1.));
#591=DIRECTION('',(0.,0.,1.));
#592=DIRECTION('',(1.,0.,0.));
#593=DIRECTION('',(0.,0.,1.));
#594=DIRECTION('',(1.,0.,0.));
#595=CARTESIAN_POINT('',(0.,0.,0.));
#596=CARTESIAN_POINT('',(-0.0252025936842924,0.021220283289005,0.0232));
#597=CARTESIAN_POINT('',(-0.0252025936842924,0.021220283289005,0.0222));
#598=CARTESIAN_POINT('',(-0.0249323736451301,0.021220283289005,0.0232));
#599=CARTESIAN_POINT('',(-0.0249323736451301,0.021220283289005,0.0222));
#600=CARTESIAN_POINT('',(-0.0247364513945133,0.0212938177441066,0.0232));
#601=CARTESIAN_POINT('',(-0.0247364513945133,0.0212938177441066,0.0222));
#602=CARTESIAN_POINT('',(-0.0246148269324422,0.0214408866543099,0.0232));
#603=CARTESIAN_POINT('',(-0.0246148269324422,0.0214408866543099,0.0222));
#604=CARTESIAN_POINT('',(-0.0252025936842924,0.021220283289005,0.0222));
#605=CARTESIAN_POINT('',(-0.0247972636255489,0.021220283289005,0.0222));
#606=CARTESIAN_POINT('',(-0.0246148269324422,0.0214408866543099,0.0222));
#607=CARTESIAN_POINT('',(-0.0252025936842924,0.021220283289005,0.0222));
#608=CARTESIAN_POINT('',(-0.0246148269324422,0.0214408866543099,0.0222));
#609=CARTESIAN_POINT('',(-0.0252025936842924,0.021220283289005,0.0232));
#610=CARTESIAN_POINT('',(-0.0252025936842924,0.021220283289005,0.0232));
#611=CARTESIAN_POINT('',(-0.0252025936842924,0.021220283289005,0.0232));
#612=CARTESIAN_POINT('',(-0.0247972636255489,0.021220283289005,0.0232));
#613=CARTESIAN_POINT('',(-0.0246148269324422,0.0214408866543099,0.0232));
#614=CARTESIAN_POINT('',(-0.0246148269324422,0.0214408866543099,0.0232));
#615=CARTESIAN_POINT('',(-0.0246148269324422,0.0214408866543099,0.0232));
#616=CARTESIAN_POINT('',(-0.0257418887624511,0.0214756183260101,0.0232));
#617=CARTESIAN_POINT('',(-0.0257418887624511,0.0214756183260101,0.0222));
#618=CARTESIAN_POINT('',(-0.025619500966936,0.0213053949680067,0.0232));
#619=CARTESIAN_POINT('',(-0.025619500966936,0.0213053949680067,0.0222));
#620=CARTESIAN_POINT('',(-0.0254397359408831,0.021220283289005,0.0232));
#621=CARTESIAN_POINT('',(-0.0254397359408831,0.021220283289005,0.0222));
#622=CARTESIAN_POINT('',(-0.0252025936842924,0.021220283289005,0.0232));
#623=CARTESIAN_POINT('',(-0.0252025936842924,0.021220283289005,0.0222));
#624=CARTESIAN_POINT('',(-0.0257418887624511,0.0214756183260101,0.0222));
#625=CARTESIAN_POINT('',(-0.0255583070691784,0.021220283289005,0.0222));
#626=CARTESIAN_POINT('',(-0.0252025936842924,0.021220283289005,0.0222));
#627=CARTESIAN_POINT('',(-0.0257418887624511,0.0214756183260101,0.0222));
#628=CARTESIAN_POINT('',(-0.0257418887624511,0.0214756183260101,0.0232));
#629=CARTESIAN_POINT('',(-0.0257418887624511,0.0214756183260101,0.0232));
#630=CARTESIAN_POINT('',(-0.0257418887624511,0.0214756183260101,0.0232));
#631=CARTESIAN_POINT('',(-0.0255583070691784,0.021220283289005,0.0232));
#632=CARTESIAN_POINT('',(-0.0252025936842924,0.021220283289005,0.0232));
#633=CARTESIAN_POINT('',(-0.0259254704557238,0.0222317001022539,0.0232));
#634=CARTESIAN_POINT('',(-0.0259254704557238,0.0222317001022539,0.0222));
#635=CARTESIAN_POINT('',(-0.0259254704557238,0.0218978689427614,0.0232));
#636=CARTESIAN_POINT('',(-0.0259254704557238,0.0218978689427614,0.0222));
#637=CARTESIAN_POINT('',(-0.0258642765579662,0.0216458416840135,0.0232));
#638=CARTESIAN_POINT('',(-0.0258642765579662,0.0216458416840135,0.0222));
#639=CARTESIAN_POINT('',(-0.0257418887624511,0.0214756183260101,0.0232));
#640=CARTESIAN_POINT('',(-0.0257418887624511,0.0214756183260101,0.0222));
#641=CARTESIAN_POINT('',(-0.0259254704557238,0.0222317001022539,0.0222));
#642=CARTESIAN_POINT('',(-0.0259254704557238,0.0217309533630152,0.0222));
#643=CARTESIAN_POINT('',(-0.0257418887624511,0.0214756183260101,0.0222));
#644=CARTESIAN_POINT('',(-0.0259254704557238,0.0222317001022539,0.0222));
#645=CARTESIAN_POINT('',(-0.0259254704557238,0.0222317001022539,0.0232));
#646=CARTESIAN_POINT('',(-0.0259254704557238,0.0222317001022539,0.0232));
#647=CARTESIAN_POINT('',(-0.0259254704557238,0.0222317001022539,0.0232));
#648=CARTESIAN_POINT('',(-0.0259254704557238,0.0217309533630152,0.0232));
#649=CARTESIAN_POINT('',(-0.0257418887624511,0.0214756183260101,0.0232));
#650=CARTESIAN_POINT('',(-0.0257407437622851,0.0229961785463811,0.0232));
#651=CARTESIAN_POINT('',(-0.0257407437622851,0.0229961785463811,0.0222));
#652=CARTESIAN_POINT('',(-0.0258638948912443,0.022815777409125,0.0232));
#653=CARTESIAN_POINT('',(-0.0258638948912443,0.022815777409125,0.0222));
#654=CARTESIAN_POINT('',(-0.0259254704557238,0.0225609512610825,0.0232));
#655=CARTESIAN_POINT('',(-0.0259254704557238,0.0225609512610825,0.0222));
#656=CARTESIAN_POINT('',(-0.0259254704557238,0.0222317001022539,0.0232));
#657=CARTESIAN_POINT('',(-0.0259254704557238,0.0222317001022539,0.0222));
#658=CARTESIAN_POINT('',(-0.0257407437622851,0.0229961785463811,0.0222));
#659=CARTESIAN_POINT('',(-0.0259254704557238,0.0227255768404969,0.0222));
#660=CARTESIAN_POINT('',(-0.0259254704557238,0.0222317001022539,0.0222));
#661=CARTESIAN_POINT('',(-0.0257407437622851,0.0229961785463811,0.0222));
#662=CARTESIAN_POINT('',(-0.0257407437622851,0.0229961785463811,0.0232));
#663=CARTESIAN_POINT('',(-0.0257407437622851,0.0229961785463811,0.0232));
#664=CARTESIAN_POINT('',(-0.0257407437622851,0.0229961785463811,0.0232));
#665=CARTESIAN_POINT('',(-0.0259254704557238,0.0227255768404969,0.0232));
#666=CARTESIAN_POINT('',(-0.0259254704557238,0.0222317001022539,0.0232));
#667=CARTESIAN_POINT('',(-0.0252071736849562,0.0232667802522654,0.0232));
#668=CARTESIAN_POINT('',(-0.0252071736849562,0.0232667802522654,0.0222));
#669=CARTESIAN_POINT('',(-0.0254397359408831,0.0232667802522654,0.0232));
#670=CARTESIAN_POINT('',(-0.0254397359408831,0.0232667802522654,0.0222));
#671=CARTESIAN_POINT('',(-0.0256175926333261,0.0231765796836374,0.0232));
#672=CARTESIAN_POINT('',(-0.0256175926333261,0.0231765796836374,0.0222));
#673=CARTESIAN_POINT('',(-0.0257407437622851,0.0229961785463811,0.0232));
#674=CARTESIAN_POINT('',(-0.0257407437622851,0.0229961785463811,0.0222));
#675=CARTESIAN_POINT('',(-0.0252071736849562,0.0232667802522654,0.0222));
#676=CARTESIAN_POINT('',(-0.0255560170688465,0.0232667802522654,0.0222));
#677=CARTESIAN_POINT('',(-0.0257407437622851,0.0229961785463811,0.0222));
#678=CARTESIAN_POINT('',(-0.0252071736849562,0.0232667802522654,0.0222));
#679=CARTESIAN_POINT('',(-0.0252071736849562,0.0232667802522654,0.0232));
#680=CARTESIAN_POINT('',(-0.0252071736849562,0.0232667802522654,0.0232));
#681=CARTESIAN_POINT('',(-0.0252071736849562,0.0232667802522654,0.0232));
#682=CARTESIAN_POINT('',(-0.0255560170688465,0.0232667802522654,0.0232));
#683=CARTESIAN_POINT('',(-0.0257407437622851,0.0229961785463811,0.0232));
#684=CARTESIAN_POINT('',(-0.0246171169327741,0.0230293835511934,0.0232));
#685=CARTESIAN_POINT('',(-0.0246171169327741,0.0230293835511934,0.0222));
#686=CARTESIAN_POINT('',(-0.0247402680617332,0.0231876480185748,0.0232));
#687=CARTESIAN_POINT('',(-0.0247402680617332,0.0231876480185748,0.0222));
#688=CARTESIAN_POINT('',(-0.0249369536457939,0.0232667802522654,0.0232));
#689=CARTESIAN_POINT('',(-0.0249369536457939,0.0232667802522654,0.0222));
#690=CARTESIAN_POINT('',(-0.0252071736849562,0.0232667802522654,0.0232));
#691=CARTESIAN_POINT('',(-0.0252071736849562,0.0232667802522654,0.0222));
#692=CARTESIAN_POINT('',(-0.0246171169327741,0.0230293835511934,0.0222));
#693=CARTESIAN_POINT('',(-0.0248018436262127,0.0232667802522654,0.0222));
#694=CARTESIAN_POINT('',(-0.0252071736849562,0.0232667802522654,0.0222));
#695=CARTESIAN_POINT('',(-0.0246171169327741,0.0230293835511934,0.0222));
#696=CARTESIAN_POINT('',(-0.0246171169327741,0.0230293835511934,0.0232));
#697=CARTESIAN_POINT('',(-0.0246171169327741,0.0230293835511934,0.0232));
#698=CARTESIAN_POINT('',(-0.0246171169327741,0.0230293835511934,0.0232));
#699=CARTESIAN_POINT('',(-0.0248018436262127,0.0232667802522654,0.0232));
#700=CARTESIAN_POINT('',(-0.0252071736849562,0.0232667802522654,0.0232));
#701=CARTESIAN_POINT('',(-0.0244323902393354,0.0222362801029176,0.0232));
#702=CARTESIAN_POINT('',(-0.0244323902393354,0.0222362801029176,0.0222));
#703=CARTESIAN_POINT('',(-0.0244323902393354,0.0226067512677202,0.0232));
#704=CARTESIAN_POINT('',(-0.0244323902393354,0.0226067512677202,0.0222));
#705=CARTESIAN_POINT('',(-0.024493965803815,0.0228711190838121,0.0232));
#706=CARTESIAN_POINT('',(-0.024493965803815,0.0228711190838121,0.0222));
#707=CARTESIAN_POINT('',(-0.0246171169327741,0.0230293835511934,0.0232));
#708=CARTESIAN_POINT('',(-0.0246171169327741,0.0230293835511934,0.0222));
#709=CARTESIAN_POINT('',(-0.0244323902393354,0.0222362801029176,0.0222));
#710=CARTESIAN_POINT('',(-0.0244323902393354,0.0227919868501215,0.0222));
#711=CARTESIAN_POINT('',(-0.0246171169327741,0.0230293835511934,0.0222));
#712=CARTESIAN_POINT('',(-0.0244323902393354,0.0222362801029176,0.0222));
#713=CARTESIAN_POINT('',(-0.0244323902393354,0.0222362801029176,0.0232));
#714=CARTESIAN_POINT('',(-0.0244323902393354,0.0222362801029176,0.0232));
#715=CARTESIAN_POINT('',(-0.0244323902393354,0.0222362801029176,0.0232));
#716=CARTESIAN_POINT('',(-0.0244323902393354,0.0227919868501215,0.0232));
#717=CARTESIAN_POINT('',(-0.0246171169327741,0.0230293835511934,0.0232));
#718=CARTESIAN_POINT('',(-0.0244323902393354,0.0221946784302217,0.0232));
#719=CARTESIAN_POINT('',(-0.0244323902393354,0.0221946784302217,0.0222));
#720=CARTESIAN_POINT('',(-0.0244323902393354,0.0221530767575258,0.0222));
#721=CARTESIAN_POINT('',(-0.0244323902393354,0.0221530767575258,0.0232));
#722=CARTESIAN_POINT('',(-0.0244323902393354,0.0221530767575258,0.0232));
#723=CARTESIAN_POINT('',(-0.0244323902393354,0.0221946784302217,0.0232));
#724=CARTESIAN_POINT('',(-0.0244217035711199,0.0212866932986296,0.0232));
#725=CARTESIAN_POINT('',(-0.0244217035711199,0.0212866932986296,0.0222));
#726=CARTESIAN_POINT('',(-0.0244110169029044,0.0212866932986296,0.0222));
#727=CARTESIAN_POINT('',(-0.0244323902393354,0.0212866932986296,0.0222));
#728=CARTESIAN_POINT('',(-0.0244110169029044,0.0212866932986296,0.0232));
#729=CARTESIAN_POINT('',(-0.0244110169029044,0.0212866932986296,0.0232));
#730=CARTESIAN_POINT('',(-0.0244217035711199,0.0212866932986296,0.0232));
#731=CARTESIAN_POINT('',(-0.0244323902393354,0.0212866932986296,0.0232));
#732=CARTESIAN_POINT('',(-0.0244323902393354,0.0212866932986296,0.0232));
#733=CARTESIAN_POINT('',(-0.0243846818990878,0.0211115082732405,0.0232));
#734=CARTESIAN_POINT('',(-0.0243846818990878,0.0211115082732405,0.0222));
#735=CARTESIAN_POINT('',(-0.0243583468952711,0.0209363232478514,0.0222));
#736=CARTESIAN_POINT('',(-0.0243583468952711,0.0209363232478514,0.0232));
#737=CARTESIAN_POINT('',(-0.0243583468952711,0.0209363232478514,0.0232));
#738=CARTESIAN_POINT('',(-0.0243846818990878,0.0211115082732405,0.0232));
#739=CARTESIAN_POINT('',(-0.0241972835385953,0.0209363232478514,0.0232));
#740=CARTESIAN_POINT('',(-0.0241972835385953,0.0209363232478514,0.0222));
#741=CARTESIAN_POINT('',(-0.0240362201819194,0.0209363232478514,0.0222));
#742=CARTESIAN_POINT('',(-0.0240362201819194,0.0209363232478514,0.0232));
#743=CARTESIAN_POINT('',(-0.0240362201819194,0.0209363232478514,0.0232));
#744=CARTESIAN_POINT('',(-0.0241972835385953,0.0209363232478514,0.0232));
#745=CARTESIAN_POINT('',(-0.0240362201819194,0.0227923685168435,0.0232));
#746=CARTESIAN_POINT('',(-0.0240362201819194,0.0227923685168435,0.0222));
#747=CARTESIAN_POINT('',(-0.0240362201819194,0.0246484137858356,0.0222));
#748=CARTESIAN_POINT('',(-0.0240362201819194,0.0246484137858356,0.0232));
#749=CARTESIAN_POINT('',(-0.0240362201819194,0.0246484137858356,0.0232));
#750=CARTESIAN_POINT('',(-0.0240362201819194,0.0227923685168435,0.0232));
#751=CARTESIAN_POINT('',(-0.0242343052106274,0.0246484137858356,0.0232));
#752=CARTESIAN_POINT('',(-0.0242343052106274,0.0246484137858356,0.0222));
#753=CARTESIAN_POINT('',(-0.0244323902393354,0.0246484137858356,0.0222));
#754=CARTESIAN_POINT('',(-0.0244323902393354,0.0246484137858356,0.0232));
#755=CARTESIAN_POINT('',(-0.0244323902393354,0.0246484137858356,0.0232));
#756=CARTESIAN_POINT('',(-0.0242343052106274,0.0246484137858356,0.0232));
#757=CARTESIAN_POINT('',(-0.0244323902393354,0.0241163703753944,0.0232));
#758=CARTESIAN_POINT('',(-0.0244323902393354,0.0241163703753944,0.0222));
#759=CARTESIAN_POINT('',(-0.0244323902393354,0.0235843269649534,0.0222));
#760=CARTESIAN_POINT('',(-0.0244323902393354,0.0235843269649534,0.0232));
#761=CARTESIAN_POINT('',(-0.0244323902393354,0.0235843269649534,0.0232));
#762=CARTESIAN_POINT('',(-0.0244323902393354,0.0241163703753944,0.0232));
#763=CARTESIAN_POINT('',(-0.0244274285719497,0.023492345284956,0.0232));
#764=CARTESIAN_POINT('',(-0.0244274285719497,0.023492345284956,0.0222));
#765=CARTESIAN_POINT('',(-0.0244224669045639,0.0234003636049587,0.0222));
#766=CARTESIAN_POINT('',(-0.0244224669045639,0.0234003636049587,0.0232));
#767=CARTESIAN_POINT('',(-0.0244224669045639,0.0234003636049587,0.0232));
#768=CARTESIAN_POINT('',(-0.0244274285719497,0.023492345284956,0.0232));
#769=CARTESIAN_POINT('',(-0.0244140702366803,0.0233060919246295,0.0232));
#770=CARTESIAN_POINT('',(-0.0244140702366803,0.0233060919246295,0.0222));
#771=CARTESIAN_POINT('',(-0.0244056735687967,0.0232118202443003,0.0222));
#772=CARTESIAN_POINT('',(-0.0244056735687967,0.0232118202443003,0.0232));
#773=CARTESIAN_POINT('',(-0.0244056735687967,0.0232118202443003,0.0232));
#774=CARTESIAN_POINT('',(-0.0244140702366803,0.0233060919246295,0.0232));
#775=CARTESIAN_POINT('',(-0.024421321904398,0.0232118202443003,0.0232));
#776=CARTESIAN_POINT('',(-0.024421321904398,0.0232118202443003,0.0222));
#777=CARTESIAN_POINT('',(-0.0244369702399992,0.0232118202443003,0.0222));
#778=CARTESIAN_POINT('',(-0.0244369702399992,0.0232118202443003,0.0232));
#779=CARTESIAN_POINT('',(-0.0244369702399992,0.0232118202443003,0.0232));
#780=CARTESIAN_POINT('',(-0.024421321904398,0.0232118202443003,0.0232));
#781=CARTESIAN_POINT('',(-0.0252529736915938,0.0235988303003887,0.0232));
#782=CARTESIAN_POINT('',(-0.0252529736915938,0.0235988303003887,0.0222));
#783=CARTESIAN_POINT('',(-0.0248982780846331,0.0235988303003887,0.0232));
#784=CARTESIAN_POINT('',(-0.0248982780846331,0.0235988303003887,0.0222));
#785=CARTESIAN_POINT('',(-0.0246262769341016,0.0234698269483592,0.0232));
#786=CARTESIAN_POINT('',(-0.0246262769341016,0.0234698269483592,0.0222));
#787=CARTESIAN_POINT('',(-0.0244369702399992,0.0232118202443003,0.0232));
#788=CARTESIAN_POINT('',(-0.0244369702399992,0.0232118202443003,0.0222));
#789=CARTESIAN_POINT('',(-0.0252529736915938,0.0235988303003887,0.0222));
#790=CARTESIAN_POINT('',(-0.0247209302811528,0.0235988303003887,0.0222));
#791=CARTESIAN_POINT('',(-0.0244369702399992,0.0232118202443003,0.0222));
#792=CARTESIAN_POINT('',(-0.0252529736915938,0.0235988303003887,0.0222));
#793=CARTESIAN_POINT('',(-0.0252529736915938,0.0235988303003887,0.0232));
#794=CARTESIAN_POINT('',(-0.0252529736915938,0.0235988303003887,0.0232));
#795=CARTESIAN_POINT('',(-0.0252529736915938,0.0235988303003887,0.0232));
#796=CARTESIAN_POINT('',(-0.0247209302811528,0.0235988303003887,0.0232));
#797=CARTESIAN_POINT('',(-0.0244369702399992,0.0232118202443003,0.0232));
#798=CARTESIAN_POINT('',(-0.0260498938070895,0.0232408269151708,0.0232));
#799=CARTESIAN_POINT('',(-0.0260498938070895,0.0232408269151708,0.0222));
#800=CARTESIAN_POINT('',(-0.0258590604460992,0.0234794958386494,0.0232));
#801=CARTESIAN_POINT('',(-0.0258590604460992,0.0234794958386494,0.0222));
#802=CARTESIAN_POINT('',(-0.0255934204076006,0.0235988303003887,0.0232));
#803=CARTESIAN_POINT('',(-0.0255934204076006,0.0235988303003887,0.0222));
#804=CARTESIAN_POINT('',(-0.0252529736915938,0.0235988303003887,0.0232));
#805=CARTESIAN_POINT('',(-0.0252529736915938,0.0235988303003887,0.0222));
#806=CARTESIAN_POINT('',(-0.0260498938070895,0.0232408269151708,0.0222));
#807=CARTESIAN_POINT('',(-0.025763643765604,0.0235988303003887,0.0222));
#808=CARTESIAN_POINT('',(-0.0252529736915938,0.0235988303003887,0.0222));
#809=CARTESIAN_POINT('',(-0.0260498938070895,0.0232408269151708,0.0222));
#810=CARTESIAN_POINT('',(-0.0260498938070895,0.0232408269151708,0.0232));
#811=CARTESIAN_POINT('',(-0.0260498938070895,0.0232408269151708,0.0232));
#812=CARTESIAN_POINT('',(-0.0260498938070895,0.0232408269151708,0.0232));
#813=CARTESIAN_POINT('',(-0.025763643765604,0.0235988303003887,0.0232));
#814=CARTESIAN_POINT('',(-0.0252529736915938,0.0235988303003887,0.0232));
#815=CARTESIAN_POINT('',(-0.026336143848575,0.0222362801029176,0.0232));
#816=CARTESIAN_POINT('',(-0.026336143848575,0.0222362801029176,0.0222));
#817=CARTESIAN_POINT('',(-0.026336143848575,0.0226673090542745,0.0232));
#818=CARTESIAN_POINT('',(-0.026336143848575,0.0226673090542745,0.0222));
#819=CARTESIAN_POINT('',(-0.0262407271680799,0.0230021579916922,0.0232));
#820=CARTESIAN_POINT('',(-0.0262407271680799,0.0230021579916922,0.0222));
#821=CARTESIAN_POINT('',(-0.0260498938070895,0.0232408269151708,0.0232));
#822=CARTESIAN_POINT('',(-0.0260498938070895,0.0232408269151708,0.0222));
#823=CARTESIAN_POINT('',(-0.026336143848575,0.0222362801029176,0.0222));
#824=CARTESIAN_POINT('',(-0.026336143848575,0.0228828235299529,0.0222));
#825=CARTESIAN_POINT('',(-0.0260498938070895,0.0232408269151708,0.0222));
#826=CARTESIAN_POINT('',(-0.026336143848575,0.0222362801029176,0.0222));
#827=CARTESIAN_POINT('',(-0.026336143848575,0.0222362801029176,0.0232));
#828=CARTESIAN_POINT('',(-0.026336143848575,0.0222362801029176,0.0232));
#829=CARTESIAN_POINT('',(-0.026336143848575,0.0222362801029176,0.0232));
#830=CARTESIAN_POINT('',(-0.026336143848575,0.0228828235299529,0.0232));
#831=CARTESIAN_POINT('',(-0.0260498938070895,0.0232408269151708,0.0232));
#832=CARTESIAN_POINT('',(-0.0260510388072554,0.021238984958382,0.0232));
#833=CARTESIAN_POINT('',(-0.0260510388072554,0.021238984958382,0.0222));
#834=CARTESIAN_POINT('',(-0.0262411088348018,0.0214728194367155,0.0232));
#835=CARTESIAN_POINT('',(-0.0262411088348018,0.0214728194367155,0.0222));
#836=CARTESIAN_POINT('',(-0.026336143848575,0.0218052511515607,0.0232));
#837=CARTESIAN_POINT('',(-0.026336143848575,0.0218052511515607,0.0222));
#838=CARTESIAN_POINT('',(-0.026336143848575,0.0222362801029176,0.0232));
#839=CARTESIAN_POINT('',(-0.026336143848575,0.0222362801029176,0.0222));
#840=CARTESIAN_POINT('',(-0.0260510388072554,0.021238984958382,0.0222));
#841=CARTESIAN_POINT('',(-0.026336143848575,0.0215897366758823,0.0222));
#842=CARTESIAN_POINT('',(-0.026336143848575,0.0222362801029176,0.0222));
#843=CARTESIAN_POINT('',(-0.0260510388072554,0.021238984958382,0.0222));
#844=CARTESIAN_POINT('',(-0.0260510388072554,0.021238984958382,0.0232));
#845=CARTESIAN_POINT('',(-0.0260510388072554,0.021238984958382,0.0232));
#846=CARTESIAN_POINT('',(-0.0260510388072554,0.021238984958382,0.0232));
#847=CARTESIAN_POINT('',(-0.026336143848575,0.0215897366758823,0.0232));
#848=CARTESIAN_POINT('',(-0.026336143848575,0.0222362801029176,0.0232));
#849=CARTESIAN_POINT('',(-0.0252529736915938,0.0208882332408818,0.0232));
#850=CARTESIAN_POINT('',(-0.0252529736915938,0.0208882332408818,0.0222));
#851=CARTESIAN_POINT('',(-0.0255949470744886,0.0208882332408818,0.0232));
#852=CARTESIAN_POINT('',(-0.0255949470744886,0.0208882332408818,0.0222));
#853=CARTESIAN_POINT('',(-0.0258609687797091,0.0210051504800485,0.0232));
#854=CARTESIAN_POINT('',(-0.0258609687797091,0.0210051504800485,0.0222));
#855=CARTESIAN_POINT('',(-0.0260510388072554,0.021238984958382,0.0232));
#856=CARTESIAN_POINT('',(-0.0260510388072554,0.021238984958382,0.0222));
#857=CARTESIAN_POINT('',(-0.0252529736915938,0.0208882332408818,0.0222));
#858=CARTESIAN_POINT('',(-0.0257659337659359,0.0208882332408818,0.0222));
#859=CARTESIAN_POINT('',(-0.0260510388072554,0.021238984958382,0.0222));
#860=CARTESIAN_POINT('',(-0.0252529736915938,0.0208882332408818,0.0222));
#861=CARTESIAN_POINT('',(-0.0252529736915938,0.0208882332408818,0.0232));
#862=CARTESIAN_POINT('',(-0.0252529736915938,0.0208882332408818,0.0232));
#863=CARTESIAN_POINT('',(-0.0252529736915938,0.0208882332408818,0.0232));
#864=CARTESIAN_POINT('',(-0.0257659337659359,0.0208882332408818,0.0232));
#865=CARTESIAN_POINT('',(-0.0260510388072554,0.021238984958382,0.0232));
#866=CARTESIAN_POINT('',(-0.0244323902393354,0.0212866932986296,0.0232));
#867=CARTESIAN_POINT('',(-0.0244323902393354,0.0212866932986296,0.0222));
#868=CARTESIAN_POINT('',(-0.0246150813769235,0.0210210532601311,0.0232));
#869=CARTESIAN_POINT('',(-0.0246150813769235,0.0210210532601311,0.0222));
#870=CARTESIAN_POINT('',(-0.024888609194343,0.0208882332408818,0.0232));
#871=CARTESIAN_POINT('',(-0.024888609194343,0.0208882332408818,0.0222));
#872=CARTESIAN_POINT('',(-0.0252529736915938,0.0208882332408818,0.0232));
#873=CARTESIAN_POINT('',(-0.0252529736915938,0.0208882332408818,0.0222));
#874=CARTESIAN_POINT('',(-0.0244323902393354,0.0212866932986296,0.0222));
#875=CARTESIAN_POINT('',(-0.0247064269457175,0.0208882332408818,0.0222));
#876=CARTESIAN_POINT('',(-0.0252529736915938,0.0208882332408818,0.0222));
#877=CARTESIAN_POINT('',(-0.0244323902393354,0.0212866932986296,0.0232));
#878=CARTESIAN_POINT('',(-0.0247064269457175,0.0208882332408818,0.0232));
#879=CARTESIAN_POINT('',(-0.0252529736915938,0.0208882332408818,0.0232));
#880=CARTESIAN_POINT('',(-0.0246148269324422,0.0214408866543099,0.0232));
#881=CARTESIAN_POINT('',(-0.0246148269324422,0.0214408866543099,0.0222));
#882=CARTESIAN_POINT('',(-0.024493202470371,0.0215879555645131,0.0232));
#883=CARTESIAN_POINT('',(-0.024493202470371,0.0215879555645131,0.0222));
#884=CARTESIAN_POINT('',(-0.0244323902393354,0.0218253522655851,0.0232));
#885=CARTESIAN_POINT('',(-0.0244323902393354,0.0218253522655851,0.0222));
#886=CARTESIAN_POINT('',(-0.0244323902393354,0.0221530767575258,0.0232));
#887=CARTESIAN_POINT('',(-0.0244323902393354,0.0221530767575258,0.0222));
#888=CARTESIAN_POINT('',(-0.0246148269324422,0.0214408866543099,0.0222));
#889=CARTESIAN_POINT('',(-0.0244323902393354,0.0216614900196147,0.0222));
#890=CARTESIAN_POINT('',(-0.0244323902393354,0.0221530767575258,0.0222));
#891=CARTESIAN_POINT('',(-0.0246148269324422,0.0214408866543099,0.0232));
#892=CARTESIAN_POINT('',(-0.0244323902393354,0.0216614900196147,0.0232));
#893=CARTESIAN_POINT('',(-0.0244323902393354,0.0221530767575258,0.0232));
#894=CARTESIAN_POINT('',(-0.035336010574676,0.0221931616239257,0.0232));
#895=CARTESIAN_POINT('',(-0.035336010574676,0.0221931616239257,0.0222));
#896=MECHANICAL_DESIGN_GEOMETRIC_PRESENTATION_REPRESENTATION('',(#501),
#897);
#897=(
GEOMETRIC_REPRESENTATION_CONTEXT(3)
GLOBAL_UNCERTAINTY_ASSIGNED_CONTEXT((#898))
GLOBAL_UNIT_ASSIGNED_CONTEXT((#901,#900,#899))
REPRESENTATION_CONTEXT('Part 17','TOP_LEVEL_ASSEMBLY_PART')
);
#898=UNCERTAINTY_MEASURE_WITH_UNIT(LENGTH_MEASURE(2.E-5),#901,
'DISTANCE_ACCURACY_VALUE','Maximum Tolerance applied to model');
#899=(
NAMED_UNIT(*)
SI_UNIT($,.STERADIAN.)
SOLID_ANGLE_UNIT()
);
#900=(
NAMED_UNIT(*)
PLANE_ANGLE_UNIT()
SI_UNIT($,.RADIAN.)
);
#901=(
LENGTH_UNIT()
NAMED_UNIT(*)
SI_UNIT($,.METRE.)
);
#902=PRODUCT_DEFINITION_SHAPE('','',#903);
#903=PRODUCT_DEFINITION('','',#905,#904);
#904=PRODUCT_DEFINITION_CONTEXT('',#911,'design');
#905=PRODUCT_DEFINITION_FORMATION_WITH_SPECIFIED_SOURCE('','',#907,
 .NOT_KNOWN.);
#906=PRODUCT_RELATED_PRODUCT_CATEGORY('','',(#907));
#907=PRODUCT('Part 17','Part 17','Part 17',(#909));
#908=PRODUCT_CATEGORY('','');
#909=PRODUCT_CONTEXT('',#911,'mechanical');
#910=APPLICATION_PROTOCOL_DEFINITION('international standard',
'ap242_managed_model_based_3d_engineering',2020,#911);
#911=APPLICATION_CONTEXT('managed model based 3d engineering');
ENDSEC;
END-ISO-10303-21;
