ISO-10303-21;
HEADER;
/* Generated by software containing ST-Developer
 * from STEP Tools, Inc. (www.steptools.com) 
 */
/* OPTION: using custom renumber hook */

FILE_DESCRIPTION(
/* description */ ('STEP AP242 Edition 2',
'CAx-IF Rec.Pracs.---Representation and Presentation of Product Manufa
cturing Information (PMI)---4.0---2014-10-13',
'CAx-IF Rec.Pracs.---3D Tessellated Geometry---0.4---2014-09-14','2;1',
'CAx-IF Rec.Pracs.---User Defined Attributes---1.5---2016-08-15'),
/* implementation_level */ '2;1');

FILE_NAME(
/* name */ 'Part Studio 1 - Part 11',
/* time_stamp */ '2026-09-06T11:57:17Z',
/* author */ (''),
/* organization */ (''),
/* preprocessor_version */ 'ST-DEVELOPER v20',
/* originating_system */ 'ONSHAPE BY PTC INC, 1.220',
/* authorisation */ '  ');

FILE_SCHEMA (('AP242_MANAGED_MODEL_BASED_3D_ENGINEERING_MIM_LF { 1 0 10303 442 3 1 4 }'));
ENDSEC;

DATA;
#10=SHAPE_REPRESENTATION_RELATIONSHIP('','',#545,#11);
#11=ADVANCED_BREP_SHAPE_REPRESENTATION('',(#543),#983);
#12=CIRCLE('',#553,0.00183826941817782);
#13=CIRCLE('',#554,0.00183826941817782);
#14=CIRCLE('',#556,0.00186791957108401);
#15=CIRCLE('',#557,0.00186791957108401);
#16=CYLINDRICAL_SURFACE('',#552,0.00183826941817782);
#17=CYLINDRICAL_SURFACE('',#555,0.00186791957108401);
#18=PLANE('',#547);
#19=PLANE('',#548);
#20=PLANE('',#549);
#21=PLANE('',#550);
#22=PLANE('',#551);
#23=PLANE('',#558);
#24=PLANE('',#559);
#25=PLANE('',#560);
#26=PLANE('',#561);
#27=PLANE('',#562);
#28=LINE('',#653,#70);
#29=LINE('',#659,#71);
#30=LINE('',#672,#72);
#31=LINE('',#689,#73);
#32=LINE('',#706,#74);
#33=LINE('',#723,#75);
#34=LINE('',#729,#76);
#35=LINE('',#731,#77);
#36=LINE('',#733,#78);
#37=LINE('',#735,#79);
#38=LINE('',#737,#80);
#39=LINE('',#739,#81);
#40=LINE('',#741,#82);
#41=LINE('',#744,#83);
#42=LINE('',#746,#84);
#43=LINE('',#748,#85);
#44=LINE('',#750,#86);
#45=LINE('',#752,#87);
#46=LINE('',#754,#88);
#47=LINE('',#756,#89);
#48=LINE('',#758,#90);
#49=LINE('',#760,#91);
#50=LINE('',#773,#92);
#51=LINE('',#790,#93);
#52=LINE('',#798,#94);
#53=LINE('',#804,#95);
#54=LINE('',#808,#96);
#55=LINE('',#810,#97);
#56=LINE('',#812,#98);
#57=LINE('',#825,#99);
#58=LINE('',#842,#100);
#59=LINE('',#859,#101);
#60=LINE('',#865,#102);
#61=LINE('',#867,#103);
#62=LINE('',#869,#104);
#63=LINE('',#871,#105);
#64=LINE('',#873,#106);
#65=LINE('',#875,#107);
#66=LINE('',#888,#108);
#67=LINE('',#905,#109);
#68=LINE('',#922,#110);
#69=LINE('',#939,#111);
#70=VECTOR('',#565,1.);
#71=VECTOR('',#566,1.);
#72=VECTOR('',#567,1.);
#73=VECTOR('',#568,1.);
#74=VECTOR('',#569,1.);
#75=VECTOR('',#570,1.);
#76=VECTOR('',#573,1.);
#77=VECTOR('',#574,1.);
#78=VECTOR('',#575,1.);
#79=VECTOR('',#578,1.);
#80=VECTOR('',#579,1.);
#81=VECTOR('',#580,1.);
#82=VECTOR('',#583,1.);
#83=VECTOR('',#584,1.);
#84=VECTOR('',#585,1.);
#85=VECTOR('',#586,1.);
#86=VECTOR('',#589,1.);
#87=VECTOR('',#590,1.);
#88=VECTOR('',#591,1.);
#89=VECTOR('',#594,1.);
#90=VECTOR('',#595,1.);
#91=VECTOR('',#596,1.);
#92=VECTOR('',#597,1.);
#93=VECTOR('',#598,1.);
#94=VECTOR('',#603,1.);
#95=VECTOR('',#610,1.);
#96=VECTOR('',#615,1.);
#97=VECTOR('',#616,1.);
#98=VECTOR('',#617,1.);
#99=VECTOR('',#618,1.);
#100=VECTOR('',#619,1.);
#101=VECTOR('',#620,1.);
#102=VECTOR('',#623,1.);
#103=VECTOR('',#624,1.);
#104=VECTOR('',#625,1.);
#105=VECTOR('',#628,1.);
#106=VECTOR('',#629,1.);
#107=VECTOR('',#630,1.);
#108=VECTOR('',#631,1.);
#109=VECTOR('',#632,1.);
#110=VECTOR('',#633,1.);
#111=VECTOR('',#634,1.);
#112=ORIENTED_EDGE('',*,*,#268,.F.);
#113=ORIENTED_EDGE('',*,*,#269,.F.);
#114=ORIENTED_EDGE('',*,*,#270,.T.);
#115=ORIENTED_EDGE('',*,*,#271,.T.);
#116=ORIENTED_EDGE('',*,*,#272,.F.);
#117=ORIENTED_EDGE('',*,*,#273,.F.);
#118=ORIENTED_EDGE('',*,*,#274,.T.);
#119=ORIENTED_EDGE('',*,*,#269,.T.);
#120=ORIENTED_EDGE('',*,*,#275,.F.);
#121=ORIENTED_EDGE('',*,*,#276,.F.);
#122=ORIENTED_EDGE('',*,*,#277,.T.);
#123=ORIENTED_EDGE('',*,*,#273,.T.);
#124=ORIENTED_EDGE('',*,*,#278,.F.);
#125=ORIENTED_EDGE('',*,*,#279,.F.);
#126=ORIENTED_EDGE('',*,*,#280,.T.);
#127=ORIENTED_EDGE('',*,*,#276,.T.);
#128=ORIENTED_EDGE('',*,*,#281,.F.);
#129=ORIENTED_EDGE('',*,*,#282,.F.);
#130=ORIENTED_EDGE('',*,*,#283,.T.);
#131=ORIENTED_EDGE('',*,*,#279,.T.);
#132=ORIENTED_EDGE('',*,*,#284,.F.);
#133=ORIENTED_EDGE('',*,*,#285,.F.);
#134=ORIENTED_EDGE('',*,*,#286,.T.);
#135=ORIENTED_EDGE('',*,*,#282,.T.);
#136=ORIENTED_EDGE('',*,*,#287,.F.);
#137=ORIENTED_EDGE('',*,*,#288,.F.);
#138=ORIENTED_EDGE('',*,*,#289,.T.);
#139=ORIENTED_EDGE('',*,*,#285,.T.);
#140=ORIENTED_EDGE('',*,*,#290,.F.);
#141=ORIENTED_EDGE('',*,*,#291,.F.);
#142=ORIENTED_EDGE('',*,*,#292,.T.);
#143=ORIENTED_EDGE('',*,*,#293,.T.);
#144=ORIENTED_EDGE('',*,*,#294,.F.);
#145=ORIENTED_EDGE('',*,*,#295,.F.);
#146=ORIENTED_EDGE('',*,*,#296,.T.);
#147=ORIENTED_EDGE('',*,*,#291,.T.);
#148=ORIENTED_EDGE('',*,*,#297,.F.);
#149=ORIENTED_EDGE('',*,*,#298,.F.);
#150=ORIENTED_EDGE('',*,*,#299,.T.);
#151=ORIENTED_EDGE('',*,*,#295,.T.);
#152=ORIENTED_EDGE('',*,*,#300,.F.);
#153=ORIENTED_EDGE('',*,*,#301,.F.);
#154=ORIENTED_EDGE('',*,*,#302,.T.);
#155=ORIENTED_EDGE('',*,*,#298,.T.);
#156=ORIENTED_EDGE('',*,*,#303,.F.);
#157=ORIENTED_EDGE('',*,*,#304,.F.);
#158=ORIENTED_EDGE('',*,*,#305,.T.);
#159=ORIENTED_EDGE('',*,*,#301,.T.);
#160=ORIENTED_EDGE('',*,*,#306,.F.);
#161=ORIENTED_EDGE('',*,*,#307,.F.);
#162=ORIENTED_EDGE('',*,*,#308,.T.);
#163=ORIENTED_EDGE('',*,*,#304,.T.);
#164=ORIENTED_EDGE('',*,*,#309,.F.);
#165=ORIENTED_EDGE('',*,*,#310,.F.);
#166=ORIENTED_EDGE('',*,*,#311,.T.);
#167=ORIENTED_EDGE('',*,*,#307,.T.);
#168=ORIENTED_EDGE('',*,*,#312,.F.);
#169=ORIENTED_EDGE('',*,*,#313,.F.);
#170=ORIENTED_EDGE('',*,*,#314,.T.);
#171=ORIENTED_EDGE('',*,*,#310,.T.);
#172=ORIENTED_EDGE('',*,*,#315,.F.);
#173=ORIENTED_EDGE('',*,*,#316,.F.);
#174=ORIENTED_EDGE('',*,*,#317,.T.);
#175=ORIENTED_EDGE('',*,*,#313,.T.);
#176=ORIENTED_EDGE('',*,*,#318,.F.);
#177=ORIENTED_EDGE('',*,*,#319,.F.);
#178=ORIENTED_EDGE('',*,*,#320,.T.);
#179=ORIENTED_EDGE('',*,*,#316,.T.);
#180=ORIENTED_EDGE('',*,*,#321,.F.);
#181=ORIENTED_EDGE('',*,*,#322,.F.);
#182=ORIENTED_EDGE('',*,*,#323,.T.);
#183=ORIENTED_EDGE('',*,*,#319,.T.);
#184=ORIENTED_EDGE('',*,*,#324,.F.);
#185=ORIENTED_EDGE('',*,*,#325,.F.);
#186=ORIENTED_EDGE('',*,*,#326,.T.);
#187=ORIENTED_EDGE('',*,*,#322,.T.);
#188=ORIENTED_EDGE('',*,*,#327,.F.);
#189=ORIENTED_EDGE('',*,*,#328,.F.);
#190=ORIENTED_EDGE('',*,*,#329,.T.);
#191=ORIENTED_EDGE('',*,*,#325,.T.);
#192=ORIENTED_EDGE('',*,*,#330,.F.);
#193=ORIENTED_EDGE('',*,*,#331,.F.);
#194=ORIENTED_EDGE('',*,*,#332,.T.);
#195=ORIENTED_EDGE('',*,*,#328,.T.);
#196=ORIENTED_EDGE('',*,*,#333,.F.);
#197=ORIENTED_EDGE('',*,*,#334,.F.);
#198=ORIENTED_EDGE('',*,*,#335,.T.);
#199=ORIENTED_EDGE('',*,*,#331,.T.);
#200=ORIENTED_EDGE('',*,*,#336,.F.);
#201=ORIENTED_EDGE('',*,*,#337,.F.);
#202=ORIENTED_EDGE('',*,*,#338,.T.);
#203=ORIENTED_EDGE('',*,*,#334,.T.);
#204=ORIENTED_EDGE('',*,*,#339,.F.);
#205=ORIENTED_EDGE('',*,*,#340,.F.);
#206=ORIENTED_EDGE('',*,*,#341,.T.);
#207=ORIENTED_EDGE('',*,*,#337,.T.);
#208=ORIENTED_EDGE('',*,*,#342,.F.);
#209=ORIENTED_EDGE('',*,*,#293,.F.);
#210=ORIENTED_EDGE('',*,*,#343,.T.);
#211=ORIENTED_EDGE('',*,*,#340,.T.);
#212=ORIENTED_EDGE('',*,*,#344,.F.);
#213=ORIENTED_EDGE('',*,*,#271,.F.);
#214=ORIENTED_EDGE('',*,*,#345,.T.);
#215=ORIENTED_EDGE('',*,*,#288,.T.);
#216=ORIENTED_EDGE('',*,*,#292,.F.);
#217=ORIENTED_EDGE('',*,*,#296,.F.);
#218=ORIENTED_EDGE('',*,*,#299,.F.);
#219=ORIENTED_EDGE('',*,*,#302,.F.);
#220=ORIENTED_EDGE('',*,*,#305,.F.);
#221=ORIENTED_EDGE('',*,*,#308,.F.);
#222=ORIENTED_EDGE('',*,*,#311,.F.);
#223=ORIENTED_EDGE('',*,*,#314,.F.);
#224=ORIENTED_EDGE('',*,*,#317,.F.);
#225=ORIENTED_EDGE('',*,*,#320,.F.);
#226=ORIENTED_EDGE('',*,*,#323,.F.);
#227=ORIENTED_EDGE('',*,*,#326,.F.);
#228=ORIENTED_EDGE('',*,*,#329,.F.);
#229=ORIENTED_EDGE('',*,*,#332,.F.);
#230=ORIENTED_EDGE('',*,*,#335,.F.);
#231=ORIENTED_EDGE('',*,*,#338,.F.);
#232=ORIENTED_EDGE('',*,*,#341,.F.);
#233=ORIENTED_EDGE('',*,*,#343,.F.);
#234=ORIENTED_EDGE('',*,*,#270,.F.);
#235=ORIENTED_EDGE('',*,*,#274,.F.);
#236=ORIENTED_EDGE('',*,*,#277,.F.);
#237=ORIENTED_EDGE('',*,*,#280,.F.);
#238=ORIENTED_EDGE('',*,*,#283,.F.);
#239=ORIENTED_EDGE('',*,*,#286,.F.);
#240=ORIENTED_EDGE('',*,*,#289,.F.);
#241=ORIENTED_EDGE('',*,*,#345,.F.);
#242=ORIENTED_EDGE('',*,*,#290,.T.);
#243=ORIENTED_EDGE('',*,*,#342,.T.);
#244=ORIENTED_EDGE('',*,*,#339,.T.);
#245=ORIENTED_EDGE('',*,*,#336,.T.);
#246=ORIENTED_EDGE('',*,*,#333,.T.);
#247=ORIENTED_EDGE('',*,*,#330,.T.);
#248=ORIENTED_EDGE('',*,*,#327,.T.);
#249=ORIENTED_EDGE('',*,*,#324,.T.);
#250=ORIENTED_EDGE('',*,*,#321,.T.);
#251=ORIENTED_EDGE('',*,*,#318,.T.);
#252=ORIENTED_EDGE('',*,*,#315,.T.);
#253=ORIENTED_EDGE('',*,*,#312,.T.);
#254=ORIENTED_EDGE('',*,*,#309,.T.);
#255=ORIENTED_EDGE('',*,*,#306,.T.);
#256=ORIENTED_EDGE('',*,*,#303,.T.);
#257=ORIENTED_EDGE('',*,*,#300,.T.);
#258=ORIENTED_EDGE('',*,*,#297,.T.);
#259=ORIENTED_EDGE('',*,*,#294,.T.);
#260=ORIENTED_EDGE('',*,*,#268,.T.);
#261=ORIENTED_EDGE('',*,*,#344,.T.);
#262=ORIENTED_EDGE('',*,*,#287,.T.);
#263=ORIENTED_EDGE('',*,*,#284,.T.);
#264=ORIENTED_EDGE('',*,*,#281,.T.);
#265=ORIENTED_EDGE('',*,*,#278,.T.);
#266=ORIENTED_EDGE('',*,*,#275,.T.);
#267=ORIENTED_EDGE('',*,*,#272,.T.);
#268=EDGE_CURVE('',#346,#347,#398,.T.);
#269=EDGE_CURVE('',#348,#346,#28,.T.);
#270=EDGE_CURVE('',#348,#349,#399,.T.);
#271=EDGE_CURVE('',#349,#347,#29,.T.);
#272=EDGE_CURVE('',#350,#346,#400,.T.);
#273=EDGE_CURVE('',#351,#350,#30,.T.);
#274=EDGE_CURVE('',#351,#348,#401,.T.);
#275=EDGE_CURVE('',#352,#350,#402,.T.);
#276=EDGE_CURVE('',#353,#352,#31,.T.);
#277=EDGE_CURVE('',#353,#351,#403,.T.);
#278=EDGE_CURVE('',#354,#352,#404,.T.);
#279=EDGE_CURVE('',#355,#354,#32,.T.);
#280=EDGE_CURVE('',#355,#353,#405,.T.);
#281=EDGE_CURVE('',#356,#354,#406,.T.);
#282=EDGE_CURVE('',#357,#356,#33,.T.);
#283=EDGE_CURVE('',#357,#355,#407,.T.);
#284=EDGE_CURVE('',#358,#356,#34,.T.);
#285=EDGE_CURVE('',#359,#358,#35,.T.);
#286=EDGE_CURVE('',#359,#357,#36,.T.);
#287=EDGE_CURVE('',#360,#358,#37,.T.);
#288=EDGE_CURVE('',#361,#360,#38,.T.);
#289=EDGE_CURVE('',#361,#359,#39,.T.);
#290=EDGE_CURVE('',#362,#363,#40,.T.);
#291=EDGE_CURVE('',#364,#362,#41,.T.);
#292=EDGE_CURVE('',#364,#365,#42,.T.);
#293=EDGE_CURVE('',#365,#363,#43,.T.);
#294=EDGE_CURVE('',#366,#362,#44,.T.);
#295=EDGE_CURVE('',#367,#366,#45,.T.);
#296=EDGE_CURVE('',#367,#364,#46,.T.);
#297=EDGE_CURVE('',#368,#366,#47,.T.);
#298=EDGE_CURVE('',#369,#368,#48,.T.);
#299=EDGE_CURVE('',#369,#367,#49,.T.);
#300=EDGE_CURVE('',#370,#368,#408,.T.);
#301=EDGE_CURVE('',#371,#370,#50,.T.);
#302=EDGE_CURVE('',#371,#369,#409,.T.);
#303=EDGE_CURVE('',#372,#370,#410,.T.);
#304=EDGE_CURVE('',#373,#372,#51,.T.);
#305=EDGE_CURVE('',#373,#371,#411,.T.);
#306=EDGE_CURVE('',#374,#372,#12,.T.);
#307=EDGE_CURVE('',#375,#374,#52,.T.);
#308=EDGE_CURVE('',#375,#373,#13,.T.);
#309=EDGE_CURVE('',#376,#374,#14,.T.);
#310=EDGE_CURVE('',#377,#376,#53,.T.);
#311=EDGE_CURVE('',#377,#375,#15,.T.);
#312=EDGE_CURVE('',#378,#376,#54,.T.);
#313=EDGE_CURVE('',#379,#378,#55,.T.);
#314=EDGE_CURVE('',#379,#377,#56,.T.);
#315=EDGE_CURVE('',#380,#378,#412,.T.);
#316=EDGE_CURVE('',#381,#380,#57,.T.);
#317=EDGE_CURVE('',#381,#379,#413,.T.);
#318=EDGE_CURVE('',#382,#380,#414,.T.);
#319=EDGE_CURVE('',#383,#382,#58,.T.);
#320=EDGE_CURVE('',#383,#381,#415,.T.);
#321=EDGE_CURVE('',#384,#382,#416,.T.);
#322=EDGE_CURVE('',#385,#384,#59,.T.);
#323=EDGE_CURVE('',#385,#383,#417,.T.);
#324=EDGE_CURVE('',#386,#384,#60,.T.);
#325=EDGE_CURVE('',#387,#386,#61,.T.);
#326=EDGE_CURVE('',#387,#385,#62,.T.);
#327=EDGE_CURVE('',#388,#386,#63,.T.);
#328=EDGE_CURVE('',#389,#388,#64,.T.);
#329=EDGE_CURVE('',#389,#387,#65,.T.);
#330=EDGE_CURVE('',#390,#388,#418,.T.);
#331=EDGE_CURVE('',#391,#390,#66,.T.);
#332=EDGE_CURVE('',#391,#389,#419,.T.);
#333=EDGE_CURVE('',#392,#390,#420,.T.);
#334=EDGE_CURVE('',#393,#392,#67,.T.);
#335=EDGE_CURVE('',#393,#391,#421,.T.);
#336=EDGE_CURVE('',#394,#392,#422,.T.);
#337=EDGE_CURVE('',#395,#394,#68,.T.);
#338=EDGE_CURVE('',#395,#393,#423,.T.);
#339=EDGE_CURVE('',#396,#394,#424,.T.);
#340=EDGE_CURVE('',#397,#396,#69,.T.);
#341=EDGE_CURVE('',#397,#395,#425,.T.);
#342=EDGE_CURVE('',#363,#396,#426,.T.);
#343=EDGE_CURVE('',#365,#397,#427,.T.);
#344=EDGE_CURVE('',#347,#360,#428,.T.);
#345=EDGE_CURVE('',#349,#361,#429,.T.);
#346=VERTEX_POINT('',#651);
#347=VERTEX_POINT('',#652);
#348=VERTEX_POINT('',#654);
#349=VERTEX_POINT('',#658);
#350=VERTEX_POINT('',#671);
#351=VERTEX_POINT('',#673);
#352=VERTEX_POINT('',#688);
#353=VERTEX_POINT('',#690);
#354=VERTEX_POINT('',#705);
#355=VERTEX_POINT('',#707);
#356=VERTEX_POINT('',#722);
#357=VERTEX_POINT('',#724);
#358=VERTEX_POINT('',#730);
#359=VERTEX_POINT('',#732);
#360=VERTEX_POINT('',#736);
#361=VERTEX_POINT('',#738);
#362=VERTEX_POINT('',#742);
#363=VERTEX_POINT('',#743);
#364=VERTEX_POINT('',#745);
#365=VERTEX_POINT('',#747);
#366=VERTEX_POINT('',#751);
#367=VERTEX_POINT('',#753);
#368=VERTEX_POINT('',#757);
#369=VERTEX_POINT('',#759);
#370=VERTEX_POINT('',#772);
#371=VERTEX_POINT('',#774);
#372=VERTEX_POINT('',#789);
#373=VERTEX_POINT('',#791);
#374=VERTEX_POINT('',#797);
#375=VERTEX_POINT('',#799);
#376=VERTEX_POINT('',#803);
#377=VERTEX_POINT('',#805);
#378=VERTEX_POINT('',#809);
#379=VERTEX_POINT('',#811);
#380=VERTEX_POINT('',#824);
#381=VERTEX_POINT('',#826);
#382=VERTEX_POINT('',#841);
#383=VERTEX_POINT('',#843);
#384=VERTEX_POINT('',#858);
#385=VERTEX_POINT('',#860);
#386=VERTEX_POINT('',#866);
#387=VERTEX_POINT('',#868);
#388=VERTEX_POINT('',#872);
#389=VERTEX_POINT('',#874);
#390=VERTEX_POINT('',#887);
#391=VERTEX_POINT('',#889);
#392=VERTEX_POINT('',#904);
#393=VERTEX_POINT('',#906);
#394=VERTEX_POINT('',#921);
#395=VERTEX_POINT('',#923);
#396=VERTEX_POINT('',#938);
#397=VERTEX_POINT('',#940);
#398=B_SPLINE_CURVE_WITH_KNOTS('',2,(#648,#649,#650),.UNSPECIFIED.,.F.,
 .F.,(3,3),(0.,1.),.PIECEWISE_BEZIER_KNOTS.);
#399=B_SPLINE_CURVE_WITH_KNOTS('',2,(#655,#656,#657),.UNSPECIFIED.,.F.,
 .F.,(3,3),(0.,1.),.PIECEWISE_BEZIER_KNOTS.);
#400=B_SPLINE_CURVE_WITH_KNOTS('',2,(#668,#669,#670),.UNSPECIFIED.,.F.,
 .F.,(3,3),(0.,1.),.PIECEWISE_BEZIER_KNOTS.);
#401=B_SPLINE_CURVE_WITH_KNOTS('',2,(#674,#675,#676),.UNSPECIFIED.,.F.,
 .F.,(3,3),(0.,1.),.PIECEWISE_BEZIER_KNOTS.);
#402=B_SPLINE_CURVE_WITH_KNOTS('',2,(#685,#686,#687),.UNSPECIFIED.,.F.,
 .F.,(3,3),(0.,1.),.PIECEWISE_BEZIER_KNOTS.);
#403=B_SPLINE_CURVE_WITH_KNOTS('',2,(#691,#692,#693),.UNSPECIFIED.,.F.,
 .F.,(3,3),(0.,1.),.PIECEWISE_BEZIER_KNOTS.);
#404=B_SPLINE_CURVE_WITH_KNOTS('',2,(#702,#703,#704),.UNSPECIFIED.,.F.,
 .F.,(3,3),(0.,1.),.PIECEWISE_BEZIER_KNOTS.);
#405=B_SPLINE_CURVE_WITH_KNOTS('',2,(#708,#709,#710),.UNSPECIFIED.,.F.,
 .F.,(3,3),(0.,1.),.PIECEWISE_BEZIER_KNOTS.);
#406=B_SPLINE_CURVE_WITH_KNOTS('',2,(#719,#720,#721),.UNSPECIFIED.,.F.,
 .F.,(3,3),(0.,1.),.PIECEWISE_BEZIER_KNOTS.);
#407=B_SPLINE_CURVE_WITH_KNOTS('',2,(#725,#726,#727),.UNSPECIFIED.,.F.,
 .F.,(3,3),(0.,1.),.PIECEWISE_BEZIER_KNOTS.);
#408=B_SPLINE_CURVE_WITH_KNOTS('',2,(#769,#770,#771),.UNSPECIFIED.,.F.,
 .F.,(3,3),(0.,1.),.PIECEWISE_BEZIER_KNOTS.);
#409=B_SPLINE_CURVE_WITH_KNOTS('',2,(#775,#776,#777),.UNSPECIFIED.,.F.,
 .F.,(3,3),(0.,1.),.PIECEWISE_BEZIER_KNOTS.);
#410=B_SPLINE_CURVE_WITH_KNOTS('',2,(#786,#787,#788),.UNSPECIFIED.,.F.,
 .F.,(3,3),(0.,1.),.PIECEWISE_BEZIER_KNOTS.);
#411=B_SPLINE_CURVE_WITH_KNOTS('',2,(#792,#793,#794),.UNSPECIFIED.,.F.,
 .F.,(3,3),(0.,1.),.PIECEWISE_BEZIER_KNOTS.);
#412=B_SPLINE_CURVE_WITH_KNOTS('',2,(#821,#822,#823),.UNSPECIFIED.,.F.,
 .F.,(3,3),(0.,1.),.PIECEWISE_BEZIER_KNOTS.);
#413=B_SPLINE_CURVE_WITH_KNOTS('',2,(#827,#828,#829),.UNSPECIFIED.,.F.,
 .F.,(3,3),(0.,1.),.PIECEWISE_BEZIER_KNOTS.);
#414=B_SPLINE_CURVE_WITH_KNOTS('',2,(#838,#839,#840),.UNSPECIFIED.,.F.,
 .F.,(3,3),(0.,1.),.PIECEWISE_BEZIER_KNOTS.);
#415=B_SPLINE_CURVE_WITH_KNOTS('',2,(#844,#845,#846),.UNSPECIFIED.,.F.,
 .F.,(3,3),(0.,1.),.PIECEWISE_BEZIER_KNOTS.);
#416=B_SPLINE_CURVE_WITH_KNOTS('',2,(#855,#856,#857),.UNSPECIFIED.,.F.,
 .F.,(3,3),(0.,1.),.PIECEWISE_BEZIER_KNOTS.);
#417=B_SPLINE_CURVE_WITH_KNOTS('',2,(#861,#862,#863),.UNSPECIFIED.,.F.,
 .F.,(3,3),(0.,1.),.PIECEWISE_BEZIER_KNOTS.);
#418=B_SPLINE_CURVE_WITH_KNOTS('',2,(#884,#885,#886),.UNSPECIFIED.,.F.,
 .F.,(3,3),(0.,1.),.PIECEWISE_BEZIER_KNOTS.);
#419=B_SPLINE_CURVE_WITH_KNOTS('',2,(#890,#891,#892),.UNSPECIFIED.,.F.,
 .F.,(3,3),(0.,1.),.PIECEWISE_BEZIER_KNOTS.);
#420=B_SPLINE_CURVE_WITH_KNOTS('',2,(#901,#902,#903),.UNSPECIFIED.,.F.,
 .F.,(3,3),(0.,1.),.PIECEWISE_BEZIER_KNOTS.);
#421=B_SPLINE_CURVE_WITH_KNOTS('',2,(#907,#908,#909),.UNSPECIFIED.,.F.,
 .F.,(3,3),(0.,1.),.PIECEWISE_BEZIER_KNOTS.);
#422=B_SPLINE_CURVE_WITH_KNOTS('',2,(#918,#919,#920),.UNSPECIFIED.,.F.,
 .F.,(3,3),(0.,1.),.PIECEWISE_BEZIER_KNOTS.);
#423=B_SPLINE_CURVE_WITH_KNOTS('',2,(#924,#925,#926),.UNSPECIFIED.,.F.,
 .F.,(3,3),(0.,1.),.PIECEWISE_BEZIER_KNOTS.);
#424=B_SPLINE_CURVE_WITH_KNOTS('',2,(#935,#936,#937),.UNSPECIFIED.,.F.,
 .F.,(3,3),(0.,1.),.PIECEWISE_BEZIER_KNOTS.);
#425=B_SPLINE_CURVE_WITH_KNOTS('',2,(#941,#942,#943),.UNSPECIFIED.,.F.,
 .F.,(3,3),(0.,1.),.PIECEWISE_BEZIER_KNOTS.);
#426=B_SPLINE_CURVE_WITH_KNOTS('',2,(#952,#953,#954,#955,#956,#957,#958),
 .UNSPECIFIED.,.F.,.F.,(3,2,2,3),(-0.0297016950254234,-0.019506628738043,
0.,1.),.PIECEWISE_BEZIER_KNOTS.);
#427=B_SPLINE_CURVE_WITH_KNOTS('',2,(#959,#960,#961,#962,#963,#964,#965),
 .UNSPECIFIED.,.F.,.F.,(3,2,2,3),(-0.0297016950254234,-0.019506628738043,
0.,1.),.PIECEWISE_BEZIER_KNOTS.);
#428=B_SPLINE_CURVE_WITH_KNOTS('',2,(#974,#975,#976),.UNSPECIFIED.,.F.,
 .F.,(3,3),(0.,1.),.PIECEWISE_BEZIER_KNOTS.);
#429=B_SPLINE_CURVE_WITH_KNOTS('',2,(#977,#978,#979),.UNSPECIFIED.,.F.,
 .F.,(3,3),(0.,1.),.PIECEWISE_BEZIER_KNOTS.);
#430=EDGE_LOOP('',(#112,#113,#114,#115));
#431=EDGE_LOOP('',(#116,#117,#118,#119));
#432=EDGE_LOOP('',(#120,#121,#122,#123));
#433=EDGE_LOOP('',(#124,#125,#126,#127));
#434=EDGE_LOOP('',(#128,#129,#130,#131));
#435=EDGE_LOOP('',(#132,#133,#134,#135));
#436=EDGE_LOOP('',(#136,#137,#138,#139));
#437=EDGE_LOOP('',(#140,#141,#142,#143));
#438=EDGE_LOOP('',(#144,#145,#146,#147));
#439=EDGE_LOOP('',(#148,#149,#150,#151));
#440=EDGE_LOOP('',(#152,#153,#154,#155));
#441=EDGE_LOOP('',(#156,#157,#158,#159));
#442=EDGE_LOOP('',(#160,#161,#162,#163));
#443=EDGE_LOOP('',(#164,#165,#166,#167));
#444=EDGE_LOOP('',(#168,#169,#170,#171));
#445=EDGE_LOOP('',(#172,#173,#174,#175));
#446=EDGE_LOOP('',(#176,#177,#178,#179));
#447=EDGE_LOOP('',(#180,#181,#182,#183));
#448=EDGE_LOOP('',(#184,#185,#186,#187));
#449=EDGE_LOOP('',(#188,#189,#190,#191));
#450=EDGE_LOOP('',(#192,#193,#194,#195));
#451=EDGE_LOOP('',(#196,#197,#198,#199));
#452=EDGE_LOOP('',(#200,#201,#202,#203));
#453=EDGE_LOOP('',(#204,#205,#206,#207));
#454=EDGE_LOOP('',(#208,#209,#210,#211));
#455=EDGE_LOOP('',(#212,#213,#214,#215));
#456=EDGE_LOOP('',(#216,#217,#218,#219,#220,#221,#222,#223,#224,#225,#226,
#227,#228,#229,#230,#231,#232,#233));
#457=EDGE_LOOP('',(#234,#235,#236,#237,#238,#239,#240,#241));
#458=EDGE_LOOP('',(#242,#243,#244,#245,#246,#247,#248,#249,#250,#251,#252,
#253,#254,#255,#256,#257,#258,#259));
#459=EDGE_LOOP('',(#260,#261,#262,#263,#264,#265,#266,#267));
#460=FACE_BOUND('',#430,.T.);
#461=FACE_BOUND('',#431,.T.);
#462=FACE_BOUND('',#432,.T.);
#463=FACE_BOUND('',#433,.T.);
#464=FACE_BOUND('',#434,.T.);
#465=FACE_BOUND('',#435,.T.);
#466=FACE_BOUND('',#436,.T.);
#467=FACE_BOUND('',#437,.T.);
#468=FACE_BOUND('',#438,.T.);
#469=FACE_BOUND('',#439,.T.);
#470=FACE_BOUND('',#440,.T.);
#471=FACE_BOUND('',#441,.T.);
#472=FACE_BOUND('',#442,.T.);
#473=FACE_BOUND('',#443,.T.);
#474=FACE_BOUND('',#444,.T.);
#475=FACE_BOUND('',#445,.T.);
#476=FACE_BOUND('',#446,.T.);
#477=FACE_BOUND('',#447,.T.);
#478=FACE_BOUND('',#448,.T.);
#479=FACE_BOUND('',#449,.T.);
#480=FACE_BOUND('',#450,.T.);
#481=FACE_BOUND('',#451,.T.);
#482=FACE_BOUND('',#452,.T.);
#483=FACE_BOUND('',#453,.T.);
#484=FACE_BOUND('',#454,.T.);
#485=FACE_BOUND('',#455,.T.);
#486=FACE_BOUND('',#456,.T.);
#487=FACE_BOUND('',#457,.T.);
#488=FACE_BOUND('',#458,.T.);
#489=FACE_BOUND('',#459,.T.);
#490=B_SPLINE_SURFACE_WITH_KNOTS('',3,1,((#640,#641),(#642,#643),(#644,
#645),(#646,#647)),.SURF_OF_LINEAR_EXTRUSION.,.F.,.F.,.F.,(4,4),(2,2),(0.,
1.),(0.,1.),.PIECEWISE_BEZIER_KNOTS.);
#491=B_SPLINE_SURFACE_WITH_KNOTS('',3,1,((#660,#661),(#662,#663),(#664,
#665),(#666,#667)),.SURF_OF_LINEAR_EXTRUSION.,.F.,.F.,.F.,(4,4),(2,2),(0.,
1.),(0.,1.),.PIECEWISE_BEZIER_KNOTS.);
#492=B_SPLINE_SURFACE_WITH_KNOTS('',3,1,((#677,#678),(#679,#680),(#681,
#682),(#683,#684)),.SURF_OF_LINEAR_EXTRUSION.,.F.,.F.,.F.,(4,4),(2,2),(0.,
1.),(0.,1.),.PIECEWISE_BEZIER_KNOTS.);
#493=B_SPLINE_SURFACE_WITH_KNOTS('',3,1,((#694,#695),(#696,#697),(#698,
#699),(#700,#701)),.SURF_OF_LINEAR_EXTRUSION.,.F.,.F.,.F.,(4,4),(2,2),(0.,
1.),(0.,1.),.PIECEWISE_BEZIER_KNOTS.);
#494=B_SPLINE_SURFACE_WITH_KNOTS('',3,1,((#711,#712),(#713,#714),(#715,
#716),(#717,#718)),.SURF_OF_LINEAR_EXTRUSION.,.F.,.F.,.F.,(4,4),(2,2),(0.,
1.),(0.,1.),.PIECEWISE_BEZIER_KNOTS.);
#495=B_SPLINE_SURFACE_WITH_KNOTS('',3,1,((#761,#762),(#763,#764),(#765,
#766),(#767,#768)),.SURF_OF_LINEAR_EXTRUSION.,.F.,.F.,.F.,(4,4),(2,2),(0.,
1.),(0.,1.),.PIECEWISE_BEZIER_KNOTS.);
#496=B_SPLINE_SURFACE_WITH_KNOTS('',3,1,((#778,#779),(#780,#781),(#782,
#783),(#784,#785)),.SURF_OF_LINEAR_EXTRUSION.,.F.,.F.,.F.,(4,4),(2,2),(0.,
1.),(0.,1.),.PIECEWISE_BEZIER_KNOTS.);
#497=B_SPLINE_SURFACE_WITH_KNOTS('',3,1,((#813,#814),(#815,#816),(#817,
#818),(#819,#820)),.SURF_OF_LINEAR_EXTRUSION.,.F.,.F.,.F.,(4,4),(2,2),(0.,
1.),(0.,1.),.PIECEWISE_BEZIER_KNOTS.);
#498=B_SPLINE_SURFACE_WITH_KNOTS('',3,1,((#830,#831),(#832,#833),(#834,
#835),(#836,#837)),.SURF_OF_LINEAR_EXTRUSION.,.F.,.F.,.F.,(4,4),(2,2),(0.,
1.),(0.,1.),.PIECEWISE_BEZIER_KNOTS.);
#499=B_SPLINE_SURFACE_WITH_KNOTS('',3,1,((#847,#848),(#849,#850),(#851,
#852),(#853,#854)),.SURF_OF_LINEAR_EXTRUSION.,.F.,.F.,.F.,(4,4),(2,2),(0.,
1.),(0.,1.),.PIECEWISE_BEZIER_KNOTS.);
#500=B_SPLINE_SURFACE_WITH_KNOTS('',3,1,((#876,#877),(#878,#879),(#880,
#881),(#882,#883)),.SURF_OF_LINEAR_EXTRUSION.,.F.,.F.,.F.,(4,4),(2,2),(0.,
1.),(0.,1.),.PIECEWISE_BEZIER_KNOTS.);
#501=B_SPLINE_SURFACE_WITH_KNOTS('',3,1,((#893,#894),(#895,#896),(#897,
#898),(#899,#900)),.SURF_OF_LINEAR_EXTRUSION.,.F.,.F.,.F.,(4,4),(2,2),(0.,
1.),(0.,1.),.PIECEWISE_BEZIER_KNOTS.);
#502=B_SPLINE_SURFACE_WITH_KNOTS('',3,1,((#910,#911),(#912,#913),(#914,
#915),(#916,#917)),.SURF_OF_LINEAR_EXTRUSION.,.F.,.F.,.F.,(4,4),(2,2),(0.,
1.),(0.,1.),.PIECEWISE_BEZIER_KNOTS.);
#503=B_SPLINE_SURFACE_WITH_KNOTS('',3,1,((#927,#928),(#929,#930),(#931,
#932),(#933,#934)),.SURF_OF_LINEAR_EXTRUSION.,.F.,.F.,.F.,(4,4),(2,2),(0.,
1.),(0.,1.),.PIECEWISE_BEZIER_KNOTS.);
#504=B_SPLINE_SURFACE_WITH_KNOTS('',3,1,((#944,#945),(#946,#947),(#948,
#949),(#950,#951)),.SURF_OF_LINEAR_EXTRUSION.,.F.,.F.,.F.,(4,4),(2,2),(-0.0281286471427432,
1.),(0.,1.),.PIECEWISE_BEZIER_KNOTS.);
#505=B_SPLINE_SURFACE_WITH_KNOTS('',3,1,((#966,#967),(#968,#969),(#970,
#971),(#972,#973)),.SURF_OF_LINEAR_EXTRUSION.,.F.,.F.,.F.,(4,4),(2,2),(0.,
1.),(0.,1.),.PIECEWISE_BEZIER_KNOTS.);
#506=ADVANCED_FACE('',(#460),#490,.T.);
#507=ADVANCED_FACE('',(#461),#491,.T.);
#508=ADVANCED_FACE('',(#462),#492,.T.);
#509=ADVANCED_FACE('',(#463),#493,.T.);
#510=ADVANCED_FACE('',(#464),#494,.T.);
#511=ADVANCED_FACE('',(#465),#18,.T.);
#512=ADVANCED_FACE('',(#466),#19,.T.);
#513=ADVANCED_FACE('',(#467),#20,.T.);
#514=ADVANCED_FACE('',(#468),#21,.T.);
#515=ADVANCED_FACE('',(#469),#22,.T.);
#516=ADVANCED_FACE('',(#470),#495,.T.);
#517=ADVANCED_FACE('',(#471),#496,.T.);
#518=ADVANCED_FACE('',(#472),#16,.T.);
#519=ADVANCED_FACE('',(#473),#17,.T.);
#520=ADVANCED_FACE('',(#474),#23,.T.);
#521=ADVANCED_FACE('',(#475),#497,.T.);
#522=ADVANCED_FACE('',(#476),#498,.T.);
#523=ADVANCED_FACE('',(#477),#499,.T.);
#524=ADVANCED_FACE('',(#478),#24,.T.);
#525=ADVANCED_FACE('',(#479),#25,.T.);
#526=ADVANCED_FACE('',(#480),#500,.T.);
#527=ADVANCED_FACE('',(#481),#501,.T.);
#528=ADVANCED_FACE('',(#482),#502,.T.);
#529=ADVANCED_FACE('',(#483),#503,.T.);
#530=ADVANCED_FACE('',(#484),#504,.T.);
#531=ADVANCED_FACE('',(#485),#505,.T.);
#532=ADVANCED_FACE('',(#486,#487),#26,.T.);
#533=ADVANCED_FACE('',(#488,#489),#27,.F.);
#534=CLOSED_SHELL('',(#506,#507,#508,#509,#510,#511,#512,#513,#514,#515,
#516,#517,#518,#519,#520,#521,#522,#523,#524,#525,#526,#527,#528,#529,#530,
#531,#532,#533));
#535=STYLED_ITEM('',(#536),#543);
#536=PRESENTATION_STYLE_ASSIGNMENT((#537));
#537=SURFACE_STYLE_USAGE(.BOTH.,#538);
#538=SURFACE_SIDE_STYLE('',(#539));
#539=SURFACE_STYLE_FILL_AREA(#540);
#540=FILL_AREA_STYLE('',(#541));
#541=FILL_AREA_STYLE_COLOUR('',#542);
#542=COLOUR_RGB('',0.325490196078431,0.529411764705882,0.752941176470588);
#543=MANIFOLD_SOLID_BREP('Part 11',#534);
#544=SHAPE_DEFINITION_REPRESENTATION(#988,#545);
#545=SHAPE_REPRESENTATION('Part 11',(#546),#983);
#546=AXIS2_PLACEMENT_3D('',#639,#563,#564);
#547=AXIS2_PLACEMENT_3D('',#728,#571,#572);
#548=AXIS2_PLACEMENT_3D('',#734,#576,#577);
#549=AXIS2_PLACEMENT_3D('',#740,#581,#582);
#550=AXIS2_PLACEMENT_3D('',#749,#587,#588);
#551=AXIS2_PLACEMENT_3D('',#755,#592,#593);
#552=AXIS2_PLACEMENT_3D('',#795,#599,#600);
#553=AXIS2_PLACEMENT_3D('',#796,#601,#602);
#554=AXIS2_PLACEMENT_3D('',#800,#604,#605);
#555=AXIS2_PLACEMENT_3D('',#801,#606,#607);
#556=AXIS2_PLACEMENT_3D('',#802,#608,#609);
#557=AXIS2_PLACEMENT_3D('',#806,#611,#612);
#558=AXIS2_PLACEMENT_3D('',#807,#613,#614);
#559=AXIS2_PLACEMENT_3D('',#864,#621,#622);
#560=AXIS2_PLACEMENT_3D('',#870,#626,#627);
#561=AXIS2_PLACEMENT_3D('',#980,#635,#636);
#562=AXIS2_PLACEMENT_3D('',#981,#637,#638);
#563=DIRECTION('',(0.,0.,1.));
#564=DIRECTION('',(1.,0.,0.));
#565=DIRECTION('',(0.,0.,-1.));
#566=DIRECTION('',(0.,0.,-1.));
#567=DIRECTION('',(0.,0.,-1.));
#568=DIRECTION('',(0.,0.,-1.));
#569=DIRECTION('',(0.,0.,-1.));
#570=DIRECTION('',(0.,0.,-1.));
#571=DIRECTION('',(0.0404293456554327,-0.999182399769869,0.));
#572=DIRECTION('',(0.999182399769869,0.0404293456554327,0.));
#573=DIRECTION('',(-0.999182399769869,-0.0404293456554327,0.));
#574=DIRECTION('',(0.,0.,-1.));
#575=DIRECTION('',(-0.999182399769869,-0.0404293456554327,0.));
#576=DIRECTION('',(-1.,0.,0.));
#577=DIRECTION('',(0.,0.,1.));
#578=DIRECTION('',(0.,1.,0.));
#579=DIRECTION('',(0.,0.,-1.));
#580=DIRECTION('',(0.,1.,0.));
#581=DIRECTION('',(-0.978443288149807,-0.206515694015232,0.));
#582=DIRECTION('',(0.206515694015232,-0.978443288149807,0.));
#583=DIRECTION('',(-0.206515694015232,0.978443288149807,0.));
#584=DIRECTION('',(0.,0.,-1.));
#585=DIRECTION('',(-0.206515694015232,0.978443288149807,0.));
#586=DIRECTION('',(0.,0.,-1.));
#587=DIRECTION('',(0.,-1.,0.));
#588=DIRECTION('',(0.,0.,-1.));
#589=DIRECTION('',(-1.,0.,0.));
#590=DIRECTION('',(0.,0.,-1.));
#591=DIRECTION('',(-1.,0.,0.));
#592=DIRECTION('',(1.,0.,0.));
#593=DIRECTION('',(0.,0.,-1.));
#594=DIRECTION('',(0.,-1.,0.));
#595=DIRECTION('',(0.,0.,-1.));
#596=DIRECTION('',(0.,-1.,0.));
#597=DIRECTION('',(0.,0.,-1.));
#598=DIRECTION('',(0.,0.,-1.));
#599=DIRECTION('',(0.,0.,-1.));
#600=DIRECTION('',(-0.127254001219798,0.991870162457542,0.));
#601=DIRECTION('',(0.,0.,-1.));
#602=DIRECTION('',(-1.,0.,0.));
#603=DIRECTION('',(0.,0.,-1.));
#604=DIRECTION('',(0.,0.,-1.));
#605=DIRECTION('',(-1.,0.,0.));
#606=DIRECTION('',(0.,0.,-1.));
#607=DIRECTION('',(-0.363016395587751,0.931782751790608,0.));
#608=DIRECTION('',(0.,0.,-1.));
#609=DIRECTION('',(-1.,0.,0.));
#610=DIRECTION('',(0.,0.,-1.));
#611=DIRECTION('',(0.,0.,-1.));
#612=DIRECTION('',(-1.,0.,0.));
#613=DIRECTION('',(-0.927506804963734,-0.373806269003031,0.));
#614=DIRECTION('',(0.373806269003031,-0.927506804963734,0.));
#615=DIRECTION('',(-0.373806269003031,0.927506804963734,0.));
#616=DIRECTION('',(0.,0.,-1.));
#617=DIRECTION('',(-0.373806269003031,0.927506804963734,0.));
#618=DIRECTION('',(0.,0.,-1.));
#619=DIRECTION('',(0.,0.,-1.));
#620=DIRECTION('',(0.,0.,-1.));
#621=DIRECTION('',(-1.,0.,0.));
#622=DIRECTION('',(0.,0.,1.));
#623=DIRECTION('',(0.,1.,0.));
#624=DIRECTION('',(0.,0.,-1.));
#625=DIRECTION('',(0.,1.,0.));
#626=DIRECTION('',(-0.0326847650539567,0.99946571033396,0.));
#627=DIRECTION('',(-0.99946571033396,-0.0326847650539567,0.));
#628=DIRECTION('',(0.99946571033396,0.0326847650539567,0.));
#629=DIRECTION('',(0.,0.,-1.));
#630=DIRECTION('',(0.99946571033396,0.0326847650539567,0.));
#631=DIRECTION('',(0.,0.,-1.));
#632=DIRECTION('',(0.,0.,-1.));
#633=DIRECTION('',(0.,0.,-1.));
#634=DIRECTION('',(0.,0.,-1.));
#635=DIRECTION('',(0.,0.,1.));
#636=DIRECTION('',(1.,0.,0.));
#637=DIRECTION('',(0.,0.,1.));
#638=DIRECTION('',(1.,0.,0.));
#639=CARTESIAN_POINT('',(0.,0.,0.));
#640=CARTESIAN_POINT('',(-0.041176109332628,0.0212157032883413,0.0232));
#641=CARTESIAN_POINT('',(-0.041176109332628,0.0212157032883413,0.0222));
#642=CARTESIAN_POINT('',(-0.0409292981857472,0.0212157032883413,0.0232));
#643=CARTESIAN_POINT('',(-0.0409292981857472,0.0212157032883413,0.0222));
#644=CARTESIAN_POINT('',(-0.0407355387132216,0.0212832582981318,0.0232));
#645=CARTESIAN_POINT('',(-0.0407355387132216,0.0212832582981318,0.0222));
#646=CARTESIAN_POINT('',(-0.0405948309150514,0.021418368317713,0.0232));
#647=CARTESIAN_POINT('',(-0.0405948309150514,0.021418368317713,0.0222));
#648=CARTESIAN_POINT('',(-0.041176109332628,0.0212157032883413,0.0222));
#649=CARTESIAN_POINT('',(-0.0408058926123068,0.0212157032883413,0.0222));
#650=CARTESIAN_POINT('',(-0.0405948309150514,0.021418368317713,0.0222));
#651=CARTESIAN_POINT('',(-0.041176109332628,0.0212157032883413,0.0222));
#652=CARTESIAN_POINT('',(-0.0405948309150514,0.021418368317713,0.0222));
#653=CARTESIAN_POINT('',(-0.041176109332628,0.0212157032883413,0.0232));
#654=CARTESIAN_POINT('',(-0.041176109332628,0.0212157032883413,0.0232));
#655=CARTESIAN_POINT('',(-0.041176109332628,0.0212157032883413,0.0232));
#656=CARTESIAN_POINT('',(-0.0408058926123068,0.0212157032883413,0.0232));
#657=CARTESIAN_POINT('',(-0.0405948309150514,0.021418368317713,0.0232));
#658=CARTESIAN_POINT('',(-0.0405948309150514,0.021418368317713,0.0232));
#659=CARTESIAN_POINT('',(-0.0405948309150514,0.021418368317713,0.0232));
#660=CARTESIAN_POINT('',(-0.0415394560519536,0.0213275316378816,0.0232));
#661=CARTESIAN_POINT('',(-0.0415394560519536,0.0213275316378816,0.0222));
#662=CARTESIAN_POINT('',(-0.0414529449283047,0.0212529794048547,0.0232));
#663=CARTESIAN_POINT('',(-0.0414529449283047,0.0212529794048547,0.0222));
#664=CARTESIAN_POINT('',(-0.0413318293551961,0.0212157032883413,0.0232));
#665=CARTESIAN_POINT('',(-0.0413318293551961,0.0212157032883413,0.0222));
#666=CARTESIAN_POINT('',(-0.041176109332628,0.0212157032883413,0.0232));
#667=CARTESIAN_POINT('',(-0.041176109332628,0.0212157032883413,0.0222));
#668=CARTESIAN_POINT('',(-0.0415394560519536,0.0213275316378816,0.0222));
#669=CARTESIAN_POINT('',(-0.0414096893664802,0.0212157032883413,0.0222));
#670=CARTESIAN_POINT('',(-0.041176109332628,0.0212157032883413,0.0222));
#671=CARTESIAN_POINT('',(-0.0415394560519536,0.0213275316378816,0.0222));
#672=CARTESIAN_POINT('',(-0.0415394560519536,0.0213275316378816,0.0232));
#673=CARTESIAN_POINT('',(-0.0415394560519536,0.0213275316378816,0.0232));
#674=CARTESIAN_POINT('',(-0.0415394560519536,0.0213275316378816,0.0232));
#675=CARTESIAN_POINT('',(-0.0414096893664802,0.0212157032883413,0.0232));
#676=CARTESIAN_POINT('',(-0.041176109332628,0.0212157032883413,0.0232));
#677=CARTESIAN_POINT('',(-0.041669222737427,0.0216546200186191,0.0232));
#678=CARTESIAN_POINT('',(-0.041669222737427,0.0216546200186191,0.0222));
#679=CARTESIAN_POINT('',(-0.041669222737427,0.0215111133311543,0.0232));
#680=CARTESIAN_POINT('',(-0.041669222737427,0.0215111133311543,0.0222));
#681=CARTESIAN_POINT('',(-0.0416259671756026,0.0214020838709085,0.0232));
#682=CARTESIAN_POINT('',(-0.0416259671756026,0.0214020838709085,0.0222));
#683=CARTESIAN_POINT('',(-0.0415394560519536,0.0213275316378816,0.0232));
#684=CARTESIAN_POINT('',(-0.0415394560519536,0.0213275316378816,0.0222));
#685=CARTESIAN_POINT('',(-0.041669222737427,0.0216546200186191,0.0222));
#686=CARTESIAN_POINT('',(-0.041669222737427,0.0214393599874219,0.0222));
#687=CARTESIAN_POINT('',(-0.0415394560519536,0.0213275316378816,0.0222));
#688=CARTESIAN_POINT('',(-0.041669222737427,0.0216546200186191,0.0222));
#689=CARTESIAN_POINT('',(-0.041669222737427,0.0216546200186191,0.0232));
#690=CARTESIAN_POINT('',(-0.041669222737427,0.0216546200186191,0.0232));
#691=CARTESIAN_POINT('',(-0.041669222737427,0.0216546200186191,0.0232));
#692=CARTESIAN_POINT('',(-0.041669222737427,0.0214393599874219,0.0232));
#693=CARTESIAN_POINT('',(-0.0415394560519536,0.0213275316378816,0.0232));
#694=CARTESIAN_POINT('',(-0.0414608327072256,0.0220588050771966,0.0232));
#695=CARTESIAN_POINT('',(-0.0414608327072256,0.0220588050771966,0.0222));
#696=CARTESIAN_POINT('',(-0.0415997593940266,0.0219720395090663,0.0232));
#697=CARTESIAN_POINT('',(-0.0415997593940266,0.0219720395090663,0.0222));
#698=CARTESIAN_POINT('',(-0.041669222737427,0.0218373111562071,0.0232));
#699=CARTESIAN_POINT('',(-0.041669222737427,0.0218373111562071,0.0222));
#700=CARTESIAN_POINT('',(-0.041669222737427,0.0216546200186191,0.0232));
#701=CARTESIAN_POINT('',(-0.041669222737427,0.0216546200186191,0.0222));
#702=CARTESIAN_POINT('',(-0.0414608327072256,0.0220588050771966,0.0222));
#703=CARTESIAN_POINT('',(-0.041669222737427,0.0219286567250012,0.0222));
#704=CARTESIAN_POINT('',(-0.041669222737427,0.0216546200186191,0.0222));
#705=CARTESIAN_POINT('',(-0.0414608327072256,0.0220588050771966,0.0222));
#706=CARTESIAN_POINT('',(-0.0414608327072256,0.0220588050771966,0.0232));
#707=CARTESIAN_POINT('',(-0.0414608327072256,0.0220588050771966,0.0232));
#708=CARTESIAN_POINT('',(-0.0414608327072256,0.0220588050771966,0.0232));
#709=CARTESIAN_POINT('',(-0.041669222737427,0.0219286567250012,0.0232));
#710=CARTESIAN_POINT('',(-0.041669222737427,0.0216546200186191,0.0232));
#711=CARTESIAN_POINT('',(-0.040779939275212,0.0222057467651591,0.0232));
#712=CARTESIAN_POINT('',(-0.040779939275212,0.0222057467651591,0.0222));
#713=CARTESIAN_POINT('',(-0.0410949415430868,0.022194551207981,0.0232));
#714=CARTESIAN_POINT('',(-0.0410949415430868,0.022194551207981,0.0222));
#715=CARTESIAN_POINT('',(-0.0413219060204246,0.0221455706453269,0.0232));
#716=CARTESIAN_POINT('',(-0.0413219060204246,0.0221455706453269,0.0222));
#717=CARTESIAN_POINT('',(-0.0414608327072256,0.0220588050771966,0.0232));
#718=CARTESIAN_POINT('',(-0.0414608327072256,0.0220588050771966,0.0222));
#719=CARTESIAN_POINT('',(-0.040779939275212,0.0222057467651591,0.0222));
#720=CARTESIAN_POINT('',(-0.0412524426770242,0.022188953429392,0.0222));
#721=CARTESIAN_POINT('',(-0.0414608327072256,0.0220588050771966,0.0222));
#722=CARTESIAN_POINT('',(-0.040779939275212,0.0222057467651591,0.0222));
#723=CARTESIAN_POINT('',(-0.040779939275212,0.0222057467651591,0.0232));
#724=CARTESIAN_POINT('',(-0.040779939275212,0.0222057467651591,0.0232));
#725=CARTESIAN_POINT('',(-0.040779939275212,0.0222057467651591,0.0232));
#726=CARTESIAN_POINT('',(-0.0412524426770242,0.022188953429392,0.0232));
#727=CARTESIAN_POINT('',(-0.0414608327072256,0.0220588050771966,0.0232));
#728=CARTESIAN_POINT('',(-0.0405818542465041,0.0222137617663208,0.0232));
#729=CARTESIAN_POINT('',(-0.0405818542465041,0.0222137617663208,0.0222));
#730=CARTESIAN_POINT('',(-0.0403837692177961,0.0222217767674824,0.0222));
#731=CARTESIAN_POINT('',(-0.0403837692177961,0.0222217767674824,0.0232));
#732=CARTESIAN_POINT('',(-0.0403837692177961,0.0222217767674824,0.0232));
#733=CARTESIAN_POINT('',(-0.0405818542465041,0.0222137617663208,0.0232));
#734=CARTESIAN_POINT('',(-0.0403837692177961,0.0221038417503903,0.0232));
#735=CARTESIAN_POINT('',(-0.0403837692177961,0.0221038417503903,0.0222));
#736=CARTESIAN_POINT('',(-0.0403837692177961,0.0219859067332982,0.0222));
#737=CARTESIAN_POINT('',(-0.0403837692177961,0.0219859067332982,0.0232));
#738=CARTESIAN_POINT('',(-0.0403837692177961,0.0219859067332982,0.0232));
#739=CARTESIAN_POINT('',(-0.0403837692177961,0.0221038417503903,0.0232));
#740=CARTESIAN_POINT('',(-0.0403207942086693,0.021122576608178,0.0232));
#741=CARTESIAN_POINT('',(-0.0403207942086693,0.021122576608178,0.0222));
#742=CARTESIAN_POINT('',(-0.0402814825363053,0.0209363232478514,0.0222));
#743=CARTESIAN_POINT('',(-0.0403657770310334,0.0213207346497901,0.0222));
#744=CARTESIAN_POINT('',(-0.0402814825363053,0.0209363232478514,0.0232));
#745=CARTESIAN_POINT('',(-0.0402814825363053,0.0209363232478514,0.0232));
#746=CARTESIAN_POINT('',(-0.0403207942086693,0.021122576608178,0.0232));
#747=CARTESIAN_POINT('',(-0.0403657770310334,0.0213207346497901,0.0232));
#748=CARTESIAN_POINT('',(-0.0403657770310334,0.0213207346497901,0.0232));
#749=CARTESIAN_POINT('',(-0.0401345408483427,0.0209363232478514,0.0232));
#750=CARTESIAN_POINT('',(-0.0401345408483427,0.0209363232478514,0.0222));
#751=CARTESIAN_POINT('',(-0.0399875991603802,0.0209363232478514,0.0222));
#752=CARTESIAN_POINT('',(-0.0399875991603802,0.0209363232478514,0.0232));
#753=CARTESIAN_POINT('',(-0.0399875991603802,0.0209363232478514,0.0232));
#754=CARTESIAN_POINT('',(-0.0401345408483427,0.0209363232478514,0.0232));
#755=CARTESIAN_POINT('',(-0.0399875991603802,0.0218286600438422,0.0232));
#756=CARTESIAN_POINT('',(-0.0399875991603802,0.0218286600438422,0.0222));
#757=CARTESIAN_POINT('',(-0.0399875991603802,0.0227209968398331,0.0222));
#758=CARTESIAN_POINT('',(-0.0399875991603802,0.0227209968398331,0.0232));
#759=CARTESIAN_POINT('',(-0.0399875991603802,0.0227209968398331,0.0232));
#760=CARTESIAN_POINT('',(-0.0399875991603802,0.0218286600438422,0.0232));
#761=CARTESIAN_POINT('',(-0.0402131641930707,0.0233862419362454,0.0232));
#762=CARTESIAN_POINT('',(-0.0402131641930707,0.0233862419362454,0.0222));
#763=CARTESIAN_POINT('',(-0.0400627875046103,0.0232480785828884,0.0232));
#764=CARTESIAN_POINT('',(-0.0400627875046103,0.0232480785828884,0.0222));
#765=CARTESIAN_POINT('',(-0.0399875991603802,0.0230263302174176,0.0232));
#766=CARTESIAN_POINT('',(-0.0399875991603802,0.0230263302174176,0.0222));
#767=CARTESIAN_POINT('',(-0.0399875991603802,0.0227209968398331,0.0232));
#768=CARTESIAN_POINT('',(-0.0399875991603802,0.0227209968398331,0.0222));
#769=CARTESIAN_POINT('',(-0.0402131641930707,0.0233862419362454,0.0222));
#770=CARTESIAN_POINT('',(-0.0399875991603802,0.0231789969062099,0.0222));
#771=CARTESIAN_POINT('',(-0.0399875991603802,0.0227209968398331,0.0222));
#772=CARTESIAN_POINT('',(-0.0402131641930707,0.0233862419362454,0.0222));
#773=CARTESIAN_POINT('',(-0.0402131641930707,0.0233862419362454,0.0232));
#774=CARTESIAN_POINT('',(-0.0402131641930707,0.0233862419362454,0.0232));
#775=CARTESIAN_POINT('',(-0.0402131641930707,0.0233862419362454,0.0232));
#776=CARTESIAN_POINT('',(-0.0399875991603802,0.0231789969062099,0.0232));
#777=CARTESIAN_POINT('',(-0.0399875991603802,0.0227209968398331,0.0232));
#778=CARTESIAN_POINT('',(-0.0409058892934656,0.0235934869662809,0.0232));
#779=CARTESIAN_POINT('',(-0.0409058892934656,0.0235934869662809,0.0222));
#780=CARTESIAN_POINT('',(-0.0405944492483294,0.0235934869662809,0.0232));
#781=CARTESIAN_POINT('',(-0.0405944492483294,0.0235934869662809,0.0222));
#782=CARTESIAN_POINT('',(-0.0403635408815311,0.0235244052896024,0.0232));
#783=CARTESIAN_POINT('',(-0.0403635408815311,0.0235244052896024,0.0222));
#784=CARTESIAN_POINT('',(-0.0402131641930707,0.0233862419362454,0.0232));
#785=CARTESIAN_POINT('',(-0.0402131641930707,0.0233862419362454,0.0222));
#786=CARTESIAN_POINT('',(-0.0409058892934656,0.0235934869662809,0.0222));
#787=CARTESIAN_POINT('',(-0.0404387292257613,0.0235934869662809,0.0222));
#788=CARTESIAN_POINT('',(-0.0402131641930707,0.0233862419362454,0.0222));
#789=CARTESIAN_POINT('',(-0.0409058892934656,0.0235934869662809,0.0222));
#790=CARTESIAN_POINT('',(-0.0409058892934656,0.0235934869662809,0.0232));
#791=CARTESIAN_POINT('',(-0.0409058892934656,0.0235934869662809,0.0232));
#792=CARTESIAN_POINT('',(-0.0409058892934656,0.0235934869662809,0.0232));
#793=CARTESIAN_POINT('',(-0.0404387292257613,0.0235934869662809,0.0232));
#794=CARTESIAN_POINT('',(-0.0402131641930707,0.0233862419362454,0.0232));
#795=CARTESIAN_POINT('',(-0.0409035376209074,0.0217552710070137,0.0232));
#796=CARTESIAN_POINT('',(-0.0409035376209074,0.0217552710070137,0.0222));
#797=CARTESIAN_POINT('',(-0.0413680637352067,0.0235338533459678,0.0222));
#798=CARTESIAN_POINT('',(-0.0413680876937843,0.023533946957652,0.0232));
#799=CARTESIAN_POINT('',(-0.0413680637352067,0.0235338533459678,0.0232));
#800=CARTESIAN_POINT('',(-0.0409035376209074,0.0217552710070137,0.0232));
#801=CARTESIAN_POINT('',(-0.04091088893554,0.0217226449869636,0.0232));
#802=CARTESIAN_POINT('',(-0.04091088893554,0.0217226449869636,0.0222));
#803=CARTESIAN_POINT('',(-0.0417914247086829,0.0233700005284341,0.0222));
#804=CARTESIAN_POINT('',(-0.0417914247099538,0.0233700005288958,0.0232));
#805=CARTESIAN_POINT('',(-0.0417914247086829,0.0233700005284341,0.0232));
#806=CARTESIAN_POINT('',(-0.04091088893554,0.0217226449869636,0.0232));
#807=CARTESIAN_POINT('',(-0.041730289412944,0.0232183085785739,0.0232));
#808=CARTESIAN_POINT('',(-0.041730289412944,0.0232183085785739,0.0222));
#809=CARTESIAN_POINT('',(-0.041669222737427,0.0230667868899475,0.0222));
#810=CARTESIAN_POINT('',(-0.041669222737427,0.0230667868899475,0.0232));
#811=CARTESIAN_POINT('',(-0.041669222737427,0.0230667868899475,0.0232));
#812=CARTESIAN_POINT('',(-0.041730289412944,0.0232183085785739,0.0232));
#813=CARTESIAN_POINT('',(-0.0409303159636724,0.0232667802522654,0.0232));
#814=CARTESIAN_POINT('',(-0.0409303159636724,0.0232667802522654,0.0222));
#815=CARTESIAN_POINT('',(-0.0411481204396828,0.0232667802522654,0.0232));
#816=CARTESIAN_POINT('',(-0.0411481204396828,0.0232667802522654,0.0222));
#817=CARTESIAN_POINT('',(-0.0413944226976009,0.0232001157981595,0.0232));
#818=CARTESIAN_POINT('',(-0.0413944226976009,0.0232001157981595,0.0222));
#819=CARTESIAN_POINT('',(-0.041669222737427,0.0230667868899475,0.0232));
#820=CARTESIAN_POINT('',(-0.041669222737427,0.0230667868899475,0.0222));
#821=CARTESIAN_POINT('',(-0.0409303159636724,0.0232667802522654,0.0222));
#822=CARTESIAN_POINT('',(-0.0412570226776879,0.0232667802522654,0.0222));
#823=CARTESIAN_POINT('',(-0.041669222737427,0.0230667868899475,0.0222));
#824=CARTESIAN_POINT('',(-0.0409303159636724,0.0232667802522654,0.0222));
#825=CARTESIAN_POINT('',(-0.0409303159636724,0.0232667802522654,0.0232));
#826=CARTESIAN_POINT('',(-0.0409303159636724,0.0232667802522654,0.0232));
#827=CARTESIAN_POINT('',(-0.0409303159636724,0.0232667802522654,0.0232));
#828=CARTESIAN_POINT('',(-0.0412570226776879,0.0232667802522654,0.0232));
#829=CARTESIAN_POINT('',(-0.041669222737427,0.0230667868899475,0.0232));
#830=CARTESIAN_POINT('',(-0.0405066659022739,0.0231202202310248,0.0232));
#831=CARTESIAN_POINT('',(-0.0405066659022739,0.0231202202310248,0.0222));
#832=CARTESIAN_POINT('',(-0.0405947036928108,0.0232179269118519,0.0232));
#833=CARTESIAN_POINT('',(-0.0405947036928108,0.0232179269118519,0.0222));
#834=CARTESIAN_POINT('',(-0.0407359203799436,0.0232667802522654,0.0232));
#835=CARTESIAN_POINT('',(-0.0407359203799436,0.0232667802522654,0.0222));
#836=CARTESIAN_POINT('',(-0.0409303159636724,0.0232667802522654,0.0232));
#837=CARTESIAN_POINT('',(-0.0409303159636724,0.0232667802522654,0.0222));
#838=CARTESIAN_POINT('',(-0.0405066659022739,0.0231202202310248,0.0222));
#839=CARTESIAN_POINT('',(-0.0406387225880792,0.0232667802522654,0.0222));
#840=CARTESIAN_POINT('',(-0.0409303159636724,0.0232667802522654,0.0222));
#841=CARTESIAN_POINT('',(-0.0405066659022739,0.0231202202310248,0.0222));
#842=CARTESIAN_POINT('',(-0.0405066659022739,0.0231202202310248,0.0232));
#843=CARTESIAN_POINT('',(-0.0405066659022739,0.0231202202310248,0.0232));
#844=CARTESIAN_POINT('',(-0.0405066659022739,0.0231202202310248,0.0232));
#845=CARTESIAN_POINT('',(-0.0406387225880792,0.0232667802522654,0.0232));
#846=CARTESIAN_POINT('',(-0.0409303159636724,0.0232667802522654,0.0232));
#847=CARTESIAN_POINT('',(-0.0403746092164686,0.0226660368318678,0.0232));
#848=CARTESIAN_POINT('',(-0.0403746092164686,0.0226660368318678,0.0222));
#849=CARTESIAN_POINT('',(-0.0403746092164686,0.0228711190838121,0.0232));
#850=CARTESIAN_POINT('',(-0.0403746092164686,0.0228711190838121,0.0222));
#851=CARTESIAN_POINT('',(-0.040418628111737,0.0230225135501978,0.0232));
#852=CARTESIAN_POINT('',(-0.040418628111737,0.0230225135501978,0.0222));
#853=CARTESIAN_POINT('',(-0.0405066659022739,0.0231202202310248,0.0232));
#854=CARTESIAN_POINT('',(-0.0405066659022739,0.0231202202310248,0.0222));
#855=CARTESIAN_POINT('',(-0.0403746092164686,0.0226660368318678,0.0222));
#856=CARTESIAN_POINT('',(-0.0403746092164686,0.0229736602097843,0.0222));
#857=CARTESIAN_POINT('',(-0.0405066659022739,0.0231202202310248,0.0222));
#858=CARTESIAN_POINT('',(-0.0403746092164686,0.0226660368318678,0.0222));
#859=CARTESIAN_POINT('',(-0.0403746092164686,0.0226660368318678,0.0232));
#860=CARTESIAN_POINT('',(-0.0403746092164686,0.0226660368318678,0.0232));
#861=CARTESIAN_POINT('',(-0.0403746092164686,0.0226660368318678,0.0232));
#862=CARTESIAN_POINT('',(-0.0403746092164686,0.0229736602097843,0.0232));
#863=CARTESIAN_POINT('',(-0.0405066659022739,0.0231202202310248,0.0232));
#864=CARTESIAN_POINT('',(-0.0403746092164686,0.0225847418200859,0.0232));
#865=CARTESIAN_POINT('',(-0.0403746092164686,0.0225847418200859,0.0222));
#866=CARTESIAN_POINT('',(-0.0403746092164686,0.0225034468083041,0.0222));
#867=CARTESIAN_POINT('',(-0.0403746092164686,0.0225034468083041,0.0232));
#868=CARTESIAN_POINT('',(-0.0403746092164686,0.0225034468083041,0.0232));
#869=CARTESIAN_POINT('',(-0.0403746092164686,0.0225847418200859,0.0232));
#870=CARTESIAN_POINT('',(-0.0405963575819394,0.0224961951405865,0.0232));
#871=CARTESIAN_POINT('',(-0.0405963575819394,0.0224961951405865,0.0222));
#872=CARTESIAN_POINT('',(-0.0408181059474101,0.0224889434728688,0.0222));
#873=CARTESIAN_POINT('',(-0.0408181059474101,0.0224889434728688,0.0232));
#874=CARTESIAN_POINT('',(-0.0408181059474101,0.0224889434728688,0.0232));
#875=CARTESIAN_POINT('',(-0.0405963575819394,0.0224961951405865,0.0232));
#876=CARTESIAN_POINT('',(-0.042084476130942,0.0216592000192828,0.0232));
#877=CARTESIAN_POINT('',(-0.042084476130942,0.0216592000192828,0.0222));
#878=CARTESIAN_POINT('',(-0.042084476130942,0.0221869178735414,0.0232));
#879=CARTESIAN_POINT('',(-0.042084476130942,0.0221869178735414,0.0222));
#880=CARTESIAN_POINT('',(-0.0416623527364314,0.0224634990247368,0.0232));
#881=CARTESIAN_POINT('',(-0.0416623527364314,0.0224634990247368,0.0222));
#882=CARTESIAN_POINT('',(-0.0408181059474101,0.0224889434728688,0.0232));
#883=CARTESIAN_POINT('',(-0.0408181059474101,0.0224889434728688,0.0222));
#884=CARTESIAN_POINT('',(-0.042084476130942,0.0216592000192828,0.0222));
#885=CARTESIAN_POINT('',(-0.042084476130942,0.0224507768006708,0.0222));
#886=CARTESIAN_POINT('',(-0.0408181059474101,0.0224889434728688,0.0222));
#887=CARTESIAN_POINT('',(-0.042084476130942,0.0216592000192828,0.0222));
#888=CARTESIAN_POINT('',(-0.042084476130942,0.0216592000192828,0.0232));
#889=CARTESIAN_POINT('',(-0.042084476130942,0.0216592000192828,0.0232));
#890=CARTESIAN_POINT('',(-0.042084476130942,0.0216592000192828,0.0232));
#891=CARTESIAN_POINT('',(-0.042084476130942,0.0224507768006708,0.0232));
#892=CARTESIAN_POINT('',(-0.0408181059474101,0.0224889434728688,0.0232));
#893=CARTESIAN_POINT('',(-0.0418638727656372,0.0210889899366437,0.0232));
#894=CARTESIAN_POINT('',(-0.0418638727656372,0.0210889899366437,0.0222));
#895=CARTESIAN_POINT('',(-0.0420109416758404,0.0212228277338182,0.0232));
#896=CARTESIAN_POINT('',(-0.0420109416758404,0.0212228277338182,0.0222));
#897=CARTESIAN_POINT('',(-0.042084476130942,0.0214128977613646,0.0232));
#898=CARTESIAN_POINT('',(-0.042084476130942,0.0214128977613646,0.0222));
#899=CARTESIAN_POINT('',(-0.042084476130942,0.0216592000192828,0.0232));
#900=CARTESIAN_POINT('',(-0.042084476130942,0.0216592000192828,0.0222));
#901=CARTESIAN_POINT('',(-0.0418638727656372,0.0210889899366437,0.0222));
#902=CARTESIAN_POINT('',(-0.042084476130942,0.0212897466324055,0.0222));
#903=CARTESIAN_POINT('',(-0.042084476130942,0.0216592000192828,0.0222));
#904=CARTESIAN_POINT('',(-0.0418638727656372,0.0210889899366437,0.0222));
#905=CARTESIAN_POINT('',(-0.0418638727656372,0.0210889899366437,0.0232));
#906=CARTESIAN_POINT('',(-0.0418638727656372,0.0210889899366437,0.0232));
#907=CARTESIAN_POINT('',(-0.0418638727656372,0.0210889899366437,0.0232));
#908=CARTESIAN_POINT('',(-0.042084476130942,0.0212897466324055,0.0232));
#909=CARTESIAN_POINT('',(-0.042084476130942,0.0216592000192828,0.0232));
#910=CARTESIAN_POINT('',(-0.041254732677356,0.0208882332408818,0.0232));
#911=CARTESIAN_POINT('',(-0.041254732677356,0.0208882332408818,0.0222));
#912=CARTESIAN_POINT('',(-0.0415137571593402,0.0208882332408818,0.0232));
#913=CARTESIAN_POINT('',(-0.0415137571593402,0.0208882332408818,0.0222));
#914=CARTESIAN_POINT('',(-0.041716803855434,0.0209551521394691,0.0232));
#915=CARTESIAN_POINT('',(-0.041716803855434,0.0209551521394691,0.0222));
#916=CARTESIAN_POINT('',(-0.0418638727656372,0.0210889899366437,0.0232));
#917=CARTESIAN_POINT('',(-0.0418638727656372,0.0210889899366437,0.0222));
#918=CARTESIAN_POINT('',(-0.041254732677356,0.0208882332408818,0.0222));
#919=CARTESIAN_POINT('',(-0.0416432694003324,0.0208882332408818,0.0222));
#920=CARTESIAN_POINT('',(-0.0418638727656372,0.0210889899366437,0.0222));
#921=CARTESIAN_POINT('',(-0.041254732677356,0.0208882332408818,0.0222));
#922=CARTESIAN_POINT('',(-0.041254732677356,0.0208882332408818,0.0232));
#923=CARTESIAN_POINT('',(-0.041254732677356,0.0208882332408818,0.0232));
#924=CARTESIAN_POINT('',(-0.041254732677356,0.0208882332408818,0.0232));
#925=CARTESIAN_POINT('',(-0.0416432694003324,0.0208882332408818,0.0232));
#926=CARTESIAN_POINT('',(-0.0418638727656372,0.0210889899366437,0.0232));
#927=CARTESIAN_POINT('',(-0.0407688709402746,0.0209756349202154,0.0232));
#928=CARTESIAN_POINT('',(-0.0407688709402746,0.0209756349202154,0.0222));
#929=CARTESIAN_POINT('',(-0.0408983831812667,0.020917367133993,0.0232));
#930=CARTESIAN_POINT('',(-0.0408983831812667,0.020917367133993,0.0222));
#931=CARTESIAN_POINT('',(-0.0410603370936272,0.0208882332408818,0.0232));
#932=CARTESIAN_POINT('',(-0.0410603370936272,0.0208882332408818,0.0222));
#933=CARTESIAN_POINT('',(-0.041254732677356,0.0208882332408818,0.0232));
#934=CARTESIAN_POINT('',(-0.041254732677356,0.0208882332408818,0.0222));
#935=CARTESIAN_POINT('',(-0.0407688709402746,0.0209756349202154,0.0222));
#936=CARTESIAN_POINT('',(-0.0409631393017628,0.0208882332408818,0.0222));
#937=CARTESIAN_POINT('',(-0.041254732677356,0.0208882332408818,0.0222));
#938=CARTESIAN_POINT('',(-0.0407688709402746,0.0209756349202154,0.0222));
#939=CARTESIAN_POINT('',(-0.0407688709402746,0.0209756349202154,0.0232));
#940=CARTESIAN_POINT('',(-0.0407688709402746,0.0209756349202154,0.0232));
#941=CARTESIAN_POINT('',(-0.0407688709402746,0.0209756349202154,0.0232));
#942=CARTESIAN_POINT('',(-0.0409631393017628,0.0208882332408818,0.0232));
#943=CARTESIAN_POINT('',(-0.041254732677356,0.0208882332408818,0.0232));
#944=CARTESIAN_POINT('',(-0.0403681957901384,0.0213226576383953,0.0232));
#945=CARTESIAN_POINT('',(-0.0403681957901384,0.0213226576383953,0.0222));
#946=CARTESIAN_POINT('',(-0.0405021358402393,0.0211541861691278,0.0232));
#947=CARTESIAN_POINT('',(-0.0405021358402393,0.0211541861691278,0.0222));
#948=CARTESIAN_POINT('',(-0.040635715695155,0.0210355417004362,0.0232));
#949=CARTESIAN_POINT('',(-0.040635715695155,0.0210355417004362,0.0222));
#950=CARTESIAN_POINT('',(-0.0407688709402746,0.0209756349202154,0.0232));
#951=CARTESIAN_POINT('',(-0.0407688709402746,0.0209756349202154,0.0222));
#952=CARTESIAN_POINT('',(-0.0403675810009888,0.0213234309278725,0.0222));
#953=CARTESIAN_POINT('',(-0.0403695732531643,0.021320925048183,0.0222));
#954=CARTESIAN_POINT('',(-0.0403715655053398,0.0213184191684935,0.0222));
#955=CARTESIAN_POINT('',(-0.0403753773612361,0.021313624568499,0.0222));
#956=CARTESIAN_POINT('',(-0.0403791892171323,0.0213088299685046,0.0222));
#957=CARTESIAN_POINT('',(-0.0405746025787865,0.021063036599549,0.0222));
#958=CARTESIAN_POINT('',(-0.0407688709402746,0.0209756349202154,0.0222));
#959=CARTESIAN_POINT('',(-0.0403675810009888,0.0213234309278725,0.0232));
#960=CARTESIAN_POINT('',(-0.0403695732531643,0.021320925048183,0.0232));
#961=CARTESIAN_POINT('',(-0.0403715655053398,0.0213184191684935,0.0232));
#962=CARTESIAN_POINT('',(-0.0403753773612361,0.021313624568499,0.0232));
#963=CARTESIAN_POINT('',(-0.0403791892171323,0.0213088299685046,0.0232));
#964=CARTESIAN_POINT('',(-0.0405746025787865,0.021063036599549,0.0232));
#965=CARTESIAN_POINT('',(-0.0407688709402746,0.0209756349202154,0.0232));
#966=CARTESIAN_POINT('',(-0.0405948309150514,0.021418368317713,0.0232));
#967=CARTESIAN_POINT('',(-0.0405948309150514,0.021418368317713,0.0222));
#968=CARTESIAN_POINT('',(-0.0404541231168812,0.0215534783372942,0.0232));
#969=CARTESIAN_POINT('',(-0.0404541231168812,0.0215534783372942,0.0222));
#970=CARTESIAN_POINT('',(-0.0403837692177961,0.0217426578091559,0.0232));
#971=CARTESIAN_POINT('',(-0.0403837692177961,0.0217426578091559,0.0222));
#972=CARTESIAN_POINT('',(-0.0403837692177961,0.0219859067332982,0.0232));
#973=CARTESIAN_POINT('',(-0.0403837692177961,0.0219859067332982,0.0222));
#974=CARTESIAN_POINT('',(-0.0405948309150514,0.021418368317713,0.0222));
#975=CARTESIAN_POINT('',(-0.0403837692177961,0.0216210333470847,0.0222));
#976=CARTESIAN_POINT('',(-0.0403837692177961,0.0219859067332982,0.0222));
#977=CARTESIAN_POINT('',(-0.0405948309150514,0.021418368317713,0.0232));
#978=CARTESIAN_POINT('',(-0.0403837692177961,0.0216210333470847,0.0232));
#979=CARTESIAN_POINT('',(-0.0403837692177961,0.0219859067332982,0.0232));
#980=CARTESIAN_POINT('',(-0.035336010574676,0.0221931616239257,0.0232));
#981=CARTESIAN_POINT('',(-0.035336010574676,0.0221931616239257,0.0222));
#982=MECHANICAL_DESIGN_GEOMETRIC_PRESENTATION_REPRESENTATION('',(#535),
#983);
#983=(
GEOMETRIC_REPRESENTATION_CONTEXT(3)
GLOBAL_UNCERTAINTY_ASSIGNED_CONTEXT((#984))
GLOBAL_UNIT_ASSIGNED_CONTEXT((#987,#986,#985))
REPRESENTATION_CONTEXT('Part 11','TOP_LEVEL_ASSEMBLY_PART')
);
#984=UNCERTAINTY_MEASURE_WITH_UNIT(LENGTH_MEASURE(2.E-5),#987,
'DISTANCE_ACCURACY_VALUE','Maximum Tolerance applied to model');
#985=(
NAMED_UNIT(*)
SI_UNIT($,.STERADIAN.)
SOLID_ANGLE_UNIT()
);
#986=(
NAMED_UNIT(*)
PLANE_ANGLE_UNIT()
SI_UNIT($,.RADIAN.)
);
#987=(
LENGTH_UNIT()
NAMED_UNIT(*)
SI_UNIT($,.METRE.)
);
#988=PRODUCT_DEFINITION_SHAPE('','',#989);
#989=PRODUCT_DEFINITION('','',#991,#990);
#990=PRODUCT_DEFINITION_CONTEXT('',#997,'design');
#991=PRODUCT_DEFINITION_FORMATION_WITH_SPECIFIED_SOURCE('','',#993,
 .NOT_KNOWN.);
#992=PRODUCT_RELATED_PRODUCT_CATEGORY('','',(#993));
#993=PRODUCT('Part 11','Part 11','Part 11',(#995));
#994=PRODUCT_CATEGORY('','');
#995=PRODUCT_CONTEXT('',#997,'mechanical');
#996=APPLICATION_PROTOCOL_DEFINITION('international standard',
'ap242_managed_model_based_3d_engineering',2020,#997);
#997=APPLICATION_CONTEXT('managed model based 3d engineering');
ENDSEC;
END-ISO-10303-21;
