%TF.GenerationSoftware,KiCad,Pcbnew,10.0.5*%
%TF.CreationDate,2026-08-31T10:10:13-04:00*%
%TF.ProjectId,hackpad,6861636b-7061-4642-9e6b-696361645f70,rev?*%
%TF.SameCoordinates,Original*%
%TF.FileFunction,Copper,L2,Bot*%
%TF.FilePolarity,Positive*%
%FSLAX46Y46*%
G04 Gerber Fmt 4.6, Leading zero omitted, Abs format (unit mm)*
G04 Created by KiCad (PCBNEW 10.0.5) date 2026-08-31 10:10:13*
%MOMM*%
%LPD*%
G01*
G04 APERTURE LIST*
%TA.AperFunction,ComponentPad*%
%ADD10R,2.000000X2.000000*%
%TD*%
%TA.AperFunction,ComponentPad*%
%ADD11C,2.000000*%
%TD*%
%TA.AperFunction,ComponentPad*%
%ADD12R,3.200000X2.000000*%
%TD*%
%TA.AperFunction,ComponentPad*%
%ADD13C,2.200000*%
%TD*%
%TA.AperFunction,ComponentPad*%
%ADD14R,3.500000X1.700000*%
%TD*%
%TA.AperFunction,ComponentPad*%
%ADD15O,3.600000X1.700000*%
%TD*%
%TA.AperFunction,ComponentPad*%
%ADD16O,3.700000X1.700000*%
%TD*%
%TA.AperFunction,ViaPad*%
%ADD17C,0.600000*%
%TD*%
%TA.AperFunction,Conductor*%
%ADD18C,0.200000*%
%TD*%
G04 APERTURE END LIST*
D10*
%TO.P,RE1,A,A_A*%
%TO.N,Net-(U1-PB08_A6_D6_TX)*%
X183650000Y-113650000D03*
D11*
%TO.P,RE1,B,B_B*%
%TO.N,Net-(U1-PA9_A5_D5_SCL)*%
X183650000Y-118650000D03*
%TO.P,RE1,C,C_C*%
%TO.N,GND*%
X183650000Y-116150000D03*
D12*
%TO.P,RE1,MP,MP_MP*%
%TO.N,unconnected-(RE1-PadMP)*%
X191150000Y-110550000D03*
X191150000Y-121750000D03*
D11*
%TO.P,RE1,S1,S1_S1*%
%TO.N,Net-(U1-5V)*%
X198150000Y-118650000D03*
%TO.P,RE1,S2,S2_S2*%
%TO.N,Net-(U1-PA8_A4_D4_SDA)*%
X198150000Y-113650000D03*
%TD*%
D13*
%TO.P,SW6,1,1_1*%
%TO.N,Net-(U1-5V)*%
X174410000Y-111820000D03*
%TO.P,SW6,2,2_2*%
%TO.N,Net-(U1-PA02_A0_D0)*%
X168060000Y-114360000D03*
%TD*%
%TO.P,SW4,1,1_1*%
%TO.N,Net-(U1-5V)*%
X155450000Y-111800000D03*
%TO.P,SW4,2,2_2*%
%TO.N,Net-(U1-PA5_A9_D9_MISO)*%
X149100000Y-114340000D03*
%TD*%
%TO.P,SW2,1,1_1*%
%TO.N,Net-(U1-5V)*%
X136410000Y-111820000D03*
%TO.P,SW2,2,2_2*%
%TO.N,Net-(U1-PB09_A7_D7_RX)*%
X130060000Y-114360000D03*
%TD*%
D14*
%TO.P,U1,1,PA02_A0_D0_1*%
%TO.N,Net-(U1-PA02_A0_D0)*%
X142190000Y-89150000D03*
D15*
%TO.P,U1,2,PA4_A1_D1_2*%
%TO.N,Net-(U1-PA4_A1_D1)*%
X142190000Y-91690000D03*
%TO.P,U1,3,PA10_A2_D2_3*%
%TO.N,Net-(U1-PA10_A2_D2)*%
X142190000Y-94230000D03*
%TO.P,U1,4,PA11_A3_D3_4*%
%TO.N,unconnected-(U1-PA11_A3_D3-Pad4)*%
X142190000Y-96770000D03*
%TO.P,U1,5,PA8_A4_D4_SDA_5*%
%TO.N,Net-(U1-PA8_A4_D4_SDA)*%
X142190000Y-99310000D03*
%TO.P,U1,6,PA9_A5_D5_SCL_6*%
%TO.N,Net-(U1-PA9_A5_D5_SCL)*%
X142190000Y-101850000D03*
%TO.P,U1,7,PB08_A6_D6_TX_7*%
%TO.N,Net-(U1-PB08_A6_D6_TX)*%
X142190000Y-104390000D03*
%TO.P,U1,8,PB09_A7_D7_RX_8*%
%TO.N,Net-(U1-PB09_A7_D7_RX)*%
X124940000Y-104390000D03*
%TO.P,U1,9,PA7_A8_D8_SCK_9*%
%TO.N,Net-(U1-PA7_A8_D8_SCK)*%
X124940000Y-101850000D03*
%TO.P,U1,10,PA5_A9_D9_MISO_10*%
%TO.N,Net-(U1-PA5_A9_D9_MISO)*%
X124940000Y-99310000D03*
D16*
%TO.P,U1,11,PA6_A10_D10_MOSI_11*%
%TO.N,unconnected-(U1-PA6_A10_D10_MOSI-Pad11)*%
X124940000Y-96770000D03*
%TO.P,U1,12,3V3_12*%
%TO.N,unconnected-(U1-3V3-Pad12)*%
X124940000Y-94230000D03*
%TO.P,U1,13,GND_13*%
%TO.N,GND*%
X124940000Y-91690000D03*
%TO.P,U1,14,5V_14*%
%TO.N,Net-(U1-5V)*%
X124940000Y-89150000D03*
%TD*%
D13*
%TO.P,SW5,1,1_1*%
%TO.N,Net-(U1-5V)*%
X174460000Y-92770000D03*
%TO.P,SW5,2,2_2*%
%TO.N,Net-(U1-PA4_A1_D1)*%
X168110000Y-95310000D03*
%TD*%
%TO.P,SW3,1,1_1*%
%TO.N,Net-(U1-5V)*%
X155450000Y-92810000D03*
%TO.P,SW3,2,2_2*%
%TO.N,Net-(U1-PA7_A8_D8_SCK)*%
X149100000Y-95350000D03*
%TD*%
D17*
%TO.N,Net-(U1-PB08_A6_D6_TX)*%
X151500000Y-104450000D03*
%TO.N,Net-(U1-PA9_A5_D5_SCL)*%
X175050000Y-114800000D03*
%TO.N,Net-(U1-5V)*%
X168750000Y-102750000D03*
X168750000Y-105350000D03*
X190300000Y-118650000D03*
%TO.N,Net-(U1-PA7_A8_D8_SCK)*%
X131450000Y-101850000D03*
%TO.N,GND*%
X144650000Y-87400000D03*
X134950000Y-91700000D03*
X178050000Y-95135504D03*
X190250000Y-99150000D03*
X151950000Y-91800000D03*
X181100000Y-100800000D03*
X181100000Y-102850000D03*
X176850000Y-95150000D03*
%TO.N,Net-(U1-PA8_A4_D4_SDA)*%
X171050000Y-102150000D03*
X163800000Y-102150000D03*
%TO.N,Net-(U1-PA02_A0_D0)*%
X159750000Y-106050000D03*
%TO.N,Net-(U1-PA4_A1_D1)*%
X150050000Y-93400000D03*
%TO.N,Net-(U1-PA5_A9_D9_MISO)*%
X141550000Y-108600000D03*
%TD*%
%TO.N,Net-(U1-PB08_A6_D6_TX)*%
D18*
X153700000Y-106650000D02*
X151500000Y-104450000D01*
X176650000Y-106650000D02*
X153700000Y-106650000D01*
X183650000Y-113650000D02*
X176650000Y-106650000D01*
%TO.N,Net-(U1-PA9_A5_D5_SCL)*%
X154650000Y-110400000D02*
X146100000Y-101850000D01*
X175050000Y-114800000D02*
X170650000Y-110400000D01*
X170650000Y-110400000D02*
X154650000Y-110400000D01*
X146100000Y-101850000D02*
X141190000Y-101850000D01*
%TO.N,Net-(U1-5V)*%
X190300000Y-118650000D02*
X198150000Y-118650000D01*
X168750000Y-102750000D02*
X168750000Y-105350000D01*
%TO.N,Net-(U1-PA7_A8_D8_SCK)*%
X149140000Y-95310000D02*
X149100000Y-95350000D01*
X131450000Y-101850000D02*
X125940000Y-101850000D01*
%TO.N,GND*%
X190250000Y-99150000D02*
X196550000Y-105450000D01*
X181100000Y-102850000D02*
X181100000Y-100800000D01*
X147550000Y-87400000D02*
X144650000Y-87400000D01*
X195650000Y-116150000D02*
X183650000Y-116150000D01*
X176864496Y-95135504D02*
X176850000Y-95150000D01*
X125950000Y-91700000D02*
X125940000Y-91690000D01*
X151950000Y-91800000D02*
X147550000Y-87400000D01*
X134950000Y-91700000D02*
X125950000Y-91700000D01*
X196550000Y-105450000D02*
X196550000Y-115250000D01*
X196550000Y-115250000D02*
X195650000Y-116150000D01*
X178050000Y-95135504D02*
X176864496Y-95135504D01*
%TO.N,Net-(U1-PA8_A4_D4_SDA)*%
X171050000Y-102150000D02*
X163800000Y-102150000D01*
%TO.N,Net-(U1-PA02_A0_D0)*%
X147493402Y-89150000D02*
X141190000Y-89150000D01*
X159750000Y-106050000D02*
X159750000Y-101406598D01*
X159750000Y-101406598D02*
X147493402Y-89150000D01*
%TO.N,Net-(U1-PA4_A1_D1)*%
X148340000Y-91690000D02*
X141190000Y-91690000D01*
X168060000Y-95360000D02*
X168110000Y-95310000D01*
X150050000Y-93400000D02*
X148340000Y-91690000D01*
%TO.N,Net-(U1-PA5_A9_D9_MISO)*%
X148810000Y-114340000D02*
X148790000Y-114360000D01*
X149100000Y-114340000D02*
X148810000Y-114340000D01*
X141550000Y-108600000D02*
X132260000Y-99310000D01*
X132260000Y-99310000D02*
X125940000Y-99310000D01*
%TD*%
M02*
