M48
; DRILL file KiCad 10.0.5 date 2026-08-31T10:12:43
; FORMAT={-:-/ absolute / metric / decimal}
; #@! TF.CreationDate,2026-08-31T10:12:43-04:00
; #@! TF.GenerationSoftware,Kicad,Pcbnew,10.0.5
; #@! TF.FileFunction,Plated,1,2,PTH
FMAT,2
METRIC
; #@! TA.AperFunction,Plated,PTH,ViaDrill
T1C0.300
; #@! TA.AperFunction,Plated,PTH,ComponentDrill
T2C1.000
; #@! TA.AperFunction,Plated,PTH,ComponentDrill
T3C1.500
%
G90
G05
T1
X131.45Y-101.85
X134.95Y-91.7
X141.55Y-108.6
X144.65Y-87.4
X150.05Y-93.4
X151.5Y-104.45
X151.95Y-91.8
X159.75Y-106.05
X163.8Y-102.15
X168.75Y-102.75
X168.75Y-105.35
X171.05Y-102.15
X175.05Y-114.8
X176.85Y-95.15
X178.05Y-95.136
X181.1Y-100.8
X181.1Y-102.85
X190.25Y-99.15
X190.3Y-118.65
T2
X125.94Y-89.15
X125.94Y-91.69
X125.94Y-94.23
X125.94Y-96.77
X125.94Y-99.31
X125.94Y-101.85
X125.94Y-104.39
X141.19Y-89.15
X141.19Y-91.69
X141.19Y-94.23
X141.19Y-96.77
X141.19Y-99.31
X141.19Y-101.85
X141.19Y-104.39
X183.65Y-113.65
X183.65Y-116.15
X183.65Y-118.65
X198.15Y-113.65
X198.15Y-118.65
T3
X130.06Y-114.36
X136.41Y-111.82
X149.1Y-95.35
X149.1Y-114.34
X155.45Y-92.81
X155.45Y-111.8
X168.06Y-114.36
X168.11Y-95.31
X174.41Y-111.82
X174.46Y-92.77
T3
G00X190.5Y-110.55
M15
G01X191.8Y-110.55
M16
G05
G00X190.5Y-121.75
M15
G01X191.8Y-121.75
M16
G05
M30
