%TF.GenerationSoftware,KiCad,Pcbnew,10.0.5*%
%TF.CreationDate,2026-08-30T20:25:19-04:00*%
%TF.ProjectId,hackpad,6861636b-7061-4642-9e6b-696361645f70,rev?*%
%TF.SameCoordinates,Original*%
%TF.FileFunction,Copper,L1,Top*%
%TF.FilePolarity,Positive*%
%FSLAX46Y46*%
G04 Gerber Fmt 4.6, Leading zero omitted, Abs format (unit mm)*
G04 Created by KiCad (PCBNEW 10.0.5) date 2026-08-30 20:25:19*
%MOMM*%
%LPD*%
G01*
G04 APERTURE LIST*
G04 Aperture macros list*
%AMRoundRect*
0 Rectangle with rounded corners*
0 $1 Rounding radius*
0 $2 $3 $4 $5 $6 $7 $8 $9 X,Y pos of 4 corners*
0 Add a 4 corners polygon primitive as box body*
4,1,4,$2,$3,$4,$5,$6,$7,$8,$9,$2,$3,0*
0 Add four circle primitives for the rounded corners*
1,1,$1+$1,$2,$3*
1,1,$1+$1,$4,$5*
1,1,$1+$1,$6,$7*
1,1,$1+$1,$8,$9*
0 Add four rect primitives between the rounded corners*
20,1,$1+$1,$2,$3,$4,$5,0*
20,1,$1+$1,$4,$5,$6,$7,0*
20,1,$1+$1,$6,$7,$8,$9,0*
20,1,$1+$1,$8,$9,$2,$3,0*%
G04 Aperture macros list end*
%TA.AperFunction,NonConductor*%
%ADD10C,0.200000*%
%TD*%
%TA.AperFunction,ComponentPad*%
%ADD11C,2.200000*%
%TD*%
%TA.AperFunction,ComponentPad*%
%ADD12R,2.000000X2.000000*%
%TD*%
%TA.AperFunction,ComponentPad*%
%ADD13C,2.000000*%
%TD*%
%TA.AperFunction,ComponentPad*%
%ADD14R,3.200000X2.000000*%
%TD*%
%TA.AperFunction,SMDPad,CuDef*%
%ADD15R,1.100000X1.700000*%
%TD*%
%TA.AperFunction,SMDPad,CuDef*%
%ADD16R,2.500000X1.700000*%
%TD*%
%TA.AperFunction,SMDPad,CuDef*%
%ADD17RoundRect,0.100000X0.217500X0.100000X-0.217500X0.100000X-0.217500X-0.100000X0.217500X-0.100000X0*%
%TD*%
%TA.AperFunction,ComponentPad*%
%ADD18R,3.500000X1.700000*%
%TD*%
%TA.AperFunction,ComponentPad*%
%ADD19O,3.600000X1.700000*%
%TD*%
%TA.AperFunction,ComponentPad*%
%ADD20O,3.700000X1.700000*%
%TD*%
%TA.AperFunction,ViaPad*%
%ADD21C,0.600000*%
%TD*%
%TA.AperFunction,Conductor*%
%ADD22C,0.200000*%
%TD*%
G04 APERTURE END LIST*
D10*
X252500000Y-37900000D02*
X252600000Y-37900000D01*
X252600000Y-38200000D01*
X252500000Y-38200000D01*
X252500000Y-37900000D01*
D11*
%TO.P,SW3,1,1_1*%
%TO.N,Net-(U1-5V)*%
X155450000Y-92810000D03*
%TO.P,SW3,2,2_2*%
%TO.N,Net-(U1-PA7_A8_D8_SCK)*%
X149100000Y-95350000D03*
%TD*%
D12*
%TO.P,RE1,A,A_A*%
%TO.N,Net-(U1-5V)*%
X183650000Y-113650000D03*
D13*
%TO.P,RE1,B,B_B*%
%TO.N,Net-(U1-PA11_A3_D3)*%
X183650000Y-118650000D03*
%TO.P,RE1,C,C_C*%
%TO.N,GND*%
X183650000Y-116150000D03*
D14*
%TO.P,RE1,MP,MP_MP*%
%TO.N,unconnected-(RE1-PadMP)*%
X191150000Y-110550000D03*
X191150000Y-121750000D03*
D13*
%TO.P,RE1,S1,S1_S1*%
%TO.N,Net-(U1-5V)*%
X198150000Y-118650000D03*
%TO.P,RE1,S2,S2_S2*%
%TO.N,Net-(U1-PA8_A4_D4_SDA)*%
X198150000Y-113650000D03*
%TD*%
D11*
%TO.P,SW5,1,1_1*%
%TO.N,Net-(U1-5V)*%
X174460000Y-92770000D03*
%TO.P,SW5,2,2_2*%
%TO.N,Net-(U1-PA4_A1_D1)*%
X168110000Y-95310000D03*
%TD*%
D15*
%TO.P,D1,1,K_1*%
%TO.N,GND*%
X187950000Y-97500000D03*
D16*
%TO.P,D1,2,A_2*%
%TO.N,Net-(D1-A)*%
X191150000Y-97500000D03*
D15*
X193650000Y-97500000D03*
%TD*%
D17*
%TO.P,R1,1*%
%TO.N,Net-(D1-A)*%
X191157500Y-94100000D03*
%TO.P,R1,2*%
%TO.N,Net-(U1-PA10_A2_D2)*%
X190342500Y-94100000D03*
%TD*%
D11*
%TO.P,SW4,1,1_1*%
%TO.N,Net-(U1-5V)*%
X155450000Y-111800000D03*
%TO.P,SW4,2,2_2*%
%TO.N,Net-(U1-PA5_A9_D9_MISO)*%
X149100000Y-114340000D03*
%TD*%
%TO.P,SW2,1,1_1*%
%TO.N,Net-(U1-5V)*%
X136410000Y-111820000D03*
%TO.P,SW2,2,2_2*%
%TO.N,Net-(U1-PB09_A7_D7_RX)*%
X130060000Y-114360000D03*
%TD*%
D18*
%TO.P,U1,1,PA02_A0_D0_1*%
%TO.N,Net-(U1-PA02_A0_D0)*%
X142190000Y-89150000D03*
D19*
%TO.P,U1,2,PA4_A1_D1_2*%
%TO.N,Net-(U1-PA4_A1_D1)*%
X142190000Y-91690000D03*
%TO.P,U1,3,PA10_A2_D2_3*%
%TO.N,Net-(U1-PA10_A2_D2)*%
X142190000Y-94230000D03*
%TO.P,U1,4,PA11_A3_D3_4*%
%TO.N,Net-(U1-PA11_A3_D3)*%
X142190000Y-96770000D03*
%TO.P,U1,5,PA8_A4_D4_SDA_5*%
%TO.N,Net-(U1-PA8_A4_D4_SDA)*%
X142190000Y-99310000D03*
%TO.P,U1,6,PA9_A5_D5_SCL_6*%
%TO.N,unconnected-(U1-PA9_A5_D5_SCL-Pad6)*%
X142190000Y-101850000D03*
%TO.P,U1,7,PB08_A6_D6_TX_7*%
%TO.N,unconnected-(U1-PB08_A6_D6_TX-Pad7)*%
X142190000Y-104390000D03*
%TO.P,U1,8,PB09_A7_D7_RX_8*%
%TO.N,Net-(U1-PB09_A7_D7_RX)*%
X124940000Y-104390000D03*
%TO.P,U1,9,PA7_A8_D8_SCK_9*%
%TO.N,Net-(U1-PA7_A8_D8_SCK)*%
X124940000Y-101850000D03*
%TO.P,U1,10,PA5_A9_D9_MISO_10*%
%TO.N,Net-(U1-PA5_A9_D9_MISO)*%
X124940000Y-99310000D03*
D20*
%TO.P,U1,11,PA6_A10_D10_MOSI_11*%
%TO.N,unconnected-(U1-PA6_A10_D10_MOSI-Pad11)*%
X124940000Y-96770000D03*
%TO.P,U1,12,3V3_12*%
%TO.N,unconnected-(U1-3V3-Pad12)*%
X124940000Y-94230000D03*
%TO.P,U1,13,GND_13*%
%TO.N,GND*%
X124940000Y-91690000D03*
%TO.P,U1,14,5V_14*%
%TO.N,Net-(U1-5V)*%
X124940000Y-89150000D03*
%TD*%
D11*
%TO.P,SW6,1,1_1*%
%TO.N,Net-(U1-5V)*%
X174410000Y-111820000D03*
%TO.P,SW6,2,2_2*%
%TO.N,Net-(U1-PA02_A0_D0)*%
X168060000Y-114360000D03*
%TD*%
D21*
%TO.N,GND*%
X144650000Y-87400000D03*
X134950000Y-91700000D03*
X151950000Y-91800000D03*
%TO.N,Net-(U1-PA4_A1_D1)*%
X150050000Y-93400000D03*
%TO.N,Net-(U1-PA7_A8_D8_SCK)*%
X131450000Y-101850000D03*
%TO.N,Net-(U1-PA5_A9_D9_MISO)*%
X141550000Y-108600000D03*
%TO.N,Net-(U1-PA02_A0_D0)*%
X159750000Y-106050000D03*
%TO.N,GND*%
X178050000Y-95135504D03*
X190250000Y-99150000D03*
X181100000Y-100800000D03*
X181100000Y-102850000D03*
X176850000Y-95150000D03*
%TO.N,Net-(U1-5V)*%
X168750000Y-102750000D03*
X176700000Y-113650000D03*
X194600000Y-117350000D03*
X168750000Y-105350000D03*
X194600000Y-114700000D03*
%TO.N,Net-(U1-PA8_A4_D4_SDA)*%
X171050000Y-102150000D03*
X163800000Y-102150000D03*
%TD*%
%TO.N,GND*%
D22*
X156190000Y-94210000D02*
X154360000Y-94210000D01*
X139250000Y-87400000D02*
X134950000Y-91700000D01*
X176850000Y-95150000D02*
X170250000Y-95150000D01*
X154360000Y-94210000D02*
X151950000Y-91800000D01*
X156490000Y-93910000D02*
X156190000Y-94210000D01*
X169010000Y-93910000D02*
X156490000Y-93910000D01*
X170250000Y-95150000D02*
X169010000Y-93910000D01*
X144650000Y-87400000D02*
X139250000Y-87400000D01*
%TO.N,Net-(U1-PA4_A1_D1)*%
X151960000Y-95310000D02*
X150050000Y-93400000D01*
X168110000Y-95310000D02*
X151960000Y-95310000D01*
%TO.N,Net-(U1-PA7_A8_D8_SCK)*%
X137920000Y-95380000D02*
X131450000Y-101850000D01*
X149070000Y-95380000D02*
X137920000Y-95380000D01*
X149100000Y-95350000D02*
X149070000Y-95380000D01*
%TO.N,Net-(U1-PA5_A9_D9_MISO)*%
X147290000Y-114340000D02*
X141550000Y-108600000D01*
X149100000Y-114340000D02*
X147290000Y-114340000D01*
%TO.N,Net-(U1-PB09_A7_D7_RX)*%
X130060000Y-114360000D02*
X125940000Y-110240000D01*
X125940000Y-110240000D02*
X125940000Y-104390000D01*
%TO.N,Net-(U1-5V)*%
X168050000Y-105850000D02*
X168600000Y-105850000D01*
X167250000Y-105050000D02*
X168050000Y-105850000D01*
X168750000Y-105700000D02*
X168750000Y-105350000D01*
X168600000Y-105850000D02*
X168750000Y-105700000D01*
X165200000Y-105050000D02*
X167250000Y-105050000D01*
X165300000Y-106450000D02*
X164700000Y-105850000D01*
X168900000Y-106450000D02*
X165300000Y-106450000D01*
X176100000Y-113650000D02*
X168900000Y-106450000D01*
X176700000Y-113650000D02*
X176100000Y-113650000D01*
X164700000Y-105850000D02*
X164700000Y-105550000D01*
X164700000Y-105550000D02*
X165200000Y-105050000D01*
%TO.N,Net-(U1-PA02_A0_D0)*%
X168060000Y-114360000D02*
X159750000Y-106050000D01*
%TO.N,GND*%
X179400000Y-97700000D02*
X179400000Y-95300000D01*
X180200000Y-94050000D02*
X179250000Y-94050000D01*
X190250000Y-99150000D02*
X188300000Y-99150000D01*
X179400000Y-95300000D02*
X179250000Y-95150000D01*
X178064496Y-95150000D02*
X178050000Y-95135504D01*
X178164496Y-95135504D02*
X178050000Y-95135504D01*
X187950000Y-98800000D02*
X187950000Y-97500000D01*
X181100000Y-100800000D02*
X181100000Y-99400000D01*
X183650000Y-97500000D02*
X180200000Y-94050000D01*
X183650000Y-116150000D02*
X181100000Y-113600000D01*
X188300000Y-99150000D02*
X187950000Y-98800000D01*
X181100000Y-99400000D02*
X179400000Y-97700000D01*
X179250000Y-94050000D02*
X178164496Y-95135504D01*
X187950000Y-97500000D02*
X183650000Y-97500000D01*
X181100000Y-113600000D02*
X181100000Y-102850000D01*
%TO.N,Net-(U1-5V)*%
X158950000Y-105050000D02*
X156550000Y-107450000D01*
X174460000Y-98788529D02*
X172698529Y-100550000D01*
X128650000Y-109700000D02*
X128650000Y-89750000D01*
X165200000Y-105050000D02*
X158950000Y-105050000D01*
X174460000Y-98640000D02*
X174460000Y-98788529D01*
X177450000Y-93550000D02*
X177450000Y-95650000D01*
X177450000Y-95650000D02*
X174460000Y-98640000D01*
X128650000Y-89750000D02*
X128050000Y-89150000D01*
X140780000Y-107450000D02*
X136410000Y-111820000D01*
X174460000Y-92770000D02*
X176670000Y-92770000D01*
X170050000Y-100550000D02*
X168750000Y-101850000D01*
X136410000Y-111820000D02*
X130770000Y-111820000D01*
X174420000Y-92810000D02*
X174460000Y-92770000D01*
X130770000Y-111820000D02*
X128650000Y-109700000D01*
X176670000Y-92770000D02*
X177450000Y-93550000D01*
X172698529Y-100550000D02*
X170050000Y-100550000D01*
X156550000Y-107450000D02*
X155450000Y-108550000D01*
X156550000Y-107450000D02*
X140780000Y-107450000D01*
X155450000Y-92810000D02*
X174420000Y-92810000D01*
X194600000Y-114700000D02*
X194600000Y-117350000D01*
X155450000Y-108550000D02*
X155450000Y-111800000D01*
X128050000Y-89150000D02*
X125940000Y-89150000D01*
X168750000Y-101850000D02*
X168750000Y-102750000D01*
%TO.N,Net-(U1-PA11_A3_D3)*%
X183650000Y-118650000D02*
X165240000Y-100240000D01*
X165240000Y-100240000D02*
X147890000Y-100240000D01*
X147890000Y-100240000D02*
X144420000Y-96770000D01*
X144420000Y-96770000D02*
X141190000Y-96770000D01*
%TO.N,unconnected-(RE1-PadMP)*%
X191150000Y-121750000D02*
X191150000Y-110550000D01*
%TO.N,Net-(U1-PA8_A4_D4_SDA)*%
X163800000Y-102150000D02*
X162350000Y-100700000D01*
X198150000Y-113650000D02*
X186650000Y-102150000D01*
X186650000Y-102150000D02*
X171050000Y-102150000D01*
X146900000Y-100700000D02*
X145510000Y-99310000D01*
X145510000Y-99310000D02*
X141190000Y-99310000D01*
X162350000Y-100700000D02*
X146900000Y-100700000D01*
%TO.N,Net-(U1-PA4_A1_D1)*%
X141470000Y-91410000D02*
X140825000Y-92055000D01*
%TO.N,Net-(D1-A)*%
X193650000Y-97500000D02*
X191150000Y-97500000D01*
X195350000Y-97500000D02*
X195900000Y-96950000D01*
X195900000Y-96950000D02*
X195900000Y-95300000D01*
X194700000Y-94100000D02*
X191157500Y-94100000D01*
X195900000Y-95300000D02*
X194700000Y-94100000D01*
X193650000Y-97500000D02*
X195350000Y-97500000D01*
%TO.N,Net-(U1-PA10_A2_D2)*%
X186750000Y-91100000D02*
X150710000Y-91100000D01*
X186760000Y-91100000D02*
X186750000Y-91100000D01*
X190342500Y-94100000D02*
X189750000Y-94100000D01*
X189750000Y-94100000D02*
X186750000Y-91100000D01*
X147580000Y-94230000D02*
X141190000Y-94230000D01*
X150710000Y-91100000D02*
X147580000Y-94230000D01*
%TD*%
M02*
