%TF.GenerationSoftware,KiCad,Pcbnew,10.0.5*%
%TF.CreationDate,2026-08-30T09:03:47-04:00*%
%TF.ProjectId,hackpad,6861636b-7061-4642-9e6b-696361645f70,rev?*%
%TF.SameCoordinates,Original*%
%TF.FileFunction,Soldermask,Bot*%
%TF.FilePolarity,Negative*%
%FSLAX46Y46*%
G04 Gerber Fmt 4.6, Leading zero omitted, Abs format (unit mm)*
G04 Created by KiCad (PCBNEW 10.0.5) date 2026-08-30 09:03:47*
%MOMM*%
%LPD*%
G01*
G04 APERTURE LIST*
%ADD10C,0.200000*%
%ADD11C,1.700000*%
%ADD12C,4.000000*%
%ADD13C,2.200000*%
%ADD14R,2.000000X2.000000*%
%ADD15C,2.000000*%
%ADD16R,3.200000X2.000000*%
%ADD17R,3.500000X1.700000*%
%ADD18O,3.600000X1.700000*%
%ADD19O,3.700000X1.700000*%
G04 APERTURE END LIST*
D10*
X177161279Y-87556028D02*
X177161279Y-86056028D01*
X177161279Y-86627457D02*
X177018422Y-86556028D01*
X177018422Y-86556028D02*
X176732707Y-86556028D01*
X176732707Y-86556028D02*
X176589850Y-86627457D01*
X176589850Y-86627457D02*
X176518422Y-86698885D01*
X176518422Y-86698885D02*
X176446993Y-86841742D01*
X176446993Y-86841742D02*
X176446993Y-87270314D01*
X176446993Y-87270314D02*
X176518422Y-87413171D01*
X176518422Y-87413171D02*
X176589850Y-87484600D01*
X176589850Y-87484600D02*
X176732707Y-87556028D01*
X176732707Y-87556028D02*
X177018422Y-87556028D01*
X177018422Y-87556028D02*
X177161279Y-87484600D01*
X175946993Y-86556028D02*
X175589850Y-87556028D01*
X175232707Y-86556028D02*
X175589850Y-87556028D01*
X175589850Y-87556028D02*
X175732707Y-87913171D01*
X175732707Y-87913171D02*
X175804136Y-87984600D01*
X175804136Y-87984600D02*
X175946993Y-88056028D01*
X173304136Y-87556028D02*
X173446993Y-87484600D01*
X173446993Y-87484600D02*
X173518422Y-87341742D01*
X173518422Y-87341742D02*
X173518422Y-86056028D01*
X172089851Y-87556028D02*
X172089851Y-86770314D01*
X172089851Y-86770314D02*
X172161279Y-86627457D01*
X172161279Y-86627457D02*
X172304136Y-86556028D01*
X172304136Y-86556028D02*
X172589851Y-86556028D01*
X172589851Y-86556028D02*
X172732708Y-86627457D01*
X172089851Y-87484600D02*
X172232708Y-87556028D01*
X172232708Y-87556028D02*
X172589851Y-87556028D01*
X172589851Y-87556028D02*
X172732708Y-87484600D01*
X172732708Y-87484600D02*
X172804136Y-87341742D01*
X172804136Y-87341742D02*
X172804136Y-87198885D01*
X172804136Y-87198885D02*
X172732708Y-87056028D01*
X172732708Y-87056028D02*
X172589851Y-86984600D01*
X172589851Y-86984600D02*
X172232708Y-86984600D01*
X172232708Y-86984600D02*
X172089851Y-86913171D01*
X171518422Y-86556028D02*
X171232708Y-87556028D01*
X171232708Y-87556028D02*
X170946993Y-86841742D01*
X170946993Y-86841742D02*
X170661279Y-87556028D01*
X170661279Y-87556028D02*
X170375565Y-86556028D01*
X169804136Y-86556028D02*
X169804136Y-87556028D01*
X169804136Y-86698885D02*
X169732707Y-86627457D01*
X169732707Y-86627457D02*
X169589850Y-86556028D01*
X169589850Y-86556028D02*
X169375564Y-86556028D01*
X169375564Y-86556028D02*
X169232707Y-86627457D01*
X169232707Y-86627457D02*
X169161279Y-86770314D01*
X169161279Y-86770314D02*
X169161279Y-87556028D01*
X167804136Y-87556028D02*
X167804136Y-86770314D01*
X167804136Y-86770314D02*
X167875564Y-86627457D01*
X167875564Y-86627457D02*
X168018421Y-86556028D01*
X168018421Y-86556028D02*
X168304136Y-86556028D01*
X168304136Y-86556028D02*
X168446993Y-86627457D01*
X167804136Y-87484600D02*
X167946993Y-87556028D01*
X167946993Y-87556028D02*
X168304136Y-87556028D01*
X168304136Y-87556028D02*
X168446993Y-87484600D01*
X168446993Y-87484600D02*
X168518421Y-87341742D01*
X168518421Y-87341742D02*
X168518421Y-87198885D01*
X168518421Y-87198885D02*
X168446993Y-87056028D01*
X168446993Y-87056028D02*
X168304136Y-86984600D01*
X168304136Y-86984600D02*
X167946993Y-86984600D01*
X167946993Y-86984600D02*
X167804136Y-86913171D01*
X167089850Y-87556028D02*
X167089850Y-86556028D01*
X167089850Y-86841742D02*
X167018421Y-86698885D01*
X167018421Y-86698885D02*
X166946993Y-86627457D01*
X166946993Y-86627457D02*
X166804135Y-86556028D01*
X166804135Y-86556028D02*
X166661278Y-86556028D01*
X165518422Y-87556028D02*
X165518422Y-86056028D01*
X165518422Y-87484600D02*
X165661279Y-87556028D01*
X165661279Y-87556028D02*
X165946993Y-87556028D01*
X165946993Y-87556028D02*
X166089850Y-87484600D01*
X166089850Y-87484600D02*
X166161279Y-87413171D01*
X166161279Y-87413171D02*
X166232707Y-87270314D01*
X166232707Y-87270314D02*
X166232707Y-86841742D01*
X166232707Y-86841742D02*
X166161279Y-86698885D01*
X166161279Y-86698885D02*
X166089850Y-86627457D01*
X166089850Y-86627457D02*
X165946993Y-86556028D01*
X165946993Y-86556028D02*
X165661279Y-86556028D01*
X165661279Y-86556028D02*
X165518422Y-86627457D01*
X164161279Y-86056028D02*
X164446993Y-86056028D01*
X164446993Y-86056028D02*
X164589850Y-86127457D01*
X164589850Y-86127457D02*
X164661279Y-86198885D01*
X164661279Y-86198885D02*
X164804136Y-86413171D01*
X164804136Y-86413171D02*
X164875564Y-86698885D01*
X164875564Y-86698885D02*
X164875564Y-87270314D01*
X164875564Y-87270314D02*
X164804136Y-87413171D01*
X164804136Y-87413171D02*
X164732707Y-87484600D01*
X164732707Y-87484600D02*
X164589850Y-87556028D01*
X164589850Y-87556028D02*
X164304136Y-87556028D01*
X164304136Y-87556028D02*
X164161279Y-87484600D01*
X164161279Y-87484600D02*
X164089850Y-87413171D01*
X164089850Y-87413171D02*
X164018421Y-87270314D01*
X164018421Y-87270314D02*
X164018421Y-86913171D01*
X164018421Y-86913171D02*
X164089850Y-86770314D01*
X164089850Y-86770314D02*
X164161279Y-86698885D01*
X164161279Y-86698885D02*
X164304136Y-86627457D01*
X164304136Y-86627457D02*
X164589850Y-86627457D01*
X164589850Y-86627457D02*
X164732707Y-86698885D01*
X164732707Y-86698885D02*
X164804136Y-86770314D01*
X164804136Y-86770314D02*
X164875564Y-86913171D01*
X163446993Y-86198885D02*
X163375565Y-86127457D01*
X163375565Y-86127457D02*
X163232708Y-86056028D01*
X163232708Y-86056028D02*
X162875565Y-86056028D01*
X162875565Y-86056028D02*
X162732708Y-86127457D01*
X162732708Y-86127457D02*
X162661279Y-86198885D01*
X162661279Y-86198885D02*
X162589850Y-86341742D01*
X162589850Y-86341742D02*
X162589850Y-86484600D01*
X162589850Y-86484600D02*
X162661279Y-86698885D01*
X162661279Y-86698885D02*
X163518422Y-87556028D01*
X163518422Y-87556028D02*
X162589850Y-87556028D01*
X161161279Y-87556028D02*
X162018422Y-87556028D01*
X161589851Y-87556028D02*
X161589851Y-86056028D01*
X161589851Y-86056028D02*
X161732708Y-86270314D01*
X161732708Y-86270314D02*
X161875565Y-86413171D01*
X161875565Y-86413171D02*
X162018422Y-86484600D01*
X159589851Y-86841742D02*
X159661280Y-86770314D01*
X159661280Y-86770314D02*
X159804137Y-86698885D01*
X159804137Y-86698885D02*
X159946994Y-86698885D01*
X159946994Y-86698885D02*
X160089851Y-86770314D01*
X160089851Y-86770314D02*
X160161280Y-86841742D01*
X160161280Y-86841742D02*
X160232708Y-86984600D01*
X160232708Y-86984600D02*
X160232708Y-87127457D01*
X160232708Y-87127457D02*
X160161280Y-87270314D01*
X160161280Y-87270314D02*
X160089851Y-87341742D01*
X160089851Y-87341742D02*
X159946994Y-87413171D01*
X159946994Y-87413171D02*
X159804137Y-87413171D01*
X159804137Y-87413171D02*
X159661280Y-87341742D01*
X159661280Y-87341742D02*
X159589851Y-87270314D01*
X159589851Y-86698885D02*
X159589851Y-87270314D01*
X159589851Y-87270314D02*
X159518423Y-87341742D01*
X159518423Y-87341742D02*
X159446994Y-87341742D01*
X159446994Y-87341742D02*
X159304137Y-87270314D01*
X159304137Y-87270314D02*
X159232708Y-87127457D01*
X159232708Y-87127457D02*
X159232708Y-86770314D01*
X159232708Y-86770314D02*
X159375566Y-86556028D01*
X159375566Y-86556028D02*
X159589851Y-86413171D01*
X159589851Y-86413171D02*
X159875566Y-86341742D01*
X159875566Y-86341742D02*
X160161280Y-86413171D01*
X160161280Y-86413171D02*
X160375566Y-86556028D01*
X160375566Y-86556028D02*
X160518423Y-86770314D01*
X160518423Y-86770314D02*
X160589851Y-87056028D01*
X160589851Y-87056028D02*
X160518423Y-87341742D01*
X160518423Y-87341742D02*
X160375566Y-87556028D01*
X160375566Y-87556028D02*
X160161280Y-87698885D01*
X160161280Y-87698885D02*
X159875566Y-87770314D01*
X159875566Y-87770314D02*
X159589851Y-87698885D01*
X159589851Y-87698885D02*
X159375566Y-87556028D01*
X157946995Y-86556028D02*
X157946995Y-87770314D01*
X157946995Y-87770314D02*
X158018423Y-87913171D01*
X158018423Y-87913171D02*
X158089852Y-87984600D01*
X158089852Y-87984600D02*
X158232709Y-88056028D01*
X158232709Y-88056028D02*
X158446995Y-88056028D01*
X158446995Y-88056028D02*
X158589852Y-87984600D01*
X157946995Y-87484600D02*
X158089852Y-87556028D01*
X158089852Y-87556028D02*
X158375566Y-87556028D01*
X158375566Y-87556028D02*
X158518423Y-87484600D01*
X158518423Y-87484600D02*
X158589852Y-87413171D01*
X158589852Y-87413171D02*
X158661280Y-87270314D01*
X158661280Y-87270314D02*
X158661280Y-86841742D01*
X158661280Y-86841742D02*
X158589852Y-86698885D01*
X158589852Y-86698885D02*
X158518423Y-86627457D01*
X158518423Y-86627457D02*
X158375566Y-86556028D01*
X158375566Y-86556028D02*
X158089852Y-86556028D01*
X158089852Y-86556028D02*
X157946995Y-86627457D01*
X157232709Y-87556028D02*
X157232709Y-86556028D01*
X157232709Y-86698885D02*
X157161280Y-86627457D01*
X157161280Y-86627457D02*
X157018423Y-86556028D01*
X157018423Y-86556028D02*
X156804137Y-86556028D01*
X156804137Y-86556028D02*
X156661280Y-86627457D01*
X156661280Y-86627457D02*
X156589852Y-86770314D01*
X156589852Y-86770314D02*
X156589852Y-87556028D01*
X156589852Y-86770314D02*
X156518423Y-86627457D01*
X156518423Y-86627457D02*
X156375566Y-86556028D01*
X156375566Y-86556028D02*
X156161280Y-86556028D01*
X156161280Y-86556028D02*
X156018423Y-86627457D01*
X156018423Y-86627457D02*
X155946994Y-86770314D01*
X155946994Y-86770314D02*
X155946994Y-87556028D01*
X154589852Y-87556028D02*
X154589852Y-86770314D01*
X154589852Y-86770314D02*
X154661280Y-86627457D01*
X154661280Y-86627457D02*
X154804137Y-86556028D01*
X154804137Y-86556028D02*
X155089852Y-86556028D01*
X155089852Y-86556028D02*
X155232709Y-86627457D01*
X154589852Y-87484600D02*
X154732709Y-87556028D01*
X154732709Y-87556028D02*
X155089852Y-87556028D01*
X155089852Y-87556028D02*
X155232709Y-87484600D01*
X155232709Y-87484600D02*
X155304137Y-87341742D01*
X155304137Y-87341742D02*
X155304137Y-87198885D01*
X155304137Y-87198885D02*
X155232709Y-87056028D01*
X155232709Y-87056028D02*
X155089852Y-86984600D01*
X155089852Y-86984600D02*
X154732709Y-86984600D01*
X154732709Y-86984600D02*
X154589852Y-86913171D01*
X153875566Y-87556028D02*
X153875566Y-86556028D01*
X153875566Y-86056028D02*
X153946994Y-86127457D01*
X153946994Y-86127457D02*
X153875566Y-86198885D01*
X153875566Y-86198885D02*
X153804137Y-86127457D01*
X153804137Y-86127457D02*
X153875566Y-86056028D01*
X153875566Y-86056028D02*
X153875566Y-86198885D01*
X152946994Y-87556028D02*
X153089851Y-87484600D01*
X153089851Y-87484600D02*
X153161280Y-87341742D01*
X153161280Y-87341742D02*
X153161280Y-86056028D01*
X152375566Y-87413171D02*
X152304137Y-87484600D01*
X152304137Y-87484600D02*
X152375566Y-87556028D01*
X152375566Y-87556028D02*
X152446994Y-87484600D01*
X152446994Y-87484600D02*
X152375566Y-87413171D01*
X152375566Y-87413171D02*
X152375566Y-87556028D01*
X151018423Y-87484600D02*
X151161280Y-87556028D01*
X151161280Y-87556028D02*
X151446994Y-87556028D01*
X151446994Y-87556028D02*
X151589851Y-87484600D01*
X151589851Y-87484600D02*
X151661280Y-87413171D01*
X151661280Y-87413171D02*
X151732708Y-87270314D01*
X151732708Y-87270314D02*
X151732708Y-86841742D01*
X151732708Y-86841742D02*
X151661280Y-86698885D01*
X151661280Y-86698885D02*
X151589851Y-86627457D01*
X151589851Y-86627457D02*
X151446994Y-86556028D01*
X151446994Y-86556028D02*
X151161280Y-86556028D01*
X151161280Y-86556028D02*
X151018423Y-86627457D01*
X150161280Y-87556028D02*
X150304137Y-87484600D01*
X150304137Y-87484600D02*
X150375566Y-87413171D01*
X150375566Y-87413171D02*
X150446994Y-87270314D01*
X150446994Y-87270314D02*
X150446994Y-86841742D01*
X150446994Y-86841742D02*
X150375566Y-86698885D01*
X150375566Y-86698885D02*
X150304137Y-86627457D01*
X150304137Y-86627457D02*
X150161280Y-86556028D01*
X150161280Y-86556028D02*
X149946994Y-86556028D01*
X149946994Y-86556028D02*
X149804137Y-86627457D01*
X149804137Y-86627457D02*
X149732709Y-86698885D01*
X149732709Y-86698885D02*
X149661280Y-86841742D01*
X149661280Y-86841742D02*
X149661280Y-87270314D01*
X149661280Y-87270314D02*
X149732709Y-87413171D01*
X149732709Y-87413171D02*
X149804137Y-87484600D01*
X149804137Y-87484600D02*
X149946994Y-87556028D01*
X149946994Y-87556028D02*
X150161280Y-87556028D01*
X149018423Y-87556028D02*
X149018423Y-86556028D01*
X149018423Y-86698885D02*
X148946994Y-86627457D01*
X148946994Y-86627457D02*
X148804137Y-86556028D01*
X148804137Y-86556028D02*
X148589851Y-86556028D01*
X148589851Y-86556028D02*
X148446994Y-86627457D01*
X148446994Y-86627457D02*
X148375566Y-86770314D01*
X148375566Y-86770314D02*
X148375566Y-87556028D01*
X148375566Y-86770314D02*
X148304137Y-86627457D01*
X148304137Y-86627457D02*
X148161280Y-86556028D01*
X148161280Y-86556028D02*
X147946994Y-86556028D01*
X147946994Y-86556028D02*
X147804137Y-86627457D01*
X147804137Y-86627457D02*
X147732708Y-86770314D01*
X147732708Y-86770314D02*
X147732708Y-87556028D01*
D11*
%TO.C,SW3*%
X147830000Y-97890000D03*
D12*
X152910000Y-97890000D03*
D11*
X157990000Y-97890000D03*
D13*
X155450000Y-92810000D03*
X149100000Y-95350000D03*
%TD*%
D14*
%TO.C,RE1*%
X183650000Y-113650000D03*
D15*
X183650000Y-118650000D03*
X183650000Y-116150000D03*
D16*
X191150000Y-110550000D03*
X191150000Y-121750000D03*
D15*
X198150000Y-118650000D03*
X198150000Y-113650000D03*
%TD*%
D11*
%TO.C,SW6*%
X166790000Y-116900000D03*
D12*
X171870000Y-116900000D03*
D11*
X176950000Y-116900000D03*
D13*
X174410000Y-111820000D03*
X168060000Y-114360000D03*
%TD*%
D11*
%TO.C,SW5*%
X166840000Y-97850000D03*
D12*
X171920000Y-97850000D03*
D11*
X177000000Y-97850000D03*
D13*
X174460000Y-92770000D03*
X168110000Y-95310000D03*
%TD*%
D11*
%TO.C,SW4*%
X147830000Y-116880000D03*
D12*
X152910000Y-116880000D03*
D11*
X157990000Y-116880000D03*
D13*
X155450000Y-111800000D03*
X149100000Y-114340000D03*
%TD*%
D11*
%TO.C,SW2*%
X128790000Y-116900000D03*
D12*
X133870000Y-116900000D03*
D11*
X138950000Y-116900000D03*
D13*
X136410000Y-111820000D03*
X130060000Y-114360000D03*
%TD*%
D17*
%TO.C,U1*%
X142190000Y-89150000D03*
D18*
X142190000Y-91690000D03*
X142190000Y-94230000D03*
X142190000Y-96770000D03*
X142190000Y-99310000D03*
X142190000Y-101850000D03*
X142190000Y-104390000D03*
X124940000Y-104390000D03*
X124940000Y-101850000D03*
X124940000Y-99310000D03*
D19*
X124940000Y-96770000D03*
X124940000Y-94230000D03*
X124940000Y-91690000D03*
X124940000Y-89150000D03*
%TD*%
M02*
