ISO-10303-21;
HEADER;
/* Generated by software containing ST-Developer
 * from STEP Tools, Inc. (www.steptools.com) 
 */
/* OPTION: using custom renumber hook */

FILE_DESCRIPTION(
/* description */ ('STEP AP242 Edition 2',
'CAx-IF Rec.Pracs.---Representation and Presentation of Product Manufa
cturing Information (PMI)---4.0---2014-10-13',
'CAx-IF Rec.Pracs.---3D Tessellated Geometry---0.4---2014-09-14','2;1',
'CAx-IF Rec.Pracs.---User Defined Attributes---1.5---2016-08-15'),
/* implementation_level */ '2;1');

FILE_NAME(
/* name */ 'Part Studio 1 - Part 9',
/* time_stamp */ '2026-09-06T11:57:18Z',
/* author */ (''),
/* organization */ (''),
/* preprocessor_version */ 'ST-DEVELOPER v20',
/* originating_system */ 'ONSHAPE BY PTC INC, 1.220',
/* authorisation */ '  ');

FILE_SCHEMA (('AP242_MANAGED_MODEL_BASED_3D_ENGINEERING_MIM_LF { 1 0 10303 442 3 1 4 }'));
ENDSEC;

DATA;
#10=SHAPE_REPRESENTATION_RELATIONSHIP('','',#351,#11);
#11=ADVANCED_BREP_SHAPE_REPRESENTATION('',(#349),#599);
#12=CIRCLE('',#357,0.00229619028480095);
#13=CIRCLE('',#358,0.00229619028480095);
#14=CIRCLE('',#361,0.00256558600755502);
#15=CIRCLE('',#362,0.00256558600755502);
#16=CIRCLE('',#366,0.0112787686746368);
#17=CIRCLE('',#367,0.0112787686746368);
#18=CYLINDRICAL_SURFACE('',#356,0.00229619028480095);
#19=CYLINDRICAL_SURFACE('',#360,0.00256558600755502);
#20=CYLINDRICAL_SURFACE('',#365,0.0112787686746368);
#21=B_SPLINE_CURVE_WITH_KNOTS('',2,(#474,#475,#476),.UNSPECIFIED.,.F.,.F.,
(3,3),(0.,1.),.PIECEWISE_BEZIER_KNOTS.);
#22=B_SPLINE_CURVE_WITH_KNOTS('',2,(#480,#481,#482),.UNSPECIFIED.,.F.,.F.,
(3,3),(0.,1.),.PIECEWISE_BEZIER_KNOTS.);
#23=B_SPLINE_CURVE_WITH_KNOTS('',2,(#509,#510,#511),.UNSPECIFIED.,.F.,.F.,
(3,3),(0.,1.),.PIECEWISE_BEZIER_KNOTS.);
#24=B_SPLINE_CURVE_WITH_KNOTS('',2,(#515,#516,#517),.UNSPECIFIED.,.F.,.F.,
(3,3),(0.,1.),.PIECEWISE_BEZIER_KNOTS.);
#25=B_SPLINE_CURVE_WITH_KNOTS('',2,(#526,#527,#528),.UNSPECIFIED.,.F.,.F.,
(3,3),(0.,1.),.PIECEWISE_BEZIER_KNOTS.);
#26=B_SPLINE_CURVE_WITH_KNOTS('',2,(#532,#533,#534),.UNSPECIFIED.,.F.,.F.,
(3,3),(0.,1.),.PIECEWISE_BEZIER_KNOTS.);
#27=B_SPLINE_CURVE_WITH_KNOTS('',2,(#555,#556,#557),.UNSPECIFIED.,.F.,.F.,
(3,3),(0.,1.),.PIECEWISE_BEZIER_KNOTS.);
#28=B_SPLINE_CURVE_WITH_KNOTS('',2,(#561,#562,#563),.UNSPECIFIED.,.F.,.F.,
(3,3),(0.,1.),.PIECEWISE_BEZIER_KNOTS.);
#29=B_SPLINE_CURVE_WITH_KNOTS('',2,(#584,#585,#586),.UNSPECIFIED.,.F.,.F.,
(3,3),(0.,1.),.PIECEWISE_BEZIER_KNOTS.);
#30=B_SPLINE_CURVE_WITH_KNOTS('',2,(#590,#591,#592),.UNSPECIFIED.,.F.,.F.,
(3,3),(0.,1.),.PIECEWISE_BEZIER_KNOTS.);
#31=B_SPLINE_SURFACE_WITH_KNOTS('',3,1,((#466,#467),(#468,#469),(#470,#471),
(#472,#473)),.SURF_OF_LINEAR_EXTRUSION.,.F.,.F.,.F.,(4,4),(2,2),(0.,1.),
(0.,1.),.PIECEWISE_BEZIER_KNOTS.);
#32=B_SPLINE_SURFACE_WITH_KNOTS('',3,1,((#501,#502),(#503,#504),(#505,#506),
(#507,#508)),.SURF_OF_LINEAR_EXTRUSION.,.F.,.F.,.F.,(4,4),(2,2),(0.,1.),
(0.,1.),.PIECEWISE_BEZIER_KNOTS.);
#33=B_SPLINE_SURFACE_WITH_KNOTS('',3,1,((#518,#519),(#520,#521),(#522,#523),
(#524,#525)),.SURF_OF_LINEAR_EXTRUSION.,.F.,.F.,.F.,(4,4),(2,2),(0.,1.),
(0.,1.),.PIECEWISE_BEZIER_KNOTS.);
#34=B_SPLINE_SURFACE_WITH_KNOTS('',3,1,((#547,#548),(#549,#550),(#551,#552),
(#553,#554)),.SURF_OF_LINEAR_EXTRUSION.,.F.,.F.,.F.,(4,4),(2,2),(0.,1.),
(0.,1.),.PIECEWISE_BEZIER_KNOTS.);
#35=B_SPLINE_SURFACE_WITH_KNOTS('',3,1,((#576,#577),(#578,#579),(#580,#581),
(#582,#583)),.SURF_OF_LINEAR_EXTRUSION.,.F.,.F.,.F.,(4,4),(2,2),(0.,1.),
(0.,1.),.PIECEWISE_BEZIER_KNOTS.);
#36=ORIENTED_EDGE('',*,*,#132,.F.);
#37=ORIENTED_EDGE('',*,*,#133,.F.);
#38=ORIENTED_EDGE('',*,*,#134,.T.);
#39=ORIENTED_EDGE('',*,*,#135,.T.);
#40=ORIENTED_EDGE('',*,*,#136,.F.);
#41=ORIENTED_EDGE('',*,*,#137,.F.);
#42=ORIENTED_EDGE('',*,*,#138,.T.);
#43=ORIENTED_EDGE('',*,*,#133,.T.);
#44=ORIENTED_EDGE('',*,*,#139,.F.);
#45=ORIENTED_EDGE('',*,*,#140,.F.);
#46=ORIENTED_EDGE('',*,*,#141,.T.);
#47=ORIENTED_EDGE('',*,*,#137,.T.);
#48=ORIENTED_EDGE('',*,*,#142,.F.);
#49=ORIENTED_EDGE('',*,*,#143,.F.);
#50=ORIENTED_EDGE('',*,*,#144,.T.);
#51=ORIENTED_EDGE('',*,*,#140,.T.);
#52=ORIENTED_EDGE('',*,*,#145,.F.);
#53=ORIENTED_EDGE('',*,*,#146,.F.);
#54=ORIENTED_EDGE('',*,*,#147,.T.);
#55=ORIENTED_EDGE('',*,*,#143,.T.);
#56=ORIENTED_EDGE('',*,*,#148,.F.);
#57=ORIENTED_EDGE('',*,*,#149,.F.);
#58=ORIENTED_EDGE('',*,*,#150,.T.);
#59=ORIENTED_EDGE('',*,*,#146,.T.);
#60=ORIENTED_EDGE('',*,*,#151,.F.);
#61=ORIENTED_EDGE('',*,*,#152,.F.);
#62=ORIENTED_EDGE('',*,*,#153,.T.);
#63=ORIENTED_EDGE('',*,*,#149,.T.);
#64=ORIENTED_EDGE('',*,*,#154,.F.);
#65=ORIENTED_EDGE('',*,*,#155,.F.);
#66=ORIENTED_EDGE('',*,*,#156,.T.);
#67=ORIENTED_EDGE('',*,*,#152,.T.);
#68=ORIENTED_EDGE('',*,*,#157,.F.);
#69=ORIENTED_EDGE('',*,*,#158,.F.);
#70=ORIENTED_EDGE('',*,*,#159,.T.);
#71=ORIENTED_EDGE('',*,*,#155,.T.);
#72=ORIENTED_EDGE('',*,*,#160,.F.);
#73=ORIENTED_EDGE('',*,*,#161,.F.);
#74=ORIENTED_EDGE('',*,*,#162,.T.);
#75=ORIENTED_EDGE('',*,*,#158,.T.);
#76=ORIENTED_EDGE('',*,*,#163,.F.);
#77=ORIENTED_EDGE('',*,*,#164,.F.);
#78=ORIENTED_EDGE('',*,*,#165,.T.);
#79=ORIENTED_EDGE('',*,*,#161,.T.);
#80=ORIENTED_EDGE('',*,*,#166,.F.);
#81=ORIENTED_EDGE('',*,*,#167,.F.);
#82=ORIENTED_EDGE('',*,*,#168,.T.);
#83=ORIENTED_EDGE('',*,*,#164,.T.);
#84=ORIENTED_EDGE('',*,*,#169,.F.);
#85=ORIENTED_EDGE('',*,*,#170,.F.);
#86=ORIENTED_EDGE('',*,*,#171,.T.);
#87=ORIENTED_EDGE('',*,*,#167,.T.);
#88=ORIENTED_EDGE('',*,*,#172,.F.);
#89=ORIENTED_EDGE('',*,*,#173,.F.);
#90=ORIENTED_EDGE('',*,*,#174,.T.);
#91=ORIENTED_EDGE('',*,*,#170,.T.);
#92=ORIENTED_EDGE('',*,*,#175,.F.);
#93=ORIENTED_EDGE('',*,*,#176,.F.);
#94=ORIENTED_EDGE('',*,*,#177,.T.);
#95=ORIENTED_EDGE('',*,*,#173,.T.);
#96=ORIENTED_EDGE('',*,*,#178,.F.);
#97=ORIENTED_EDGE('',*,*,#135,.F.);
#98=ORIENTED_EDGE('',*,*,#179,.T.);
#99=ORIENTED_EDGE('',*,*,#176,.T.);
#100=ORIENTED_EDGE('',*,*,#134,.F.);
#101=ORIENTED_EDGE('',*,*,#138,.F.);
#102=ORIENTED_EDGE('',*,*,#141,.F.);
#103=ORIENTED_EDGE('',*,*,#144,.F.);
#104=ORIENTED_EDGE('',*,*,#147,.F.);
#105=ORIENTED_EDGE('',*,*,#150,.F.);
#106=ORIENTED_EDGE('',*,*,#153,.F.);
#107=ORIENTED_EDGE('',*,*,#156,.F.);
#108=ORIENTED_EDGE('',*,*,#159,.F.);
#109=ORIENTED_EDGE('',*,*,#162,.F.);
#110=ORIENTED_EDGE('',*,*,#165,.F.);
#111=ORIENTED_EDGE('',*,*,#168,.F.);
#112=ORIENTED_EDGE('',*,*,#171,.F.);
#113=ORIENTED_EDGE('',*,*,#174,.F.);
#114=ORIENTED_EDGE('',*,*,#177,.F.);
#115=ORIENTED_EDGE('',*,*,#179,.F.);
#116=ORIENTED_EDGE('',*,*,#132,.T.);
#117=ORIENTED_EDGE('',*,*,#178,.T.);
#118=ORIENTED_EDGE('',*,*,#175,.T.);
#119=ORIENTED_EDGE('',*,*,#172,.T.);
#120=ORIENTED_EDGE('',*,*,#169,.T.);
#121=ORIENTED_EDGE('',*,*,#166,.T.);
#122=ORIENTED_EDGE('',*,*,#163,.T.);
#123=ORIENTED_EDGE('',*,*,#160,.T.);
#124=ORIENTED_EDGE('',*,*,#157,.T.);
#125=ORIENTED_EDGE('',*,*,#154,.T.);
#126=ORIENTED_EDGE('',*,*,#151,.T.);
#127=ORIENTED_EDGE('',*,*,#148,.T.);
#128=ORIENTED_EDGE('',*,*,#145,.T.);
#129=ORIENTED_EDGE('',*,*,#142,.T.);
#130=ORIENTED_EDGE('',*,*,#139,.T.);
#131=ORIENTED_EDGE('',*,*,#136,.T.);
#132=EDGE_CURVE('',#180,#181,#212,.T.);
#133=EDGE_CURVE('',#182,#180,#213,.T.);
#134=EDGE_CURVE('',#182,#183,#214,.T.);
#135=EDGE_CURVE('',#183,#181,#215,.T.);
#136=EDGE_CURVE('',#184,#180,#216,.T.);
#137=EDGE_CURVE('',#185,#184,#217,.T.);
#138=EDGE_CURVE('',#185,#182,#218,.T.);
#139=EDGE_CURVE('',#186,#184,#219,.T.);
#140=EDGE_CURVE('',#187,#186,#220,.T.);
#141=EDGE_CURVE('',#187,#185,#221,.T.);
#142=EDGE_CURVE('',#188,#186,#21,.T.);
#143=EDGE_CURVE('',#189,#188,#222,.T.);
#144=EDGE_CURVE('',#189,#187,#22,.T.);
#145=EDGE_CURVE('',#190,#188,#12,.F.);
#146=EDGE_CURVE('',#191,#190,#223,.T.);
#147=EDGE_CURVE('',#191,#189,#13,.F.);
#148=EDGE_CURVE('',#192,#190,#224,.T.);
#149=EDGE_CURVE('',#193,#192,#225,.T.);
#150=EDGE_CURVE('',#193,#191,#226,.T.);
#151=EDGE_CURVE('',#194,#192,#14,.T.);
#152=EDGE_CURVE('',#195,#194,#227,.T.);
#153=EDGE_CURVE('',#195,#193,#15,.T.);
#154=EDGE_CURVE('',#196,#194,#23,.T.);
#155=EDGE_CURVE('',#197,#196,#228,.T.);
#156=EDGE_CURVE('',#197,#195,#24,.T.);
#157=EDGE_CURVE('',#198,#196,#25,.T.);
#158=EDGE_CURVE('',#199,#198,#229,.T.);
#159=EDGE_CURVE('',#199,#197,#26,.T.);
#160=EDGE_CURVE('',#200,#198,#230,.T.);
#161=EDGE_CURVE('',#201,#200,#231,.T.);
#162=EDGE_CURVE('',#201,#199,#232,.T.);
#163=EDGE_CURVE('',#202,#200,#233,.T.);
#164=EDGE_CURVE('',#203,#202,#234,.T.);
#165=EDGE_CURVE('',#203,#201,#235,.T.);
#166=EDGE_CURVE('',#204,#202,#27,.T.);
#167=EDGE_CURVE('',#205,#204,#236,.T.);
#168=EDGE_CURVE('',#205,#203,#28,.T.);
#169=EDGE_CURVE('',#206,#204,#16,.T.);
#170=EDGE_CURVE('',#207,#206,#237,.T.);
#171=EDGE_CURVE('',#207,#205,#17,.T.);
#172=EDGE_CURVE('',#208,#206,#238,.T.);
#173=EDGE_CURVE('',#209,#208,#239,.T.);
#174=EDGE_CURVE('',#209,#207,#240,.T.);
#175=EDGE_CURVE('',#210,#208,#29,.T.);
#176=EDGE_CURVE('',#211,#210,#241,.T.);
#177=EDGE_CURVE('',#211,#209,#30,.T.);
#178=EDGE_CURVE('',#181,#210,#242,.T.);
#179=EDGE_CURVE('',#183,#211,#243,.T.);
#180=VERTEX_POINT('',#447);
#181=VERTEX_POINT('',#448);
#182=VERTEX_POINT('',#450);
#183=VERTEX_POINT('',#452);
#184=VERTEX_POINT('',#456);
#185=VERTEX_POINT('',#458);
#186=VERTEX_POINT('',#462);
#187=VERTEX_POINT('',#464);
#188=VERTEX_POINT('',#477);
#189=VERTEX_POINT('',#479);
#190=VERTEX_POINT('',#485);
#191=VERTEX_POINT('',#487);
#192=VERTEX_POINT('',#491);
#193=VERTEX_POINT('',#493);
#194=VERTEX_POINT('',#497);
#195=VERTEX_POINT('',#499);
#196=VERTEX_POINT('',#512);
#197=VERTEX_POINT('',#514);
#198=VERTEX_POINT('',#529);
#199=VERTEX_POINT('',#531);
#200=VERTEX_POINT('',#537);
#201=VERTEX_POINT('',#539);
#202=VERTEX_POINT('',#543);
#203=VERTEX_POINT('',#545);
#204=VERTEX_POINT('',#558);
#205=VERTEX_POINT('',#560);
#206=VERTEX_POINT('',#566);
#207=VERTEX_POINT('',#568);
#208=VERTEX_POINT('',#572);
#209=VERTEX_POINT('',#574);
#210=VERTEX_POINT('',#587);
#211=VERTEX_POINT('',#589);
#212=LINE('',#446,#244);
#213=LINE('',#449,#245);
#214=LINE('',#451,#246);
#215=LINE('',#453,#247);
#216=LINE('',#455,#248);
#217=LINE('',#457,#249);
#218=LINE('',#459,#250);
#219=LINE('',#461,#251);
#220=LINE('',#463,#252);
#221=LINE('',#465,#253);
#222=LINE('',#478,#254);
#223=LINE('',#486,#255);
#224=LINE('',#490,#256);
#225=LINE('',#492,#257);
#226=LINE('',#494,#258);
#227=LINE('',#498,#259);
#228=LINE('',#513,#260);
#229=LINE('',#530,#261);
#230=LINE('',#536,#262);
#231=LINE('',#538,#263);
#232=LINE('',#540,#264);
#233=LINE('',#542,#265);
#234=LINE('',#544,#266);
#235=LINE('',#546,#267);
#236=LINE('',#559,#268);
#237=LINE('',#567,#269);
#238=LINE('',#571,#270);
#239=LINE('',#573,#271);
#240=LINE('',#575,#272);
#241=LINE('',#588,#273);
#242=LINE('',#594,#274);
#243=LINE('',#595,#275);
#244=VECTOR('',#376,1.);
#245=VECTOR('',#377,1.);
#246=VECTOR('',#378,1.);
#247=VECTOR('',#379,1.);
#248=VECTOR('',#382,1.);
#249=VECTOR('',#383,1.);
#250=VECTOR('',#384,1.);
#251=VECTOR('',#387,1.);
#252=VECTOR('',#388,1.);
#253=VECTOR('',#389,1.);
#254=VECTOR('',#390,1.);
#255=VECTOR('',#395,1.);
#256=VECTOR('',#400,1.);
#257=VECTOR('',#401,1.);
#258=VECTOR('',#402,1.);
#259=VECTOR('',#407,1.);
#260=VECTOR('',#410,1.);
#261=VECTOR('',#411,1.);
#262=VECTOR('',#414,1.);
#263=VECTOR('',#415,1.);
#264=VECTOR('',#416,1.);
#265=VECTOR('',#419,1.);
#266=VECTOR('',#420,1.);
#267=VECTOR('',#421,1.);
#268=VECTOR('',#422,1.);
#269=VECTOR('',#427,1.);
#270=VECTOR('',#432,1.);
#271=VECTOR('',#433,1.);
#272=VECTOR('',#434,1.);
#273=VECTOR('',#435,1.);
#274=VECTOR('',#438,1.);
#275=VECTOR('',#439,1.);
#276=EDGE_LOOP('',(#36,#37,#38,#39));
#277=EDGE_LOOP('',(#40,#41,#42,#43));
#278=EDGE_LOOP('',(#44,#45,#46,#47));
#279=EDGE_LOOP('',(#48,#49,#50,#51));
#280=EDGE_LOOP('',(#52,#53,#54,#55));
#281=EDGE_LOOP('',(#56,#57,#58,#59));
#282=EDGE_LOOP('',(#60,#61,#62,#63));
#283=EDGE_LOOP('',(#64,#65,#66,#67));
#284=EDGE_LOOP('',(#68,#69,#70,#71));
#285=EDGE_LOOP('',(#72,#73,#74,#75));
#286=EDGE_LOOP('',(#76,#77,#78,#79));
#287=EDGE_LOOP('',(#80,#81,#82,#83));
#288=EDGE_LOOP('',(#84,#85,#86,#87));
#289=EDGE_LOOP('',(#88,#89,#90,#91));
#290=EDGE_LOOP('',(#92,#93,#94,#95));
#291=EDGE_LOOP('',(#96,#97,#98,#99));
#292=EDGE_LOOP('',(#100,#101,#102,#103,#104,#105,#106,#107,#108,#109,#110,
#111,#112,#113,#114,#115));
#293=EDGE_LOOP('',(#116,#117,#118,#119,#120,#121,#122,#123,#124,#125,#126,
#127,#128,#129,#130,#131));
#294=FACE_BOUND('',#276,.T.);
#295=FACE_BOUND('',#277,.T.);
#296=FACE_BOUND('',#278,.T.);
#297=FACE_BOUND('',#279,.T.);
#298=FACE_BOUND('',#280,.T.);
#299=FACE_BOUND('',#281,.T.);
#300=FACE_BOUND('',#282,.T.);
#301=FACE_BOUND('',#283,.T.);
#302=FACE_BOUND('',#284,.T.);
#303=FACE_BOUND('',#285,.T.);
#304=FACE_BOUND('',#286,.T.);
#305=FACE_BOUND('',#287,.T.);
#306=FACE_BOUND('',#288,.T.);
#307=FACE_BOUND('',#289,.T.);
#308=FACE_BOUND('',#290,.T.);
#309=FACE_BOUND('',#291,.T.);
#310=FACE_BOUND('',#292,.T.);
#311=FACE_BOUND('',#293,.T.);
#312=PLANE('',#353);
#313=PLANE('',#354);
#314=PLANE('',#355);
#315=PLANE('',#359);
#316=PLANE('',#363);
#317=PLANE('',#364);
#318=PLANE('',#368);
#319=PLANE('',#369);
#320=PLANE('',#370);
#321=PLANE('',#371);
#322=ADVANCED_FACE('',(#294),#312,.T.);
#323=ADVANCED_FACE('',(#295),#313,.T.);
#324=ADVANCED_FACE('',(#296),#314,.T.);
#325=ADVANCED_FACE('',(#297),#31,.T.);
#326=ADVANCED_FACE('',(#298),#18,.F.);
#327=ADVANCED_FACE('',(#299),#315,.T.);
#328=ADVANCED_FACE('',(#300),#19,.T.);
#329=ADVANCED_FACE('',(#301),#32,.T.);
#330=ADVANCED_FACE('',(#302),#33,.T.);
#331=ADVANCED_FACE('',(#303),#316,.T.);
#332=ADVANCED_FACE('',(#304),#317,.T.);
#333=ADVANCED_FACE('',(#305),#34,.T.);
#334=ADVANCED_FACE('',(#306),#20,.T.);
#335=ADVANCED_FACE('',(#307),#318,.T.);
#336=ADVANCED_FACE('',(#308),#35,.T.);
#337=ADVANCED_FACE('',(#309),#319,.T.);
#338=ADVANCED_FACE('',(#310),#320,.T.);
#339=ADVANCED_FACE('',(#311),#321,.F.);
#340=CLOSED_SHELL('',(#322,#323,#324,#325,#326,#327,#328,#329,#330,#331,
#332,#333,#334,#335,#336,#337,#338,#339));
#341=STYLED_ITEM('',(#342),#349);
#342=PRESENTATION_STYLE_ASSIGNMENT((#343));
#343=SURFACE_STYLE_USAGE(.BOTH.,#344);
#344=SURFACE_SIDE_STYLE('',(#345));
#345=SURFACE_STYLE_FILL_AREA(#346);
#346=FILL_AREA_STYLE('',(#347));
#347=FILL_AREA_STYLE_COLOUR('',#348);
#348=COLOUR_RGB('',0.325490196078431,0.529411764705882,0.752941176470588);
#349=MANIFOLD_SOLID_BREP('Part 9',#340);
#350=SHAPE_DEFINITION_REPRESENTATION(#604,#351);
#351=SHAPE_REPRESENTATION('Part 9',(#352),#599);
#352=AXIS2_PLACEMENT_3D('',#444,#372,#373);
#353=AXIS2_PLACEMENT_3D('',#445,#374,#375);
#354=AXIS2_PLACEMENT_3D('',#454,#380,#381);
#355=AXIS2_PLACEMENT_3D('',#460,#385,#386);
#356=AXIS2_PLACEMENT_3D('',#483,#391,#392);
#357=AXIS2_PLACEMENT_3D('',#484,#393,#394);
#358=AXIS2_PLACEMENT_3D('',#488,#396,#397);
#359=AXIS2_PLACEMENT_3D('',#489,#398,#399);
#360=AXIS2_PLACEMENT_3D('',#495,#403,#404);
#361=AXIS2_PLACEMENT_3D('',#496,#405,#406);
#362=AXIS2_PLACEMENT_3D('',#500,#408,#409);
#363=AXIS2_PLACEMENT_3D('',#535,#412,#413);
#364=AXIS2_PLACEMENT_3D('',#541,#417,#418);
#365=AXIS2_PLACEMENT_3D('',#564,#423,#424);
#366=AXIS2_PLACEMENT_3D('',#565,#425,#426);
#367=AXIS2_PLACEMENT_3D('',#569,#428,#429);
#368=AXIS2_PLACEMENT_3D('',#570,#430,#431);
#369=AXIS2_PLACEMENT_3D('',#593,#436,#437);
#370=AXIS2_PLACEMENT_3D('',#596,#440,#441);
#371=AXIS2_PLACEMENT_3D('',#597,#442,#443);
#372=DIRECTION('',(0.,0.,1.));
#373=DIRECTION('',(1.,0.,0.));
#374=DIRECTION('',(0.,1.,0.));
#375=DIRECTION('',(0.,0.,1.));
#376=DIRECTION('',(1.,0.,0.));
#377=DIRECTION('',(0.,0.,-1.));
#378=DIRECTION('',(1.,0.,0.));
#379=DIRECTION('',(0.,0.,-1.));
#380=DIRECTION('',(-0.928067271675829,-0.372412592757258,0.));
#381=DIRECTION('',(0.372412592757258,-0.928067271675829,0.));
#382=DIRECTION('',(-0.372412592757258,0.928067271675829,0.));
#383=DIRECTION('',(0.,0.,-1.));
#384=DIRECTION('',(-0.372412592757258,0.928067271675829,0.));
#385=DIRECTION('',(-0.930960458012766,0.365120015360239,0.));
#386=DIRECTION('',(-0.365120015360239,-0.930960458012766,0.));
#387=DIRECTION('',(0.365120015360239,0.930960458012766,0.));
#388=DIRECTION('',(0.,0.,-1.));
#389=DIRECTION('',(0.365120015360239,0.930960458012766,0.));
#390=DIRECTION('',(0.,0.,-1.));
#391=DIRECTION('',(0.,0.,-1.));
#392=DIRECTION('',(-0.0991538090311878,-0.995072119072083,0.));
#393=DIRECTION('',(0.,0.,-1.));
#394=DIRECTION('',(-1.,0.,0.));
#395=DIRECTION('',(0.,0.,-1.));
#396=DIRECTION('',(0.,0.,-1.));
#397=DIRECTION('',(-1.,0.,0.));
#398=DIRECTION('',(-1.,0.,0.));
#399=DIRECTION('',(0.,0.,1.));
#400=DIRECTION('',(0.,1.,0.));
#401=DIRECTION('',(0.,0.,-1.));
#402=DIRECTION('',(0.,1.,0.));
#403=DIRECTION('',(0.,0.,-1.));
#404=DIRECTION('',(-0.114445059429989,-0.993429578969776,0.));
#405=DIRECTION('',(0.,0.,-1.));
#406=DIRECTION('',(-1.,0.,0.));
#407=DIRECTION('',(0.,0.,-1.));
#408=DIRECTION('',(0.,0.,-1.));
#409=DIRECTION('',(-1.,0.,0.));
#410=DIRECTION('',(0.,0.,-1.));
#411=DIRECTION('',(0.,0.,-1.));
#412=DIRECTION('',(0.935577794909199,-0.353120644642651,0.));
#413=DIRECTION('',(0.353120644642651,0.935577794909199,0.));
#414=DIRECTION('',(-0.353120644642651,-0.935577794909199,0.));
#415=DIRECTION('',(0.,0.,-1.));
#416=DIRECTION('',(-0.353120644642651,-0.935577794909199,0.));
#417=DIRECTION('',(0.,1.,0.));
#418=DIRECTION('',(0.,0.,1.));
#419=DIRECTION('',(1.,0.,0.));
#420=DIRECTION('',(0.,0.,-1.));
#421=DIRECTION('',(1.,0.,0.));
#422=DIRECTION('',(0.,0.,-1.));
#423=DIRECTION('',(0.,0.,-1.));
#424=DIRECTION('',(-0.956086413020419,0.293084920863816,0.));
#425=DIRECTION('',(0.,0.,-1.));
#426=DIRECTION('',(-1.,0.,0.));
#427=DIRECTION('',(0.,0.,-1.));
#428=DIRECTION('',(0.,0.,-1.));
#429=DIRECTION('',(-1.,0.,0.));
#430=DIRECTION('',(0.,1.,0.));
#431=DIRECTION('',(0.,0.,1.));
#432=DIRECTION('',(1.,0.,0.));
#433=DIRECTION('',(0.,0.,-1.));
#434=DIRECTION('',(1.,0.,0.));
#435=DIRECTION('',(0.,0.,-1.));
#436=DIRECTION('',(0.933530275615579,0.358498569744847,0.));
#437=DIRECTION('',(-0.358498569744847,0.933530275615579,0.));
#438=DIRECTION('',(0.358498569744847,-0.933530275615579,0.));
#439=DIRECTION('',(0.358498569744847,-0.933530275615579,0.));
#440=DIRECTION('',(0.,0.,1.));
#441=DIRECTION('',(1.,0.,0.));
#442=DIRECTION('',(0.,0.,1.));
#443=DIRECTION('',(1.,0.,0.));
#444=CARTESIAN_POINT('',(0.,0.,0.));
#445=CARTESIAN_POINT('',(-0.0271575009894052,0.0317195586219386,0.0232));
#446=CARTESIAN_POINT('',(-0.0271575009894052,0.0317195586219386,0.0222));
#447=CARTESIAN_POINT('',(-0.0275055099864062,0.0317195586219386,0.0222));
#448=CARTESIAN_POINT('',(-0.0268094919924042,0.0317195586219386,0.0222));
#449=CARTESIAN_POINT('',(-0.0275055099864062,0.0317195586219386,0.0232));
#450=CARTESIAN_POINT('',(-0.0275055099864062,0.0317195586219386,0.0232));
#451=CARTESIAN_POINT('',(-0.0271575009894052,0.0317195586219386,0.0232));
#452=CARTESIAN_POINT('',(-0.0268094919924042,0.0317195586219386,0.0232));
#453=CARTESIAN_POINT('',(-0.0268094919924042,0.0317195586219386,0.0232));
#454=CARTESIAN_POINT('',(-0.0266420478071326,0.0295677758828515,0.0232));
#455=CARTESIAN_POINT('',(-0.0266420478071326,0.0295677758828515,0.0222));
#456=CARTESIAN_POINT('',(-0.025778585627859,0.0274159931437646,0.0222));
#457=CARTESIAN_POINT('',(-0.025778585627859,0.0274159931437646,0.0232));
#458=CARTESIAN_POINT('',(-0.025778585627859,0.0274159931437646,0.0232));
#459=CARTESIAN_POINT('',(-0.0266420478071326,0.0295677758828515,0.0232));
#460=CARTESIAN_POINT('',(-0.0258979208494519,0.0271117195682897,0.0232));
#461=CARTESIAN_POINT('',(-0.0258979208494519,0.0271117195682897,0.0222));
#462=CARTESIAN_POINT('',(-0.0260172560710446,0.0268074459928149,0.0222));
#463=CARTESIAN_POINT('',(-0.0260172560710446,0.0268074459928149,0.0232));
#464=CARTESIAN_POINT('',(-0.0260172560710446,0.0268074459928149,0.0232));
#465=CARTESIAN_POINT('',(-0.0258979208494519,0.0271117195682897,0.0232));
#466=CARTESIAN_POINT('',(-0.0269706882603149,0.0260576959095094,0.0232));
#467=CARTESIAN_POINT('',(-0.0269706882603149,0.0260576959095094,0.0222));
#468=CARTESIAN_POINT('',(-0.0265250034885721,0.0260576959095094,0.0232));
#469=CARTESIAN_POINT('',(-0.0265250034885721,0.0260576959095094,0.0222));
#470=CARTESIAN_POINT('',(-0.0262071927588154,0.0263076126039445,0.0232));
#471=CARTESIAN_POINT('',(-0.0262071927588154,0.0263076126039445,0.0222));
#472=CARTESIAN_POINT('',(-0.0260172560710446,0.0268074459928149,0.0232));
#473=CARTESIAN_POINT('',(-0.0260172560710446,0.0268074459928149,0.0222));
#474=CARTESIAN_POINT('',(-0.0269706882603149,0.0260576959095094,0.0222));
#475=CARTESIAN_POINT('',(-0.0263021611027007,0.0260576959095094,0.0222));
#476=CARTESIAN_POINT('',(-0.0260172560710446,0.0268074459928149,0.0222));
#477=CARTESIAN_POINT('',(-0.0269706882603149,0.0260576959095094,0.0222));
#478=CARTESIAN_POINT('',(-0.0269706882603149,0.0260576959095094,0.0232));
#479=CARTESIAN_POINT('',(-0.0269706882603149,0.0260576959095094,0.0232));
#480=CARTESIAN_POINT('',(-0.0269706882603149,0.0260576959095094,0.0232));
#481=CARTESIAN_POINT('',(-0.0263021611027007,0.0260576959095094,0.0232));
#482=CARTESIAN_POINT('',(-0.0260172560710446,0.0268074459928149,0.0232));
#483=CARTESIAN_POINT('',(-0.0269954263335135,0.028354147304213,0.0232));
#484=CARTESIAN_POINT('',(-0.0269954263335135,0.028354147304213,0.0222));
#485=CARTESIAN_POINT('',(-0.0274505283136304,0.0261035091698814,0.0222));
#486=CARTESIAN_POINT('',(-0.0274505283136304,0.0261035091698814,0.0232));
#487=CARTESIAN_POINT('',(-0.0274505283136304,0.0261035091698814,0.0232));
#488=CARTESIAN_POINT('',(-0.0269954263335135,0.028354147304213,0.0232));
#489=CARTESIAN_POINT('',(-0.0274505283136304,0.0258446419275033,0.0232));
#490=CARTESIAN_POINT('',(-0.0274505283136304,0.0258446419275033,0.0222));
#491=CARTESIAN_POINT('',(-0.0274505283136304,0.0255853532118029,0.0222));
#492=CARTESIAN_POINT('',(-0.0274505283136304,0.0255853533570268,0.0232));
#493=CARTESIAN_POINT('',(-0.0274505283136304,0.0255853532118029,0.0232));
#494=CARTESIAN_POINT('',(-0.0274505283136304,0.0258446419275033,0.0232));
#495=CARTESIAN_POINT('',(-0.0268660684540242,0.0280834800118463,0.0232));
#496=CARTESIAN_POINT('',(-0.0268660684540242,0.0280834800118463,0.0222));
#497=CARTESIAN_POINT('',(-0.02686447366518,0.0255178758495293,0.0222));
#498=CARTESIAN_POINT('',(-0.02686447366518,0.0255178758495293,0.0232));
#499=CARTESIAN_POINT('',(-0.02686447366518,0.0255178758495293,0.0232));
#500=CARTESIAN_POINT('',(-0.0268660684540242,0.0280834800118463,0.0232));
#501=CARTESIAN_POINT('',(-0.0259685223156298,0.025820899841532,0.0232));
#502=CARTESIAN_POINT('',(-0.0259685223156298,0.025820899841532,0.0222));
#503=CARTESIAN_POINT('',(-0.02621177456488,0.0256188838468636,0.0232));
#504=CARTESIAN_POINT('',(-0.02621177456488,0.0256188838468636,0.0222));
#505=CARTESIAN_POINT('',(-0.0265104250147301,0.0255178758495293,0.0232));
#506=CARTESIAN_POINT('',(-0.0265104250147301,0.0255178758495293,0.0222));
#507=CARTESIAN_POINT('',(-0.02686447366518,0.0255178758495293,0.0232));
#508=CARTESIAN_POINT('',(-0.02686447366518,0.0255178758495293,0.0222));
#509=CARTESIAN_POINT('',(-0.0259685223156298,0.025820899841532,0.0222));
#510=CARTESIAN_POINT('',(-0.0263334006895052,0.0255178758495293,0.0222));
#511=CARTESIAN_POINT('',(-0.02686447366518,0.0255178758495293,0.0222));
#512=CARTESIAN_POINT('',(-0.0259685223156298,0.025820899841532,0.0222));
#513=CARTESIAN_POINT('',(-0.0259685223156298,0.025820899841532,0.0232));
#514=CARTESIAN_POINT('',(-0.0259685223156298,0.025820899841532,0.0232));
#515=CARTESIAN_POINT('',(-0.0259685223156298,0.025820899841532,0.0232));
#516=CARTESIAN_POINT('',(-0.0263334006895052,0.0255178758495293,0.0232));
#517=CARTESIAN_POINT('',(-0.02686447366518,0.0255178758495293,0.0232));
#518=CARTESIAN_POINT('',(-0.0253299851613479,0.0268461830804523,0.0232));
#519=CARTESIAN_POINT('',(-0.0253299851613479,0.0268461830804523,0.0222));
#520=CARTESIAN_POINT('',(-0.0255124243482856,0.0263646769158405,0.0232));
#521=CARTESIAN_POINT('',(-0.0255124243482856,0.0263646769158405,0.0222));
#522=CARTESIAN_POINT('',(-0.0257252700663795,0.0260229158362004,0.0232));
#523=CARTESIAN_POINT('',(-0.0257252700663795,0.0260229158362004,0.0222));
#524=CARTESIAN_POINT('',(-0.0259685223156298,0.025820899841532,0.0232));
#525=CARTESIAN_POINT('',(-0.0259685223156298,0.025820899841532,0.0222));
#526=CARTESIAN_POINT('',(-0.0253299851613479,0.0268461830804523,0.0222));
#527=CARTESIAN_POINT('',(-0.0256036439417544,0.0261239238335347,0.0222));
#528=CARTESIAN_POINT('',(-0.0259685223156298,0.025820899841532,0.0222));
#529=CARTESIAN_POINT('',(-0.0253299851613479,0.0268461830804523,0.0222));
#530=CARTESIAN_POINT('',(-0.0253299851613479,0.0268461830804523,0.0232));
#531=CARTESIAN_POINT('',(-0.0253299851613479,0.0268461830804523,0.0232));
#532=CARTESIAN_POINT('',(-0.0253299851613479,0.0268461830804523,0.0232));
#533=CARTESIAN_POINT('',(-0.0256036439417544,0.0261239238335347,0.0232));
#534=CARTESIAN_POINT('',(-0.0259685223156298,0.025820899841532,0.0232));
#535=CARTESIAN_POINT('',(-0.0244102917258264,0.0292828708511954,0.0232));
#536=CARTESIAN_POINT('',(-0.0244102917258264,0.0292828708511954,0.0222));
#537=CARTESIAN_POINT('',(-0.0234905982903049,0.0317195586219386,0.0222));
#538=CARTESIAN_POINT('',(-0.0234905982903049,0.0317195586219386,0.0232));
#539=CARTESIAN_POINT('',(-0.0234905982903049,0.0317195586219386,0.0232));
#540=CARTESIAN_POINT('',(-0.0244102917258264,0.0292828708511954,0.0232));
#541=CARTESIAN_POINT('',(-0.0238379824955698,0.0317195586219386,0.0232));
#542=CARTESIAN_POINT('',(-0.0238379824955698,0.0317195586219386,0.0222));
#543=CARTESIAN_POINT('',(-0.0241853667008347,0.0317195586219386,0.0222));
#544=CARTESIAN_POINT('',(-0.0241853667008347,0.0317195586219386,0.0232));
#545=CARTESIAN_POINT('',(-0.0241853667008347,0.0317195586219386,0.0232));
#546=CARTESIAN_POINT('',(-0.0238379824955698,0.0317195586219386,0.0232));
#547=CARTESIAN_POINT('',(-0.0252462630687121,0.028754297042465,0.0232));
#548=CARTESIAN_POINT('',(-0.0252462630687121,0.028754297042465,0.0222));
#549=CARTESIAN_POINT('',(-0.0251379658344568,0.0290758565226383,0.0232));
#550=CARTESIAN_POINT('',(-0.0251379658344568,0.0290758565226383,0.0222));
#551=CARTESIAN_POINT('',(-0.024784333711831,0.0300642770491295,0.0232));
#552=CARTESIAN_POINT('',(-0.024784333711831,0.0300642770491295,0.0222));
#553=CARTESIAN_POINT('',(-0.0241853667008347,0.0317195586219386,0.0232));
#554=CARTESIAN_POINT('',(-0.0241853667008347,0.0317195586219386,0.0222));
#555=CARTESIAN_POINT('',(-0.0252462630687121,0.028754297042465,0.0222));
#556=CARTESIAN_POINT('',(-0.0250838172173292,0.0292366362627249,0.0222));
#557=CARTESIAN_POINT('',(-0.0241853667008347,0.0317195586219386,0.0222));
#558=CARTESIAN_POINT('',(-0.0252462630687121,0.028754297042465,0.0222));
#559=CARTESIAN_POINT('',(-0.0252462630687121,0.028754297042465,0.0232));
#560=CARTESIAN_POINT('',(-0.0252462630687121,0.028754297042465,0.0232));
#561=CARTESIAN_POINT('',(-0.0252462630687121,0.028754297042465,0.0232));
#562=CARTESIAN_POINT('',(-0.0250838172173292,0.0292366362627249,0.0232));
#563=CARTESIAN_POINT('',(-0.0241853667008347,0.0317195586219386,0.0232));
#564=CARTESIAN_POINT('',(-0.014596988815978,0.0250368833354233,0.0232));
#565=CARTESIAN_POINT('',(-0.014596988815978,0.0250368833354233,0.0222));
#566=CARTESIAN_POINT('',(-0.0254591606368892,0.0280721553478819,0.0222));
#567=CARTESIAN_POINT('',(-0.025458692258982,0.028072024466657,0.0232));
#568=CARTESIAN_POINT('',(-0.0254591606368892,0.0280721553478819,0.02319999975));
#569=CARTESIAN_POINT('',(-0.014596988815978,0.0250368833354233,0.0232));
#570=CARTESIAN_POINT('',(-0.0254743120523842,0.028072024466657,0.0232));
#571=CARTESIAN_POINT('',(-0.0254743120523842,0.028072024466657,0.0222));
#572=CARTESIAN_POINT('',(-0.0254899318457864,0.028072024466657,0.0222));
#573=CARTESIAN_POINT('',(-0.0254899318457864,0.028072024466657,0.0232));
#574=CARTESIAN_POINT('',(-0.0254899318457864,0.028072024466657,0.0232));
#575=CARTESIAN_POINT('',(-0.0254743120523842,0.028072024466657,0.0232));
#576=CARTESIAN_POINT('',(-0.0258723043882722,0.0292791221007789,0.0232));
#577=CARTESIAN_POINT('',(-0.0258723043882722,0.0292791221007789,0.0222));
#578=CARTESIAN_POINT('',(-0.0256673726988354,0.0287218078721884,0.0232));
#579=CARTESIAN_POINT('',(-0.0256673726988354,0.0287218078721884,0.0222));
#580=CARTESIAN_POINT('',(-0.0255399151846734,0.0283194419941478,0.0232));
#581=CARTESIAN_POINT('',(-0.0255399151846734,0.0283194419941478,0.0222));
#582=CARTESIAN_POINT('',(-0.0254899318457864,0.028072024466657,0.0232));
#583=CARTESIAN_POINT('',(-0.0254899318457864,0.028072024466657,0.0222));
#584=CARTESIAN_POINT('',(-0.0258723043882722,0.0292791221007789,0.0222));
#585=CARTESIAN_POINT('',(-0.0255649068541169,0.0284431507578932,0.0222));
#586=CARTESIAN_POINT('',(-0.0254899318457864,0.028072024466657,0.0222));
#587=CARTESIAN_POINT('',(-0.0258723043882722,0.0292791221007789,0.0222));
#588=CARTESIAN_POINT('',(-0.0258723043882722,0.0292791221007789,0.0232));
#589=CARTESIAN_POINT('',(-0.0258723043882722,0.0292791221007789,0.0232));
#590=CARTESIAN_POINT('',(-0.0258723043882722,0.0292791221007789,0.0232));
#591=CARTESIAN_POINT('',(-0.0255649068541169,0.0284431507578932,0.0232));
#592=CARTESIAN_POINT('',(-0.0254899318457864,0.028072024466657,0.0232));
#593=CARTESIAN_POINT('',(-0.0263408981903382,0.0304993403613587,0.0232));
#594=CARTESIAN_POINT('',(-0.0263408981903382,0.0304993403613587,0.0222));
#595=CARTESIAN_POINT('',(-0.0263408981903382,0.0304993403613587,0.0232));
#596=CARTESIAN_POINT('',(-0.035336010574676,0.0221931616239257,0.0232));
#597=CARTESIAN_POINT('',(-0.035336010574676,0.0221931616239257,0.0222));
#598=MECHANICAL_DESIGN_GEOMETRIC_PRESENTATION_REPRESENTATION('',(#341),
#599);
#599=(
GEOMETRIC_REPRESENTATION_CONTEXT(3)
GLOBAL_UNCERTAINTY_ASSIGNED_CONTEXT((#600))
GLOBAL_UNIT_ASSIGNED_CONTEXT((#603,#602,#601))
REPRESENTATION_CONTEXT('Part 9','TOP_LEVEL_ASSEMBLY_PART')
);
#600=UNCERTAINTY_MEASURE_WITH_UNIT(LENGTH_MEASURE(2.E-5),#603,
'DISTANCE_ACCURACY_VALUE','Maximum Tolerance applied to model');
#601=(
NAMED_UNIT(*)
SI_UNIT($,.STERADIAN.)
SOLID_ANGLE_UNIT()
);
#602=(
NAMED_UNIT(*)
PLANE_ANGLE_UNIT()
SI_UNIT($,.RADIAN.)
);
#603=(
LENGTH_UNIT()
NAMED_UNIT(*)
SI_UNIT($,.METRE.)
);
#604=PRODUCT_DEFINITION_SHAPE('','',#605);
#605=PRODUCT_DEFINITION('','',#607,#606);
#606=PRODUCT_DEFINITION_CONTEXT('',#613,'design');
#607=PRODUCT_DEFINITION_FORMATION_WITH_SPECIFIED_SOURCE('','',#609,
 .NOT_KNOWN.);
#608=PRODUCT_RELATED_PRODUCT_CATEGORY('','',(#609));
#609=PRODUCT('Part 9','Part 9','Part 9',(#611));
#610=PRODUCT_CATEGORY('','');
#611=PRODUCT_CONTEXT('',#613,'mechanical');
#612=APPLICATION_PROTOCOL_DEFINITION('international standard',
'ap242_managed_model_based_3d_engineering',2020,#613);
#613=APPLICATION_CONTEXT('managed model based 3d engineering');
ENDSEC;
END-ISO-10303-21;
