ISO-10303-21;
HEADER;
/* Generated by software containing ST-Developer
 * from STEP Tools, Inc. (www.steptools.com) 
 */
/* OPTION: using custom renumber hook */

FILE_DESCRIPTION(
/* description */ ('STEP AP242 Edition 2',
'CAx-IF Rec.Pracs.---Representation and Presentation of Product Manufa
cturing Information (PMI)---4.0---2014-10-13',
'CAx-IF Rec.Pracs.---3D Tessellated Geometry---0.4---2014-09-14','2;1',
'CAx-IF Rec.Pracs.---User Defined Attributes---1.5---2016-08-15'),
/* implementation_level */ '2;1');

FILE_NAME(
/* name */ 'Part Studio 1 - Part 13',
/* time_stamp */ '2026-09-06T11:57:17Z',
/* author */ (''),
/* organization */ (''),
/* preprocessor_version */ 'ST-DEVELOPER v20',
/* originating_system */ 'ONSHAPE BY PTC INC, 1.220',
/* authorisation */ '  ');

FILE_SCHEMA (('AP242_MANAGED_MODEL_BASED_3D_ENGINEERING_MIM_LF { 1 0 10303 442 3 1 4 }'));
ENDSEC;

DATA;
#10=SHAPE_REPRESENTATION_RELATIONSHIP('','',#271,#11);
#11=ADVANCED_BREP_SHAPE_REPRESENTATION('',(#269),#467);
#12=PLANE('',#279);
#13=PLANE('',#280);
#14=PLANE('',#281);
#15=PLANE('',#282);
#16=PLANE('',#283);
#17=PLANE('',#287);
#18=PLANE('',#288);
#19=PLANE('',#289);
#20=B_SPLINE_CURVE_WITH_KNOTS('',2,(#374,#375,#376,#377,#378,#379,#380),
 .UNSPECIFIED.,.F.,.F.,(3,2,2,3),(-0.0268433394651307,-0.0166765737278522,
0.,1.),.PIECEWISE_BEZIER_KNOTS.);
#21=B_SPLINE_CURVE_WITH_KNOTS('',2,(#384,#385,#386,#387,#388,#389,#390),
 .UNSPECIFIED.,.F.,.F.,(3,2,2,3),(-0.0268433394651307,-0.0166765737278522,
0.,1.),.PIECEWISE_BEZIER_KNOTS.);
#22=B_SPLINE_CURVE_WITH_KNOTS('',2,(#429,#430,#431),.UNSPECIFIED.,.F.,.F.,
(3,3),(0.,1.),.PIECEWISE_BEZIER_KNOTS.);
#23=B_SPLINE_CURVE_WITH_KNOTS('',2,(#435,#436,#437),.UNSPECIFIED.,.F.,.F.,
(3,3),(0.,1.),.PIECEWISE_BEZIER_KNOTS.);
#24=B_SPLINE_CURVE_WITH_KNOTS('',2,(#446,#447,#448),.UNSPECIFIED.,.F.,.F.,
(3,3),(0.,1.),.PIECEWISE_BEZIER_KNOTS.);
#25=B_SPLINE_CURVE_WITH_KNOTS('',2,(#452,#453,#454),.UNSPECIFIED.,.F.,.F.,
(3,3),(0.,1.),.PIECEWISE_BEZIER_KNOTS.);
#26=B_SPLINE_SURFACE_WITH_KNOTS('',3,1,((#366,#367),(#368,#369),(#370,#371),
(#372,#373)),.SURF_OF_LINEAR_EXTRUSION.,.F.,.F.,.F.,(4,4),(2,2),(-0.0265306201660123,
1.),(0.,1.),.PIECEWISE_BEZIER_KNOTS.);
#27=B_SPLINE_SURFACE_WITH_KNOTS('',3,1,((#421,#422),(#423,#424),(#425,#426),
(#427,#428)),.SURF_OF_LINEAR_EXTRUSION.,.F.,.F.,.F.,(4,4),(2,2),(0.,1.),
(0.,1.),.PIECEWISE_BEZIER_KNOTS.);
#28=B_SPLINE_SURFACE_WITH_KNOTS('',3,1,((#438,#439),(#440,#441),(#442,#443),
(#444,#445)),.SURF_OF_LINEAR_EXTRUSION.,.F.,.F.,.F.,(4,4),(2,2),(0.,1.),
(0.,1.),.PIECEWISE_BEZIER_KNOTS.);
#29=LINE('',#355,#53);
#30=LINE('',#359,#54);
#31=LINE('',#363,#55);
#32=LINE('',#382,#56);
#33=LINE('',#392,#57);
#34=LINE('',#394,#58);
#35=LINE('',#396,#59);
#36=LINE('',#398,#60);
#37=LINE('',#400,#61);
#38=LINE('',#402,#62);
#39=LINE('',#404,#63);
#40=LINE('',#406,#64);
#41=LINE('',#408,#65);
#42=LINE('',#410,#66);
#43=LINE('',#412,#67);
#44=LINE('',#414,#68);
#45=LINE('',#416,#69);
#46=LINE('',#418,#70);
#47=LINE('',#420,#71);
#48=LINE('',#433,#72);
#49=LINE('',#450,#73);
#50=LINE('',#458,#74);
#51=LINE('',#462,#75);
#52=LINE('',#463,#76);
#53=VECTOR('',#296,1.);
#54=VECTOR('',#299,1.);
#55=VECTOR('',#304,1.);
#56=VECTOR('',#307,1.);
#57=VECTOR('',#310,1.);
#58=VECTOR('',#311,1.);
#59=VECTOR('',#312,1.);
#60=VECTOR('',#315,1.);
#61=VECTOR('',#316,1.);
#62=VECTOR('',#317,1.);
#63=VECTOR('',#320,1.);
#64=VECTOR('',#321,1.);
#65=VECTOR('',#322,1.);
#66=VECTOR('',#325,1.);
#67=VECTOR('',#326,1.);
#68=VECTOR('',#327,1.);
#69=VECTOR('',#330,1.);
#70=VECTOR('',#331,1.);
#71=VECTOR('',#332,1.);
#72=VECTOR('',#333,1.);
#73=VECTOR('',#334,1.);
#74=VECTOR('',#339,1.);
#75=VECTOR('',#344,1.);
#76=VECTOR('',#345,1.);
#77=ORIENTED_EDGE('',*,*,#149,.F.);
#78=ORIENTED_EDGE('',*,*,#150,.F.);
#79=ORIENTED_EDGE('',*,*,#151,.T.);
#80=ORIENTED_EDGE('',*,*,#152,.T.);
#81=ORIENTED_EDGE('',*,*,#153,.F.);
#82=ORIENTED_EDGE('',*,*,#154,.F.);
#83=ORIENTED_EDGE('',*,*,#155,.T.);
#84=ORIENTED_EDGE('',*,*,#150,.T.);
#85=ORIENTED_EDGE('',*,*,#156,.F.);
#86=ORIENTED_EDGE('',*,*,#157,.F.);
#87=ORIENTED_EDGE('',*,*,#158,.T.);
#88=ORIENTED_EDGE('',*,*,#154,.T.);
#89=ORIENTED_EDGE('',*,*,#159,.F.);
#90=ORIENTED_EDGE('',*,*,#160,.F.);
#91=ORIENTED_EDGE('',*,*,#161,.T.);
#92=ORIENTED_EDGE('',*,*,#157,.T.);
#93=ORIENTED_EDGE('',*,*,#162,.F.);
#94=ORIENTED_EDGE('',*,*,#163,.F.);
#95=ORIENTED_EDGE('',*,*,#164,.T.);
#96=ORIENTED_EDGE('',*,*,#160,.T.);
#97=ORIENTED_EDGE('',*,*,#165,.F.);
#98=ORIENTED_EDGE('',*,*,#166,.F.);
#99=ORIENTED_EDGE('',*,*,#167,.T.);
#100=ORIENTED_EDGE('',*,*,#163,.T.);
#101=ORIENTED_EDGE('',*,*,#168,.F.);
#102=ORIENTED_EDGE('',*,*,#169,.F.);
#103=ORIENTED_EDGE('',*,*,#170,.T.);
#104=ORIENTED_EDGE('',*,*,#166,.T.);
#105=ORIENTED_EDGE('',*,*,#171,.F.);
#106=ORIENTED_EDGE('',*,*,#172,.F.);
#107=ORIENTED_EDGE('',*,*,#173,.T.);
#108=ORIENTED_EDGE('',*,*,#169,.T.);
#109=ORIENTED_EDGE('',*,*,#174,.F.);
#110=ORIENTED_EDGE('',*,*,#175,.F.);
#111=ORIENTED_EDGE('',*,*,#176,.T.);
#112=ORIENTED_EDGE('',*,*,#172,.T.);
#113=ORIENTED_EDGE('',*,*,#177,.F.);
#114=ORIENTED_EDGE('',*,*,#178,.F.);
#115=ORIENTED_EDGE('',*,*,#179,.T.);
#116=ORIENTED_EDGE('',*,*,#175,.T.);
#117=ORIENTED_EDGE('',*,*,#180,.F.);
#118=ORIENTED_EDGE('',*,*,#181,.F.);
#119=ORIENTED_EDGE('',*,*,#182,.T.);
#120=ORIENTED_EDGE('',*,*,#178,.T.);
#121=ORIENTED_EDGE('',*,*,#183,.F.);
#122=ORIENTED_EDGE('',*,*,#152,.F.);
#123=ORIENTED_EDGE('',*,*,#184,.T.);
#124=ORIENTED_EDGE('',*,*,#181,.T.);
#125=ORIENTED_EDGE('',*,*,#151,.F.);
#126=ORIENTED_EDGE('',*,*,#155,.F.);
#127=ORIENTED_EDGE('',*,*,#158,.F.);
#128=ORIENTED_EDGE('',*,*,#161,.F.);
#129=ORIENTED_EDGE('',*,*,#164,.F.);
#130=ORIENTED_EDGE('',*,*,#167,.F.);
#131=ORIENTED_EDGE('',*,*,#170,.F.);
#132=ORIENTED_EDGE('',*,*,#173,.F.);
#133=ORIENTED_EDGE('',*,*,#176,.F.);
#134=ORIENTED_EDGE('',*,*,#179,.F.);
#135=ORIENTED_EDGE('',*,*,#182,.F.);
#136=ORIENTED_EDGE('',*,*,#184,.F.);
#137=ORIENTED_EDGE('',*,*,#149,.T.);
#138=ORIENTED_EDGE('',*,*,#183,.T.);
#139=ORIENTED_EDGE('',*,*,#180,.T.);
#140=ORIENTED_EDGE('',*,*,#177,.T.);
#141=ORIENTED_EDGE('',*,*,#174,.T.);
#142=ORIENTED_EDGE('',*,*,#171,.T.);
#143=ORIENTED_EDGE('',*,*,#168,.T.);
#144=ORIENTED_EDGE('',*,*,#165,.T.);
#145=ORIENTED_EDGE('',*,*,#162,.T.);
#146=ORIENTED_EDGE('',*,*,#159,.T.);
#147=ORIENTED_EDGE('',*,*,#156,.T.);
#148=ORIENTED_EDGE('',*,*,#153,.T.);
#149=EDGE_CURVE('',#185,#186,#209,.T.);
#150=EDGE_CURVE('',#187,#185,#29,.T.);
#151=EDGE_CURVE('',#187,#188,#210,.T.);
#152=EDGE_CURVE('',#188,#186,#30,.T.);
#153=EDGE_CURVE('',#189,#185,#211,.T.);
#154=EDGE_CURVE('',#190,#189,#31,.T.);
#155=EDGE_CURVE('',#190,#187,#212,.T.);
#156=EDGE_CURVE('',#191,#189,#20,.T.);
#157=EDGE_CURVE('',#192,#191,#32,.T.);
#158=EDGE_CURVE('',#192,#190,#21,.T.);
#159=EDGE_CURVE('',#193,#191,#33,.T.);
#160=EDGE_CURVE('',#194,#193,#34,.T.);
#161=EDGE_CURVE('',#194,#192,#35,.T.);
#162=EDGE_CURVE('',#195,#193,#36,.T.);
#163=EDGE_CURVE('',#196,#195,#37,.T.);
#164=EDGE_CURVE('',#196,#194,#38,.T.);
#165=EDGE_CURVE('',#197,#195,#39,.T.);
#166=EDGE_CURVE('',#198,#197,#40,.T.);
#167=EDGE_CURVE('',#198,#196,#41,.T.);
#168=EDGE_CURVE('',#199,#197,#42,.T.);
#169=EDGE_CURVE('',#200,#199,#43,.T.);
#170=EDGE_CURVE('',#200,#198,#44,.T.);
#171=EDGE_CURVE('',#201,#199,#45,.T.);
#172=EDGE_CURVE('',#202,#201,#46,.T.);
#173=EDGE_CURVE('',#202,#200,#47,.T.);
#174=EDGE_CURVE('',#203,#201,#22,.T.);
#175=EDGE_CURVE('',#204,#203,#48,.T.);
#176=EDGE_CURVE('',#204,#202,#23,.T.);
#177=EDGE_CURVE('',#205,#203,#24,.T.);
#178=EDGE_CURVE('',#206,#205,#49,.T.);
#179=EDGE_CURVE('',#206,#204,#25,.T.);
#180=EDGE_CURVE('',#207,#205,#213,.F.);
#181=EDGE_CURVE('',#208,#207,#50,.T.);
#182=EDGE_CURVE('',#208,#206,#214,.F.);
#183=EDGE_CURVE('',#186,#207,#51,.T.);
#184=EDGE_CURVE('',#188,#208,#52,.T.);
#185=VERTEX_POINT('',#353);
#186=VERTEX_POINT('',#354);
#187=VERTEX_POINT('',#356);
#188=VERTEX_POINT('',#358);
#189=VERTEX_POINT('',#362);
#190=VERTEX_POINT('',#364);
#191=VERTEX_POINT('',#381);
#192=VERTEX_POINT('',#383);
#193=VERTEX_POINT('',#393);
#194=VERTEX_POINT('',#395);
#195=VERTEX_POINT('',#399);
#196=VERTEX_POINT('',#401);
#197=VERTEX_POINT('',#405);
#198=VERTEX_POINT('',#407);
#199=VERTEX_POINT('',#411);
#200=VERTEX_POINT('',#413);
#201=VERTEX_POINT('',#417);
#202=VERTEX_POINT('',#419);
#203=VERTEX_POINT('',#432);
#204=VERTEX_POINT('',#434);
#205=VERTEX_POINT('',#449);
#206=VERTEX_POINT('',#451);
#207=VERTEX_POINT('',#457);
#208=VERTEX_POINT('',#459);
#209=CIRCLE('',#274,0.001533391290281);
#210=CIRCLE('',#275,0.001533391290281);
#211=CIRCLE('',#277,0.000788504045597267);
#212=CIRCLE('',#278,0.000788504045597267);
#213=CIRCLE('',#285,0.00135339260994997);
#214=CIRCLE('',#286,0.00135339260994997);
#215=EDGE_LOOP('',(#77,#78,#79,#80));
#216=EDGE_LOOP('',(#81,#82,#83,#84));
#217=EDGE_LOOP('',(#85,#86,#87,#88));
#218=EDGE_LOOP('',(#89,#90,#91,#92));
#219=EDGE_LOOP('',(#93,#94,#95,#96));
#220=EDGE_LOOP('',(#97,#98,#99,#100));
#221=EDGE_LOOP('',(#101,#102,#103,#104));
#222=EDGE_LOOP('',(#105,#106,#107,#108));
#223=EDGE_LOOP('',(#109,#110,#111,#112));
#224=EDGE_LOOP('',(#113,#114,#115,#116));
#225=EDGE_LOOP('',(#117,#118,#119,#120));
#226=EDGE_LOOP('',(#121,#122,#123,#124));
#227=EDGE_LOOP('',(#125,#126,#127,#128,#129,#130,#131,#132,#133,#134,#135,
#136));
#228=EDGE_LOOP('',(#137,#138,#139,#140,#141,#142,#143,#144,#145,#146,#147,
#148));
#229=FACE_BOUND('',#215,.T.);
#230=FACE_BOUND('',#216,.T.);
#231=FACE_BOUND('',#217,.T.);
#232=FACE_BOUND('',#218,.T.);
#233=FACE_BOUND('',#219,.T.);
#234=FACE_BOUND('',#220,.T.);
#235=FACE_BOUND('',#221,.T.);
#236=FACE_BOUND('',#222,.T.);
#237=FACE_BOUND('',#223,.T.);
#238=FACE_BOUND('',#224,.T.);
#239=FACE_BOUND('',#225,.T.);
#240=FACE_BOUND('',#226,.T.);
#241=FACE_BOUND('',#227,.T.);
#242=FACE_BOUND('',#228,.T.);
#243=CYLINDRICAL_SURFACE('',#273,0.001533391290281);
#244=CYLINDRICAL_SURFACE('',#276,0.000788504045597267);
#245=CYLINDRICAL_SURFACE('',#284,0.00135339260994997);
#246=ADVANCED_FACE('',(#229),#243,.T.);
#247=ADVANCED_FACE('',(#230),#244,.T.);
#248=ADVANCED_FACE('',(#231),#26,.T.);
#249=ADVANCED_FACE('',(#232),#12,.T.);
#250=ADVANCED_FACE('',(#233),#13,.T.);
#251=ADVANCED_FACE('',(#234),#14,.T.);
#252=ADVANCED_FACE('',(#235),#15,.T.);
#253=ADVANCED_FACE('',(#236),#16,.T.);
#254=ADVANCED_FACE('',(#237),#27,.T.);
#255=ADVANCED_FACE('',(#238),#28,.T.);
#256=ADVANCED_FACE('',(#239),#245,.F.);
#257=ADVANCED_FACE('',(#240),#17,.T.);
#258=ADVANCED_FACE('',(#241),#18,.T.);
#259=ADVANCED_FACE('',(#242),#19,.F.);
#260=CLOSED_SHELL('',(#246,#247,#248,#249,#250,#251,#252,#253,#254,#255,
#256,#257,#258,#259));
#261=STYLED_ITEM('',(#262),#269);
#262=PRESENTATION_STYLE_ASSIGNMENT((#263));
#263=SURFACE_STYLE_USAGE(.BOTH.,#264);
#264=SURFACE_SIDE_STYLE('',(#265));
#265=SURFACE_STYLE_FILL_AREA(#266);
#266=FILL_AREA_STYLE('',(#267));
#267=FILL_AREA_STYLE_COLOUR('',#268);
#268=COLOUR_RGB('',0.325490196078431,0.529411764705882,0.752941176470588);
#269=MANIFOLD_SOLID_BREP('Part 13',#260);
#270=SHAPE_DEFINITION_REPRESENTATION(#472,#271);
#271=SHAPE_REPRESENTATION('Part 13',(#272),#467);
#272=AXIS2_PLACEMENT_3D('',#350,#290,#291);
#273=AXIS2_PLACEMENT_3D('',#351,#292,#293);
#274=AXIS2_PLACEMENT_3D('',#352,#294,#295);
#275=AXIS2_PLACEMENT_3D('',#357,#297,#298);
#276=AXIS2_PLACEMENT_3D('',#360,#300,#301);
#277=AXIS2_PLACEMENT_3D('',#361,#302,#303);
#278=AXIS2_PLACEMENT_3D('',#365,#305,#306);
#279=AXIS2_PLACEMENT_3D('',#391,#308,#309);
#280=AXIS2_PLACEMENT_3D('',#397,#313,#314);
#281=AXIS2_PLACEMENT_3D('',#403,#318,#319);
#282=AXIS2_PLACEMENT_3D('',#409,#323,#324);
#283=AXIS2_PLACEMENT_3D('',#415,#328,#329);
#284=AXIS2_PLACEMENT_3D('',#455,#335,#336);
#285=AXIS2_PLACEMENT_3D('',#456,#337,#338);
#286=AXIS2_PLACEMENT_3D('',#460,#340,#341);
#287=AXIS2_PLACEMENT_3D('',#461,#342,#343);
#288=AXIS2_PLACEMENT_3D('',#464,#346,#347);
#289=AXIS2_PLACEMENT_3D('',#465,#348,#349);
#290=DIRECTION('',(0.,0.,1.));
#291=DIRECTION('',(1.,0.,0.));
#292=DIRECTION('',(0.,0.,-1.));
#293=DIRECTION('',(0.0960530815473159,0.995376213059798,0.));
#294=DIRECTION('',(0.,0.,-1.));
#295=DIRECTION('',(-1.,0.,0.));
#296=DIRECTION('',(0.,0.,-1.));
#297=DIRECTION('',(0.,0.,-1.));
#298=DIRECTION('',(-1.,0.,0.));
#299=DIRECTION('',(0.,0.,-1.));
#300=DIRECTION('',(0.,0.,-1.));
#301=DIRECTION('',(-0.293173897633926,0.95605913297564,0.));
#302=DIRECTION('',(0.,0.,-1.));
#303=DIRECTION('',(-1.,0.,0.));
#304=DIRECTION('',(0.,0.,-1.));
#305=DIRECTION('',(0.,0.,-1.));
#306=DIRECTION('',(-1.,0.,0.));
#307=DIRECTION('',(0.,0.,-1.));
#308=DIRECTION('',(0.995551755258923,0.0942162544409216,0.));
#309=DIRECTION('',(-0.0942162544409217,0.995551755258924,0.));
#310=DIRECTION('',(0.0942162544409216,-0.995551755258924,0.));
#311=DIRECTION('',(0.,0.,-1.));
#312=DIRECTION('',(0.0942162544409216,-0.995551755258924,0.));
#313=DIRECTION('',(0.,1.,0.));
#314=DIRECTION('',(0.,0.,1.));
#315=DIRECTION('',(1.,0.,0.));
#316=DIRECTION('',(0.,0.,-1.));
#317=DIRECTION('',(1.,0.,0.));
#318=DIRECTION('',(-1.,0.,0.));
#319=DIRECTION('',(0.,0.,1.));
#320=DIRECTION('',(0.,1.,0.));
#321=DIRECTION('',(0.,0.,-1.));
#322=DIRECTION('',(0.,1.,0.));
#323=DIRECTION('',(0.,-1.,0.));
#324=DIRECTION('',(0.,0.,-1.));
#325=DIRECTION('',(-1.,0.,0.));
#326=DIRECTION('',(0.,0.,-1.));
#327=DIRECTION('',(-1.,0.,0.));
#328=DIRECTION('',(1.,0.,0.));
#329=DIRECTION('',(0.,0.,-1.));
#330=DIRECTION('',(0.,-1.,0.));
#331=DIRECTION('',(0.,0.,-1.));
#332=DIRECTION('',(0.,-1.,0.));
#333=DIRECTION('',(0.,0.,-1.));
#334=DIRECTION('',(0.,0.,-1.));
#335=DIRECTION('',(0.,0.,-1.));
#336=DIRECTION('',(0.119328822244476,0.992854789071265,0.));
#337=DIRECTION('',(0.,0.,-1.));
#338=DIRECTION('',(-1.,0.,0.));
#339=DIRECTION('',(0.,0.,-1.));
#340=DIRECTION('',(0.,0.,-1.));
#341=DIRECTION('',(-1.,0.,0.));
#342=DIRECTION('',(0.988981551007452,-0.148038818446022,0.));
#343=DIRECTION('',(0.148038818446022,0.988981551007452,0.));
#344=DIRECTION('',(-0.148038818446022,-0.988981551007452,0.));
#345=DIRECTION('',(-0.148038818446022,-0.988981551007452,0.));
#346=DIRECTION('',(0.,0.,1.));
#347=DIRECTION('',(1.,0.,0.));
#348=DIRECTION('',(0.,0.,1.));
#349=DIRECTION('',(1.,0.,0.));
#350=CARTESIAN_POINT('',(0.,0.,0.));
#351=CARTESIAN_POINT('',(-0.035635609268657,0.0220652639278241,0.0232));
#352=CARTESIAN_POINT('',(-0.035635609268657,0.0220652639278241,0.0222));
#353=CARTESIAN_POINT('',(-0.0356533898790709,0.0235986911947291,0.0222));
#354=CARTESIAN_POINT('',(-0.0353411447360678,0.0235701159099661,0.0222));
#355=CARTESIAN_POINT('',(-0.0356533918655675,0.0235988303003887,0.0232));
#356=CARTESIAN_POINT('',(-0.0356533898790709,0.0235986911947291,0.0232));
#357=CARTESIAN_POINT('',(-0.035635609268657,0.0220652639278241,0.0232));
#358=CARTESIAN_POINT('',(-0.0353411447360678,0.0235701159099661,0.0232));
#359=CARTESIAN_POINT('',(-0.0353411447360678,0.0235701159099661,0.0232));
#360=CARTESIAN_POINT('',(-0.0356578772589831,0.0228102560145852,0.0232));
#361=CARTESIAN_POINT('',(-0.0356578772589831,0.0228102560145852,0.0222));
#362=CARTESIAN_POINT('',(-0.0361045219309487,0.0234602852803097,0.0222));
#363=CARTESIAN_POINT('',(-0.0361045219309487,0.0234602852803097,0.0232));
#364=CARTESIAN_POINT('',(-0.0361045219309487,0.0234602852803097,0.0232));
#365=CARTESIAN_POINT('',(-0.0356578772589831,0.0228102560145852,0.0232));
#366=CARTESIAN_POINT('',(-0.0364625876313984,0.0230532587478935,0.0232));
#367=CARTESIAN_POINT('',(-0.0364625876313984,0.0230532587478935,0.0222));
#368=CARTESIAN_POINT('',(-0.0363633335119391,0.0232277370421004,0.0232));
#369=CARTESIAN_POINT('',(-0.0363633335119391,0.0232277370421004,0.0222));
#370=CARTESIAN_POINT('',(-0.0362450448684984,0.0233654714767212,0.0232));
#371=CARTESIAN_POINT('',(-0.0362450448684984,0.0233654714767212,0.0222));
#372=CARTESIAN_POINT('',(-0.0361045219309487,0.0234602852803097,0.0232));
#373=CARTESIAN_POINT('',(-0.0361045219309487,0.0234602852803097,0.0222));
#374=CARTESIAN_POINT('',(-0.0364626783408563,0.023053099290215,0.0222));
#375=CARTESIAN_POINT('',(-0.0364612038207184,0.0230556913414046,0.0222));
#376=CARTESIAN_POINT('',(-0.0364597293005806,0.0230582833925942,0.0222));
#377=CARTESIAN_POINT('',(-0.0364573106411538,0.0230625351412709,0.0222));
#378=CARTESIAN_POINT('',(-0.036454891981727,0.0230667868899475,0.0222));
#379=CARTESIAN_POINT('',(-0.0363098586273743,0.0233217402602307,0.0222));
#380=CARTESIAN_POINT('',(-0.0361045219309487,0.0234602852803097,0.0222));
#381=CARTESIAN_POINT('',(-0.0364673965977773,0.0230559943874504,0.0222));
#382=CARTESIAN_POINT('',(-0.0364673965977773,0.0230559943874504,0.0232));
#383=CARTESIAN_POINT('',(-0.0364673965977773,0.0230559943874504,0.0232));
#384=CARTESIAN_POINT('',(-0.0364626783408563,0.023053099290215,0.0232));
#385=CARTESIAN_POINT('',(-0.0364612038207184,0.0230556913414046,0.0232));
#386=CARTESIAN_POINT('',(-0.0364597293005806,0.0230582833925942,0.0232));
#387=CARTESIAN_POINT('',(-0.0364573106411538,0.0230625351412709,0.0232));
#388=CARTESIAN_POINT('',(-0.036454891981727,0.0230667868899475,0.0232));
#389=CARTESIAN_POINT('',(-0.0363098586273743,0.0233217402602307,0.0232));
#390=CARTESIAN_POINT('',(-0.0361045219309487,0.0234602852803097,0.0232));
#391=CARTESIAN_POINT('',(-0.0364968753211448,0.0233087635916833,0.0232));
#392=CARTESIAN_POINT('',(-0.0364968753211448,0.0233087635916833,0.0222));
#393=CARTESIAN_POINT('',(-0.0365197753244637,0.0235507402934191,0.0222));
#394=CARTESIAN_POINT('',(-0.0365197753244637,0.0235507402934191,0.0232));
#395=CARTESIAN_POINT('',(-0.0365197753244637,0.0235507402934191,0.0232));
#396=CARTESIAN_POINT('',(-0.0364968753211448,0.0233087635916833,0.0232));
#397=CARTESIAN_POINT('',(-0.0366831286814714,0.0235507402934191,0.0232));
#398=CARTESIAN_POINT('',(-0.0366831286814714,0.0235507402934191,0.0222));
#399=CARTESIAN_POINT('',(-0.0368464820384791,0.0235507402934191,0.0222));
#400=CARTESIAN_POINT('',(-0.0368464820384791,0.0235507402934191,0.0232));
#401=CARTESIAN_POINT('',(-0.0368464820384791,0.0235507402934191,0.0232));
#402=CARTESIAN_POINT('',(-0.0366831286814714,0.0235507402934191,0.0232));
#403=CARTESIAN_POINT('',(-0.0368464820384791,0.0222435317706353,0.0232));
#404=CARTESIAN_POINT('',(-0.0368464820384791,0.0222435317706353,0.0222));
#405=CARTESIAN_POINT('',(-0.0368464820384791,0.0209363232478514,0.0222));
#406=CARTESIAN_POINT('',(-0.0368464820384791,0.0209363232478514,0.0232));
#407=CARTESIAN_POINT('',(-0.0368464820384791,0.0209363232478514,0.0232));
#408=CARTESIAN_POINT('',(-0.0368464820384791,0.0222435317706353,0.0232));
#409=CARTESIAN_POINT('',(-0.0366483970097711,0.0209363232478514,0.0232));
#410=CARTESIAN_POINT('',(-0.0366483970097711,0.0209363232478514,0.0222));
#411=CARTESIAN_POINT('',(-0.0364503119810631,0.0209363232478514,0.0222));
#412=CARTESIAN_POINT('',(-0.0364503119810631,0.0209363232478514,0.0232));
#413=CARTESIAN_POINT('',(-0.0364503119810631,0.0209363232478514,0.0232));
#414=CARTESIAN_POINT('',(-0.0366483970097711,0.0209363232478514,0.0232));
#415=CARTESIAN_POINT('',(-0.0364503119810631,0.0216378266828519,0.0232));
#416=CARTESIAN_POINT('',(-0.0364503119810631,0.0216378266828519,0.0222));
#417=CARTESIAN_POINT('',(-0.0364503119810631,0.0223393301178524,0.0222));
#418=CARTESIAN_POINT('',(-0.0364503119810631,0.0223393301178524,0.0232));
#419=CARTESIAN_POINT('',(-0.0364503119810631,0.0223393301178524,0.0232));
#420=CARTESIAN_POINT('',(-0.0364503119810631,0.0216378266828519,0.0232));
#421=CARTESIAN_POINT('',(-0.0362251286150946,0.0229809118775019,0.0232));
#422=CARTESIAN_POINT('',(-0.0362251286150946,0.0229809118775019,0.0222));
#423=CARTESIAN_POINT('',(-0.0363752508590736,0.0228091618526106,0.0232));
#424=CARTESIAN_POINT('',(-0.0363752508590736,0.0228091618526106,0.0222));
#425=CARTESIAN_POINT('',(-0.0364503119810631,0.0225953012660608,0.0232));
#426=CARTESIAN_POINT('',(-0.0364503119810631,0.0225953012660608,0.0222));
#427=CARTESIAN_POINT('',(-0.0364503119810631,0.0223393301178524,0.0232));
#428=CARTESIAN_POINT('',(-0.0364503119810631,0.0223393301178524,0.0222));
#429=CARTESIAN_POINT('',(-0.0362251286150946,0.0229809118775019,0.0222));
#430=CARTESIAN_POINT('',(-0.0364503119810631,0.022723286840165,0.0222));
#431=CARTESIAN_POINT('',(-0.0364503119810631,0.0223393301178524,0.0222));
#432=CARTESIAN_POINT('',(-0.0362251286150946,0.0229809118775019,0.0222));
#433=CARTESIAN_POINT('',(-0.0362251286150946,0.0229809118775019,0.0232));
#434=CARTESIAN_POINT('',(-0.0362251286150946,0.0229809118775019,0.0232));
#435=CARTESIAN_POINT('',(-0.0362251286150946,0.0229809118775019,0.0232));
#436=CARTESIAN_POINT('',(-0.0364503119810631,0.022723286840165,0.0232));
#437=CARTESIAN_POINT('',(-0.0364503119810631,0.0223393301178524,0.0232));
#438=CARTESIAN_POINT('',(-0.035682398536438,0.0232385369148389,0.0232));
#439=CARTESIAN_POINT('',(-0.035682398536438,0.0232385369148389,0.0222));
#440=CARTESIAN_POINT('',(-0.0358940963448967,0.0232385369148389,0.0232));
#441=CARTESIAN_POINT('',(-0.0358940963448967,0.0232385369148389,0.0222));
#442=CARTESIAN_POINT('',(-0.0360750063711155,0.0231526619023932,0.0232));
#443=CARTESIAN_POINT('',(-0.0360750063711155,0.0231526619023932,0.0222));
#444=CARTESIAN_POINT('',(-0.0362251286150946,0.0229809118775019,0.0232));
#445=CARTESIAN_POINT('',(-0.0362251286150946,0.0229809118775019,0.0222));
#446=CARTESIAN_POINT('',(-0.035682398536438,0.0232385369148389,0.0222));
#447=CARTESIAN_POINT('',(-0.035999945249126,0.0232385369148389,0.0222));
#448=CARTESIAN_POINT('',(-0.0362251286150946,0.0229809118775019,0.0222));
#449=CARTESIAN_POINT('',(-0.035682398536438,0.0232385369148389,0.0222));
#450=CARTESIAN_POINT('',(-0.035682398536438,0.0232385369148389,0.0232));
#451=CARTESIAN_POINT('',(-0.035682398536438,0.0232385369148389,0.0232));
#452=CARTESIAN_POINT('',(-0.035682398536438,0.0232385369148389,0.0232));
#453=CARTESIAN_POINT('',(-0.035999945249126,0.0232385369148389,0.0232));
#454=CARTESIAN_POINT('',(-0.0362251286150946,0.0229809118775019,0.0232));
#455=CARTESIAN_POINT('',(-0.0357101258054195,0.0218858228740228,0.0232));
#456=CARTESIAN_POINT('',(-0.0357101258054195,0.0218858228740228,0.0222));
#457=CARTESIAN_POINT('',(-0.0353961484949525,0.0232026602429727,0.0222));
#458=CARTESIAN_POINT('',(-0.0353962017800579,0.0232023042688658,0.0232));
#459=CARTESIAN_POINT('',(-0.0353961484949525,0.0232026602429727,0.0232));
#460=CARTESIAN_POINT('',(-0.0357101258054195,0.0218858228740228,0.0232));
#461=CARTESIAN_POINT('',(-0.0353686684909699,0.0233862419362454,0.0232));
#462=CARTESIAN_POINT('',(-0.0353686684909699,0.0233862419362454,0.0222));
#463=CARTESIAN_POINT('',(-0.0353686684909699,0.0233862419362454,0.0232));
#464=CARTESIAN_POINT('',(-0.035336010574676,0.0221931616239257,0.0232));
#465=CARTESIAN_POINT('',(-0.035336010574676,0.0221931616239257,0.0222));
#466=MECHANICAL_DESIGN_GEOMETRIC_PRESENTATION_REPRESENTATION('',(#261),
#467);
#467=(
GEOMETRIC_REPRESENTATION_CONTEXT(3)
GLOBAL_UNCERTAINTY_ASSIGNED_CONTEXT((#468))
GLOBAL_UNIT_ASSIGNED_CONTEXT((#471,#470,#469))
REPRESENTATION_CONTEXT('Part 13','TOP_LEVEL_ASSEMBLY_PART')
);
#468=UNCERTAINTY_MEASURE_WITH_UNIT(LENGTH_MEASURE(2.E-5),#471,
'DISTANCE_ACCURACY_VALUE','Maximum Tolerance applied to model');
#469=(
NAMED_UNIT(*)
SI_UNIT($,.STERADIAN.)
SOLID_ANGLE_UNIT()
);
#470=(
NAMED_UNIT(*)
PLANE_ANGLE_UNIT()
SI_UNIT($,.RADIAN.)
);
#471=(
LENGTH_UNIT()
NAMED_UNIT(*)
SI_UNIT($,.METRE.)
);
#472=PRODUCT_DEFINITION_SHAPE('','',#473);
#473=PRODUCT_DEFINITION('','',#475,#474);
#474=PRODUCT_DEFINITION_CONTEXT('',#481,'design');
#475=PRODUCT_DEFINITION_FORMATION_WITH_SPECIFIED_SOURCE('','',#477,
 .NOT_KNOWN.);
#476=PRODUCT_RELATED_PRODUCT_CATEGORY('','',(#477));
#477=PRODUCT('Part 13','Part 13','Part 13',(#479));
#478=PRODUCT_CATEGORY('','');
#479=PRODUCT_CONTEXT('',#481,'mechanical');
#480=APPLICATION_PROTOCOL_DEFINITION('international standard',
'ap242_managed_model_based_3d_engineering',2020,#481);
#481=APPLICATION_CONTEXT('managed model based 3d engineering');
ENDSEC;
END-ISO-10303-21;
