ISO-10303-21;
HEADER;
/* Generated by software containing ST-Developer
 * from STEP Tools, Inc. (www.steptools.com) 
 */
/* OPTION: using custom renumber hook */

FILE_DESCRIPTION(
/* description */ ('STEP AP242 Edition 2',
'CAx-IF Rec.Pracs.---Representation and Presentation of Product Manufa
cturing Information (PMI)---4.0---2014-10-13',
'CAx-IF Rec.Pracs.---3D Tessellated Geometry---0.4---2014-09-14','2;1',
'CAx-IF Rec.Pracs.---User Defined Attributes---1.5---2016-08-15'),
/* implementation_level */ '2;1');

FILE_NAME(
/* name */ 'Part Studio 1 - Part 12',
/* time_stamp */ '2026-09-06T11:57:17Z',
/* author */ (''),
/* organization */ (''),
/* preprocessor_version */ 'ST-DEVELOPER v20',
/* originating_system */ 'ONSHAPE BY PTC INC, 1.220',
/* authorisation */ '  ');

FILE_SCHEMA (('AP242_MANAGED_MODEL_BASED_3D_ENGINEERING_MIM_LF { 1 0 10303 442 3 1 4 }'));
ENDSEC;

DATA;
#10=SHAPE_REPRESENTATION_RELATIONSHIP('','',#320,#11);
#11=ADVANCED_BREP_SHAPE_REPRESENTATION('',(#318),#582);
#12=CIRCLE('',#324,0.00176641947699175);
#13=CIRCLE('',#325,0.00176641947699175);
#14=CIRCLE('',#327,0.00129589383071974);
#15=CIRCLE('',#328,0.00129589383071974);
#16=CIRCLE('',#330,0.00183743945877378);
#17=CIRCLE('',#331,0.00183743945877378);
#18=CIRCLE('',#334,0.00126567057295453);
#19=CIRCLE('',#335,0.00126567057295453);
#20=CIRCLE('',#337,0.0017764699023067);
#21=CIRCLE('',#338,0.0017764699023067);
#22=CYLINDRICAL_SURFACE('',#323,0.00176641947699175);
#23=CYLINDRICAL_SURFACE('',#326,0.00129589383071974);
#24=CYLINDRICAL_SURFACE('',#329,0.00183743945877378);
#25=CYLINDRICAL_SURFACE('',#333,0.00126567057295453);
#26=CYLINDRICAL_SURFACE('',#336,0.0017764699023067);
#27=PLANE('',#322);
#28=PLANE('',#332);
#29=PLANE('',#339);
#30=PLANE('',#340);
#31=LINE('',#414,#50);
#32=LINE('',#420,#51);
#33=LINE('',#433,#52);
#34=LINE('',#439,#53);
#35=LINE('',#441,#54);
#36=LINE('',#443,#55);
#37=LINE('',#447,#56);
#38=LINE('',#462,#57);
#39=LINE('',#479,#58);
#40=LINE('',#496,#59);
#41=LINE('',#504,#60);
#42=LINE('',#510,#61);
#43=LINE('',#514,#62);
#44=LINE('',#516,#63);
#45=LINE('',#518,#64);
#46=LINE('',#522,#65);
#47=LINE('',#528,#66);
#48=LINE('',#543,#67);
#49=LINE('',#560,#68);
#50=VECTOR('',#343,1.);
#51=VECTOR('',#344,1.);
#52=VECTOR('',#345,1.);
#53=VECTOR('',#348,1.);
#54=VECTOR('',#349,1.);
#55=VECTOR('',#350,1.);
#56=VECTOR('',#355,1.);
#57=VECTOR('',#358,1.);
#58=VECTOR('',#359,1.);
#59=VECTOR('',#360,1.);
#60=VECTOR('',#365,1.);
#61=VECTOR('',#372,1.);
#62=VECTOR('',#377,1.);
#63=VECTOR('',#378,1.);
#64=VECTOR('',#379,1.);
#65=VECTOR('',#384,1.);
#66=VECTOR('',#391,1.);
#67=VECTOR('',#394,1.);
#68=VECTOR('',#395,1.);
#69=ORIENTED_EDGE('',*,*,#159,.F.);
#70=ORIENTED_EDGE('',*,*,#160,.F.);
#71=ORIENTED_EDGE('',*,*,#161,.T.);
#72=ORIENTED_EDGE('',*,*,#162,.T.);
#73=ORIENTED_EDGE('',*,*,#163,.F.);
#74=ORIENTED_EDGE('',*,*,#164,.F.);
#75=ORIENTED_EDGE('',*,*,#165,.T.);
#76=ORIENTED_EDGE('',*,*,#160,.T.);
#77=ORIENTED_EDGE('',*,*,#166,.F.);
#78=ORIENTED_EDGE('',*,*,#167,.F.);
#79=ORIENTED_EDGE('',*,*,#168,.T.);
#80=ORIENTED_EDGE('',*,*,#164,.T.);
#81=ORIENTED_EDGE('',*,*,#169,.F.);
#82=ORIENTED_EDGE('',*,*,#170,.F.);
#83=ORIENTED_EDGE('',*,*,#171,.T.);
#84=ORIENTED_EDGE('',*,*,#167,.T.);
#85=ORIENTED_EDGE('',*,*,#172,.F.);
#86=ORIENTED_EDGE('',*,*,#173,.F.);
#87=ORIENTED_EDGE('',*,*,#174,.T.);
#88=ORIENTED_EDGE('',*,*,#170,.T.);
#89=ORIENTED_EDGE('',*,*,#175,.F.);
#90=ORIENTED_EDGE('',*,*,#176,.F.);
#91=ORIENTED_EDGE('',*,*,#177,.T.);
#92=ORIENTED_EDGE('',*,*,#173,.T.);
#93=ORIENTED_EDGE('',*,*,#178,.F.);
#94=ORIENTED_EDGE('',*,*,#179,.F.);
#95=ORIENTED_EDGE('',*,*,#180,.T.);
#96=ORIENTED_EDGE('',*,*,#176,.T.);
#97=ORIENTED_EDGE('',*,*,#181,.F.);
#98=ORIENTED_EDGE('',*,*,#182,.F.);
#99=ORIENTED_EDGE('',*,*,#183,.T.);
#100=ORIENTED_EDGE('',*,*,#179,.T.);
#101=ORIENTED_EDGE('',*,*,#184,.F.);
#102=ORIENTED_EDGE('',*,*,#185,.F.);
#103=ORIENTED_EDGE('',*,*,#186,.T.);
#104=ORIENTED_EDGE('',*,*,#182,.T.);
#105=ORIENTED_EDGE('',*,*,#187,.F.);
#106=ORIENTED_EDGE('',*,*,#188,.F.);
#107=ORIENTED_EDGE('',*,*,#189,.T.);
#108=ORIENTED_EDGE('',*,*,#185,.T.);
#109=ORIENTED_EDGE('',*,*,#190,.F.);
#110=ORIENTED_EDGE('',*,*,#191,.F.);
#111=ORIENTED_EDGE('',*,*,#192,.T.);
#112=ORIENTED_EDGE('',*,*,#188,.T.);
#113=ORIENTED_EDGE('',*,*,#193,.F.);
#114=ORIENTED_EDGE('',*,*,#194,.F.);
#115=ORIENTED_EDGE('',*,*,#195,.T.);
#116=ORIENTED_EDGE('',*,*,#191,.T.);
#117=ORIENTED_EDGE('',*,*,#196,.F.);
#118=ORIENTED_EDGE('',*,*,#197,.F.);
#119=ORIENTED_EDGE('',*,*,#198,.T.);
#120=ORIENTED_EDGE('',*,*,#194,.T.);
#121=ORIENTED_EDGE('',*,*,#199,.F.);
#122=ORIENTED_EDGE('',*,*,#200,.F.);
#123=ORIENTED_EDGE('',*,*,#201,.T.);
#124=ORIENTED_EDGE('',*,*,#197,.T.);
#125=ORIENTED_EDGE('',*,*,#202,.F.);
#126=ORIENTED_EDGE('',*,*,#162,.F.);
#127=ORIENTED_EDGE('',*,*,#203,.T.);
#128=ORIENTED_EDGE('',*,*,#200,.T.);
#129=ORIENTED_EDGE('',*,*,#161,.F.);
#130=ORIENTED_EDGE('',*,*,#165,.F.);
#131=ORIENTED_EDGE('',*,*,#168,.F.);
#132=ORIENTED_EDGE('',*,*,#171,.F.);
#133=ORIENTED_EDGE('',*,*,#174,.F.);
#134=ORIENTED_EDGE('',*,*,#177,.F.);
#135=ORIENTED_EDGE('',*,*,#180,.F.);
#136=ORIENTED_EDGE('',*,*,#183,.F.);
#137=ORIENTED_EDGE('',*,*,#186,.F.);
#138=ORIENTED_EDGE('',*,*,#189,.F.);
#139=ORIENTED_EDGE('',*,*,#192,.F.);
#140=ORIENTED_EDGE('',*,*,#195,.F.);
#141=ORIENTED_EDGE('',*,*,#198,.F.);
#142=ORIENTED_EDGE('',*,*,#201,.F.);
#143=ORIENTED_EDGE('',*,*,#203,.F.);
#144=ORIENTED_EDGE('',*,*,#159,.T.);
#145=ORIENTED_EDGE('',*,*,#202,.T.);
#146=ORIENTED_EDGE('',*,*,#199,.T.);
#147=ORIENTED_EDGE('',*,*,#196,.T.);
#148=ORIENTED_EDGE('',*,*,#193,.T.);
#149=ORIENTED_EDGE('',*,*,#190,.T.);
#150=ORIENTED_EDGE('',*,*,#187,.T.);
#151=ORIENTED_EDGE('',*,*,#184,.T.);
#152=ORIENTED_EDGE('',*,*,#181,.T.);
#153=ORIENTED_EDGE('',*,*,#178,.T.);
#154=ORIENTED_EDGE('',*,*,#175,.T.);
#155=ORIENTED_EDGE('',*,*,#172,.T.);
#156=ORIENTED_EDGE('',*,*,#169,.T.);
#157=ORIENTED_EDGE('',*,*,#166,.T.);
#158=ORIENTED_EDGE('',*,*,#163,.T.);
#159=EDGE_CURVE('',#204,#205,#234,.T.);
#160=EDGE_CURVE('',#206,#204,#31,.T.);
#161=EDGE_CURVE('',#206,#207,#235,.T.);
#162=EDGE_CURVE('',#207,#205,#32,.T.);
#163=EDGE_CURVE('',#208,#204,#236,.T.);
#164=EDGE_CURVE('',#209,#208,#33,.T.);
#165=EDGE_CURVE('',#209,#206,#237,.T.);
#166=EDGE_CURVE('',#210,#208,#34,.T.);
#167=EDGE_CURVE('',#211,#210,#35,.T.);
#168=EDGE_CURVE('',#211,#209,#36,.T.);
#169=EDGE_CURVE('',#212,#210,#12,.F.);
#170=EDGE_CURVE('',#213,#212,#37,.T.);
#171=EDGE_CURVE('',#213,#211,#13,.F.);
#172=EDGE_CURVE('',#214,#212,#238,.T.);
#173=EDGE_CURVE('',#215,#214,#38,.T.);
#174=EDGE_CURVE('',#215,#213,#239,.T.);
#175=EDGE_CURVE('',#216,#214,#240,.T.);
#176=EDGE_CURVE('',#217,#216,#39,.T.);
#177=EDGE_CURVE('',#217,#215,#241,.T.);
#178=EDGE_CURVE('',#218,#216,#242,.T.);
#179=EDGE_CURVE('',#219,#218,#40,.T.);
#180=EDGE_CURVE('',#219,#217,#243,.T.);
#181=EDGE_CURVE('',#220,#218,#14,.F.);
#182=EDGE_CURVE('',#221,#220,#41,.T.);
#183=EDGE_CURVE('',#221,#219,#15,.F.);
#184=EDGE_CURVE('',#222,#220,#16,.F.);
#185=EDGE_CURVE('',#223,#222,#42,.T.);
#186=EDGE_CURVE('',#223,#221,#17,.F.);
#187=EDGE_CURVE('',#224,#222,#43,.T.);
#188=EDGE_CURVE('',#225,#224,#44,.T.);
#189=EDGE_CURVE('',#225,#223,#45,.T.);
#190=EDGE_CURVE('',#226,#224,#18,.T.);
#191=EDGE_CURVE('',#227,#226,#46,.T.);
#192=EDGE_CURVE('',#227,#225,#19,.T.);
#193=EDGE_CURVE('',#228,#226,#20,.T.);
#194=EDGE_CURVE('',#229,#228,#47,.T.);
#195=EDGE_CURVE('',#229,#227,#21,.T.);
#196=EDGE_CURVE('',#230,#228,#244,.T.);
#197=EDGE_CURVE('',#231,#230,#48,.T.);
#198=EDGE_CURVE('',#231,#229,#245,.T.);
#199=EDGE_CURVE('',#232,#230,#246,.T.);
#200=EDGE_CURVE('',#233,#232,#49,.T.);
#201=EDGE_CURVE('',#233,#231,#247,.T.);
#202=EDGE_CURVE('',#205,#232,#248,.T.);
#203=EDGE_CURVE('',#207,#233,#249,.T.);
#204=VERTEX_POINT('',#412);
#205=VERTEX_POINT('',#413);
#206=VERTEX_POINT('',#415);
#207=VERTEX_POINT('',#419);
#208=VERTEX_POINT('',#432);
#209=VERTEX_POINT('',#434);
#210=VERTEX_POINT('',#440);
#211=VERTEX_POINT('',#442);
#212=VERTEX_POINT('',#446);
#213=VERTEX_POINT('',#448);
#214=VERTEX_POINT('',#461);
#215=VERTEX_POINT('',#463);
#216=VERTEX_POINT('',#478);
#217=VERTEX_POINT('',#480);
#218=VERTEX_POINT('',#495);
#219=VERTEX_POINT('',#497);
#220=VERTEX_POINT('',#503);
#221=VERTEX_POINT('',#505);
#222=VERTEX_POINT('',#509);
#223=VERTEX_POINT('',#511);
#224=VERTEX_POINT('',#515);
#225=VERTEX_POINT('',#517);
#226=VERTEX_POINT('',#521);
#227=VERTEX_POINT('',#523);
#228=VERTEX_POINT('',#527);
#229=VERTEX_POINT('',#529);
#230=VERTEX_POINT('',#542);
#231=VERTEX_POINT('',#544);
#232=VERTEX_POINT('',#559);
#233=VERTEX_POINT('',#561);
#234=B_SPLINE_CURVE_WITH_KNOTS('',2,(#409,#410,#411),.UNSPECIFIED.,.F.,
 .F.,(3,3),(0.,1.),.PIECEWISE_BEZIER_KNOTS.);
#235=B_SPLINE_CURVE_WITH_KNOTS('',2,(#416,#417,#418),.UNSPECIFIED.,.F.,
 .F.,(3,3),(0.,1.),.PIECEWISE_BEZIER_KNOTS.);
#236=B_SPLINE_CURVE_WITH_KNOTS('',2,(#429,#430,#431),.UNSPECIFIED.,.F.,
 .F.,(3,3),(0.,1.),.PIECEWISE_BEZIER_KNOTS.);
#237=B_SPLINE_CURVE_WITH_KNOTS('',2,(#435,#436,#437),.UNSPECIFIED.,.F.,
 .F.,(3,3),(0.,1.),.PIECEWISE_BEZIER_KNOTS.);
#238=B_SPLINE_CURVE_WITH_KNOTS('',2,(#458,#459,#460),.UNSPECIFIED.,.F.,
 .F.,(3,3),(0.,1.),.PIECEWISE_BEZIER_KNOTS.);
#239=B_SPLINE_CURVE_WITH_KNOTS('',2,(#464,#465,#466),.UNSPECIFIED.,.F.,
 .F.,(3,3),(0.,1.),.PIECEWISE_BEZIER_KNOTS.);
#240=B_SPLINE_CURVE_WITH_KNOTS('',2,(#475,#476,#477),.UNSPECIFIED.,.F.,
 .F.,(3,3),(0.,1.),.PIECEWISE_BEZIER_KNOTS.);
#241=B_SPLINE_CURVE_WITH_KNOTS('',2,(#481,#482,#483),.UNSPECIFIED.,.F.,
 .F.,(3,3),(0.,1.),.PIECEWISE_BEZIER_KNOTS.);
#242=B_SPLINE_CURVE_WITH_KNOTS('',2,(#492,#493,#494),.UNSPECIFIED.,.F.,
 .F.,(3,3),(0.,1.),.PIECEWISE_BEZIER_KNOTS.);
#243=B_SPLINE_CURVE_WITH_KNOTS('',2,(#498,#499,#500),.UNSPECIFIED.,.F.,
 .F.,(3,3),(0.,1.),.PIECEWISE_BEZIER_KNOTS.);
#244=B_SPLINE_CURVE_WITH_KNOTS('',2,(#539,#540,#541),.UNSPECIFIED.,.F.,
 .F.,(3,3),(0.,1.),.PIECEWISE_BEZIER_KNOTS.);
#245=B_SPLINE_CURVE_WITH_KNOTS('',2,(#545,#546,#547),.UNSPECIFIED.,.F.,
 .F.,(3,3),(0.,1.),.PIECEWISE_BEZIER_KNOTS.);
#246=B_SPLINE_CURVE_WITH_KNOTS('',2,(#556,#557,#558),.UNSPECIFIED.,.F.,
 .F.,(3,3),(0.,1.),.PIECEWISE_BEZIER_KNOTS.);
#247=B_SPLINE_CURVE_WITH_KNOTS('',2,(#562,#563,#564),.UNSPECIFIED.,.F.,
 .F.,(3,3),(0.,1.),.PIECEWISE_BEZIER_KNOTS.);
#248=B_SPLINE_CURVE_WITH_KNOTS('',2,(#573,#574,#575),.UNSPECIFIED.,.F.,
 .F.,(3,3),(0.,1.),.PIECEWISE_BEZIER_KNOTS.);
#249=B_SPLINE_CURVE_WITH_KNOTS('',2,(#576,#577,#578),.UNSPECIFIED.,.F.,
 .F.,(3,3),(0.,1.),.PIECEWISE_BEZIER_KNOTS.);
#250=EDGE_LOOP('',(#69,#70,#71,#72));
#251=EDGE_LOOP('',(#73,#74,#75,#76));
#252=EDGE_LOOP('',(#77,#78,#79,#80));
#253=EDGE_LOOP('',(#81,#82,#83,#84));
#254=EDGE_LOOP('',(#85,#86,#87,#88));
#255=EDGE_LOOP('',(#89,#90,#91,#92));
#256=EDGE_LOOP('',(#93,#94,#95,#96));
#257=EDGE_LOOP('',(#97,#98,#99,#100));
#258=EDGE_LOOP('',(#101,#102,#103,#104));
#259=EDGE_LOOP('',(#105,#106,#107,#108));
#260=EDGE_LOOP('',(#109,#110,#111,#112));
#261=EDGE_LOOP('',(#113,#114,#115,#116));
#262=EDGE_LOOP('',(#117,#118,#119,#120));
#263=EDGE_LOOP('',(#121,#122,#123,#124));
#264=EDGE_LOOP('',(#125,#126,#127,#128));
#265=EDGE_LOOP('',(#129,#130,#131,#132,#133,#134,#135,#136,#137,#138,#139,
#140,#141,#142,#143));
#266=EDGE_LOOP('',(#144,#145,#146,#147,#148,#149,#150,#151,#152,#153,#154,
#155,#156,#157,#158));
#267=FACE_BOUND('',#250,.T.);
#268=FACE_BOUND('',#251,.T.);
#269=FACE_BOUND('',#252,.T.);
#270=FACE_BOUND('',#253,.T.);
#271=FACE_BOUND('',#254,.T.);
#272=FACE_BOUND('',#255,.T.);
#273=FACE_BOUND('',#256,.T.);
#274=FACE_BOUND('',#257,.T.);
#275=FACE_BOUND('',#258,.T.);
#276=FACE_BOUND('',#259,.T.);
#277=FACE_BOUND('',#260,.T.);
#278=FACE_BOUND('',#261,.T.);
#279=FACE_BOUND('',#262,.T.);
#280=FACE_BOUND('',#263,.T.);
#281=FACE_BOUND('',#264,.T.);
#282=FACE_BOUND('',#265,.T.);
#283=FACE_BOUND('',#266,.T.);
#284=B_SPLINE_SURFACE_WITH_KNOTS('',3,1,((#401,#402),(#403,#404),(#405,
#406),(#407,#408)),.SURF_OF_LINEAR_EXTRUSION.,.F.,.F.,.F.,(4,4),(2,2),(0.,
1.),(0.,1.),.PIECEWISE_BEZIER_KNOTS.);
#285=B_SPLINE_SURFACE_WITH_KNOTS('',3,1,((#421,#422),(#423,#424),(#425,
#426),(#427,#428)),.SURF_OF_LINEAR_EXTRUSION.,.F.,.F.,.F.,(4,4),(2,2),(0.,
1.),(0.,1.),.PIECEWISE_BEZIER_KNOTS.);
#286=B_SPLINE_SURFACE_WITH_KNOTS('',3,1,((#450,#451),(#452,#453),(#454,
#455),(#456,#457)),.SURF_OF_LINEAR_EXTRUSION.,.F.,.F.,.F.,(4,4),(2,2),(0.,
1.),(0.,1.),.PIECEWISE_BEZIER_KNOTS.);
#287=B_SPLINE_SURFACE_WITH_KNOTS('',3,1,((#467,#468),(#469,#470),(#471,
#472),(#473,#474)),.SURF_OF_LINEAR_EXTRUSION.,.F.,.F.,.F.,(4,4),(2,2),(0.,
1.),(0.,1.),.PIECEWISE_BEZIER_KNOTS.);
#288=B_SPLINE_SURFACE_WITH_KNOTS('',3,1,((#484,#485),(#486,#487),(#488,
#489),(#490,#491)),.SURF_OF_LINEAR_EXTRUSION.,.F.,.F.,.F.,(4,4),(2,2),(0.,
1.),(0.,1.),.PIECEWISE_BEZIER_KNOTS.);
#289=B_SPLINE_SURFACE_WITH_KNOTS('',3,1,((#531,#532),(#533,#534),(#535,
#536),(#537,#538)),.SURF_OF_LINEAR_EXTRUSION.,.F.,.F.,.F.,(4,4),(2,2),(0.,
1.),(0.,1.),.PIECEWISE_BEZIER_KNOTS.);
#290=B_SPLINE_SURFACE_WITH_KNOTS('',3,1,((#548,#549),(#550,#551),(#552,
#553),(#554,#555)),.SURF_OF_LINEAR_EXTRUSION.,.F.,.F.,.F.,(4,4),(2,2),(0.,
1.),(0.,1.),.PIECEWISE_BEZIER_KNOTS.);
#291=B_SPLINE_SURFACE_WITH_KNOTS('',3,1,((#565,#566),(#567,#568),(#569,
#570),(#571,#572)),.SURF_OF_LINEAR_EXTRUSION.,.F.,.F.,.F.,(4,4),(2,2),(0.,
1.),(0.,1.),.PIECEWISE_BEZIER_KNOTS.);
#292=ADVANCED_FACE('',(#267),#284,.T.);
#293=ADVANCED_FACE('',(#268),#285,.T.);
#294=ADVANCED_FACE('',(#269),#27,.T.);
#295=ADVANCED_FACE('',(#270),#22,.F.);
#296=ADVANCED_FACE('',(#271),#286,.T.);
#297=ADVANCED_FACE('',(#272),#287,.T.);
#298=ADVANCED_FACE('',(#273),#288,.T.);
#299=ADVANCED_FACE('',(#274),#23,.F.);
#300=ADVANCED_FACE('',(#275),#24,.F.);
#301=ADVANCED_FACE('',(#276),#28,.T.);
#302=ADVANCED_FACE('',(#277),#25,.T.);
#303=ADVANCED_FACE('',(#278),#26,.T.);
#304=ADVANCED_FACE('',(#279),#289,.T.);
#305=ADVANCED_FACE('',(#280),#290,.T.);
#306=ADVANCED_FACE('',(#281),#291,.T.);
#307=ADVANCED_FACE('',(#282),#29,.T.);
#308=ADVANCED_FACE('',(#283),#30,.F.);
#309=CLOSED_SHELL('',(#292,#293,#294,#295,#296,#297,#298,#299,#300,#301,
#302,#303,#304,#305,#306,#307,#308));
#310=STYLED_ITEM('',(#311),#318);
#311=PRESENTATION_STYLE_ASSIGNMENT((#312));
#312=SURFACE_STYLE_USAGE(.BOTH.,#313);
#313=SURFACE_SIDE_STYLE('',(#314));
#314=SURFACE_STYLE_FILL_AREA(#315);
#315=FILL_AREA_STYLE('',(#316));
#316=FILL_AREA_STYLE_COLOUR('',#317);
#317=COLOUR_RGB('',0.325490196078431,0.529411764705882,0.752941176470588);
#318=MANIFOLD_SOLID_BREP('Part 12',#309);
#319=SHAPE_DEFINITION_REPRESENTATION(#587,#320);
#320=SHAPE_REPRESENTATION('Part 12',(#321),#582);
#321=AXIS2_PLACEMENT_3D('',#400,#341,#342);
#322=AXIS2_PLACEMENT_3D('',#438,#346,#347);
#323=AXIS2_PLACEMENT_3D('',#444,#351,#352);
#324=AXIS2_PLACEMENT_3D('',#445,#353,#354);
#325=AXIS2_PLACEMENT_3D('',#449,#356,#357);
#326=AXIS2_PLACEMENT_3D('',#501,#361,#362);
#327=AXIS2_PLACEMENT_3D('',#502,#363,#364);
#328=AXIS2_PLACEMENT_3D('',#506,#366,#367);
#329=AXIS2_PLACEMENT_3D('',#507,#368,#369);
#330=AXIS2_PLACEMENT_3D('',#508,#370,#371);
#331=AXIS2_PLACEMENT_3D('',#512,#373,#374);
#332=AXIS2_PLACEMENT_3D('',#513,#375,#376);
#333=AXIS2_PLACEMENT_3D('',#519,#380,#381);
#334=AXIS2_PLACEMENT_3D('',#520,#382,#383);
#335=AXIS2_PLACEMENT_3D('',#524,#385,#386);
#336=AXIS2_PLACEMENT_3D('',#525,#387,#388);
#337=AXIS2_PLACEMENT_3D('',#526,#389,#390);
#338=AXIS2_PLACEMENT_3D('',#530,#392,#393);
#339=AXIS2_PLACEMENT_3D('',#579,#396,#397);
#340=AXIS2_PLACEMENT_3D('',#580,#398,#399);
#341=DIRECTION('',(0.,0.,1.));
#342=DIRECTION('',(1.,0.,0.));
#343=DIRECTION('',(0.,0.,-1.));
#344=DIRECTION('',(0.,0.,-1.));
#345=DIRECTION('',(0.,0.,-1.));
#346=DIRECTION('',(1.,0.,0.));
#347=DIRECTION('',(0.,0.,-1.));
#348=DIRECTION('',(0.,-1.,0.));
#349=DIRECTION('',(0.,0.,-1.));
#350=DIRECTION('',(0.,-1.,0.));
#351=DIRECTION('',(0.,0.,-1.));
#352=DIRECTION('',(0.200968600554137,-0.97959768353713,0.));
#353=DIRECTION('',(0.,0.,-1.));
#354=DIRECTION('',(-1.,0.,0.));
#355=DIRECTION('',(0.,0.,-1.));
#356=DIRECTION('',(0.,0.,-1.));
#357=DIRECTION('',(-1.,0.,0.));
#358=DIRECTION('',(0.,0.,-1.));
#359=DIRECTION('',(0.,0.,-1.));
#360=DIRECTION('',(0.,0.,-1.));
#361=DIRECTION('',(0.,0.,-1.));
#362=DIRECTION('',(0.119335520745465,0.992853983971666,0.));
#363=DIRECTION('',(0.,0.,-1.));
#364=DIRECTION('',(-1.,0.,0.));
#365=DIRECTION('',(0.,0.,-1.));
#366=DIRECTION('',(0.,0.,-1.));
#367=DIRECTION('',(-1.,0.,0.));
#368=DIRECTION('',(0.,0.,-1.));
#369=DIRECTION('',(0.292345855248624,0.956312658558356,0.));
#370=DIRECTION('',(0.,0.,-1.));
#371=DIRECTION('',(-1.,0.,0.));
#372=DIRECTION('',(0.,0.,-1.));
#373=DIRECTION('',(0.,0.,-1.));
#374=DIRECTION('',(-1.,0.,0.));
#375=DIRECTION('',(0.940478007693251,-0.339854552780057,0.));
#376=DIRECTION('',(0.339854552780057,0.940478007693251,0.));
#377=DIRECTION('',(-0.339854552780057,-0.940478007693251,0.));
#378=DIRECTION('',(0.,0.,-1.));
#379=DIRECTION('',(-0.339854552780057,-0.940478007693251,0.));
#380=DIRECTION('',(0.,0.,-1.));
#381=DIRECTION('',(0.317536515004451,0.948246044884358,0.));
#382=DIRECTION('',(0.,0.,-1.));
#383=DIRECTION('',(-1.,0.,0.));
#384=DIRECTION('',(0.,0.,-1.));
#385=DIRECTION('',(0.,0.,-1.));
#386=DIRECTION('',(-1.,0.,0.));
#387=DIRECTION('',(0.,0.,-1.));
#388=DIRECTION('',(0.107263403159267,0.994230638404738,0.));
#389=DIRECTION('',(0.,0.,-1.));
#390=DIRECTION('',(-1.,0.,0.));
#391=DIRECTION('',(0.,0.,-1.));
#392=DIRECTION('',(0.,0.,-1.));
#393=DIRECTION('',(-1.,0.,0.));
#394=DIRECTION('',(0.,0.,-1.));
#395=DIRECTION('',(0.,0.,-1.));
#396=DIRECTION('',(0.,0.,1.));
#397=DIRECTION('',(1.,0.,0.));
#398=DIRECTION('',(0.,0.,1.));
#399=DIRECTION('',(1.,0.,0.));
#400=CARTESIAN_POINT('',(0.,0.,0.));
#401=CARTESIAN_POINT('',(-0.0381273555574463,0.0208882332408818,0.0232));
#402=CARTESIAN_POINT('',(-0.0381273555574463,0.0208882332408818,0.0222));
#403=CARTESIAN_POINT('',(-0.0385059689456511,0.0208882332408818,0.0232));
#404=CARTESIAN_POINT('',(-0.0385059689456511,0.0208882332408818,0.0222));
#405=CARTESIAN_POINT('',(-0.0387990889881323,0.0210047688133266,0.0232));
#406=CARTESIAN_POINT('',(-0.0387990889881323,0.0210047688133266,0.0222));
#407=CARTESIAN_POINT('',(-0.0390067156848898,0.0212378399582162,0.0232));
#408=CARTESIAN_POINT('',(-0.0390067156848898,0.0212378399582162,0.0222));
#409=CARTESIAN_POINT('',(-0.0381273555574463,0.0208882332408818,0.0222));
#410=CARTESIAN_POINT('',(-0.0386952756397535,0.0208882332408818,0.0222));
#411=CARTESIAN_POINT('',(-0.0390067156848898,0.0212378399582162,0.0222));
#412=CARTESIAN_POINT('',(-0.0381273555574463,0.0208882332408818,0.0222));
#413=CARTESIAN_POINT('',(-0.0390067156848898,0.0212378399582162,0.0222));
#414=CARTESIAN_POINT('',(-0.0381273555574463,0.0208882332408818,0.0232));
#415=CARTESIAN_POINT('',(-0.0381273555574463,0.0208882332408818,0.0232));
#416=CARTESIAN_POINT('',(-0.0381273555574463,0.0208882332408818,0.0232));
#417=CARTESIAN_POINT('',(-0.0386952756397535,0.0208882332408818,0.0232));
#418=CARTESIAN_POINT('',(-0.0390067156848898,0.0212378399582162,0.0232));
#419=CARTESIAN_POINT('',(-0.0390067156848898,0.0212378399582162,0.0232));
#420=CARTESIAN_POINT('',(-0.0390067156848898,0.0212378399582162,0.0232));
#421=CARTESIAN_POINT('',(-0.0374670721284197,0.0210248699273509,0.0232));
#422=CARTESIAN_POINT('',(-0.0374670721284197,0.0210248699273509,0.0222));
#423=CARTESIAN_POINT('',(-0.0376416210426055,0.0209337788030382,0.0232));
#424=CARTESIAN_POINT('',(-0.0376416210426055,0.0209337788030382,0.0222));
#425=CARTESIAN_POINT('',(-0.0378617155189477,0.0208882332408818,0.0232));
#426=CARTESIAN_POINT('',(-0.0378617155189477,0.0208882332408818,0.0222));
#427=CARTESIAN_POINT('',(-0.0381273555574463,0.0208882332408818,0.0232));
#428=CARTESIAN_POINT('',(-0.0381273555574463,0.0208882332408818,0.0222));
#429=CARTESIAN_POINT('',(-0.0374670721284197,0.0210248699273509,0.0222));
#430=CARTESIAN_POINT('',(-0.0377288954996984,0.0208882332408818,0.0222));
#431=CARTESIAN_POINT('',(-0.0381273555574463,0.0208882332408818,0.0222));
#432=CARTESIAN_POINT('',(-0.0374670721284197,0.0210248699273509,0.0222));
#433=CARTESIAN_POINT('',(-0.0374670721284197,0.0210248699273509,0.0232));
#434=CARTESIAN_POINT('',(-0.0374670721284197,0.0210248699273509,0.0232));
#435=CARTESIAN_POINT('',(-0.0374670721284197,0.0210248699273509,0.0232));
#436=CARTESIAN_POINT('',(-0.0377288954996984,0.0208882332408818,0.0232));
#437=CARTESIAN_POINT('',(-0.0381273555574463,0.0208882332408818,0.0232));
#438=CARTESIAN_POINT('',(-0.0374670721284197,0.0212000549527401,0.0232));
#439=CARTESIAN_POINT('',(-0.0374670721284197,0.0212000549527401,0.0222));
#440=CARTESIAN_POINT('',(-0.0374670721284197,0.0213752399781292,0.0222));
#441=CARTESIAN_POINT('',(-0.0374670721284197,0.021376084147251,0.0232));
#442=CARTESIAN_POINT('',(-0.0374670721284197,0.0213752399781292,0.0232));
#443=CARTESIAN_POINT('',(-0.0374670721284197,0.0212000549527401,0.0232));
#444=CARTESIAN_POINT('',(-0.0381613789489902,0.0230003303747686,0.0232));
#445=CARTESIAN_POINT('',(-0.0381613789489902,0.0230003303747686,0.0222));
#446=CARTESIAN_POINT('',(-0.0381372788922178,0.0212347866244403,0.0222));
#447=CARTESIAN_POINT('',(-0.0381372788922178,0.0212347866244403,0.0232));
#448=CARTESIAN_POINT('',(-0.0381372788922178,0.0212347866244403,0.0232));
#449=CARTESIAN_POINT('',(-0.0381613789489902,0.0230003303747686,0.0232));
#450=CARTESIAN_POINT('',(-0.0387132139756867,0.0214924116617773,0.0232));
#451=CARTESIAN_POINT('',(-0.0387132139756867,0.0214924116617773,0.0222));
#452=CARTESIAN_POINT('',(-0.0385837017346945,0.021320661636886,0.0232));
#453=CARTESIAN_POINT('',(-0.0385837017346945,0.021320661636886,0.0222));
#454=CARTESIAN_POINT('',(-0.0383917233735383,0.0212347866244403,0.0232));
#455=CARTESIAN_POINT('',(-0.0383917233735383,0.0212347866244403,0.0222));
#456=CARTESIAN_POINT('',(-0.0381372788922178,0.0212347866244403,0.0232));
#457=CARTESIAN_POINT('',(-0.0381372788922178,0.0212347866244403,0.0222));
#458=CARTESIAN_POINT('',(-0.0387132139756867,0.0214924116617773,0.0222));
#459=CARTESIAN_POINT('',(-0.0385189456141985,0.0212347866244403,0.0222));
#460=CARTESIAN_POINT('',(-0.0381372788922178,0.0212347866244403,0.0222));
#461=CARTESIAN_POINT('',(-0.0387132139756867,0.0214924116617773,0.0222));
#462=CARTESIAN_POINT('',(-0.0387132139756867,0.0214924116617773,0.0232));
#463=CARTESIAN_POINT('',(-0.0387132139756867,0.0214924116617773,0.0232));
#464=CARTESIAN_POINT('',(-0.0387132139756867,0.0214924116617773,0.0232));
#465=CARTESIAN_POINT('',(-0.0385189456141985,0.0212347866244403,0.0232));
#466=CARTESIAN_POINT('',(-0.0381372788922178,0.0212347866244403,0.0232));
#467=CARTESIAN_POINT('',(-0.0389074823371748,0.0222317001022539,0.0232));
#468=CARTESIAN_POINT('',(-0.0389074823371748,0.0222317001022539,0.0222));
#469=CARTESIAN_POINT('',(-0.0389074823371748,0.0219105911668274,0.0232));
#470=CARTESIAN_POINT('',(-0.0389074823371748,0.0219105911668274,0.0222));
#471=CARTESIAN_POINT('',(-0.0388427262166787,0.0216641616866686,0.0232));
#472=CARTESIAN_POINT('',(-0.0388427262166787,0.0216641616866686,0.0222));
#473=CARTESIAN_POINT('',(-0.0387132139756867,0.0214924116617773,0.0232));
#474=CARTESIAN_POINT('',(-0.0387132139756867,0.0214924116617773,0.0222));
#475=CARTESIAN_POINT('',(-0.0389074823371748,0.0222317001022539,0.0222));
#476=CARTESIAN_POINT('',(-0.0389074823371748,0.0217500366991142,0.0222));
#477=CARTESIAN_POINT('',(-0.0387132139756867,0.0214924116617773,0.0222));
#478=CARTESIAN_POINT('',(-0.0389074823371748,0.0222317001022539,0.0222));
#479=CARTESIAN_POINT('',(-0.0389074823371748,0.0222317001022539,0.0232));
#480=CARTESIAN_POINT('',(-0.0389074823371748,0.0222317001022539,0.0232));
#481=CARTESIAN_POINT('',(-0.0389074823371748,0.0222317001022539,0.0232));
#482=CARTESIAN_POINT('',(-0.0389074823371748,0.0217500366991142,0.0232));
#483=CARTESIAN_POINT('',(-0.0387132139756867,0.0214924116617773,0.0232));
#484=CARTESIAN_POINT('',(-0.0381105622216792,0.0232476969161664,0.0232));
#485=CARTESIAN_POINT('',(-0.0381105622216792,0.0232476969161664,0.0222));
#486=CARTESIAN_POINT('',(-0.0386418422986762,0.0232476969161664,0.0232));
#487=CARTESIAN_POINT('',(-0.0386418422986762,0.0232476969161664,0.0222));
#488=CARTESIAN_POINT('',(-0.0389074823371748,0.0229090313115289,0.0232));
#489=CARTESIAN_POINT('',(-0.0389074823371748,0.0229090313115289,0.0222));
#490=CARTESIAN_POINT('',(-0.0389074823371748,0.0222317001022539,0.0232));
#491=CARTESIAN_POINT('',(-0.0389074823371748,0.0222317001022539,0.0222));
#492=CARTESIAN_POINT('',(-0.0381105622216792,0.0232476969161664,0.0222));
#493=CARTESIAN_POINT('',(-0.0389074823371748,0.0232476969161664,0.0222));
#494=CARTESIAN_POINT('',(-0.0389074823371748,0.0222317001022539,0.0222));
#495=CARTESIAN_POINT('',(-0.0381105622216792,0.0232476969161664,0.0222));
#496=CARTESIAN_POINT('',(-0.0381105622216792,0.0232476969161664,0.0232));
#497=CARTESIAN_POINT('',(-0.0381105622216792,0.0232476969161664,0.0232));
#498=CARTESIAN_POINT('',(-0.0381105622216792,0.0232476969161664,0.0232));
#499=CARTESIAN_POINT('',(-0.0389074823371748,0.0232476969161664,0.0232));
#500=CARTESIAN_POINT('',(-0.0389074823371748,0.0222317001022539,0.0232));
#501=CARTESIAN_POINT('',(-0.0381371618026042,0.021952454422102,0.0232));
#502=CARTESIAN_POINT('',(-0.0381371618026042,0.021952454422102,0.0222));
#503=CARTESIAN_POINT('',(-0.0378365658110677,0.0232131797288313,0.0222));
#504=CARTESIAN_POINT('',(-0.037836525515297,0.0232133469111882,0.0232));
#505=CARTESIAN_POINT('',(-0.0378365658110677,0.0232131797288313,0.0232));
#506=CARTESIAN_POINT('',(-0.0381371618026042,0.021952454422102,0.0232));
#507=CARTESIAN_POINT('',(-0.0382246535374573,0.0214172468012823,0.0232));
#508=CARTESIAN_POINT('',(-0.0382246535374573,0.0214172468012823,0.0222));
#509=CARTESIAN_POINT('',(-0.0375502344665983,0.023126440377657,0.0222));
#510=CARTESIAN_POINT('',(-0.0375502344665983,0.023126440377657,0.0232));
#511=CARTESIAN_POINT('',(-0.0375502344665983,0.023126440377657,0.0232));
#512=CARTESIAN_POINT('',(-0.0382246535374573,0.0214172468012823,0.0232));
#513=CARTESIAN_POINT('',(-0.0374895904650165,0.0232942602562481,0.0232));
#514=CARTESIAN_POINT('',(-0.0374895904650165,0.0232942602562481,0.0222));
#515=CARTESIAN_POINT('',(-0.037428621153991,0.0234629803622308,0.0222));
#516=CARTESIAN_POINT('',(-0.037428621153991,0.0234629803622308,0.0232));
#517=CARTESIAN_POINT('',(-0.037428621153991,0.0234629803622308,0.0232));
#518=CARTESIAN_POINT('',(-0.0374895904650165,0.0232942602562481,0.0232));
#519=CARTESIAN_POINT('',(-0.0379581107554884,0.0223133879296056,0.0232));
#520=CARTESIAN_POINT('',(-0.0379581107554884,0.0223133879296056,0.0222));
#521=CARTESIAN_POINT('',(-0.0377243761664025,0.0235576460656948,0.0222));
#522=CARTESIAN_POINT('',(-0.0377243154990347,0.0235579919611367,0.0232));
#523=CARTESIAN_POINT('',(-0.0377243761664025,0.0235576460656948,0.0232));
#524=CARTESIAN_POINT('',(-0.0379581107554884,0.0223133879296056,0.0232));
#525=CARTESIAN_POINT('',(-0.0381034094050673,0.021822396777161,0.0232));
#526=CARTESIAN_POINT('',(-0.0381034094050673,0.021822396777161,0.0222));
#527=CARTESIAN_POINT('',(-0.0381014022203516,0.0235988303003887,0.0222));
#528=CARTESIAN_POINT('',(-0.0381014022203516,0.0235988303003887,0.0232));
#529=CARTESIAN_POINT('',(-0.0381014022203516,0.0235988303003887,0.0232));
#530=CARTESIAN_POINT('',(-0.0381034094050673,0.021822396777161,0.0232));
#531=CARTESIAN_POINT('',(-0.039001754017504,0.0232408269151708,0.0232));
#532=CARTESIAN_POINT('',(-0.039001754017504,0.0232408269151708,0.0222));
#533=CARTESIAN_POINT('',(-0.0387908195424894,0.0234794958386494,0.0232));
#534=CARTESIAN_POINT('',(-0.0387908195424894,0.0234794958386494,0.0222));
#535=CARTESIAN_POINT('',(-0.0384907022767719,0.0235988303003887,0.0232));
#536=CARTESIAN_POINT('',(-0.0384907022767719,0.0235988303003887,0.0222));
#537=CARTESIAN_POINT('',(-0.0381014022203516,0.0235988303003887,0.0232));
#538=CARTESIAN_POINT('',(-0.0381014022203516,0.0235988303003887,0.0222));
#539=CARTESIAN_POINT('',(-0.039001754017504,0.0232408269151708,0.0222));
#540=CARTESIAN_POINT('',(-0.0386853523049821,0.0235988303003887,0.0222));
#541=CARTESIAN_POINT('',(-0.0381014022203516,0.0235988303003887,0.0222));
#542=CARTESIAN_POINT('',(-0.039001754017504,0.0232408269151708,0.0222));
#543=CARTESIAN_POINT('',(-0.039001754017504,0.0232408269151708,0.0232));
#544=CARTESIAN_POINT('',(-0.039001754017504,0.0232408269151708,0.0232));
#545=CARTESIAN_POINT('',(-0.039001754017504,0.0232408269151708,0.0232));
#546=CARTESIAN_POINT('',(-0.0386853523049821,0.0235988303003887,0.0232));
#547=CARTESIAN_POINT('',(-0.0381014022203516,0.0235988303003887,0.0232));
#548=CARTESIAN_POINT('',(-0.0393181557300261,0.0222271201015901,0.0232));
#549=CARTESIAN_POINT('',(-0.0393181557300261,0.0222271201015901,0.0222));
#550=CARTESIAN_POINT('',(-0.0393181557300261,0.0226642557204986,0.0232));
#551=CARTESIAN_POINT('',(-0.0393181557300261,0.0226642557204986,0.0222));
#552=CARTESIAN_POINT('',(-0.0392126884925187,0.0230021579916922,0.0232));
#553=CARTESIAN_POINT('',(-0.0392126884925187,0.0230021579916922,0.0222));
#554=CARTESIAN_POINT('',(-0.039001754017504,0.0232408269151708,0.0232));
#555=CARTESIAN_POINT('',(-0.039001754017504,0.0232408269151708,0.0222));
#556=CARTESIAN_POINT('',(-0.0393181557300261,0.0222271201015901,0.0222));
#557=CARTESIAN_POINT('',(-0.0393181557300261,0.0228828235299529,0.0222));
#558=CARTESIAN_POINT('',(-0.039001754017504,0.0232408269151708,0.0222));
#559=CARTESIAN_POINT('',(-0.0393181557300261,0.0222271201015901,0.0222));
#560=CARTESIAN_POINT('',(-0.0393181557300261,0.0222271201015901,0.0232));
#561=CARTESIAN_POINT('',(-0.0393181557300261,0.0222271201015901,0.0232));
#562=CARTESIAN_POINT('',(-0.0393181557300261,0.0222271201015901,0.0232));
#563=CARTESIAN_POINT('',(-0.0393181557300261,0.0228828235299529,0.0232));
#564=CARTESIAN_POINT('',(-0.039001754017504,0.0232408269151708,0.0232));
#565=CARTESIAN_POINT('',(-0.0390067156848898,0.0212378399582162,0.0232));
#566=CARTESIAN_POINT('',(-0.0390067156848898,0.0212378399582162,0.0222));
#567=CARTESIAN_POINT('',(-0.0392143423816473,0.0214709111031057,0.0232));
#568=CARTESIAN_POINT('',(-0.0392143423816473,0.0214709111031057,0.0222));
#569=CARTESIAN_POINT('',(-0.0393181557300261,0.021800671150897,0.0232));
#570=CARTESIAN_POINT('',(-0.0393181557300261,0.021800671150897,0.0222));
#571=CARTESIAN_POINT('',(-0.0393181557300261,0.0222271201015901,0.0232));
#572=CARTESIAN_POINT('',(-0.0393181557300261,0.0222271201015901,0.0222));
#573=CARTESIAN_POINT('',(-0.0390067156848898,0.0212378399582162,0.0222));
#574=CARTESIAN_POINT('',(-0.0393181557300261,0.0215874466755505,0.0222));
#575=CARTESIAN_POINT('',(-0.0393181557300261,0.0222271201015901,0.0222));
#576=CARTESIAN_POINT('',(-0.0390067156848898,0.0212378399582162,0.0232));
#577=CARTESIAN_POINT('',(-0.0393181557300261,0.0215874466755505,0.0232));
#578=CARTESIAN_POINT('',(-0.0393181557300261,0.0222271201015901,0.0232));
#579=CARTESIAN_POINT('',(-0.035336010574676,0.0221931616239257,0.0232));
#580=CARTESIAN_POINT('',(-0.035336010574676,0.0221931616239257,0.0222));
#581=MECHANICAL_DESIGN_GEOMETRIC_PRESENTATION_REPRESENTATION('',(#310),
#582);
#582=(
GEOMETRIC_REPRESENTATION_CONTEXT(3)
GLOBAL_UNCERTAINTY_ASSIGNED_CONTEXT((#583))
GLOBAL_UNIT_ASSIGNED_CONTEXT((#586,#585,#584))
REPRESENTATION_CONTEXT('Part 12','TOP_LEVEL_ASSEMBLY_PART')
);
#583=UNCERTAINTY_MEASURE_WITH_UNIT(LENGTH_MEASURE(2.E-5),#586,
'DISTANCE_ACCURACY_VALUE','Maximum Tolerance applied to model');
#584=(
NAMED_UNIT(*)
SI_UNIT($,.STERADIAN.)
SOLID_ANGLE_UNIT()
);
#585=(
NAMED_UNIT(*)
PLANE_ANGLE_UNIT()
SI_UNIT($,.RADIAN.)
);
#586=(
LENGTH_UNIT()
NAMED_UNIT(*)
SI_UNIT($,.METRE.)
);
#587=PRODUCT_DEFINITION_SHAPE('','',#588);
#588=PRODUCT_DEFINITION('','',#590,#589);
#589=PRODUCT_DEFINITION_CONTEXT('',#596,'design');
#590=PRODUCT_DEFINITION_FORMATION_WITH_SPECIFIED_SOURCE('','',#592,
 .NOT_KNOWN.);
#591=PRODUCT_RELATED_PRODUCT_CATEGORY('','',(#592));
#592=PRODUCT('Part 12','Part 12','Part 12',(#594));
#593=PRODUCT_CATEGORY('','');
#594=PRODUCT_CONTEXT('',#596,'mechanical');
#595=APPLICATION_PROTOCOL_DEFINITION('international standard',
'ap242_managed_model_based_3d_engineering',2020,#596);
#596=APPLICATION_CONTEXT('managed model based 3d engineering');
ENDSEC;
END-ISO-10303-21;
