ISO-10303-21;
HEADER;
/* Generated by software containing ST-Developer
 * from STEP Tools, Inc. (www.steptools.com) 
 */
/* OPTION: using custom renumber hook */

FILE_DESCRIPTION(
/* description */ ('STEP AP242 Edition 2',
'CAx-IF Rec.Pracs.---Representation and Presentation of Product Manufa
cturing Information (PMI)---4.0---2014-10-13',
'CAx-IF Rec.Pracs.---3D Tessellated Geometry---0.4---2014-09-14','2;1',
'CAx-IF Rec.Pracs.---User Defined Attributes---1.5---2016-08-15'),
/* implementation_level */ '2;1');

FILE_NAME(
/* name */ 'Part Studio 1 - Part 4',
/* time_stamp */ '2026-09-06T11:57:17Z',
/* author */ (''),
/* organization */ (''),
/* preprocessor_version */ 'ST-DEVELOPER v20',
/* originating_system */ 'ONSHAPE BY PTC INC, 1.220',
/* authorisation */ '  ');

FILE_SCHEMA (('AP242_MANAGED_MODEL_BASED_3D_ENGINEERING_MIM_LF { 1 0 10303 442 3 1 4 }'));
ENDSEC;

DATA;
#10=SHAPE_REPRESENTATION_RELATIONSHIP('','',#510,#11);
#11=ADVANCED_BREP_SHAPE_REPRESENTATION('',(#508),#958);
#12=CIRCLE('',#514,0.00400834783968159);
#13=CIRCLE('',#515,0.00400834783968159);
#14=CIRCLE('',#517,0.00420656460596749);
#15=CIRCLE('',#518,0.00420656460596749);
#16=CYLINDRICAL_SURFACE('',#513,0.00400834783968159);
#17=CYLINDRICAL_SURFACE('',#516,0.00420656460596749);
#18=PLANE('',#512);
#19=PLANE('',#519);
#20=PLANE('',#520);
#21=PLANE('',#521);
#22=LINE('',#587,#51);
#23=LINE('',#593,#52);
#24=LINE('',#606,#53);
#25=LINE('',#623,#54);
#26=LINE('',#640,#55);
#27=LINE('',#657,#56);
#28=LINE('',#674,#57);
#29=LINE('',#691,#58);
#30=LINE('',#708,#59);
#31=LINE('',#725,#60);
#32=LINE('',#731,#61);
#33=LINE('',#733,#62);
#34=LINE('',#735,#63);
#35=LINE('',#748,#64);
#36=LINE('',#765,#65);
#37=LINE('',#782,#66);
#38=LINE('',#799,#67);
#39=LINE('',#816,#68);
#40=LINE('',#833,#69);
#41=LINE('',#850,#70);
#42=LINE('',#867,#71);
#43=LINE('',#884,#72);
#44=LINE('',#901,#73);
#45=LINE('',#909,#74);
#46=LINE('',#915,#75);
#47=LINE('',#919,#76);
#48=LINE('',#921,#77);
#49=LINE('',#923,#78);
#50=LINE('',#936,#79);
#51=VECTOR('',#524,1.);
#52=VECTOR('',#525,1.);
#53=VECTOR('',#526,1.);
#54=VECTOR('',#527,1.);
#55=VECTOR('',#528,1.);
#56=VECTOR('',#529,1.);
#57=VECTOR('',#530,1.);
#58=VECTOR('',#531,1.);
#59=VECTOR('',#532,1.);
#60=VECTOR('',#533,1.);
#61=VECTOR('',#536,1.);
#62=VECTOR('',#537,1.);
#63=VECTOR('',#538,1.);
#64=VECTOR('',#539,1.);
#65=VECTOR('',#540,1.);
#66=VECTOR('',#541,1.);
#67=VECTOR('',#542,1.);
#68=VECTOR('',#543,1.);
#69=VECTOR('',#544,1.);
#70=VECTOR('',#545,1.);
#71=VECTOR('',#546,1.);
#72=VECTOR('',#547,1.);
#73=VECTOR('',#548,1.);
#74=VECTOR('',#553,1.);
#75=VECTOR('',#560,1.);
#76=VECTOR('',#565,1.);
#77=VECTOR('',#566,1.);
#78=VECTOR('',#567,1.);
#79=VECTOR('',#568,1.);
#80=ORIENTED_EDGE('',*,*,#230,.F.);
#81=ORIENTED_EDGE('',*,*,#231,.F.);
#82=ORIENTED_EDGE('',*,*,#232,.T.);
#83=ORIENTED_EDGE('',*,*,#233,.T.);
#84=ORIENTED_EDGE('',*,*,#234,.F.);
#85=ORIENTED_EDGE('',*,*,#235,.F.);
#86=ORIENTED_EDGE('',*,*,#236,.T.);
#87=ORIENTED_EDGE('',*,*,#231,.T.);
#88=ORIENTED_EDGE('',*,*,#237,.F.);
#89=ORIENTED_EDGE('',*,*,#238,.F.);
#90=ORIENTED_EDGE('',*,*,#239,.T.);
#91=ORIENTED_EDGE('',*,*,#235,.T.);
#92=ORIENTED_EDGE('',*,*,#240,.F.);
#93=ORIENTED_EDGE('',*,*,#241,.F.);
#94=ORIENTED_EDGE('',*,*,#242,.T.);
#95=ORIENTED_EDGE('',*,*,#238,.T.);
#96=ORIENTED_EDGE('',*,*,#243,.F.);
#97=ORIENTED_EDGE('',*,*,#244,.F.);
#98=ORIENTED_EDGE('',*,*,#245,.T.);
#99=ORIENTED_EDGE('',*,*,#241,.T.);
#100=ORIENTED_EDGE('',*,*,#246,.F.);
#101=ORIENTED_EDGE('',*,*,#247,.F.);
#102=ORIENTED_EDGE('',*,*,#248,.T.);
#103=ORIENTED_EDGE('',*,*,#244,.T.);
#104=ORIENTED_EDGE('',*,*,#249,.F.);
#105=ORIENTED_EDGE('',*,*,#250,.F.);
#106=ORIENTED_EDGE('',*,*,#251,.T.);
#107=ORIENTED_EDGE('',*,*,#247,.T.);
#108=ORIENTED_EDGE('',*,*,#252,.F.);
#109=ORIENTED_EDGE('',*,*,#253,.F.);
#110=ORIENTED_EDGE('',*,*,#254,.T.);
#111=ORIENTED_EDGE('',*,*,#250,.T.);
#112=ORIENTED_EDGE('',*,*,#255,.F.);
#113=ORIENTED_EDGE('',*,*,#256,.F.);
#114=ORIENTED_EDGE('',*,*,#257,.T.);
#115=ORIENTED_EDGE('',*,*,#253,.T.);
#116=ORIENTED_EDGE('',*,*,#258,.F.);
#117=ORIENTED_EDGE('',*,*,#259,.F.);
#118=ORIENTED_EDGE('',*,*,#260,.T.);
#119=ORIENTED_EDGE('',*,*,#256,.T.);
#120=ORIENTED_EDGE('',*,*,#261,.F.);
#121=ORIENTED_EDGE('',*,*,#262,.F.);
#122=ORIENTED_EDGE('',*,*,#263,.T.);
#123=ORIENTED_EDGE('',*,*,#259,.T.);
#124=ORIENTED_EDGE('',*,*,#264,.F.);
#125=ORIENTED_EDGE('',*,*,#265,.F.);
#126=ORIENTED_EDGE('',*,*,#266,.T.);
#127=ORIENTED_EDGE('',*,*,#262,.T.);
#128=ORIENTED_EDGE('',*,*,#267,.F.);
#129=ORIENTED_EDGE('',*,*,#268,.F.);
#130=ORIENTED_EDGE('',*,*,#269,.T.);
#131=ORIENTED_EDGE('',*,*,#265,.T.);
#132=ORIENTED_EDGE('',*,*,#270,.F.);
#133=ORIENTED_EDGE('',*,*,#271,.F.);
#134=ORIENTED_EDGE('',*,*,#272,.T.);
#135=ORIENTED_EDGE('',*,*,#268,.T.);
#136=ORIENTED_EDGE('',*,*,#273,.F.);
#137=ORIENTED_EDGE('',*,*,#274,.F.);
#138=ORIENTED_EDGE('',*,*,#275,.T.);
#139=ORIENTED_EDGE('',*,*,#271,.T.);
#140=ORIENTED_EDGE('',*,*,#276,.F.);
#141=ORIENTED_EDGE('',*,*,#277,.F.);
#142=ORIENTED_EDGE('',*,*,#278,.T.);
#143=ORIENTED_EDGE('',*,*,#274,.T.);
#144=ORIENTED_EDGE('',*,*,#279,.F.);
#145=ORIENTED_EDGE('',*,*,#280,.F.);
#146=ORIENTED_EDGE('',*,*,#281,.T.);
#147=ORIENTED_EDGE('',*,*,#277,.T.);
#148=ORIENTED_EDGE('',*,*,#282,.F.);
#149=ORIENTED_EDGE('',*,*,#283,.F.);
#150=ORIENTED_EDGE('',*,*,#284,.T.);
#151=ORIENTED_EDGE('',*,*,#280,.T.);
#152=ORIENTED_EDGE('',*,*,#285,.F.);
#153=ORIENTED_EDGE('',*,*,#286,.F.);
#154=ORIENTED_EDGE('',*,*,#287,.T.);
#155=ORIENTED_EDGE('',*,*,#283,.T.);
#156=ORIENTED_EDGE('',*,*,#288,.F.);
#157=ORIENTED_EDGE('',*,*,#289,.F.);
#158=ORIENTED_EDGE('',*,*,#290,.T.);
#159=ORIENTED_EDGE('',*,*,#286,.T.);
#160=ORIENTED_EDGE('',*,*,#291,.F.);
#161=ORIENTED_EDGE('',*,*,#292,.F.);
#162=ORIENTED_EDGE('',*,*,#293,.T.);
#163=ORIENTED_EDGE('',*,*,#289,.T.);
#164=ORIENTED_EDGE('',*,*,#294,.F.);
#165=ORIENTED_EDGE('',*,*,#295,.F.);
#166=ORIENTED_EDGE('',*,*,#296,.T.);
#167=ORIENTED_EDGE('',*,*,#292,.T.);
#168=ORIENTED_EDGE('',*,*,#297,.F.);
#169=ORIENTED_EDGE('',*,*,#298,.F.);
#170=ORIENTED_EDGE('',*,*,#299,.T.);
#171=ORIENTED_EDGE('',*,*,#295,.T.);
#172=ORIENTED_EDGE('',*,*,#300,.F.);
#173=ORIENTED_EDGE('',*,*,#301,.F.);
#174=ORIENTED_EDGE('',*,*,#302,.T.);
#175=ORIENTED_EDGE('',*,*,#298,.T.);
#176=ORIENTED_EDGE('',*,*,#303,.F.);
#177=ORIENTED_EDGE('',*,*,#233,.F.);
#178=ORIENTED_EDGE('',*,*,#304,.T.);
#179=ORIENTED_EDGE('',*,*,#301,.T.);
#180=ORIENTED_EDGE('',*,*,#232,.F.);
#181=ORIENTED_EDGE('',*,*,#236,.F.);
#182=ORIENTED_EDGE('',*,*,#239,.F.);
#183=ORIENTED_EDGE('',*,*,#242,.F.);
#184=ORIENTED_EDGE('',*,*,#245,.F.);
#185=ORIENTED_EDGE('',*,*,#248,.F.);
#186=ORIENTED_EDGE('',*,*,#251,.F.);
#187=ORIENTED_EDGE('',*,*,#254,.F.);
#188=ORIENTED_EDGE('',*,*,#257,.F.);
#189=ORIENTED_EDGE('',*,*,#260,.F.);
#190=ORIENTED_EDGE('',*,*,#263,.F.);
#191=ORIENTED_EDGE('',*,*,#266,.F.);
#192=ORIENTED_EDGE('',*,*,#269,.F.);
#193=ORIENTED_EDGE('',*,*,#272,.F.);
#194=ORIENTED_EDGE('',*,*,#275,.F.);
#195=ORIENTED_EDGE('',*,*,#278,.F.);
#196=ORIENTED_EDGE('',*,*,#281,.F.);
#197=ORIENTED_EDGE('',*,*,#284,.F.);
#198=ORIENTED_EDGE('',*,*,#287,.F.);
#199=ORIENTED_EDGE('',*,*,#290,.F.);
#200=ORIENTED_EDGE('',*,*,#293,.F.);
#201=ORIENTED_EDGE('',*,*,#296,.F.);
#202=ORIENTED_EDGE('',*,*,#299,.F.);
#203=ORIENTED_EDGE('',*,*,#302,.F.);
#204=ORIENTED_EDGE('',*,*,#304,.F.);
#205=ORIENTED_EDGE('',*,*,#230,.T.);
#206=ORIENTED_EDGE('',*,*,#303,.T.);
#207=ORIENTED_EDGE('',*,*,#300,.T.);
#208=ORIENTED_EDGE('',*,*,#297,.T.);
#209=ORIENTED_EDGE('',*,*,#294,.T.);
#210=ORIENTED_EDGE('',*,*,#291,.T.);
#211=ORIENTED_EDGE('',*,*,#288,.T.);
#212=ORIENTED_EDGE('',*,*,#285,.T.);
#213=ORIENTED_EDGE('',*,*,#282,.T.);
#214=ORIENTED_EDGE('',*,*,#279,.T.);
#215=ORIENTED_EDGE('',*,*,#276,.T.);
#216=ORIENTED_EDGE('',*,*,#273,.T.);
#217=ORIENTED_EDGE('',*,*,#270,.T.);
#218=ORIENTED_EDGE('',*,*,#267,.T.);
#219=ORIENTED_EDGE('',*,*,#264,.T.);
#220=ORIENTED_EDGE('',*,*,#261,.T.);
#221=ORIENTED_EDGE('',*,*,#258,.T.);
#222=ORIENTED_EDGE('',*,*,#255,.T.);
#223=ORIENTED_EDGE('',*,*,#252,.T.);
#224=ORIENTED_EDGE('',*,*,#249,.T.);
#225=ORIENTED_EDGE('',*,*,#246,.T.);
#226=ORIENTED_EDGE('',*,*,#243,.T.);
#227=ORIENTED_EDGE('',*,*,#240,.T.);
#228=ORIENTED_EDGE('',*,*,#237,.T.);
#229=ORIENTED_EDGE('',*,*,#234,.T.);
#230=EDGE_CURVE('',#305,#306,#355,.T.);
#231=EDGE_CURVE('',#307,#305,#22,.T.);
#232=EDGE_CURVE('',#307,#308,#356,.T.);
#233=EDGE_CURVE('',#308,#306,#23,.T.);
#234=EDGE_CURVE('',#309,#305,#357,.T.);
#235=EDGE_CURVE('',#310,#309,#24,.T.);
#236=EDGE_CURVE('',#310,#307,#358,.T.);
#237=EDGE_CURVE('',#311,#309,#359,.T.);
#238=EDGE_CURVE('',#312,#311,#25,.T.);
#239=EDGE_CURVE('',#312,#310,#360,.T.);
#240=EDGE_CURVE('',#313,#311,#361,.T.);
#241=EDGE_CURVE('',#314,#313,#26,.T.);
#242=EDGE_CURVE('',#314,#312,#362,.T.);
#243=EDGE_CURVE('',#315,#313,#363,.T.);
#244=EDGE_CURVE('',#316,#315,#27,.T.);
#245=EDGE_CURVE('',#316,#314,#364,.T.);
#246=EDGE_CURVE('',#317,#315,#365,.T.);
#247=EDGE_CURVE('',#318,#317,#28,.T.);
#248=EDGE_CURVE('',#318,#316,#366,.T.);
#249=EDGE_CURVE('',#319,#317,#367,.T.);
#250=EDGE_CURVE('',#320,#319,#29,.T.);
#251=EDGE_CURVE('',#320,#318,#368,.T.);
#252=EDGE_CURVE('',#321,#319,#369,.T.);
#253=EDGE_CURVE('',#322,#321,#30,.T.);
#254=EDGE_CURVE('',#322,#320,#370,.T.);
#255=EDGE_CURVE('',#323,#321,#371,.T.);
#256=EDGE_CURVE('',#324,#323,#31,.T.);
#257=EDGE_CURVE('',#324,#322,#372,.T.);
#258=EDGE_CURVE('',#325,#323,#32,.T.);
#259=EDGE_CURVE('',#326,#325,#33,.T.);
#260=EDGE_CURVE('',#326,#324,#34,.T.);
#261=EDGE_CURVE('',#327,#325,#373,.T.);
#262=EDGE_CURVE('',#328,#327,#35,.T.);
#263=EDGE_CURVE('',#328,#326,#374,.T.);
#264=EDGE_CURVE('',#329,#327,#375,.T.);
#265=EDGE_CURVE('',#330,#329,#36,.T.);
#266=EDGE_CURVE('',#330,#328,#376,.T.);
#267=EDGE_CURVE('',#331,#329,#377,.T.);
#268=EDGE_CURVE('',#332,#331,#37,.T.);
#269=EDGE_CURVE('',#332,#330,#378,.T.);
#270=EDGE_CURVE('',#333,#331,#379,.T.);
#271=EDGE_CURVE('',#334,#333,#38,.T.);
#272=EDGE_CURVE('',#334,#332,#380,.T.);
#273=EDGE_CURVE('',#335,#333,#381,.T.);
#274=EDGE_CURVE('',#336,#335,#39,.T.);
#275=EDGE_CURVE('',#336,#334,#382,.T.);
#276=EDGE_CURVE('',#337,#335,#383,.T.);
#277=EDGE_CURVE('',#338,#337,#40,.T.);
#278=EDGE_CURVE('',#338,#336,#384,.T.);
#279=EDGE_CURVE('',#339,#337,#385,.T.);
#280=EDGE_CURVE('',#340,#339,#41,.T.);
#281=EDGE_CURVE('',#340,#338,#386,.T.);
#282=EDGE_CURVE('',#341,#339,#387,.T.);
#283=EDGE_CURVE('',#342,#341,#42,.T.);
#284=EDGE_CURVE('',#342,#340,#388,.T.);
#285=EDGE_CURVE('',#343,#341,#389,.T.);
#286=EDGE_CURVE('',#344,#343,#43,.T.);
#287=EDGE_CURVE('',#344,#342,#390,.T.);
#288=EDGE_CURVE('',#345,#343,#391,.T.);
#289=EDGE_CURVE('',#346,#345,#44,.T.);
#290=EDGE_CURVE('',#346,#344,#392,.T.);
#291=EDGE_CURVE('',#347,#345,#12,.F.);
#292=EDGE_CURVE('',#348,#347,#45,.T.);
#293=EDGE_CURVE('',#348,#346,#13,.F.);
#294=EDGE_CURVE('',#349,#347,#14,.F.);
#295=EDGE_CURVE('',#350,#349,#46,.T.);
#296=EDGE_CURVE('',#350,#348,#15,.F.);
#297=EDGE_CURVE('',#351,#349,#47,.T.);
#298=EDGE_CURVE('',#352,#351,#48,.T.);
#299=EDGE_CURVE('',#352,#350,#49,.T.);
#300=EDGE_CURVE('',#353,#351,#393,.T.);
#301=EDGE_CURVE('',#354,#353,#50,.T.);
#302=EDGE_CURVE('',#354,#352,#394,.T.);
#303=EDGE_CURVE('',#306,#353,#395,.T.);
#304=EDGE_CURVE('',#308,#354,#396,.T.);
#305=VERTEX_POINT('',#585);
#306=VERTEX_POINT('',#586);
#307=VERTEX_POINT('',#588);
#308=VERTEX_POINT('',#592);
#309=VERTEX_POINT('',#605);
#310=VERTEX_POINT('',#607);
#311=VERTEX_POINT('',#622);
#312=VERTEX_POINT('',#624);
#313=VERTEX_POINT('',#639);
#314=VERTEX_POINT('',#641);
#315=VERTEX_POINT('',#656);
#316=VERTEX_POINT('',#658);
#317=VERTEX_POINT('',#673);
#318=VERTEX_POINT('',#675);
#319=VERTEX_POINT('',#690);
#320=VERTEX_POINT('',#692);
#321=VERTEX_POINT('',#707);
#322=VERTEX_POINT('',#709);
#323=VERTEX_POINT('',#724);
#324=VERTEX_POINT('',#726);
#325=VERTEX_POINT('',#732);
#326=VERTEX_POINT('',#734);
#327=VERTEX_POINT('',#747);
#328=VERTEX_POINT('',#749);
#329=VERTEX_POINT('',#764);
#330=VERTEX_POINT('',#766);
#331=VERTEX_POINT('',#781);
#332=VERTEX_POINT('',#783);
#333=VERTEX_POINT('',#798);
#334=VERTEX_POINT('',#800);
#335=VERTEX_POINT('',#815);
#336=VERTEX_POINT('',#817);
#337=VERTEX_POINT('',#832);
#338=VERTEX_POINT('',#834);
#339=VERTEX_POINT('',#849);
#340=VERTEX_POINT('',#851);
#341=VERTEX_POINT('',#866);
#342=VERTEX_POINT('',#868);
#343=VERTEX_POINT('',#883);
#344=VERTEX_POINT('',#885);
#345=VERTEX_POINT('',#900);
#346=VERTEX_POINT('',#902);
#347=VERTEX_POINT('',#908);
#348=VERTEX_POINT('',#910);
#349=VERTEX_POINT('',#914);
#350=VERTEX_POINT('',#916);
#351=VERTEX_POINT('',#920);
#352=VERTEX_POINT('',#922);
#353=VERTEX_POINT('',#935);
#354=VERTEX_POINT('',#937);
#355=B_SPLINE_CURVE_WITH_KNOTS('',2,(#582,#583,#584),.UNSPECIFIED.,.F.,
 .F.,(3,3),(0.,1.),.PIECEWISE_BEZIER_KNOTS.);
#356=B_SPLINE_CURVE_WITH_KNOTS('',2,(#589,#590,#591),.UNSPECIFIED.,.F.,
 .F.,(3,3),(0.,1.),.PIECEWISE_BEZIER_KNOTS.);
#357=B_SPLINE_CURVE_WITH_KNOTS('',2,(#602,#603,#604),.UNSPECIFIED.,.F.,
 .F.,(3,3),(0.,1.),.PIECEWISE_BEZIER_KNOTS.);
#358=B_SPLINE_CURVE_WITH_KNOTS('',2,(#608,#609,#610),.UNSPECIFIED.,.F.,
 .F.,(3,3),(0.,1.),.PIECEWISE_BEZIER_KNOTS.);
#359=B_SPLINE_CURVE_WITH_KNOTS('',2,(#619,#620,#621),.UNSPECIFIED.,.F.,
 .F.,(3,3),(0.,1.),.PIECEWISE_BEZIER_KNOTS.);
#360=B_SPLINE_CURVE_WITH_KNOTS('',2,(#625,#626,#627),.UNSPECIFIED.,.F.,
 .F.,(3,3),(0.,1.),.PIECEWISE_BEZIER_KNOTS.);
#361=B_SPLINE_CURVE_WITH_KNOTS('',2,(#636,#637,#638),.UNSPECIFIED.,.F.,
 .F.,(3,3),(0.,1.),.PIECEWISE_BEZIER_KNOTS.);
#362=B_SPLINE_CURVE_WITH_KNOTS('',2,(#642,#643,#644),.UNSPECIFIED.,.F.,
 .F.,(3,3),(0.,1.),.PIECEWISE_BEZIER_KNOTS.);
#363=B_SPLINE_CURVE_WITH_KNOTS('',2,(#653,#654,#655),.UNSPECIFIED.,.F.,
 .F.,(3,3),(0.,1.),.PIECEWISE_BEZIER_KNOTS.);
#364=B_SPLINE_CURVE_WITH_KNOTS('',2,(#659,#660,#661),.UNSPECIFIED.,.F.,
 .F.,(3,3),(0.,1.),.PIECEWISE_BEZIER_KNOTS.);
#365=B_SPLINE_CURVE_WITH_KNOTS('',2,(#670,#671,#672),.UNSPECIFIED.,.F.,
 .F.,(3,3),(0.,1.),.PIECEWISE_BEZIER_KNOTS.);
#366=B_SPLINE_CURVE_WITH_KNOTS('',2,(#676,#677,#678),.UNSPECIFIED.,.F.,
 .F.,(3,3),(0.,1.),.PIECEWISE_BEZIER_KNOTS.);
#367=B_SPLINE_CURVE_WITH_KNOTS('',2,(#687,#688,#689),.UNSPECIFIED.,.F.,
 .F.,(3,3),(0.,1.),.PIECEWISE_BEZIER_KNOTS.);
#368=B_SPLINE_CURVE_WITH_KNOTS('',2,(#693,#694,#695),.UNSPECIFIED.,.F.,
 .F.,(3,3),(0.,1.),.PIECEWISE_BEZIER_KNOTS.);
#369=B_SPLINE_CURVE_WITH_KNOTS('',2,(#704,#705,#706),.UNSPECIFIED.,.F.,
 .F.,(3,3),(0.,1.),.PIECEWISE_BEZIER_KNOTS.);
#370=B_SPLINE_CURVE_WITH_KNOTS('',2,(#710,#711,#712),.UNSPECIFIED.,.F.,
 .F.,(3,3),(0.,1.),.PIECEWISE_BEZIER_KNOTS.);
#371=B_SPLINE_CURVE_WITH_KNOTS('',2,(#721,#722,#723),.UNSPECIFIED.,.F.,
 .F.,(3,3),(0.,1.),.PIECEWISE_BEZIER_KNOTS.);
#372=B_SPLINE_CURVE_WITH_KNOTS('',2,(#727,#728,#729),.UNSPECIFIED.,.F.,
 .F.,(3,3),(0.,1.),.PIECEWISE_BEZIER_KNOTS.);
#373=B_SPLINE_CURVE_WITH_KNOTS('',2,(#744,#745,#746),.UNSPECIFIED.,.F.,
 .F.,(3,3),(0.,1.),.PIECEWISE_BEZIER_KNOTS.);
#374=B_SPLINE_CURVE_WITH_KNOTS('',2,(#750,#751,#752),.UNSPECIFIED.,.F.,
 .F.,(3,3),(0.,1.),.PIECEWISE_BEZIER_KNOTS.);
#375=B_SPLINE_CURVE_WITH_KNOTS('',2,(#761,#762,#763),.UNSPECIFIED.,.F.,
 .F.,(3,3),(0.,1.),.PIECEWISE_BEZIER_KNOTS.);
#376=B_SPLINE_CURVE_WITH_KNOTS('',2,(#767,#768,#769),.UNSPECIFIED.,.F.,
 .F.,(3,3),(0.,1.),.PIECEWISE_BEZIER_KNOTS.);
#377=B_SPLINE_CURVE_WITH_KNOTS('',2,(#778,#779,#780),.UNSPECIFIED.,.F.,
 .F.,(3,3),(0.,1.),.PIECEWISE_BEZIER_KNOTS.);
#378=B_SPLINE_CURVE_WITH_KNOTS('',2,(#784,#785,#786),.UNSPECIFIED.,.F.,
 .F.,(3,3),(0.,1.),.PIECEWISE_BEZIER_KNOTS.);
#379=B_SPLINE_CURVE_WITH_KNOTS('',2,(#795,#796,#797),.UNSPECIFIED.,.F.,
 .F.,(3,3),(0.,1.),.PIECEWISE_BEZIER_KNOTS.);
#380=B_SPLINE_CURVE_WITH_KNOTS('',2,(#801,#802,#803),.UNSPECIFIED.,.F.,
 .F.,(3,3),(0.,1.),.PIECEWISE_BEZIER_KNOTS.);
#381=B_SPLINE_CURVE_WITH_KNOTS('',2,(#812,#813,#814),.UNSPECIFIED.,.F.,
 .F.,(3,3),(0.,1.),.PIECEWISE_BEZIER_KNOTS.);
#382=B_SPLINE_CURVE_WITH_KNOTS('',2,(#818,#819,#820),.UNSPECIFIED.,.F.,
 .F.,(3,3),(0.,1.),.PIECEWISE_BEZIER_KNOTS.);
#383=B_SPLINE_CURVE_WITH_KNOTS('',2,(#829,#830,#831),.UNSPECIFIED.,.F.,
 .F.,(3,3),(0.,1.),.PIECEWISE_BEZIER_KNOTS.);
#384=B_SPLINE_CURVE_WITH_KNOTS('',2,(#835,#836,#837),.UNSPECIFIED.,.F.,
 .F.,(3,3),(0.,1.),.PIECEWISE_BEZIER_KNOTS.);
#385=B_SPLINE_CURVE_WITH_KNOTS('',2,(#846,#847,#848),.UNSPECIFIED.,.F.,
 .F.,(3,3),(0.,1.),.PIECEWISE_BEZIER_KNOTS.);
#386=B_SPLINE_CURVE_WITH_KNOTS('',2,(#852,#853,#854),.UNSPECIFIED.,.F.,
 .F.,(3,3),(0.,1.),.PIECEWISE_BEZIER_KNOTS.);
#387=B_SPLINE_CURVE_WITH_KNOTS('',2,(#863,#864,#865),.UNSPECIFIED.,.F.,
 .F.,(3,3),(0.,1.),.PIECEWISE_BEZIER_KNOTS.);
#388=B_SPLINE_CURVE_WITH_KNOTS('',2,(#869,#870,#871),.UNSPECIFIED.,.F.,
 .F.,(3,3),(0.,1.),.PIECEWISE_BEZIER_KNOTS.);
#389=B_SPLINE_CURVE_WITH_KNOTS('',2,(#880,#881,#882),.UNSPECIFIED.,.F.,
 .F.,(3,3),(0.,1.),.PIECEWISE_BEZIER_KNOTS.);
#390=B_SPLINE_CURVE_WITH_KNOTS('',2,(#886,#887,#888),.UNSPECIFIED.,.F.,
 .F.,(3,3),(0.,1.),.PIECEWISE_BEZIER_KNOTS.);
#391=B_SPLINE_CURVE_WITH_KNOTS('',2,(#897,#898,#899),.UNSPECIFIED.,.F.,
 .F.,(3,3),(0.,1.),.PIECEWISE_BEZIER_KNOTS.);
#392=B_SPLINE_CURVE_WITH_KNOTS('',2,(#903,#904,#905),.UNSPECIFIED.,.F.,
 .F.,(3,3),(0.,1.),.PIECEWISE_BEZIER_KNOTS.);
#393=B_SPLINE_CURVE_WITH_KNOTS('',2,(#932,#933,#934),.UNSPECIFIED.,.F.,
 .F.,(3,3),(0.,1.),.PIECEWISE_BEZIER_KNOTS.);
#394=B_SPLINE_CURVE_WITH_KNOTS('',2,(#938,#939,#940),.UNSPECIFIED.,.F.,
 .F.,(3,3),(0.,1.),.PIECEWISE_BEZIER_KNOTS.);
#395=B_SPLINE_CURVE_WITH_KNOTS('',2,(#949,#950,#951),.UNSPECIFIED.,.F.,
 .F.,(3,3),(0.,1.),.PIECEWISE_BEZIER_KNOTS.);
#396=B_SPLINE_CURVE_WITH_KNOTS('',2,(#952,#953,#954),.UNSPECIFIED.,.F.,
 .F.,(3,3),(0.,1.),.PIECEWISE_BEZIER_KNOTS.);
#397=EDGE_LOOP('',(#80,#81,#82,#83));
#398=EDGE_LOOP('',(#84,#85,#86,#87));
#399=EDGE_LOOP('',(#88,#89,#90,#91));
#400=EDGE_LOOP('',(#92,#93,#94,#95));
#401=EDGE_LOOP('',(#96,#97,#98,#99));
#402=EDGE_LOOP('',(#100,#101,#102,#103));
#403=EDGE_LOOP('',(#104,#105,#106,#107));
#404=EDGE_LOOP('',(#108,#109,#110,#111));
#405=EDGE_LOOP('',(#112,#113,#114,#115));
#406=EDGE_LOOP('',(#116,#117,#118,#119));
#407=EDGE_LOOP('',(#120,#121,#122,#123));
#408=EDGE_LOOP('',(#124,#125,#126,#127));
#409=EDGE_LOOP('',(#128,#129,#130,#131));
#410=EDGE_LOOP('',(#132,#133,#134,#135));
#411=EDGE_LOOP('',(#136,#137,#138,#139));
#412=EDGE_LOOP('',(#140,#141,#142,#143));
#413=EDGE_LOOP('',(#144,#145,#146,#147));
#414=EDGE_LOOP('',(#148,#149,#150,#151));
#415=EDGE_LOOP('',(#152,#153,#154,#155));
#416=EDGE_LOOP('',(#156,#157,#158,#159));
#417=EDGE_LOOP('',(#160,#161,#162,#163));
#418=EDGE_LOOP('',(#164,#165,#166,#167));
#419=EDGE_LOOP('',(#168,#169,#170,#171));
#420=EDGE_LOOP('',(#172,#173,#174,#175));
#421=EDGE_LOOP('',(#176,#177,#178,#179));
#422=EDGE_LOOP('',(#180,#181,#182,#183,#184,#185,#186,#187,#188,#189,#190,
#191,#192,#193,#194,#195,#196,#197,#198,#199,#200,#201,#202,#203,#204));
#423=EDGE_LOOP('',(#205,#206,#207,#208,#209,#210,#211,#212,#213,#214,#215,
#216,#217,#218,#219,#220,#221,#222,#223,#224,#225,#226,#227,#228,#229));
#424=FACE_BOUND('',#397,.T.);
#425=FACE_BOUND('',#398,.T.);
#426=FACE_BOUND('',#399,.T.);
#427=FACE_BOUND('',#400,.T.);
#428=FACE_BOUND('',#401,.T.);
#429=FACE_BOUND('',#402,.T.);
#430=FACE_BOUND('',#403,.T.);
#431=FACE_BOUND('',#404,.T.);
#432=FACE_BOUND('',#405,.T.);
#433=FACE_BOUND('',#406,.T.);
#434=FACE_BOUND('',#407,.T.);
#435=FACE_BOUND('',#408,.T.);
#436=FACE_BOUND('',#409,.T.);
#437=FACE_BOUND('',#410,.T.);
#438=FACE_BOUND('',#411,.T.);
#439=FACE_BOUND('',#412,.T.);
#440=FACE_BOUND('',#413,.T.);
#441=FACE_BOUND('',#414,.T.);
#442=FACE_BOUND('',#415,.T.);
#443=FACE_BOUND('',#416,.T.);
#444=FACE_BOUND('',#417,.T.);
#445=FACE_BOUND('',#418,.T.);
#446=FACE_BOUND('',#419,.T.);
#447=FACE_BOUND('',#420,.T.);
#448=FACE_BOUND('',#421,.T.);
#449=FACE_BOUND('',#422,.T.);
#450=FACE_BOUND('',#423,.T.);
#451=B_SPLINE_SURFACE_WITH_KNOTS('',3,1,((#574,#575),(#576,#577),(#578,
#579),(#580,#581)),.SURF_OF_LINEAR_EXTRUSION.,.F.,.F.,.F.,(4,4),(2,2),(0.,
1.),(0.,1.),.PIECEWISE_BEZIER_KNOTS.);
#452=B_SPLINE_SURFACE_WITH_KNOTS('',3,1,((#594,#595),(#596,#597),(#598,
#599),(#600,#601)),.SURF_OF_LINEAR_EXTRUSION.,.F.,.F.,.F.,(4,4),(2,2),(0.,
1.),(0.,1.),.PIECEWISE_BEZIER_KNOTS.);
#453=B_SPLINE_SURFACE_WITH_KNOTS('',3,1,((#611,#612),(#613,#614),(#615,
#616),(#617,#618)),.SURF_OF_LINEAR_EXTRUSION.,.F.,.F.,.F.,(4,4),(2,2),(0.,
1.),(0.,1.),.PIECEWISE_BEZIER_KNOTS.);
#454=B_SPLINE_SURFACE_WITH_KNOTS('',3,1,((#628,#629),(#630,#631),(#632,
#633),(#634,#635)),.SURF_OF_LINEAR_EXTRUSION.,.F.,.F.,.F.,(4,4),(2,2),(0.,
1.),(0.,1.),.PIECEWISE_BEZIER_KNOTS.);
#455=B_SPLINE_SURFACE_WITH_KNOTS('',3,1,((#645,#646),(#647,#648),(#649,
#650),(#651,#652)),.SURF_OF_LINEAR_EXTRUSION.,.F.,.F.,.F.,(4,4),(2,2),(0.,
1.),(0.,1.),.PIECEWISE_BEZIER_KNOTS.);
#456=B_SPLINE_SURFACE_WITH_KNOTS('',3,1,((#662,#663),(#664,#665),(#666,
#667),(#668,#669)),.SURF_OF_LINEAR_EXTRUSION.,.F.,.F.,.F.,(4,4),(2,2),(0.,
1.),(0.,1.),.PIECEWISE_BEZIER_KNOTS.);
#457=B_SPLINE_SURFACE_WITH_KNOTS('',3,1,((#679,#680),(#681,#682),(#683,
#684),(#685,#686)),.SURF_OF_LINEAR_EXTRUSION.,.F.,.F.,.F.,(4,4),(2,2),(0.,
1.),(0.,1.),.PIECEWISE_BEZIER_KNOTS.);
#458=B_SPLINE_SURFACE_WITH_KNOTS('',3,1,((#696,#697),(#698,#699),(#700,
#701),(#702,#703)),.SURF_OF_LINEAR_EXTRUSION.,.F.,.F.,.F.,(4,4),(2,2),(0.,
1.),(0.,1.),.PIECEWISE_BEZIER_KNOTS.);
#459=B_SPLINE_SURFACE_WITH_KNOTS('',3,1,((#713,#714),(#715,#716),(#717,
#718),(#719,#720)),.SURF_OF_LINEAR_EXTRUSION.,.F.,.F.,.F.,(4,4),(2,2),(0.,
1.),(0.,1.),.PIECEWISE_BEZIER_KNOTS.);
#460=B_SPLINE_SURFACE_WITH_KNOTS('',3,1,((#736,#737),(#738,#739),(#740,
#741),(#742,#743)),.SURF_OF_LINEAR_EXTRUSION.,.F.,.F.,.F.,(4,4),(2,2),(0.,
1.),(0.,1.),.PIECEWISE_BEZIER_KNOTS.);
#461=B_SPLINE_SURFACE_WITH_KNOTS('',3,1,((#753,#754),(#755,#756),(#757,
#758),(#759,#760)),.SURF_OF_LINEAR_EXTRUSION.,.F.,.F.,.F.,(4,4),(2,2),(0.,
1.),(0.,1.),.PIECEWISE_BEZIER_KNOTS.);
#462=B_SPLINE_SURFACE_WITH_KNOTS('',3,1,((#770,#771),(#772,#773),(#774,
#775),(#776,#777)),.SURF_OF_LINEAR_EXTRUSION.,.F.,.F.,.F.,(4,4),(2,2),(0.,
1.),(0.,1.),.PIECEWISE_BEZIER_KNOTS.);
#463=B_SPLINE_SURFACE_WITH_KNOTS('',3,1,((#787,#788),(#789,#790),(#791,
#792),(#793,#794)),.SURF_OF_LINEAR_EXTRUSION.,.F.,.F.,.F.,(4,4),(2,2),(0.,
1.),(0.,1.),.PIECEWISE_BEZIER_KNOTS.);
#464=B_SPLINE_SURFACE_WITH_KNOTS('',3,1,((#804,#805),(#806,#807),(#808,
#809),(#810,#811)),.SURF_OF_LINEAR_EXTRUSION.,.F.,.F.,.F.,(4,4),(2,2),(0.,
1.),(0.,1.),.PIECEWISE_BEZIER_KNOTS.);
#465=B_SPLINE_SURFACE_WITH_KNOTS('',3,1,((#821,#822),(#823,#824),(#825,
#826),(#827,#828)),.SURF_OF_LINEAR_EXTRUSION.,.F.,.F.,.F.,(4,4),(2,2),(0.,
1.),(0.,1.),.PIECEWISE_BEZIER_KNOTS.);
#466=B_SPLINE_SURFACE_WITH_KNOTS('',3,1,((#838,#839),(#840,#841),(#842,
#843),(#844,#845)),.SURF_OF_LINEAR_EXTRUSION.,.F.,.F.,.F.,(4,4),(2,2),(0.,
1.),(0.,1.),.PIECEWISE_BEZIER_KNOTS.);
#467=B_SPLINE_SURFACE_WITH_KNOTS('',3,1,((#855,#856),(#857,#858),(#859,
#860),(#861,#862)),.SURF_OF_LINEAR_EXTRUSION.,.F.,.F.,.F.,(4,4),(2,2),(0.,
1.),(0.,1.),.PIECEWISE_BEZIER_KNOTS.);
#468=B_SPLINE_SURFACE_WITH_KNOTS('',3,1,((#872,#873),(#874,#875),(#876,
#877),(#878,#879)),.SURF_OF_LINEAR_EXTRUSION.,.F.,.F.,.F.,(4,4),(2,2),(0.,
1.),(0.,1.),.PIECEWISE_BEZIER_KNOTS.);
#469=B_SPLINE_SURFACE_WITH_KNOTS('',3,1,((#889,#890),(#891,#892),(#893,
#894),(#895,#896)),.SURF_OF_LINEAR_EXTRUSION.,.F.,.F.,.F.,(4,4),(2,2),(0.,
1.),(0.,1.),.PIECEWISE_BEZIER_KNOTS.);
#470=B_SPLINE_SURFACE_WITH_KNOTS('',3,1,((#924,#925),(#926,#927),(#928,
#929),(#930,#931)),.SURF_OF_LINEAR_EXTRUSION.,.F.,.F.,.F.,(4,4),(2,2),(0.,
1.),(0.,1.),.PIECEWISE_BEZIER_KNOTS.);
#471=B_SPLINE_SURFACE_WITH_KNOTS('',3,1,((#941,#942),(#943,#944),(#945,
#946),(#947,#948)),.SURF_OF_LINEAR_EXTRUSION.,.F.,.F.,.F.,(4,4),(2,2),(0.,
1.),(0.,1.),.PIECEWISE_BEZIER_KNOTS.);
#472=ADVANCED_FACE('',(#424),#451,.T.);
#473=ADVANCED_FACE('',(#425),#452,.T.);
#474=ADVANCED_FACE('',(#426),#453,.T.);
#475=ADVANCED_FACE('',(#427),#454,.T.);
#476=ADVANCED_FACE('',(#428),#455,.T.);
#477=ADVANCED_FACE('',(#429),#456,.T.);
#478=ADVANCED_FACE('',(#430),#457,.T.);
#479=ADVANCED_FACE('',(#431),#458,.T.);
#480=ADVANCED_FACE('',(#432),#459,.T.);
#481=ADVANCED_FACE('',(#433),#18,.T.);
#482=ADVANCED_FACE('',(#434),#460,.T.);
#483=ADVANCED_FACE('',(#435),#461,.T.);
#484=ADVANCED_FACE('',(#436),#462,.T.);
#485=ADVANCED_FACE('',(#437),#463,.T.);
#486=ADVANCED_FACE('',(#438),#464,.T.);
#487=ADVANCED_FACE('',(#439),#465,.T.);
#488=ADVANCED_FACE('',(#440),#466,.T.);
#489=ADVANCED_FACE('',(#441),#467,.T.);
#490=ADVANCED_FACE('',(#442),#468,.T.);
#491=ADVANCED_FACE('',(#443),#469,.T.);
#492=ADVANCED_FACE('',(#444),#16,.F.);
#493=ADVANCED_FACE('',(#445),#17,.F.);
#494=ADVANCED_FACE('',(#446),#19,.T.);
#495=ADVANCED_FACE('',(#447),#470,.T.);
#496=ADVANCED_FACE('',(#448),#471,.T.);
#497=ADVANCED_FACE('',(#449),#20,.T.);
#498=ADVANCED_FACE('',(#450),#21,.F.);
#499=CLOSED_SHELL('',(#472,#473,#474,#475,#476,#477,#478,#479,#480,#481,
#482,#483,#484,#485,#486,#487,#488,#489,#490,#491,#492,#493,#494,#495,#496,
#497,#498));
#500=STYLED_ITEM('',(#501),#508);
#501=PRESENTATION_STYLE_ASSIGNMENT((#502));
#502=SURFACE_STYLE_USAGE(.BOTH.,#503);
#503=SURFACE_SIDE_STYLE('',(#504));
#504=SURFACE_STYLE_FILL_AREA(#505);
#505=FILL_AREA_STYLE('',(#506));
#506=FILL_AREA_STYLE_COLOUR('',#507);
#507=COLOUR_RGB('',0.325490196078431,0.529411764705882,0.752941176470588);
#508=MANIFOLD_SOLID_BREP('Part 4',#499);
#509=SHAPE_DEFINITION_REPRESENTATION(#963,#510);
#510=SHAPE_REPRESENTATION('Part 4',(#511),#958);
#511=AXIS2_PLACEMENT_3D('',#573,#522,#523);
#512=AXIS2_PLACEMENT_3D('',#730,#534,#535);
#513=AXIS2_PLACEMENT_3D('',#906,#549,#550);
#514=AXIS2_PLACEMENT_3D('',#907,#551,#552);
#515=AXIS2_PLACEMENT_3D('',#911,#554,#555);
#516=AXIS2_PLACEMENT_3D('',#912,#556,#557);
#517=AXIS2_PLACEMENT_3D('',#913,#558,#559);
#518=AXIS2_PLACEMENT_3D('',#917,#561,#562);
#519=AXIS2_PLACEMENT_3D('',#918,#563,#564);
#520=AXIS2_PLACEMENT_3D('',#955,#569,#570);
#521=AXIS2_PLACEMENT_3D('',#956,#571,#572);
#522=DIRECTION('',(0.,0.,1.));
#523=DIRECTION('',(1.,0.,0.));
#524=DIRECTION('',(0.,0.,-1.));
#525=DIRECTION('',(0.,0.,-1.));
#526=DIRECTION('',(0.,0.,-1.));
#527=DIRECTION('',(0.,0.,-1.));
#528=DIRECTION('',(0.,0.,-1.));
#529=DIRECTION('',(0.,0.,-1.));
#530=DIRECTION('',(0.,0.,-1.));
#531=DIRECTION('',(0.,0.,-1.));
#532=DIRECTION('',(0.,0.,-1.));
#533=DIRECTION('',(0.,0.,-1.));
#534=DIRECTION('',(0.941094974504349,-0.338142350146591,0.));
#535=DIRECTION('',(0.338142350146591,0.941094974504349,0.));
#536=DIRECTION('',(-0.338142350146591,-0.941094974504349,0.));
#537=DIRECTION('',(0.,0.,-1.));
#538=DIRECTION('',(-0.338142350146591,-0.941094974504349,0.));
#539=DIRECTION('',(0.,0.,-1.));
#540=DIRECTION('',(0.,0.,-1.));
#541=DIRECTION('',(0.,0.,-1.));
#542=DIRECTION('',(0.,0.,-1.));
#543=DIRECTION('',(0.,0.,-1.));
#544=DIRECTION('',(0.,0.,-1.));
#545=DIRECTION('',(0.,0.,-1.));
#546=DIRECTION('',(0.,0.,-1.));
#547=DIRECTION('',(0.,0.,-1.));
#548=DIRECTION('',(0.,0.,-1.));
#549=DIRECTION('',(0.,0.,-1.));
#550=DIRECTION('',(-0.103930416659274,-0.994584570809858,0.));
#551=DIRECTION('',(0.,0.,-1.));
#552=DIRECTION('',(-1.,0.,0.));
#553=DIRECTION('',(0.,0.,-1.));
#554=DIRECTION('',(0.,0.,-1.));
#555=DIRECTION('',(-1.,0.,0.));
#556=DIRECTION('',(0.,0.,-1.));
#557=DIRECTION('',(-0.293310951628147,-0.956017094854998,0.));
#558=DIRECTION('',(0.,0.,-1.));
#559=DIRECTION('',(-1.,0.,0.));
#560=DIRECTION('',(0.,0.,-1.));
#561=DIRECTION('',(0.,0.,-1.));
#562=DIRECTION('',(-1.,0.,0.));
#563=DIRECTION('',(-1.,0.,0.));
#564=DIRECTION('',(0.,0.,1.));
#565=DIRECTION('',(0.,1.,0.));
#566=DIRECTION('',(0.,0.,-1.));
#567=DIRECTION('',(0.,1.,0.));
#568=DIRECTION('',(0.,0.,-1.));
#569=DIRECTION('',(0.,0.,1.));
#570=DIRECTION('',(1.,0.,0.));
#571=DIRECTION('',(0.,0.,1.));
#572=DIRECTION('',(1.,0.,0.));
#573=CARTESIAN_POINT('',(0.,0.,0.));
#574=CARTESIAN_POINT('',(-0.0339658565375558,0.0289592287319018,0.0232));
#575=CARTESIAN_POINT('',(-0.0339658565375558,0.0289592287319018,0.0222));
#576=CARTESIAN_POINT('',(-0.0339658565375558,0.0284568961760871,0.0232));
#577=CARTESIAN_POINT('',(-0.0339658565375558,0.0284568961760871,0.0222));
#578=CARTESIAN_POINT('',(-0.0341480874605815,0.0280649434936479,0.0232));
#579=CARTESIAN_POINT('',(-0.0341480874605815,0.0280649434936479,0.0222));
#580=CARTESIAN_POINT('',(-0.0345125493066328,0.0277833706845843,0.0232));
#581=CARTESIAN_POINT('',(-0.0345125493066328,0.0277833706845843,0.0222));
#582=CARTESIAN_POINT('',(-0.0339658565375558,0.0289592287319018,0.0222));
#583=CARTESIAN_POINT('',(-0.0339658565375558,0.0282057298981797,0.0222));
#584=CARTESIAN_POINT('',(-0.0345125493066328,0.0277833706845843,0.0222));
#585=CARTESIAN_POINT('',(-0.0339658565375558,0.0289592287319018,0.0222));
#586=CARTESIAN_POINT('',(-0.0345125493066328,0.0277833706845843,0.0222));
#587=CARTESIAN_POINT('',(-0.0339658565375558,0.0289592287319018,0.0232));
#588=CARTESIAN_POINT('',(-0.0339658565375558,0.0289592287319018,0.0232));
#589=CARTESIAN_POINT('',(-0.0339658565375558,0.0289592287319018,0.0232));
#590=CARTESIAN_POINT('',(-0.0339658565375558,0.0282057298981797,0.0232));
#591=CARTESIAN_POINT('',(-0.0345125493066328,0.0277833706845843,0.0232));
#592=CARTESIAN_POINT('',(-0.0345125493066328,0.0277833706845843,0.0232));
#593=CARTESIAN_POINT('',(-0.0345125493066328,0.0277833706845843,0.0232));
#594=CARTESIAN_POINT('',(-0.0343032440750433,0.0299114113377,0.0232));
#595=CARTESIAN_POINT('',(-0.0343032440750433,0.0299114113377,0.0222));
#596=CARTESIAN_POINT('',(-0.0340783190500516,0.0296664929771534,0.0232));
#597=CARTESIAN_POINT('',(-0.0340783190500516,0.0296664929771534,0.0222));
#598=CARTESIAN_POINT('',(-0.0339658565375558,0.0293490987752207,0.0232));
#599=CARTESIAN_POINT('',(-0.0339658565375558,0.0293490987752207,0.0222));
#600=CARTESIAN_POINT('',(-0.0339658565375558,0.0289592287319018,0.0232));
#601=CARTESIAN_POINT('',(-0.0339658565375558,0.0289592287319018,0.0222));
#602=CARTESIAN_POINT('',(-0.0343032440750433,0.0299114113377,0.0222));
#603=CARTESIAN_POINT('',(-0.0339658565375558,0.0295440337968802,0.0222));
#604=CARTESIAN_POINT('',(-0.0339658565375558,0.0289592287319018,0.0222));
#605=CARTESIAN_POINT('',(-0.0343032440750433,0.0299114113377,0.0222));
#606=CARTESIAN_POINT('',(-0.0343032440750433,0.0299114113377,0.0232));
#607=CARTESIAN_POINT('',(-0.0343032440750433,0.0299114113377,0.0232));
#608=CARTESIAN_POINT('',(-0.0343032440750433,0.0299114113377,0.0232));
#609=CARTESIAN_POINT('',(-0.0339658565375558,0.0295440337968802,0.0232));
#610=CARTESIAN_POINT('',(-0.0339658565375558,0.0289592287319018,0.0232));
#611=CARTESIAN_POINT('',(-0.0355390821290253,0.0305986822473967,0.0232));
#612=CARTESIAN_POINT('',(-0.0355390821290253,0.0305986822473967,0.0222));
#613=CARTESIAN_POINT('',(-0.034940115118029,0.0303854200014787,0.0232));
#614=CARTESIAN_POINT('',(-0.034940115118029,0.0303854200014787,0.0222));
#615=CARTESIAN_POINT('',(-0.034528169100035,0.0301563296982464,0.0232));
#616=CARTESIAN_POINT('',(-0.034528169100035,0.0301563296982464,0.0222));
#617=CARTESIAN_POINT('',(-0.0343032440750433,0.0299114113377,0.0232));
#618=CARTESIAN_POINT('',(-0.0343032440750433,0.0299114113377,0.0222));
#619=CARTESIAN_POINT('',(-0.0355390821290253,0.0305986822473967,0.0222));
#620=CARTESIAN_POINT('',(-0.0346406316125309,0.0302787888785197,0.0222));
#621=CARTESIAN_POINT('',(-0.0343032440750433,0.0299114113377,0.0222));
#622=CARTESIAN_POINT('',(-0.0355390821290253,0.0305986822473967,0.0222));
#623=CARTESIAN_POINT('',(-0.0355390821290253,0.0305986822473967,0.0232));
#624=CARTESIAN_POINT('',(-0.0355390821290253,0.0305986822473967,0.0232));
#625=CARTESIAN_POINT('',(-0.0355390821290253,0.0305986822473967,0.0232));
#626=CARTESIAN_POINT('',(-0.0346406316125309,0.0302787888785197,0.0232));
#627=CARTESIAN_POINT('',(-0.0343032440750433,0.0299114113377,0.0232));
#628=CARTESIAN_POINT('',(-0.0363338172173292,0.0309479408278699,0.0232));
#629=CARTESIAN_POINT('',(-0.0363338172173292,0.0309479408278699,0.0222));
#630=CARTESIAN_POINT('',(-0.0361605416425208,0.030842559288383,0.0232));
#631=CARTESIAN_POINT('',(-0.0361605416425208,0.030842559288383,0.0222));
#632=CARTESIAN_POINT('',(-0.0358956299464195,0.0307261397615586,0.0232));
#633=CARTESIAN_POINT('',(-0.0358956299464195,0.0307261397615586,0.0222));
#634=CARTESIAN_POINT('',(-0.0355390821290253,0.0305986822473967,0.0232));
#635=CARTESIAN_POINT('',(-0.0355390821290253,0.0305986822473967,0.0222));
#636=CARTESIAN_POINT('',(-0.0363338172173292,0.0309479408278699,0.0222));
#637=CARTESIAN_POINT('',(-0.0360739038551166,0.0307898685186396,0.0222));
#638=CARTESIAN_POINT('',(-0.0355390821290253,0.0305986822473967,0.0222));
#639=CARTESIAN_POINT('',(-0.0363338172173292,0.0309479408278699,0.0222));
#640=CARTESIAN_POINT('',(-0.0363338172173292,0.0309479408278699,0.0232));
#641=CARTESIAN_POINT('',(-0.0363338172173292,0.0309479408278699,0.0232));
#642=CARTESIAN_POINT('',(-0.0363338172173292,0.0309479408278699,0.0232));
#643=CARTESIAN_POINT('',(-0.0360739038551166,0.0307898685186396,0.0232));
#644=CARTESIAN_POINT('',(-0.0355390821290253,0.0305986822473967,0.0232));
#645=CARTESIAN_POINT('',(-0.0367030691333572,0.0312959498248709,0.0232));
#646=CARTESIAN_POINT('',(-0.0367030691333572,0.0312959498248709,0.0222));
#647=CARTESIAN_POINT('',(-0.0366301767641469,0.0311693253663571,0.0232));
#648=CARTESIAN_POINT('',(-0.0366301767641469,0.0311693253663571,0.0222));
#649=CARTESIAN_POINT('',(-0.0365070927921376,0.0310533223673567,0.0232));
#650=CARTESIAN_POINT('',(-0.0365070927921376,0.0310533223673567,0.0222));
#651=CARTESIAN_POINT('',(-0.0363338172173292,0.0309479408278699,0.0232));
#652=CARTESIAN_POINT('',(-0.0363338172173292,0.0309479408278699,0.0222));
#653=CARTESIAN_POINT('',(-0.0367030691333572,0.0312959498248709,0.0222));
#654=CARTESIAN_POINT('',(-0.0365937305795418,0.0311060131371001,0.0222));
#655=CARTESIAN_POINT('',(-0.0363338172173292,0.0309479408278699,0.0222));
#656=CARTESIAN_POINT('',(-0.0367030691333572,0.0312959498248709,0.0222));
#657=CARTESIAN_POINT('',(-0.0367030691333572,0.0312959498248709,0.0232));
#658=CARTESIAN_POINT('',(-0.0367030691333572,0.0312959498248709,0.0232));
#659=CARTESIAN_POINT('',(-0.0367030691333572,0.0312959498248709,0.0232));
#660=CARTESIAN_POINT('',(-0.0365937305795418,0.0311060131371001,0.0232));
#661=CARTESIAN_POINT('',(-0.0363338172173292,0.0309479408278699,0.0232));
#662=CARTESIAN_POINT('',(-0.0368124076871726,0.0317820377955473,0.0232));
#663=CARTESIAN_POINT('',(-0.0368124076871726,0.0317820377955473,0.0222));
#664=CARTESIAN_POINT('',(-0.0368124076871726,0.0315846036069435,0.0232));
#665=CARTESIAN_POINT('',(-0.0368124076871726,0.0315846036069435,0.0222));
#666=CARTESIAN_POINT('',(-0.0367759615025675,0.0314225742833847,0.0232));
#667=CARTESIAN_POINT('',(-0.0367759615025675,0.0314225742833847,0.0222));
#668=CARTESIAN_POINT('',(-0.0367030691333572,0.0312959498248709,0.0232));
#669=CARTESIAN_POINT('',(-0.0367030691333572,0.0312959498248709,0.0222));
#670=CARTESIAN_POINT('',(-0.0368124076871726,0.0317820377955473,0.0222));
#671=CARTESIAN_POINT('',(-0.0368124076871726,0.0314858865126416,0.0222));
#672=CARTESIAN_POINT('',(-0.0367030691333572,0.0312959498248709,0.0222));
#673=CARTESIAN_POINT('',(-0.0368124076871726,0.0317820377955473,0.0222));
#674=CARTESIAN_POINT('',(-0.0368124076871726,0.0317820377955473,0.0232));
#675=CARTESIAN_POINT('',(-0.0368124076871726,0.0317820377955473,0.0232));
#676=CARTESIAN_POINT('',(-0.0368124076871726,0.0317820377955473,0.0232));
#677=CARTESIAN_POINT('',(-0.0368124076871726,0.0314858865126416,0.0232));
#678=CARTESIAN_POINT('',(-0.0367030691333572,0.0312959498248709,0.0232));
#679=CARTESIAN_POINT('',(-0.0365156316125308,0.0324105782820518,0.0232));
#680=CARTESIAN_POINT('',(-0.0365156316125308,0.0324105782820518,0.0222));
#681=CARTESIAN_POINT('',(-0.0367134823289587,0.0322597952097426,0.0232));
#682=CARTESIAN_POINT('',(-0.0367134823289587,0.0322597952097426,0.0222));
#683=CARTESIAN_POINT('',(-0.0368124076871726,0.0320502817142411,0.0232));
#684=CARTESIAN_POINT('',(-0.0368124076871726,0.0320502817142411,0.0222));
#685=CARTESIAN_POINT('',(-0.0368124076871726,0.0317820377955473,0.0232));
#686=CARTESIAN_POINT('',(-0.0368124076871726,0.0317820377955473,0.0222));
#687=CARTESIAN_POINT('',(-0.0365156316125308,0.0324105782820518,0.0222));
#688=CARTESIAN_POINT('',(-0.0368124076871726,0.0321844036735879,0.0222));
#689=CARTESIAN_POINT('',(-0.0368124076871726,0.0317820377955473,0.0222));
#690=CARTESIAN_POINT('',(-0.0365156316125308,0.0324105782820518,0.0222));
#691=CARTESIAN_POINT('',(-0.0365156316125308,0.0324105782820518,0.0232));
#692=CARTESIAN_POINT('',(-0.0365156316125308,0.0324105782820518,0.0232));
#693=CARTESIAN_POINT('',(-0.0365156316125308,0.0324105782820518,0.0232));
#694=CARTESIAN_POINT('',(-0.0368124076871726,0.0321844036735879,0.0232));
#695=CARTESIAN_POINT('',(-0.0368124076871726,0.0317820377955473,0.0232));
#696=CARTESIAN_POINT('',(-0.0356915313126308,0.0326367528905157,0.0232));
#697=CARTESIAN_POINT('',(-0.0356915313126308,0.0326367528905157,0.0222));
#698=CARTESIAN_POINT('',(-0.0360430807961363,0.0326367528905157,0.0232));
#699=CARTESIAN_POINT('',(-0.0360430807961363,0.0326367528905157,0.0222));
#700=CARTESIAN_POINT('',(-0.036317780896103,0.032561361354361,0.0232));
#701=CARTESIAN_POINT('',(-0.036317780896103,0.032561361354361,0.0222));
#702=CARTESIAN_POINT('',(-0.0365156316125308,0.0324105782820518,0.0232));
#703=CARTESIAN_POINT('',(-0.0365156316125308,0.0324105782820518,0.0222));
#704=CARTESIAN_POINT('',(-0.0356915313126308,0.0326367528905157,0.0222));
#705=CARTESIAN_POINT('',(-0.0362188555378891,0.0326367528905157,0.0222));
#706=CARTESIAN_POINT('',(-0.0365156316125308,0.0324105782820518,0.0222));
#707=CARTESIAN_POINT('',(-0.0356915313126308,0.0326367528905157,0.0222));
#708=CARTESIAN_POINT('',(-0.0356915313126308,0.0326367528905157,0.0232));
#709=CARTESIAN_POINT('',(-0.0356915313126308,0.0326367528905157,0.0232));
#710=CARTESIAN_POINT('',(-0.0356915313126308,0.0326367528905157,0.0232));
#711=CARTESIAN_POINT('',(-0.0362188555378891,0.0326367528905157,0.0232));
#712=CARTESIAN_POINT('',(-0.0365156316125308,0.0324105782820518,0.0232));
#713=CARTESIAN_POINT('',(-0.0343169894932372,0.0323406016076099,0.0232));
#714=CARTESIAN_POINT('',(-0.0343169894932372,0.0323406016076099,0.0222));
#715=CARTESIAN_POINT('',(-0.0347884989900717,0.0325380357962137,0.0232));
#716=CARTESIAN_POINT('',(-0.0347884989900717,0.0325380357962137,0.0222));
#717=CARTESIAN_POINT('',(-0.0352466795965362,0.0326367528905157,0.0232));
#718=CARTESIAN_POINT('',(-0.0352466795965362,0.0326367528905157,0.0222));
#719=CARTESIAN_POINT('',(-0.0356915313126308,0.0326367528905157,0.0232));
#720=CARTESIAN_POINT('',(-0.0356915313126308,0.0326367528905157,0.0222));
#721=CARTESIAN_POINT('',(-0.0343169894932372,0.0323406016076099,0.0222));
#722=CARTESIAN_POINT('',(-0.0350242537384889,0.0326367528905157,0.0222));
#723=CARTESIAN_POINT('',(-0.0356915313126308,0.0326367528905157,0.0222));
#724=CARTESIAN_POINT('',(-0.0343169894932372,0.0323406016076099,0.0222));
#725=CARTESIAN_POINT('',(-0.0343169894932372,0.0323406016076099,0.0232));
#726=CARTESIAN_POINT('',(-0.0343169894932372,0.0323406016076099,0.0232));
#727=CARTESIAN_POINT('',(-0.0343169894932372,0.0323406016076099,0.0232));
#728=CARTESIAN_POINT('',(-0.0350242537384889,0.0326367528905157,0.0232));
#729=CARTESIAN_POINT('',(-0.0356915313126308,0.0326367528905157,0.0232));
#730=CARTESIAN_POINT('',(-0.0342132740650467,0.0326292553896826,0.0232));
#731=CARTESIAN_POINT('',(-0.0342132740650467,0.0326292553896826,0.0222));
#732=CARTESIAN_POINT('',(-0.0341095586368561,0.0329179091717552,0.0222));
#733=CARTESIAN_POINT('',(-0.0341095586368561,0.0329179091717552,0.0232));
#734=CARTESIAN_POINT('',(-0.0341095586368561,0.0329179091717552,0.0232));
#735=CARTESIAN_POINT('',(-0.0342132740650467,0.0326292553896826,0.0232));
#736=CARTESIAN_POINT('',(-0.0356752867274925,0.0332303050397992,0.0232));
#737=CARTESIAN_POINT('',(-0.0356752867274925,0.0332303050397992,0.0222));
#738=CARTESIAN_POINT('',(-0.0351079758311246,0.0332303050397992,0.0232));
#739=CARTESIAN_POINT('',(-0.0351079758311246,0.0332303050397992,0.0222));
#740=CARTESIAN_POINT('',(-0.0345860664675792,0.0331261730837846,0.0232));
#741=CARTESIAN_POINT('',(-0.0345860664675792,0.0331261730837846,0.0222));
#742=CARTESIAN_POINT('',(-0.0341095586368561,0.0329179091717552,0.0232));
#743=CARTESIAN_POINT('',(-0.0341095586368561,0.0329179091717552,0.0222));
#744=CARTESIAN_POINT('',(-0.0356752867274925,0.0332303050397992,0.0222));
#745=CARTESIAN_POINT('',(-0.0348243203829407,0.0332303050397992,0.0222));
#746=CARTESIAN_POINT('',(-0.0341095586368561,0.0329179091717552,0.0222));
#747=CARTESIAN_POINT('',(-0.0356752867274925,0.0332303050397992,0.0222));
#748=CARTESIAN_POINT('',(-0.0356752867274925,0.0332303050397992,0.0232));
#749=CARTESIAN_POINT('',(-0.0356752867274925,0.0332303050397992,0.0232));
#750=CARTESIAN_POINT('',(-0.0356752867274925,0.0332303050397992,0.0232));
#751=CARTESIAN_POINT('',(-0.0348243203829407,0.0332303050397992,0.0232));
#752=CARTESIAN_POINT('',(-0.0341095586368561,0.0329179091717552,0.0232));
#753=CARTESIAN_POINT('',(-0.0369879741650133,0.0328398102047442,0.0232));
#754=CARTESIAN_POINT('',(-0.0369879741650133,0.0328398102047442,0.0222));
#755=CARTESIAN_POINT('',(-0.0366576676005348,0.0331001400947809,0.0232));
#756=CARTESIAN_POINT('',(-0.0366576676005348,0.0331001400947809,0.0222));
#757=CARTESIAN_POINT('',(-0.0362201051213612,0.0332303050397992,0.0232));
#758=CARTESIAN_POINT('',(-0.0362201051213612,0.0332303050397992,0.0222));
#759=CARTESIAN_POINT('',(-0.0356752867274925,0.0332303050397992,0.0232));
#760=CARTESIAN_POINT('',(-0.0356752867274925,0.0332303050397992,0.0222));
#761=CARTESIAN_POINT('',(-0.0369879741650133,0.0328398102047442,0.0222));
#762=CARTESIAN_POINT('',(-0.0364925143182956,0.0332303050397992,0.0222));
#763=CARTESIAN_POINT('',(-0.0356752867274925,0.0332303050397992,0.0222));
#764=CARTESIAN_POINT('',(-0.0369879741650133,0.0328398102047442,0.0222));
#765=CARTESIAN_POINT('',(-0.0369879741650133,0.0328398102047442,0.0232));
#766=CARTESIAN_POINT('',(-0.0369879741650133,0.0328398102047442,0.0232));
#767=CARTESIAN_POINT('',(-0.0369879741650133,0.0328398102047442,0.0232));
#768=CARTESIAN_POINT('',(-0.0364925143182956,0.0332303050397992,0.0232));
#769=CARTESIAN_POINT('',(-0.0356752867274925,0.0332303050397992,0.0232));
#770=CARTESIAN_POINT('',(-0.0374834340117311,0.0317895352963804,0.0232));
#771=CARTESIAN_POINT('',(-0.0374834340117311,0.0317895352963804,0.0222));
#772=CARTESIAN_POINT('',(-0.0374834340117311,0.0322293886785863,0.0232));
#773=CARTESIAN_POINT('',(-0.0374834340117311,0.0322293886785863,0.0222));
#774=CARTESIAN_POINT('',(-0.0373182807294918,0.0325794803147076,0.0232));
#775=CARTESIAN_POINT('',(-0.0373182807294918,0.0325794803147076,0.0222));
#776=CARTESIAN_POINT('',(-0.0369879741650133,0.0328398102047442,0.0232));
#777=CARTESIAN_POINT('',(-0.0369879741650133,0.0328398102047442,0.0222));
#778=CARTESIAN_POINT('',(-0.0374834340117311,0.0317895352963804,0.0222));
#779=CARTESIAN_POINT('',(-0.0374834340117311,0.0324493153696893,0.0222));
#780=CARTESIAN_POINT('',(-0.0369879741650133,0.0328398102047442,0.0222));
#781=CARTESIAN_POINT('',(-0.0374834340117311,0.0317895352963804,0.0222));
#782=CARTESIAN_POINT('',(-0.0374834340117311,0.0317895352963804,0.0232));
#783=CARTESIAN_POINT('',(-0.0374834340117311,0.0317895352963804,0.0232));
#784=CARTESIAN_POINT('',(-0.0374834340117311,0.0317895352963804,0.0232));
#785=CARTESIAN_POINT('',(-0.0374834340117311,0.0324493153696893,0.0232));
#786=CARTESIAN_POINT('',(-0.0369879741650133,0.0328398102047442,0.0232));
#787=CARTESIAN_POINT('',(-0.0371416729320909,0.0307704999748209,0.0232));
#788=CARTESIAN_POINT('',(-0.0371416729320909,0.0307704999748209,0.0222));
#789=CARTESIAN_POINT('',(-0.0373695136518511,0.0310308298648576,0.0232));
#790=CARTESIAN_POINT('',(-0.0373695136518511,0.0310308298648576,0.0222));
#791=CARTESIAN_POINT('',(-0.0374834340117311,0.0313705083053774,0.0232));
#792=CARTESIAN_POINT('',(-0.0374834340117311,0.0313705083053774,0.0222));
#793=CARTESIAN_POINT('',(-0.0374834340117311,0.0317895352963804,0.0232));
#794=CARTESIAN_POINT('',(-0.0374834340117311,0.0317895352963804,0.0222));
#795=CARTESIAN_POINT('',(-0.0371416729320909,0.0307704999748209,0.0222));
#796=CARTESIAN_POINT('',(-0.0374834340117311,0.0311609948098759,0.0222));
#797=CARTESIAN_POINT('',(-0.0374834340117311,0.0317895352963804,0.0222));
#798=CARTESIAN_POINT('',(-0.0371416729320909,0.0307704999748209,0.0222));
#799=CARTESIAN_POINT('',(-0.0371416729320909,0.0307704999748209,0.0232));
#800=CARTESIAN_POINT('',(-0.0371416729320909,0.0307704999748209,0.0232));
#801=CARTESIAN_POINT('',(-0.0371416729320909,0.0307704999748209,0.0232));
#802=CARTESIAN_POINT('',(-0.0374834340117311,0.0311609948098759,0.0232));
#803=CARTESIAN_POINT('',(-0.0374834340117311,0.0317895352963804,0.0232));
#804=CARTESIAN_POINT('',(-0.0360039271806748,0.0300951001081098,0.0232));
#805=CARTESIAN_POINT('',(-0.0360039271806748,0.0300951001081098,0.0222));
#806=CARTESIAN_POINT('',(-0.0365345836285255,0.0302850367958805,0.0232));
#807=CARTESIAN_POINT('',(-0.0365345836285255,0.0302850367958805,0.0222));
#808=CARTESIAN_POINT('',(-0.0369138322123309,0.0305101700847842,0.0232));
#809=CARTESIAN_POINT('',(-0.0369138322123309,0.0305101700847842,0.0222));
#810=CARTESIAN_POINT('',(-0.0371416729320909,0.0307704999748209,0.0232));
#811=CARTESIAN_POINT('',(-0.0371416729320909,0.0307704999748209,0.0222));
#812=CARTESIAN_POINT('',(-0.0360039271806748,0.0300951001081098,0.0222));
#813=CARTESIAN_POINT('',(-0.0367999118524509,0.0303800051397659,0.0222));
#814=CARTESIAN_POINT('',(-0.0371416729320909,0.0307704999748209,0.0222));
#815=CARTESIAN_POINT('',(-0.0360039271806748,0.0300951001081098,0.0222));
#816=CARTESIAN_POINT('',(-0.0360039271806748,0.0300951001081098,0.0232));
#817=CARTESIAN_POINT('',(-0.0360039271806748,0.0300951001081098,0.0232));
#818=CARTESIAN_POINT('',(-0.0360039271806748,0.0300951001081098,0.0232));
#819=CARTESIAN_POINT('',(-0.0367999118524509,0.0303800051397659,0.0232));
#820=CARTESIAN_POINT('',(-0.0371416729320909,0.0307704999748209,0.0232));
#821=CARTESIAN_POINT('',(-0.0351548352113312,0.0297320961094427,0.0232));
#822=CARTESIAN_POINT('',(-0.0351548352113312,0.0297320961094427,0.0222));
#823=CARTESIAN_POINT('',(-0.0353410231486854,0.0298391437602258,0.0232));
#824=CARTESIAN_POINT('',(-0.0353410231486854,0.0298391437602258,0.0222));
#825=CARTESIAN_POINT('',(-0.0356240538051333,0.0299601450931148,0.0232));
#826=CARTESIAN_POINT('',(-0.0356240538051333,0.0299601450931148,0.0222));
#827=CARTESIAN_POINT('',(-0.0360039271806748,0.0300951001081098,0.0232));
#828=CARTESIAN_POINT('',(-0.0360039271806748,0.0300951001081098,0.0222));
#829=CARTESIAN_POINT('',(-0.0351548352113312,0.0297320961094427,0.0222));
#830=CARTESIAN_POINT('',(-0.0354341171173626,0.0298926675856173,0.0222));
#831=CARTESIAN_POINT('',(-0.0360039271806748,0.0300951001081098,0.0222));
#832=CARTESIAN_POINT('',(-0.0351548352113312,0.0297320961094427,0.0222));
#833=CARTESIAN_POINT('',(-0.0351548352113312,0.0297320961094427,0.0232));
#834=CARTESIAN_POINT('',(-0.0351548352113312,0.0297320961094427,0.0232));
#835=CARTESIAN_POINT('',(-0.0351548352113312,0.0297320961094427,0.0232));
#836=CARTESIAN_POINT('',(-0.0354341171173626,0.0298926675856173,0.0232));
#837=CARTESIAN_POINT('',(-0.0360039271806748,0.0300951001081098,0.0232));
#838=CARTESIAN_POINT('',(-0.0347562180837071,0.0293822127372334,0.0232));
#839=CARTESIAN_POINT('',(-0.0347562180837071,0.0293822127372334,0.0222));
#840=CARTESIAN_POINT('',(-0.0348357748981023,0.0295084206679232,0.0232));
#841=CARTESIAN_POINT('',(-0.0348357748981023,0.0295084206679232,0.0222));
#842=CARTESIAN_POINT('',(-0.034968647273977,0.0296250484586596,0.0232));
#843=CARTESIAN_POINT('',(-0.034968647273977,0.0296250484586596,0.0222));
#844=CARTESIAN_POINT('',(-0.0351548352113312,0.0297320961094427,0.0232));
#845=CARTESIAN_POINT('',(-0.0351548352113312,0.0297320961094427,0.0222));
#846=CARTESIAN_POINT('',(-0.0347562180837071,0.0293822127372334,0.0222));
#847=CARTESIAN_POINT('',(-0.0348755533052999,0.0295715246332681,0.0222));
#848=CARTESIAN_POINT('',(-0.0351548352113312,0.0297320961094427,0.0222));
#849=CARTESIAN_POINT('',(-0.0347562180837071,0.0293822127372334,0.0222));
#850=CARTESIAN_POINT('',(-0.0347562180837071,0.0293822127372334,0.0232));
#851=CARTESIAN_POINT('',(-0.0347562180837071,0.0293822127372334,0.0232));
#852=CARTESIAN_POINT('',(-0.0347562180837071,0.0293822127372334,0.0232));
#853=CARTESIAN_POINT('',(-0.0348755533052999,0.0295715246332681,0.0232));
#854=CARTESIAN_POINT('',(-0.0351548352113312,0.0297320961094427,0.0232));
#855=CARTESIAN_POINT('',(-0.0346368828621143,0.0288967495582931,0.0232));
#856=CARTESIAN_POINT('',(-0.0346368828621143,0.0288967495582931,0.0222));
#857=CARTESIAN_POINT('',(-0.0346368828621143,0.0290941837468968,0.0232));
#858=CARTESIAN_POINT('',(-0.0346368828621143,0.0290941837468968,0.0222));
#859=CARTESIAN_POINT('',(-0.0346766612693119,0.0292560048065436,0.0232));
#860=CARTESIAN_POINT('',(-0.0346766612693119,0.0292560048065436,0.0222));
#861=CARTESIAN_POINT('',(-0.0347562180837071,0.0293822127372334,0.0232));
#862=CARTESIAN_POINT('',(-0.0347562180837071,0.0293822127372334,0.0222));
#863=CARTESIAN_POINT('',(-0.0346368828621143,0.0288967495582931,0.0222));
#864=CARTESIAN_POINT('',(-0.0346368828621143,0.0291929008411988,0.0222));
#865=CARTESIAN_POINT('',(-0.0347562180837071,0.0293822127372334,0.0222));
#866=CARTESIAN_POINT('',(-0.0346368828621143,0.0288967495582931,0.0222));
#867=CARTESIAN_POINT('',(-0.0346368828621143,0.0288967495582931,0.0232));
#868=CARTESIAN_POINT('',(-0.0346368828621143,0.0288967495582931,0.0232));
#869=CARTESIAN_POINT('',(-0.0346368828621143,0.0288967495582931,0.0232));
#870=CARTESIAN_POINT('',(-0.0346368828621143,0.0291929008411988,0.0232));
#871=CARTESIAN_POINT('',(-0.0347562180837071,0.0293822127372334,0.0232));
#872=CARTESIAN_POINT('',(-0.0349730208161297,0.0281951084386663,0.0232));
#873=CARTESIAN_POINT('',(-0.0349730208161297,0.0281951084386663,0.0222));
#874=CARTESIAN_POINT('',(-0.0347489288467861,0.0283629691517619,0.0232));
#875=CARTESIAN_POINT('',(-0.0347489288467861,0.0283629691517619,0.0222));
#876=CARTESIAN_POINT('',(-0.0346368828621143,0.0285968495249709,0.0232));
#877=CARTESIAN_POINT('',(-0.0346368828621143,0.0285968495249709,0.0222));
#878=CARTESIAN_POINT('',(-0.0346368828621143,0.0288967495582931,0.0232));
#879=CARTESIAN_POINT('',(-0.0346368828621143,0.0288967495582931,0.0222));
#880=CARTESIAN_POINT('',(-0.0349730208161297,0.0281951084386663,0.0222));
#881=CARTESIAN_POINT('',(-0.0346368828621143,0.0284468995083097,0.0222));
#882=CARTESIAN_POINT('',(-0.0346368828621143,0.0288967495582931,0.0222));
#883=CARTESIAN_POINT('',(-0.0349730208161297,0.0281951084386663,0.0222));
#884=CARTESIAN_POINT('',(-0.0349730208161297,0.0281951084386663,0.0232));
#885=CARTESIAN_POINT('',(-0.0349730208161297,0.0281951084386663,0.0232));
#886=CARTESIAN_POINT('',(-0.0349730208161297,0.0281951084386663,0.0232));
#887=CARTESIAN_POINT('',(-0.0346368828621143,0.0284468995083097,0.0232));
#888=CARTESIAN_POINT('',(-0.0346368828621143,0.0288967495582931,0.0232));
#889=CARTESIAN_POINT('',(-0.0359726875938704,0.0279433173690228,0.0232));
#890=CARTESIAN_POINT('',(-0.0359726875938704,0.0279433173690228,0.0222));
#891=CARTESIAN_POINT('',(-0.0355303350447201,0.0279433173690228,0.0232));
#892=CARTESIAN_POINT('',(-0.0355303350447201,0.0279433173690228,0.0222));
#893=CARTESIAN_POINT('',(-0.0351971127854732,0.0280272477255707,0.0232));
#894=CARTESIAN_POINT('',(-0.0351971127854732,0.0280272477255707,0.0222));
#895=CARTESIAN_POINT('',(-0.0349730208161297,0.0281951084386663,0.0232));
#896=CARTESIAN_POINT('',(-0.0349730208161297,0.0281951084386663,0.0222));
#897=CARTESIAN_POINT('',(-0.0359726875938704,0.0279433173690228,0.0222));
#898=CARTESIAN_POINT('',(-0.035309158770145,0.0279433173690228,0.0222));
#899=CARTESIAN_POINT('',(-0.0349730208161297,0.0281951084386663,0.0222));
#900=CARTESIAN_POINT('',(-0.0359726875938704,0.0279433173690228,0.0222));
#901=CARTESIAN_POINT('',(-0.0359726875938704,0.0279433173690228,0.0232));
#902=CARTESIAN_POINT('',(-0.0359726875938704,0.0279433173690228,0.0232));
#903=CARTESIAN_POINT('',(-0.0359726875938704,0.0279433173690228,0.0232));
#904=CARTESIAN_POINT('',(-0.035309158770145,0.0279433173690228,0.0232));
#905=CARTESIAN_POINT('',(-0.0349730208161297,0.0281951084386663,0.0232));
#906=CARTESIAN_POINT('',(-0.0359640866234111,0.0319515204232108,0.0232));
#907=CARTESIAN_POINT('',(-0.0359640866234111,0.0319515204232108,0.0222));
#908=CARTESIAN_POINT('',(-0.0367923810592263,0.0280296997012825,0.0222));
#909=CARTESIAN_POINT('',(-0.0367924143516178,0.028029538628603,0.0232));
#910=CARTESIAN_POINT('',(-0.0367923810592263,0.0280296997012825,0.0232));
#911=CARTESIAN_POINT('',(-0.0359640866234111,0.0319515204232108,0.0232));
#912=CARTESIAN_POINT('',(-0.0359568844626324,0.0321526252367761,0.0232));
#913=CARTESIAN_POINT('',(-0.0359568844626324,0.0321526252367761,0.0222));
#914=CARTESIAN_POINT('',(-0.0375584090200616,0.0282628559793355,0.0222));
#915=CARTESIAN_POINT('',(-0.0375584090200616,0.0282628559793355,0.0232));
#916=CARTESIAN_POINT('',(-0.0375584090200616,0.0282628559793355,0.0232));
#917=CARTESIAN_POINT('',(-0.0359568844626324,0.0321526252367761,0.0232));
#918=CARTESIAN_POINT('',(-0.0375584090200616,0.0279433173690228,0.0232));
#919=CARTESIAN_POINT('',(-0.0375584090200616,0.0279433173690228,0.0222));
#920=CARTESIAN_POINT('',(-0.0375584090200616,0.0276234240001458,0.0222));
#921=CARTESIAN_POINT('',(-0.0375584090200616,0.0276234240001458,0.0232));
#922=CARTESIAN_POINT('',(-0.0375584090200616,0.0276234240001458,0.0232));
#923=CARTESIAN_POINT('',(-0.0375584090200616,0.0279433173690228,0.0232));
#924=CARTESIAN_POINT('',(-0.0359964296798417,0.0273610114709888,0.0232));
#925=CARTESIAN_POINT('',(-0.0359964296798417,0.0273610114709888,0.0222));
#926=CARTESIAN_POINT('',(-0.036672870866113,0.0273610114709888,0.0232));
#927=CARTESIAN_POINT('',(-0.036672870866113,0.0273610114709888,0.0222));
#928=CARTESIAN_POINT('',(-0.0371935306461863,0.0274484823140412,0.0232));
#929=CARTESIAN_POINT('',(-0.0371935306461863,0.0274484823140412,0.0222));
#930=CARTESIAN_POINT('',(-0.0375584090200616,0.0276234240001458,0.0232));
#931=CARTESIAN_POINT('',(-0.0375584090200616,0.0276234240001458,0.0222));
#932=CARTESIAN_POINT('',(-0.0359964296798417,0.0273610114709888,0.0222));
#933=CARTESIAN_POINT('',(-0.0370110914592486,0.0273610114709888,0.0222));
#934=CARTESIAN_POINT('',(-0.0375584090200616,0.0276234240001458,0.0222));
#935=CARTESIAN_POINT('',(-0.0359964296798417,0.0273610114709888,0.0222));
#936=CARTESIAN_POINT('',(-0.0359964296798417,0.0273610114709888,0.0232));
#937=CARTESIAN_POINT('',(-0.0359964296798417,0.0273610114709888,0.0232));
#938=CARTESIAN_POINT('',(-0.0359964296798417,0.0273610114709888,0.0232));
#939=CARTESIAN_POINT('',(-0.0370110914592486,0.0273610114709888,0.0232));
#940=CARTESIAN_POINT('',(-0.0375584090200616,0.0276234240001458,0.0232));
#941=CARTESIAN_POINT('',(-0.0345125493066328,0.0277833706845843,0.0232));
#942=CARTESIAN_POINT('',(-0.0345125493066328,0.0277833706845843,0.0222));
#943=CARTESIAN_POINT('',(-0.0348770111526841,0.0275017978755207,0.0232));
#944=CARTESIAN_POINT('',(-0.0348770111526841,0.0275017978755207,0.0222));
#945=CARTESIAN_POINT('',(-0.0353716379437537,0.0273610114709888,0.0232));
#946=CARTESIAN_POINT('',(-0.0353716379437537,0.0273610114709888,0.0222));
#947=CARTESIAN_POINT('',(-0.0359964296798417,0.0273610114709888,0.0232));
#948=CARTESIAN_POINT('',(-0.0359964296798417,0.0273610114709888,0.0222));
#949=CARTESIAN_POINT('',(-0.0345125493066328,0.0277833706845843,0.0222));
#950=CARTESIAN_POINT('',(-0.0350592420757097,0.0273610114709888,0.0222));
#951=CARTESIAN_POINT('',(-0.0359964296798417,0.0273610114709888,0.0222));
#952=CARTESIAN_POINT('',(-0.0345125493066328,0.0277833706845843,0.0232));
#953=CARTESIAN_POINT('',(-0.0350592420757097,0.0273610114709888,0.0232));
#954=CARTESIAN_POINT('',(-0.0359964296798417,0.0273610114709888,0.0232));
#955=CARTESIAN_POINT('',(-0.035336010574676,0.0221931616239257,0.0232));
#956=CARTESIAN_POINT('',(-0.035336010574676,0.0221931616239257,0.0222));
#957=MECHANICAL_DESIGN_GEOMETRIC_PRESENTATION_REPRESENTATION('',(#500),
#958);
#958=(
GEOMETRIC_REPRESENTATION_CONTEXT(3)
GLOBAL_UNCERTAINTY_ASSIGNED_CONTEXT((#959))
GLOBAL_UNIT_ASSIGNED_CONTEXT((#962,#961,#960))
REPRESENTATION_CONTEXT('Part 4','TOP_LEVEL_ASSEMBLY_PART')
);
#959=UNCERTAINTY_MEASURE_WITH_UNIT(LENGTH_MEASURE(2.E-5),#962,
'DISTANCE_ACCURACY_VALUE','Maximum Tolerance applied to model');
#960=(
NAMED_UNIT(*)
SI_UNIT($,.STERADIAN.)
SOLID_ANGLE_UNIT()
);
#961=(
NAMED_UNIT(*)
PLANE_ANGLE_UNIT()
SI_UNIT($,.RADIAN.)
);
#962=(
LENGTH_UNIT()
NAMED_UNIT(*)
SI_UNIT($,.METRE.)
);
#963=PRODUCT_DEFINITION_SHAPE('','',#964);
#964=PRODUCT_DEFINITION('','',#966,#965);
#965=PRODUCT_DEFINITION_CONTEXT('',#972,'design');
#966=PRODUCT_DEFINITION_FORMATION_WITH_SPECIFIED_SOURCE('','',#968,
 .NOT_KNOWN.);
#967=PRODUCT_RELATED_PRODUCT_CATEGORY('','',(#968));
#968=PRODUCT('Part 4','Part 4','Part 4',(#970));
#969=PRODUCT_CATEGORY('','');
#970=PRODUCT_CONTEXT('',#972,'mechanical');
#971=APPLICATION_PROTOCOL_DEFINITION('international standard',
'ap242_managed_model_based_3d_engineering',2020,#972);
#972=APPLICATION_CONTEXT('managed model based 3d engineering');
ENDSEC;
END-ISO-10303-21;
