ISO-10303-21;
HEADER;
/* Generated by software containing ST-Developer
 * from STEP Tools, Inc. (www.steptools.com) 
 */
/* OPTION: using custom renumber hook */

FILE_DESCRIPTION(
/* description */ ('STEP AP242 Edition 2',
'CAx-IF Rec.Pracs.---Representation and Presentation of Product Manufa
cturing Information (PMI)---4.0---2014-10-13',
'CAx-IF Rec.Pracs.---3D Tessellated Geometry---0.4---2014-09-14','2;1',
'CAx-IF Rec.Pracs.---User Defined Attributes---1.5---2016-08-15'),
/* implementation_level */ '2;1');

FILE_NAME(
/* name */ 'Part Studio 1 - Part 14',
/* time_stamp */ '2026-09-06T11:57:17Z',
/* author */ (''),
/* organization */ (''),
/* preprocessor_version */ 'ST-DEVELOPER v20',
/* originating_system */ 'ONSHAPE BY PTC INC, 1.220',
/* authorisation */ '  ');

FILE_SCHEMA (('AP242_MANAGED_MODEL_BASED_3D_ENGINEERING_MIM_LF { 1 0 10303 442 3 1 4 }'));
ENDSEC;

DATA;
#10=SHAPE_REPRESENTATION_RELATIONSHIP('','',#358,#11);
#11=ADVANCED_BREP_SHAPE_REPRESENTATION('',(#356),#674);
#12=PLANE('',#366);
#13=PLANE('',#367);
#14=CIRCLE('',#361,0.00108898602908374);
#15=CIRCLE('',#362,0.00108898602908374);
#16=CIRCLE('',#364,0.00117674629717533);
#17=CIRCLE('',#365,0.00117674629717533);
#18=CYLINDRICAL_SURFACE('',#360,0.00108898602908374);
#19=CYLINDRICAL_SURFACE('',#363,0.00117674629717533);
#20=LINE('',#417,#37);
#21=LINE('',#423,#38);
#22=LINE('',#436,#39);
#23=LINE('',#453,#40);
#24=LINE('',#470,#41);
#25=LINE('',#487,#42);
#26=LINE('',#504,#43);
#27=LINE('',#521,#44);
#28=LINE('',#539,#45);
#29=LINE('',#545,#46);
#30=LINE('',#558,#47);
#31=LINE('',#575,#48);
#32=LINE('',#592,#49);
#33=LINE('',#609,#50);
#34=LINE('',#626,#51);
#35=LINE('',#634,#52);
#36=LINE('',#640,#53);
#37=VECTOR('',#370,1.);
#38=VECTOR('',#371,1.);
#39=VECTOR('',#372,1.);
#40=VECTOR('',#373,1.);
#41=VECTOR('',#374,1.);
#42=VECTOR('',#375,1.);
#43=VECTOR('',#376,1.);
#44=VECTOR('',#377,1.);
#45=VECTOR('',#378,1.);
#46=VECTOR('',#379,1.);
#47=VECTOR('',#380,1.);
#48=VECTOR('',#381,1.);
#49=VECTOR('',#382,1.);
#50=VECTOR('',#383,1.);
#51=VECTOR('',#384,1.);
#52=VECTOR('',#389,1.);
#53=VECTOR('',#396,1.);
#54=ORIENTED_EDGE('',*,*,#156,.F.);
#55=ORIENTED_EDGE('',*,*,#157,.F.);
#56=ORIENTED_EDGE('',*,*,#158,.T.);
#57=ORIENTED_EDGE('',*,*,#159,.T.);
#58=ORIENTED_EDGE('',*,*,#160,.F.);
#59=ORIENTED_EDGE('',*,*,#161,.F.);
#60=ORIENTED_EDGE('',*,*,#162,.T.);
#61=ORIENTED_EDGE('',*,*,#157,.T.);
#62=ORIENTED_EDGE('',*,*,#163,.F.);
#63=ORIENTED_EDGE('',*,*,#164,.F.);
#64=ORIENTED_EDGE('',*,*,#165,.T.);
#65=ORIENTED_EDGE('',*,*,#161,.T.);
#66=ORIENTED_EDGE('',*,*,#166,.F.);
#67=ORIENTED_EDGE('',*,*,#167,.F.);
#68=ORIENTED_EDGE('',*,*,#168,.T.);
#69=ORIENTED_EDGE('',*,*,#164,.T.);
#70=ORIENTED_EDGE('',*,*,#169,.F.);
#71=ORIENTED_EDGE('',*,*,#170,.F.);
#72=ORIENTED_EDGE('',*,*,#171,.T.);
#73=ORIENTED_EDGE('',*,*,#167,.T.);
#74=ORIENTED_EDGE('',*,*,#172,.F.);
#75=ORIENTED_EDGE('',*,*,#173,.F.);
#76=ORIENTED_EDGE('',*,*,#174,.T.);
#77=ORIENTED_EDGE('',*,*,#170,.T.);
#78=ORIENTED_EDGE('',*,*,#175,.F.);
#79=ORIENTED_EDGE('',*,*,#176,.F.);
#80=ORIENTED_EDGE('',*,*,#177,.T.);
#81=ORIENTED_EDGE('',*,*,#173,.T.);
#82=ORIENTED_EDGE('',*,*,#178,.F.);
#83=ORIENTED_EDGE('',*,*,#179,.F.);
#84=ORIENTED_EDGE('',*,*,#180,.T.);
#85=ORIENTED_EDGE('',*,*,#181,.T.);
#86=ORIENTED_EDGE('',*,*,#182,.F.);
#87=ORIENTED_EDGE('',*,*,#183,.F.);
#88=ORIENTED_EDGE('',*,*,#184,.T.);
#89=ORIENTED_EDGE('',*,*,#179,.T.);
#90=ORIENTED_EDGE('',*,*,#185,.F.);
#91=ORIENTED_EDGE('',*,*,#186,.F.);
#92=ORIENTED_EDGE('',*,*,#187,.T.);
#93=ORIENTED_EDGE('',*,*,#183,.T.);
#94=ORIENTED_EDGE('',*,*,#188,.F.);
#95=ORIENTED_EDGE('',*,*,#189,.F.);
#96=ORIENTED_EDGE('',*,*,#190,.T.);
#97=ORIENTED_EDGE('',*,*,#186,.T.);
#98=ORIENTED_EDGE('',*,*,#191,.F.);
#99=ORIENTED_EDGE('',*,*,#192,.F.);
#100=ORIENTED_EDGE('',*,*,#193,.T.);
#101=ORIENTED_EDGE('',*,*,#189,.T.);
#102=ORIENTED_EDGE('',*,*,#194,.F.);
#103=ORIENTED_EDGE('',*,*,#195,.F.);
#104=ORIENTED_EDGE('',*,*,#196,.T.);
#105=ORIENTED_EDGE('',*,*,#192,.T.);
#106=ORIENTED_EDGE('',*,*,#197,.F.);
#107=ORIENTED_EDGE('',*,*,#198,.F.);
#108=ORIENTED_EDGE('',*,*,#199,.T.);
#109=ORIENTED_EDGE('',*,*,#195,.T.);
#110=ORIENTED_EDGE('',*,*,#200,.F.);
#111=ORIENTED_EDGE('',*,*,#201,.F.);
#112=ORIENTED_EDGE('',*,*,#202,.T.);
#113=ORIENTED_EDGE('',*,*,#198,.T.);
#114=ORIENTED_EDGE('',*,*,#203,.F.);
#115=ORIENTED_EDGE('',*,*,#181,.F.);
#116=ORIENTED_EDGE('',*,*,#204,.T.);
#117=ORIENTED_EDGE('',*,*,#201,.T.);
#118=ORIENTED_EDGE('',*,*,#205,.F.);
#119=ORIENTED_EDGE('',*,*,#159,.F.);
#120=ORIENTED_EDGE('',*,*,#206,.T.);
#121=ORIENTED_EDGE('',*,*,#176,.T.);
#122=ORIENTED_EDGE('',*,*,#180,.F.);
#123=ORIENTED_EDGE('',*,*,#184,.F.);
#124=ORIENTED_EDGE('',*,*,#187,.F.);
#125=ORIENTED_EDGE('',*,*,#190,.F.);
#126=ORIENTED_EDGE('',*,*,#193,.F.);
#127=ORIENTED_EDGE('',*,*,#196,.F.);
#128=ORIENTED_EDGE('',*,*,#199,.F.);
#129=ORIENTED_EDGE('',*,*,#202,.F.);
#130=ORIENTED_EDGE('',*,*,#204,.F.);
#131=ORIENTED_EDGE('',*,*,#158,.F.);
#132=ORIENTED_EDGE('',*,*,#162,.F.);
#133=ORIENTED_EDGE('',*,*,#165,.F.);
#134=ORIENTED_EDGE('',*,*,#168,.F.);
#135=ORIENTED_EDGE('',*,*,#171,.F.);
#136=ORIENTED_EDGE('',*,*,#174,.F.);
#137=ORIENTED_EDGE('',*,*,#177,.F.);
#138=ORIENTED_EDGE('',*,*,#206,.F.);
#139=ORIENTED_EDGE('',*,*,#178,.T.);
#140=ORIENTED_EDGE('',*,*,#203,.T.);
#141=ORIENTED_EDGE('',*,*,#200,.T.);
#142=ORIENTED_EDGE('',*,*,#197,.T.);
#143=ORIENTED_EDGE('',*,*,#194,.T.);
#144=ORIENTED_EDGE('',*,*,#191,.T.);
#145=ORIENTED_EDGE('',*,*,#188,.T.);
#146=ORIENTED_EDGE('',*,*,#185,.T.);
#147=ORIENTED_EDGE('',*,*,#182,.T.);
#148=ORIENTED_EDGE('',*,*,#156,.T.);
#149=ORIENTED_EDGE('',*,*,#205,.T.);
#150=ORIENTED_EDGE('',*,*,#175,.T.);
#151=ORIENTED_EDGE('',*,*,#172,.T.);
#152=ORIENTED_EDGE('',*,*,#169,.T.);
#153=ORIENTED_EDGE('',*,*,#166,.T.);
#154=ORIENTED_EDGE('',*,*,#163,.T.);
#155=ORIENTED_EDGE('',*,*,#160,.T.);
#156=EDGE_CURVE('',#207,#208,#241,.T.);
#157=EDGE_CURVE('',#209,#207,#20,.T.);
#158=EDGE_CURVE('',#209,#210,#242,.T.);
#159=EDGE_CURVE('',#210,#208,#21,.T.);
#160=EDGE_CURVE('',#211,#207,#243,.T.);
#161=EDGE_CURVE('',#212,#211,#22,.T.);
#162=EDGE_CURVE('',#212,#209,#244,.T.);
#163=EDGE_CURVE('',#213,#211,#245,.T.);
#164=EDGE_CURVE('',#214,#213,#23,.T.);
#165=EDGE_CURVE('',#214,#212,#246,.T.);
#166=EDGE_CURVE('',#215,#213,#247,.T.);
#167=EDGE_CURVE('',#216,#215,#24,.T.);
#168=EDGE_CURVE('',#216,#214,#248,.T.);
#169=EDGE_CURVE('',#217,#215,#249,.T.);
#170=EDGE_CURVE('',#218,#217,#25,.T.);
#171=EDGE_CURVE('',#218,#216,#250,.T.);
#172=EDGE_CURVE('',#219,#217,#251,.T.);
#173=EDGE_CURVE('',#220,#219,#26,.T.);
#174=EDGE_CURVE('',#220,#218,#252,.T.);
#175=EDGE_CURVE('',#221,#219,#253,.T.);
#176=EDGE_CURVE('',#222,#221,#27,.T.);
#177=EDGE_CURVE('',#222,#220,#254,.T.);
#178=EDGE_CURVE('',#223,#224,#255,.T.);
#179=EDGE_CURVE('',#225,#223,#28,.T.);
#180=EDGE_CURVE('',#225,#226,#256,.T.);
#181=EDGE_CURVE('',#226,#224,#29,.T.);
#182=EDGE_CURVE('',#227,#223,#257,.T.);
#183=EDGE_CURVE('',#228,#227,#30,.T.);
#184=EDGE_CURVE('',#228,#225,#258,.T.);
#185=EDGE_CURVE('',#229,#227,#259,.T.);
#186=EDGE_CURVE('',#230,#229,#31,.T.);
#187=EDGE_CURVE('',#230,#228,#260,.T.);
#188=EDGE_CURVE('',#231,#229,#261,.T.);
#189=EDGE_CURVE('',#232,#231,#32,.T.);
#190=EDGE_CURVE('',#232,#230,#262,.T.);
#191=EDGE_CURVE('',#233,#231,#263,.T.);
#192=EDGE_CURVE('',#234,#233,#33,.T.);
#193=EDGE_CURVE('',#234,#232,#264,.T.);
#194=EDGE_CURVE('',#235,#233,#265,.T.);
#195=EDGE_CURVE('',#236,#235,#34,.T.);
#196=EDGE_CURVE('',#236,#234,#266,.T.);
#197=EDGE_CURVE('',#237,#235,#14,.T.);
#198=EDGE_CURVE('',#238,#237,#35,.T.);
#199=EDGE_CURVE('',#238,#236,#15,.T.);
#200=EDGE_CURVE('',#239,#237,#16,.T.);
#201=EDGE_CURVE('',#240,#239,#36,.T.);
#202=EDGE_CURVE('',#240,#238,#17,.T.);
#203=EDGE_CURVE('',#224,#239,#267,.T.);
#204=EDGE_CURVE('',#226,#240,#268,.T.);
#205=EDGE_CURVE('',#208,#221,#269,.T.);
#206=EDGE_CURVE('',#210,#222,#270,.T.);
#207=VERTEX_POINT('',#415);
#208=VERTEX_POINT('',#416);
#209=VERTEX_POINT('',#418);
#210=VERTEX_POINT('',#422);
#211=VERTEX_POINT('',#435);
#212=VERTEX_POINT('',#437);
#213=VERTEX_POINT('',#452);
#214=VERTEX_POINT('',#454);
#215=VERTEX_POINT('',#469);
#216=VERTEX_POINT('',#471);
#217=VERTEX_POINT('',#486);
#218=VERTEX_POINT('',#488);
#219=VERTEX_POINT('',#503);
#220=VERTEX_POINT('',#505);
#221=VERTEX_POINT('',#520);
#222=VERTEX_POINT('',#522);
#223=VERTEX_POINT('',#537);
#224=VERTEX_POINT('',#538);
#225=VERTEX_POINT('',#540);
#226=VERTEX_POINT('',#544);
#227=VERTEX_POINT('',#557);
#228=VERTEX_POINT('',#559);
#229=VERTEX_POINT('',#574);
#230=VERTEX_POINT('',#576);
#231=VERTEX_POINT('',#591);
#232=VERTEX_POINT('',#593);
#233=VERTEX_POINT('',#608);
#234=VERTEX_POINT('',#610);
#235=VERTEX_POINT('',#625);
#236=VERTEX_POINT('',#627);
#237=VERTEX_POINT('',#633);
#238=VERTEX_POINT('',#635);
#239=VERTEX_POINT('',#639);
#240=VERTEX_POINT('',#641);
#241=B_SPLINE_CURVE_WITH_KNOTS('',2,(#412,#413,#414),.UNSPECIFIED.,.F.,
 .F.,(3,3),(0.,1.),.PIECEWISE_BEZIER_KNOTS.);
#242=B_SPLINE_CURVE_WITH_KNOTS('',2,(#419,#420,#421),.UNSPECIFIED.,.F.,
 .F.,(3,3),(0.,1.),.PIECEWISE_BEZIER_KNOTS.);
#243=B_SPLINE_CURVE_WITH_KNOTS('',2,(#432,#433,#434),.UNSPECIFIED.,.F.,
 .F.,(3,3),(0.,1.),.PIECEWISE_BEZIER_KNOTS.);
#244=B_SPLINE_CURVE_WITH_KNOTS('',2,(#438,#439,#440),.UNSPECIFIED.,.F.,
 .F.,(3,3),(0.,1.),.PIECEWISE_BEZIER_KNOTS.);
#245=B_SPLINE_CURVE_WITH_KNOTS('',2,(#449,#450,#451),.UNSPECIFIED.,.F.,
 .F.,(3,3),(0.,1.),.PIECEWISE_BEZIER_KNOTS.);
#246=B_SPLINE_CURVE_WITH_KNOTS('',2,(#455,#456,#457),.UNSPECIFIED.,.F.,
 .F.,(3,3),(0.,1.),.PIECEWISE_BEZIER_KNOTS.);
#247=B_SPLINE_CURVE_WITH_KNOTS('',2,(#466,#467,#468),.UNSPECIFIED.,.F.,
 .F.,(3,3),(0.,1.),.PIECEWISE_BEZIER_KNOTS.);
#248=B_SPLINE_CURVE_WITH_KNOTS('',2,(#472,#473,#474),.UNSPECIFIED.,.F.,
 .F.,(3,3),(0.,1.),.PIECEWISE_BEZIER_KNOTS.);
#249=B_SPLINE_CURVE_WITH_KNOTS('',2,(#483,#484,#485),.UNSPECIFIED.,.F.,
 .F.,(3,3),(0.,1.),.PIECEWISE_BEZIER_KNOTS.);
#250=B_SPLINE_CURVE_WITH_KNOTS('',2,(#489,#490,#491),.UNSPECIFIED.,.F.,
 .F.,(3,3),(0.,1.),.PIECEWISE_BEZIER_KNOTS.);
#251=B_SPLINE_CURVE_WITH_KNOTS('',2,(#500,#501,#502),.UNSPECIFIED.,.F.,
 .F.,(3,3),(0.,1.),.PIECEWISE_BEZIER_KNOTS.);
#252=B_SPLINE_CURVE_WITH_KNOTS('',2,(#506,#507,#508),.UNSPECIFIED.,.F.,
 .F.,(3,3),(0.,1.),.PIECEWISE_BEZIER_KNOTS.);
#253=B_SPLINE_CURVE_WITH_KNOTS('',2,(#517,#518,#519),.UNSPECIFIED.,.F.,
 .F.,(3,3),(0.,1.),.PIECEWISE_BEZIER_KNOTS.);
#254=B_SPLINE_CURVE_WITH_KNOTS('',2,(#523,#524,#525),.UNSPECIFIED.,.F.,
 .F.,(3,3),(0.,1.),.PIECEWISE_BEZIER_KNOTS.);
#255=B_SPLINE_CURVE_WITH_KNOTS('',2,(#534,#535,#536),.UNSPECIFIED.,.F.,
 .F.,(3,3),(0.,1.),.PIECEWISE_BEZIER_KNOTS.);
#256=B_SPLINE_CURVE_WITH_KNOTS('',2,(#541,#542,#543),.UNSPECIFIED.,.F.,
 .F.,(3,3),(0.,1.),.PIECEWISE_BEZIER_KNOTS.);
#257=B_SPLINE_CURVE_WITH_KNOTS('',2,(#554,#555,#556),.UNSPECIFIED.,.F.,
 .F.,(3,3),(0.,1.),.PIECEWISE_BEZIER_KNOTS.);
#258=B_SPLINE_CURVE_WITH_KNOTS('',2,(#560,#561,#562),.UNSPECIFIED.,.F.,
 .F.,(3,3),(0.,1.),.PIECEWISE_BEZIER_KNOTS.);
#259=B_SPLINE_CURVE_WITH_KNOTS('',2,(#571,#572,#573),.UNSPECIFIED.,.F.,
 .F.,(3,3),(0.,1.),.PIECEWISE_BEZIER_KNOTS.);
#260=B_SPLINE_CURVE_WITH_KNOTS('',2,(#577,#578,#579),.UNSPECIFIED.,.F.,
 .F.,(3,3),(0.,1.),.PIECEWISE_BEZIER_KNOTS.);
#261=B_SPLINE_CURVE_WITH_KNOTS('',2,(#588,#589,#590),.UNSPECIFIED.,.F.,
 .F.,(3,3),(0.,1.),.PIECEWISE_BEZIER_KNOTS.);
#262=B_SPLINE_CURVE_WITH_KNOTS('',2,(#594,#595,#596),.UNSPECIFIED.,.F.,
 .F.,(3,3),(0.,1.),.PIECEWISE_BEZIER_KNOTS.);
#263=B_SPLINE_CURVE_WITH_KNOTS('',2,(#605,#606,#607),.UNSPECIFIED.,.F.,
 .F.,(3,3),(0.,1.),.PIECEWISE_BEZIER_KNOTS.);
#264=B_SPLINE_CURVE_WITH_KNOTS('',2,(#611,#612,#613),.UNSPECIFIED.,.F.,
 .F.,(3,3),(0.,1.),.PIECEWISE_BEZIER_KNOTS.);
#265=B_SPLINE_CURVE_WITH_KNOTS('',2,(#622,#623,#624),.UNSPECIFIED.,.F.,
 .F.,(3,3),(0.,1.),.PIECEWISE_BEZIER_KNOTS.);
#266=B_SPLINE_CURVE_WITH_KNOTS('',2,(#628,#629,#630),.UNSPECIFIED.,.F.,
 .F.,(3,3),(0.,1.),.PIECEWISE_BEZIER_KNOTS.);
#267=B_SPLINE_CURVE_WITH_KNOTS('',2,(#651,#652,#653),.UNSPECIFIED.,.F.,
 .F.,(3,3),(0.,1.),.PIECEWISE_BEZIER_KNOTS.);
#268=B_SPLINE_CURVE_WITH_KNOTS('',2,(#654,#655,#656),.UNSPECIFIED.,.F.,
 .F.,(3,3),(0.,1.),.PIECEWISE_BEZIER_KNOTS.);
#269=B_SPLINE_CURVE_WITH_KNOTS('',2,(#665,#666,#667),.UNSPECIFIED.,.F.,
 .F.,(3,3),(0.,1.),.PIECEWISE_BEZIER_KNOTS.);
#270=B_SPLINE_CURVE_WITH_KNOTS('',2,(#668,#669,#670),.UNSPECIFIED.,.F.,
 .F.,(3,3),(0.,1.),.PIECEWISE_BEZIER_KNOTS.);
#271=EDGE_LOOP('',(#54,#55,#56,#57));
#272=EDGE_LOOP('',(#58,#59,#60,#61));
#273=EDGE_LOOP('',(#62,#63,#64,#65));
#274=EDGE_LOOP('',(#66,#67,#68,#69));
#275=EDGE_LOOP('',(#70,#71,#72,#73));
#276=EDGE_LOOP('',(#74,#75,#76,#77));
#277=EDGE_LOOP('',(#78,#79,#80,#81));
#278=EDGE_LOOP('',(#82,#83,#84,#85));
#279=EDGE_LOOP('',(#86,#87,#88,#89));
#280=EDGE_LOOP('',(#90,#91,#92,#93));
#281=EDGE_LOOP('',(#94,#95,#96,#97));
#282=EDGE_LOOP('',(#98,#99,#100,#101));
#283=EDGE_LOOP('',(#102,#103,#104,#105));
#284=EDGE_LOOP('',(#106,#107,#108,#109));
#285=EDGE_LOOP('',(#110,#111,#112,#113));
#286=EDGE_LOOP('',(#114,#115,#116,#117));
#287=EDGE_LOOP('',(#118,#119,#120,#121));
#288=EDGE_LOOP('',(#122,#123,#124,#125,#126,#127,#128,#129,#130));
#289=EDGE_LOOP('',(#131,#132,#133,#134,#135,#136,#137,#138));
#290=EDGE_LOOP('',(#139,#140,#141,#142,#143,#144,#145,#146,#147));
#291=EDGE_LOOP('',(#148,#149,#150,#151,#152,#153,#154,#155));
#292=FACE_BOUND('',#271,.T.);
#293=FACE_BOUND('',#272,.T.);
#294=FACE_BOUND('',#273,.T.);
#295=FACE_BOUND('',#274,.T.);
#296=FACE_BOUND('',#275,.T.);
#297=FACE_BOUND('',#276,.T.);
#298=FACE_BOUND('',#277,.T.);
#299=FACE_BOUND('',#278,.T.);
#300=FACE_BOUND('',#279,.T.);
#301=FACE_BOUND('',#280,.T.);
#302=FACE_BOUND('',#281,.T.);
#303=FACE_BOUND('',#282,.T.);
#304=FACE_BOUND('',#283,.T.);
#305=FACE_BOUND('',#284,.T.);
#306=FACE_BOUND('',#285,.T.);
#307=FACE_BOUND('',#286,.T.);
#308=FACE_BOUND('',#287,.T.);
#309=FACE_BOUND('',#288,.T.);
#310=FACE_BOUND('',#289,.T.);
#311=FACE_BOUND('',#290,.T.);
#312=FACE_BOUND('',#291,.T.);
#313=B_SPLINE_SURFACE_WITH_KNOTS('',3,1,((#404,#405),(#406,#407),(#408,
#409),(#410,#411)),.SURF_OF_LINEAR_EXTRUSION.,.F.,.F.,.F.,(4,4),(2,2),(0.,
1.),(0.,1.),.PIECEWISE_BEZIER_KNOTS.);
#314=B_SPLINE_SURFACE_WITH_KNOTS('',3,1,((#424,#425),(#426,#427),(#428,
#429),(#430,#431)),.SURF_OF_LINEAR_EXTRUSION.,.F.,.F.,.F.,(4,4),(2,2),(0.,
1.),(0.,1.),.PIECEWISE_BEZIER_KNOTS.);
#315=B_SPLINE_SURFACE_WITH_KNOTS('',3,1,((#441,#442),(#443,#444),(#445,
#446),(#447,#448)),.SURF_OF_LINEAR_EXTRUSION.,.F.,.F.,.F.,(4,4),(2,2),(0.,
1.),(0.,1.),.PIECEWISE_BEZIER_KNOTS.);
#316=B_SPLINE_SURFACE_WITH_KNOTS('',3,1,((#458,#459),(#460,#461),(#462,
#463),(#464,#465)),.SURF_OF_LINEAR_EXTRUSION.,.F.,.F.,.F.,(4,4),(2,2),(0.,
1.),(0.,1.),.PIECEWISE_BEZIER_KNOTS.);
#317=B_SPLINE_SURFACE_WITH_KNOTS('',3,1,((#475,#476),(#477,#478),(#479,
#480),(#481,#482)),.SURF_OF_LINEAR_EXTRUSION.,.F.,.F.,.F.,(4,4),(2,2),(0.,
1.),(0.,1.),.PIECEWISE_BEZIER_KNOTS.);
#318=B_SPLINE_SURFACE_WITH_KNOTS('',3,1,((#492,#493),(#494,#495),(#496,
#497),(#498,#499)),.SURF_OF_LINEAR_EXTRUSION.,.F.,.F.,.F.,(4,4),(2,2),(0.,
1.),(0.,1.),.PIECEWISE_BEZIER_KNOTS.);
#319=B_SPLINE_SURFACE_WITH_KNOTS('',3,1,((#509,#510),(#511,#512),(#513,
#514),(#515,#516)),.SURF_OF_LINEAR_EXTRUSION.,.F.,.F.,.F.,(4,4),(2,2),(0.,
1.),(0.,1.),.PIECEWISE_BEZIER_KNOTS.);
#320=B_SPLINE_SURFACE_WITH_KNOTS('',3,1,((#526,#527),(#528,#529),(#530,
#531),(#532,#533)),.SURF_OF_LINEAR_EXTRUSION.,.F.,.F.,.F.,(4,4),(2,2),(0.,
1.),(0.,1.),.PIECEWISE_BEZIER_KNOTS.);
#321=B_SPLINE_SURFACE_WITH_KNOTS('',3,1,((#546,#547),(#548,#549),(#550,
#551),(#552,#553)),.SURF_OF_LINEAR_EXTRUSION.,.F.,.F.,.F.,(4,4),(2,2),(0.,
1.),(0.,1.),.PIECEWISE_BEZIER_KNOTS.);
#322=B_SPLINE_SURFACE_WITH_KNOTS('',3,1,((#563,#564),(#565,#566),(#567,
#568),(#569,#570)),.SURF_OF_LINEAR_EXTRUSION.,.F.,.F.,.F.,(4,4),(2,2),(0.,
1.),(0.,1.),.PIECEWISE_BEZIER_KNOTS.);
#323=B_SPLINE_SURFACE_WITH_KNOTS('',3,1,((#580,#581),(#582,#583),(#584,
#585),(#586,#587)),.SURF_OF_LINEAR_EXTRUSION.,.F.,.F.,.F.,(4,4),(2,2),(0.,
1.),(0.,1.),.PIECEWISE_BEZIER_KNOTS.);
#324=B_SPLINE_SURFACE_WITH_KNOTS('',3,1,((#597,#598),(#599,#600),(#601,
#602),(#603,#604)),.SURF_OF_LINEAR_EXTRUSION.,.F.,.F.,.F.,(4,4),(2,2),(0.,
1.),(0.,1.),.PIECEWISE_BEZIER_KNOTS.);
#325=B_SPLINE_SURFACE_WITH_KNOTS('',3,1,((#614,#615),(#616,#617),(#618,
#619),(#620,#621)),.SURF_OF_LINEAR_EXTRUSION.,.F.,.F.,.F.,(4,4),(2,2),(0.,
1.),(0.,1.),.PIECEWISE_BEZIER_KNOTS.);
#326=B_SPLINE_SURFACE_WITH_KNOTS('',3,1,((#643,#644),(#645,#646),(#647,
#648),(#649,#650)),.SURF_OF_LINEAR_EXTRUSION.,.F.,.F.,.F.,(4,4),(2,2),(0.,
1.),(0.,1.),.PIECEWISE_BEZIER_KNOTS.);
#327=B_SPLINE_SURFACE_WITH_KNOTS('',3,1,((#657,#658),(#659,#660),(#661,
#662),(#663,#664)),.SURF_OF_LINEAR_EXTRUSION.,.F.,.F.,.F.,(4,4),(2,2),(0.,
1.),(0.,1.),.PIECEWISE_BEZIER_KNOTS.);
#328=ADVANCED_FACE('',(#292),#313,.T.);
#329=ADVANCED_FACE('',(#293),#314,.T.);
#330=ADVANCED_FACE('',(#294),#315,.T.);
#331=ADVANCED_FACE('',(#295),#316,.T.);
#332=ADVANCED_FACE('',(#296),#317,.T.);
#333=ADVANCED_FACE('',(#297),#318,.T.);
#334=ADVANCED_FACE('',(#298),#319,.T.);
#335=ADVANCED_FACE('',(#299),#320,.T.);
#336=ADVANCED_FACE('',(#300),#321,.T.);
#337=ADVANCED_FACE('',(#301),#322,.T.);
#338=ADVANCED_FACE('',(#302),#323,.T.);
#339=ADVANCED_FACE('',(#303),#324,.T.);
#340=ADVANCED_FACE('',(#304),#325,.T.);
#341=ADVANCED_FACE('',(#305),#18,.T.);
#342=ADVANCED_FACE('',(#306),#19,.T.);
#343=ADVANCED_FACE('',(#307),#326,.T.);
#344=ADVANCED_FACE('',(#308),#327,.T.);
#345=ADVANCED_FACE('',(#309,#310),#12,.T.);
#346=ADVANCED_FACE('',(#311,#312),#13,.F.);
#347=CLOSED_SHELL('',(#328,#329,#330,#331,#332,#333,#334,#335,#336,#337,
#338,#339,#340,#341,#342,#343,#344,#345,#346));
#348=STYLED_ITEM('',(#349),#356);
#349=PRESENTATION_STYLE_ASSIGNMENT((#350));
#350=SURFACE_STYLE_USAGE(.BOTH.,#351);
#351=SURFACE_SIDE_STYLE('',(#352));
#352=SURFACE_STYLE_FILL_AREA(#353);
#353=FILL_AREA_STYLE('',(#354));
#354=FILL_AREA_STYLE_COLOUR('',#355);
#355=COLOUR_RGB('',0.325490196078431,0.529411764705882,0.752941176470588);
#356=MANIFOLD_SOLID_BREP('Part 14',#347);
#357=SHAPE_DEFINITION_REPRESENTATION(#679,#358);
#358=SHAPE_REPRESENTATION('Part 14',(#359),#674);
#359=AXIS2_PLACEMENT_3D('',#403,#368,#369);
#360=AXIS2_PLACEMENT_3D('',#631,#385,#386);
#361=AXIS2_PLACEMENT_3D('',#632,#387,#388);
#362=AXIS2_PLACEMENT_3D('',#636,#390,#391);
#363=AXIS2_PLACEMENT_3D('',#637,#392,#393);
#364=AXIS2_PLACEMENT_3D('',#638,#394,#395);
#365=AXIS2_PLACEMENT_3D('',#642,#397,#398);
#366=AXIS2_PLACEMENT_3D('',#671,#399,#400);
#367=AXIS2_PLACEMENT_3D('',#672,#401,#402);
#368=DIRECTION('',(0.,0.,1.));
#369=DIRECTION('',(1.,0.,0.));
#370=DIRECTION('',(0.,0.,-1.));
#371=DIRECTION('',(0.,0.,-1.));
#372=DIRECTION('',(0.,0.,-1.));
#373=DIRECTION('',(0.,0.,-1.));
#374=DIRECTION('',(0.,0.,-1.));
#375=DIRECTION('',(0.,0.,-1.));
#376=DIRECTION('',(0.,0.,-1.));
#377=DIRECTION('',(0.,0.,-1.));
#378=DIRECTION('',(0.,0.,-1.));
#379=DIRECTION('',(0.,0.,-1.));
#380=DIRECTION('',(0.,0.,-1.));
#381=DIRECTION('',(0.,0.,-1.));
#382=DIRECTION('',(0.,0.,-1.));
#383=DIRECTION('',(0.,0.,-1.));
#384=DIRECTION('',(0.,0.,-1.));
#385=DIRECTION('',(0.,0.,-1.));
#386=DIRECTION('',(-0.745061830612287,-0.666995403705804,0.));
#387=DIRECTION('',(0.,0.,-1.));
#388=DIRECTION('',(-1.,0.,0.));
#389=DIRECTION('',(0.,0.,-1.));
#390=DIRECTION('',(0.,0.,-1.));
#391=DIRECTION('',(-1.,0.,0.));
#392=DIRECTION('',(0.,0.,-1.));
#393=DIRECTION('',(-0.260578159722011,-0.96545275527904,0.));
#394=DIRECTION('',(0.,0.,-1.));
#395=DIRECTION('',(-1.,0.,0.));
#396=DIRECTION('',(0.,0.,-1.));
#397=DIRECTION('',(0.,0.,-1.));
#398=DIRECTION('',(-1.,0.,0.));
#399=DIRECTION('',(0.,0.,1.));
#400=DIRECTION('',(1.,0.,0.));
#401=DIRECTION('',(0.,0.,1.));
#402=DIRECTION('',(1.,0.,0.));
#403=CARTESIAN_POINT('',(0.,0.,0.));
#404=CARTESIAN_POINT('',(-0.0345870150443535,0.0222462034376891,0.0232));
#405=CARTESIAN_POINT('',(-0.0345870150443535,0.0222462034376891,0.0222));
#406=CARTESIAN_POINT('',(-0.0345870150443535,0.021911863389234,0.0232));
#407=CARTESIAN_POINT('',(-0.0345870150443535,0.021911863389234,0.0222));
#408=CARTESIAN_POINT('',(-0.0345202233680068,0.0216572916856729,0.0232));
#409=CARTESIAN_POINT('',(-0.0345202233680068,0.0216572916856729,0.0222));
#410=CARTESIAN_POINT('',(-0.0343866400153136,0.0214824883270057,0.0232));
#411=CARTESIAN_POINT('',(-0.0343866400153136,0.0214824883270057,0.0222));
#412=CARTESIAN_POINT('',(-0.0345870150443535,0.0222462034376891,0.0222));
#413=CARTESIAN_POINT('',(-0.0345870150443535,0.0217446933650065,0.0222));
#414=CARTESIAN_POINT('',(-0.0343866400153136,0.0214824883270057,0.0222));
#415=CARTESIAN_POINT('',(-0.0345870150443535,0.0222462034376891,0.0222));
#416=CARTESIAN_POINT('',(-0.0343866400153136,0.0214824883270057,0.0222));
#417=CARTESIAN_POINT('',(-0.0345870150443535,0.0222462034376891,0.0232));
#418=CARTESIAN_POINT('',(-0.0345870150443535,0.0222462034376891,0.0232));
#419=CARTESIAN_POINT('',(-0.0345870150443535,0.0222462034376891,0.0232));
#420=CARTESIAN_POINT('',(-0.0345870150443535,0.0217446933650065,0.0232));
#421=CARTESIAN_POINT('',(-0.0343866400153136,0.0214824883270057,0.0232));
#422=CARTESIAN_POINT('',(-0.0343866400153136,0.0214824883270057,0.0232));
#423=CARTESIAN_POINT('',(-0.0343866400153136,0.0214824883270057,0.0232));
#424=CARTESIAN_POINT('',(-0.0343889300156455,0.0230068652145966,0.0232));
#425=CARTESIAN_POINT('',(-0.0343889300156455,0.0230068652145966,0.0222));
#426=CARTESIAN_POINT('',(-0.0345209867014508,0.0228366418565932,0.0232));
#427=CARTESIAN_POINT('',(-0.0345209867014508,0.0228366418565932,0.0222));
#428=CARTESIAN_POINT('',(-0.0345870150443535,0.0225830879309574,0.0232));
#429=CARTESIAN_POINT('',(-0.0345870150443535,0.0225830879309574,0.0222));
#430=CARTESIAN_POINT('',(-0.0345870150443535,0.0222462034376891,0.0232));
#431=CARTESIAN_POINT('',(-0.0345870150443535,0.0222462034376891,0.0222));
#432=CARTESIAN_POINT('',(-0.0343889300156455,0.0230068652145966,0.0222));
#433=CARTESIAN_POINT('',(-0.0345870150443535,0.0227515301775916,0.0222));
#434=CARTESIAN_POINT('',(-0.0345870150443535,0.0222462034376891,0.0222));
#435=CARTESIAN_POINT('',(-0.0343889300156455,0.0230068652145966,0.0222));
#436=CARTESIAN_POINT('',(-0.0343889300156455,0.0230068652145966,0.0232));
#437=CARTESIAN_POINT('',(-0.0343889300156455,0.0230068652145966,0.0232));
#438=CARTESIAN_POINT('',(-0.0343889300156455,0.0230068652145966,0.0232));
#439=CARTESIAN_POINT('',(-0.0345870150443535,0.0227515301775916,0.0232));
#440=CARTESIAN_POINT('',(-0.0345870150443535,0.0222462034376891,0.0232));
#441=CARTESIAN_POINT('',(-0.0338023082639612,0.0232622002516017,0.0232));
#442=CARTESIAN_POINT('',(-0.0338023082639612,0.0232622002516017,0.0222));
#443=CARTESIAN_POINT('',(-0.0340613327459454,0.0232622002516017,0.0232));
#444=CARTESIAN_POINT('',(-0.0340613327459454,0.0232622002516017,0.0222));
#445=CARTESIAN_POINT('',(-0.0342568733298402,0.0231770885726,0.0232));
#446=CARTESIAN_POINT('',(-0.0342568733298402,0.0231770885726,0.0222));
#447=CARTESIAN_POINT('',(-0.0343889300156455,0.0230068652145966,0.0232));
#448=CARTESIAN_POINT('',(-0.0343889300156455,0.0230068652145966,0.0222));
#449=CARTESIAN_POINT('',(-0.0338023082639612,0.0232622002516017,0.0222));
#450=CARTESIAN_POINT('',(-0.0341908449869375,0.0232622002516017,0.0222));
#451=CARTESIAN_POINT('',(-0.0343889300156455,0.0230068652145966,0.0222));
#452=CARTESIAN_POINT('',(-0.0338023082639612,0.0232622002516017,0.0222));
#453=CARTESIAN_POINT('',(-0.0338023082639612,0.0232622002516017,0.0232));
#454=CARTESIAN_POINT('',(-0.0338023082639612,0.0232622002516017,0.0232));
#455=CARTESIAN_POINT('',(-0.0338023082639612,0.0232622002516017,0.0232));
#456=CARTESIAN_POINT('',(-0.0341908449869375,0.0232622002516017,0.0232));
#457=CARTESIAN_POINT('',(-0.0343889300156455,0.0230068652145966,0.0232));
#458=CARTESIAN_POINT('',(-0.0332069081776713,0.0230034302140988,0.0232));
#459=CARTESIAN_POINT('',(-0.0332069081776713,0.0230034302140988,0.0222));
#460=CARTESIAN_POINT('',(-0.0333412548638085,0.0231759435724341,0.0232));
#461=CARTESIAN_POINT('',(-0.0333412548638085,0.0231759435724341,0.0222));
#462=CARTESIAN_POINT('',(-0.0335397215592385,0.0232622002516017,0.0232));
#463=CARTESIAN_POINT('',(-0.0335397215592385,0.0232622002516017,0.0222));
#464=CARTESIAN_POINT('',(-0.0338023082639612,0.0232622002516017,0.0232));
#465=CARTESIAN_POINT('',(-0.0338023082639612,0.0232622002516017,0.0222));
#466=CARTESIAN_POINT('',(-0.0332069081776713,0.0230034302140988,0.0222));
#467=CARTESIAN_POINT('',(-0.0334084282068771,0.0232622002516017,0.0222));
#468=CARTESIAN_POINT('',(-0.0338023082639612,0.0232622002516017,0.0222));
#469=CARTESIAN_POINT('',(-0.0332069081776713,0.0230034302140988,0.0222));
#470=CARTESIAN_POINT('',(-0.0332069081776713,0.0230034302140988,0.0232));
#471=CARTESIAN_POINT('',(-0.0332069081776713,0.0230034302140988,0.0232));
#472=CARTESIAN_POINT('',(-0.0332069081776713,0.0230034302140988,0.0232));
#473=CARTESIAN_POINT('',(-0.0334084282068771,0.0232622002516017,0.0232));
#474=CARTESIAN_POINT('',(-0.0338023082639612,0.0232622002516017,0.0232));
#475=CARTESIAN_POINT('',(-0.0330053881484655,0.0222462034376891,0.0232));
#476=CARTESIAN_POINT('',(-0.0330053881484655,0.0222462034376891,0.0222));
#477=CARTESIAN_POINT('',(-0.0330053881484655,0.0225785079302936,0.0232));
#478=CARTESIAN_POINT('',(-0.0330053881484655,0.0225785079302936,0.0222));
#479=CARTESIAN_POINT('',(-0.0330725614915341,0.0228309168557635,0.0232));
#480=CARTESIAN_POINT('',(-0.0330725614915341,0.0228309168557635,0.0222));
#481=CARTESIAN_POINT('',(-0.0332069081776713,0.0230034302140988,0.0232));
#482=CARTESIAN_POINT('',(-0.0332069081776713,0.0230034302140988,0.0222));
#483=CARTESIAN_POINT('',(-0.0330053881484655,0.0222462034376891,0.0222));
#484=CARTESIAN_POINT('',(-0.0330053881484655,0.0227446601765959,0.0222));
#485=CARTESIAN_POINT('',(-0.0332069081776713,0.0230034302140988,0.0222));
#486=CARTESIAN_POINT('',(-0.0330053881484655,0.0222462034376891,0.0222));
#487=CARTESIAN_POINT('',(-0.0330053881484655,0.0222462034376891,0.0232));
#488=CARTESIAN_POINT('',(-0.0330053881484655,0.0222462034376891,0.0232));
#489=CARTESIAN_POINT('',(-0.0330053881484655,0.0222462034376891,0.0232));
#490=CARTESIAN_POINT('',(-0.0330053881484655,0.0227446601765959,0.0232));
#491=CARTESIAN_POINT('',(-0.0332069081776713,0.0230034302140988,0.0232));
#492=CARTESIAN_POINT('',(-0.0332069081776713,0.0214813433268398,0.0232));
#493=CARTESIAN_POINT('',(-0.0332069081776713,0.0214813433268398,0.0222));
#494=CARTESIAN_POINT('',(-0.0330725614915341,0.021655383352063,0.0232));
#495=CARTESIAN_POINT('',(-0.0330725614915341,0.021655383352063,0.0222));
#496=CARTESIAN_POINT('',(-0.0330053881484655,0.0219103367223461,0.0232));
#497=CARTESIAN_POINT('',(-0.0330053881484655,0.0219103367223461,0.0222));
#498=CARTESIAN_POINT('',(-0.0330053881484655,0.0222462034376891,0.0232));
#499=CARTESIAN_POINT('',(-0.0330053881484655,0.0222462034376891,0.0222));
#500=CARTESIAN_POINT('',(-0.0332069081776713,0.0214813433268398,0.0222));
#501=CARTESIAN_POINT('',(-0.0330053881484655,0.0217424033646746,0.0222));
#502=CARTESIAN_POINT('',(-0.0330053881484655,0.0222462034376891,0.0222));
#503=CARTESIAN_POINT('',(-0.0332069081776713,0.0214813433268398,0.0222));
#504=CARTESIAN_POINT('',(-0.0332069081776713,0.0214813433268398,0.0232));
#505=CARTESIAN_POINT('',(-0.0332069081776713,0.0214813433268398,0.0232));
#506=CARTESIAN_POINT('',(-0.0332069081776713,0.0214813433268398,0.0232));
#507=CARTESIAN_POINT('',(-0.0330053881484655,0.0217424033646746,0.0232));
#508=CARTESIAN_POINT('',(-0.0330053881484655,0.0222462034376891,0.0232));
#509=CARTESIAN_POINT('',(-0.0337977282632974,0.021220283289005,0.0232));
#510=CARTESIAN_POINT('',(-0.0337977282632974,0.021220283289005,0.0222));
#511=CARTESIAN_POINT('',(-0.0335381948923505,0.021220283289005,0.0232));
#512=CARTESIAN_POINT('',(-0.0335381948923505,0.021220283289005,0.0222));
#513=CARTESIAN_POINT('',(-0.0333412548638085,0.0213073033016166,0.0232));
#514=CARTESIAN_POINT('',(-0.0333412548638085,0.0213073033016166,0.0222));
#515=CARTESIAN_POINT('',(-0.0332069081776713,0.0214813433268398,0.0232));
#516=CARTESIAN_POINT('',(-0.0332069081776713,0.0214813433268398,0.0222));
#517=CARTESIAN_POINT('',(-0.0337977282632974,0.021220283289005,0.0222));
#518=CARTESIAN_POINT('',(-0.0334084282068771,0.021220283289005,0.0222));
#519=CARTESIAN_POINT('',(-0.0332069081776713,0.0214813433268398,0.0222));
#520=CARTESIAN_POINT('',(-0.0337977282632974,0.021220283289005,0.0222));
#521=CARTESIAN_POINT('',(-0.0337977282632974,0.021220283289005,0.0232));
#522=CARTESIAN_POINT('',(-0.0337977282632974,0.021220283289005,0.0232));
#523=CARTESIAN_POINT('',(-0.0337977282632974,0.021220283289005,0.0232));
#524=CARTESIAN_POINT('',(-0.0334084282068771,0.021220283289005,0.0232));
#525=CARTESIAN_POINT('',(-0.0332069081776713,0.0214813433268398,0.0232));
#526=CARTESIAN_POINT('',(-0.0325954780890582,0.0222462034376891,0.0232));
#527=CARTESIAN_POINT('',(-0.0325954780890582,0.0222462034376891,0.0222));
#528=CARTESIAN_POINT('',(-0.0325954780890582,0.021819754486996,0.0232));
#529=CARTESIAN_POINT('',(-0.0325954780890582,0.021819754486996,0.0222));
#530=CARTESIAN_POINT('',(-0.0327027264379348,0.0214868138831882,0.0232));
#531=CARTESIAN_POINT('',(-0.0327027264379348,0.0214868138831882,0.0222));
#532=CARTESIAN_POINT('',(-0.0329172231356879,0.0212473816262656,0.0232));
#533=CARTESIAN_POINT('',(-0.0329172231356879,0.0212473816262656,0.0222));
#534=CARTESIAN_POINT('',(-0.0325954780890582,0.0222462034376891,0.0222));
#535=CARTESIAN_POINT('',(-0.0325954780890582,0.0216065300116494,0.0222));
#536=CARTESIAN_POINT('',(-0.0329172231356879,0.0212473816262656,0.0222));
#537=CARTESIAN_POINT('',(-0.0325954780890582,0.0222462034376891,0.0222));
#538=CARTESIAN_POINT('',(-0.0329172231356879,0.0212473816262656,0.0222));
#539=CARTESIAN_POINT('',(-0.0325954780890582,0.0222462034376891,0.0232));
#540=CARTESIAN_POINT('',(-0.0325954780890582,0.0222462034376891,0.0232));
#541=CARTESIAN_POINT('',(-0.0325954780890582,0.0222462034376891,0.0232));
#542=CARTESIAN_POINT('',(-0.0325954780890582,0.0216065300116494,0.0232));
#543=CARTESIAN_POINT('',(-0.0329172231356879,0.0212473816262656,0.0232));
#544=CARTESIAN_POINT('',(-0.0329172231356879,0.0212473816262656,0.0232));
#545=CARTESIAN_POINT('',(-0.0329172231356879,0.0212473816262656,0.0232));
#546=CARTESIAN_POINT('',(-0.0329187498025759,0.0232335752474531,0.0232));
#547=CARTESIAN_POINT('',(-0.0329187498025759,0.0232335752474531,0.0222));
#548=CARTESIAN_POINT('',(-0.0327032353268975,0.0229900718788294,0.0232));
#549=CARTESIAN_POINT('',(-0.0327032353268975,0.0229900718788294,0.0222));
#550=CARTESIAN_POINT('',(-0.0325954780890582,0.0226609479422414,0.0232));
#551=CARTESIAN_POINT('',(-0.0325954780890582,0.0226609479422414,0.0222));
#552=CARTESIAN_POINT('',(-0.0325954780890582,0.0222462034376891,0.0232));
#553=CARTESIAN_POINT('',(-0.0325954780890582,0.0222462034376891,0.0222));
#554=CARTESIAN_POINT('',(-0.0329187498025759,0.0232335752474531,0.0222));
#555=CARTESIAN_POINT('',(-0.0325954780890582,0.0228683201945176,0.0222));
#556=CARTESIAN_POINT('',(-0.0325954780890582,0.0222462034376891,0.0222));
#557=CARTESIAN_POINT('',(-0.0329187498025759,0.0232335752474531,0.0222));
#558=CARTESIAN_POINT('',(-0.0329187498025759,0.0232335752474531,0.0232));
#559=CARTESIAN_POINT('',(-0.0329187498025759,0.0232335752474531,0.0232));
#560=CARTESIAN_POINT('',(-0.0329187498025759,0.0232335752474531,0.0232));
#561=CARTESIAN_POINT('',(-0.0325954780890582,0.0228683201945176,0.0232));
#562=CARTESIAN_POINT('',(-0.0325954780890582,0.0222462034376891,0.0232));
#563=CARTESIAN_POINT('',(-0.0337900949288578,0.0235988303003887,0.0232));
#564=CARTESIAN_POINT('',(-0.0337900949288578,0.0235988303003887,0.0222));
#565=CARTESIAN_POINT('',(-0.0334247126536816,0.0235988303003887,0.0232));
#566=CARTESIAN_POINT('',(-0.0334247126536816,0.0235988303003887,0.0222));
#567=CARTESIAN_POINT('',(-0.0331342642782543,0.0234770786160768,0.0232));
#568=CARTESIAN_POINT('',(-0.0331342642782543,0.0234770786160768,0.0222));
#569=CARTESIAN_POINT('',(-0.0329187498025759,0.0232335752474531,0.0232));
#570=CARTESIAN_POINT('',(-0.0329187498025759,0.0232335752474531,0.0222));
#571=CARTESIAN_POINT('',(-0.0337900949288578,0.0235988303003887,0.0222));
#572=CARTESIAN_POINT('',(-0.0332420215160936,0.0235988303003887,0.0222));
#573=CARTESIAN_POINT('',(-0.0329187498025759,0.0232335752474531,0.0222));
#574=CARTESIAN_POINT('',(-0.0337900949288578,0.0235988303003887,0.0222));
#575=CARTESIAN_POINT('',(-0.0337900949288578,0.0235988303003887,0.0232));
#576=CARTESIAN_POINT('',(-0.0337900949288578,0.0235988303003887,0.0232));
#577=CARTESIAN_POINT('',(-0.0337900949288578,0.0235988303003887,0.0232));
#578=CARTESIAN_POINT('',(-0.0332420215160936,0.0235988303003887,0.0232));
#579=CARTESIAN_POINT('',(-0.0329187498025759,0.0232335752474531,0.0232));
#580=CARTESIAN_POINT('',(-0.0346778517241848,0.0232419719153367,0.0232));
#581=CARTESIAN_POINT('',(-0.0346778517241848,0.0232419719153367,0.0222));
#582=CARTESIAN_POINT('',(-0.0344646272488383,0.0234798775053713,0.0232));
#583=CARTESIAN_POINT('',(-0.0344646272488383,0.0234798775053713,0.0222));
#584=CARTESIAN_POINT('',(-0.0341687083170626,0.0235988303003887,0.0232));
#585=CARTESIAN_POINT('',(-0.0341687083170626,0.0235988303003887,0.0222));
#586=CARTESIAN_POINT('',(-0.0337900949288578,0.0235988303003887,0.0232));
#587=CARTESIAN_POINT('',(-0.0337900949288578,0.0235988303003887,0.0222));
#588=CARTESIAN_POINT('',(-0.0346778517241848,0.0232419719153367,0.0222));
#589=CARTESIAN_POINT('',(-0.034358015011165,0.0235988303003887,0.0222));
#590=CARTESIAN_POINT('',(-0.0337900949288578,0.0235988303003887,0.0222));
#591=CARTESIAN_POINT('',(-0.0346778517241848,0.0232419719153367,0.0222));
#592=CARTESIAN_POINT('',(-0.0346778517241848,0.0232419719153367,0.0232));
#593=CARTESIAN_POINT('',(-0.0346778517241848,0.0232419719153367,0.0232));
#594=CARTESIAN_POINT('',(-0.0346778517241848,0.0232419719153367,0.0232));
#595=CARTESIAN_POINT('',(-0.034358015011165,0.0235988303003887,0.0232));
#596=CARTESIAN_POINT('',(-0.0337900949288578,0.0235988303003887,0.0232));
#597=CARTESIAN_POINT('',(-0.0349976884372047,0.0222462034376891,0.0232));
#598=CARTESIAN_POINT('',(-0.0349976884372047,0.0222462034376891,0.0222));
#599=CARTESIAN_POINT('',(-0.0349976884372047,0.0226721434994195,0.0232));
#600=CARTESIAN_POINT('',(-0.0349976884372047,0.0226721434994195,0.0222));
#601=CARTESIAN_POINT('',(-0.0348910761995314,0.0230040663253021,0.0232));
#602=CARTESIAN_POINT('',(-0.0348910761995314,0.0230040663253021,0.0222));
#603=CARTESIAN_POINT('',(-0.0346778517241848,0.0232419719153367,0.0232));
#604=CARTESIAN_POINT('',(-0.0346778517241848,0.0232419719153367,0.0222));
#605=CARTESIAN_POINT('',(-0.0349976884372047,0.0222462034376891,0.0222));
#606=CARTESIAN_POINT('',(-0.0349976884372047,0.0228851135302847,0.0222));
#607=CARTESIAN_POINT('',(-0.0346778517241848,0.0232419719153367,0.0222));
#608=CARTESIAN_POINT('',(-0.0349976884372047,0.0222462034376891,0.0222));
#609=CARTESIAN_POINT('',(-0.0349976884372047,0.0222462034376891,0.0232));
#610=CARTESIAN_POINT('',(-0.0349976884372047,0.0222462034376891,0.0232));
#611=CARTESIAN_POINT('',(-0.0349976884372047,0.0222462034376891,0.0232));
#612=CARTESIAN_POINT('',(-0.0349976884372047,0.0228851135302847,0.0232));
#613=CARTESIAN_POINT('',(-0.0346778517241848,0.0232419719153367,0.0232));
#614=CARTESIAN_POINT('',(-0.0348496017490762,0.0215256166665895,0.0232));
#615=CARTESIAN_POINT('',(-0.0348496017490762,0.0215256166665895,0.0222));
#616=CARTESIAN_POINT('',(-0.0349483262078285,0.0217306989185339,0.0232));
#617=CARTESIAN_POINT('',(-0.0349483262078285,0.0217306989185339,0.0222));
#618=CARTESIAN_POINT('',(-0.0349976884372047,0.0219708945089004,0.0232));
#619=CARTESIAN_POINT('',(-0.0349976884372047,0.0219708945089004,0.0222));
#620=CARTESIAN_POINT('',(-0.0349976884372047,0.0222462034376891,0.0232));
#621=CARTESIAN_POINT('',(-0.0349976884372047,0.0222462034376891,0.0222));
#622=CARTESIAN_POINT('',(-0.0348496017490762,0.0215256166665895,0.0222));
#623=CARTESIAN_POINT('',(-0.0349976884372047,0.021833240044506,0.0222));
#624=CARTESIAN_POINT('',(-0.0349976884372047,0.0222462034376891,0.0222));
#625=CARTESIAN_POINT('',(-0.0348496017490762,0.0215256166665895,0.0222));
#626=CARTESIAN_POINT('',(-0.0348496017490762,0.0215256166665895,0.0232));
#627=CARTESIAN_POINT('',(-0.0348496017490762,0.0215256166665895,0.0232));
#628=CARTESIAN_POINT('',(-0.0348496017490762,0.0215256166665895,0.0232));
#629=CARTESIAN_POINT('',(-0.0349976884372047,0.021833240044506,0.0232));
#630=CARTESIAN_POINT('',(-0.0349976884372047,0.0222462034376891,0.0232));
#631=CARTESIAN_POINT('',(-0.0338591543515691,0.0219801028054375,0.0232));
#632=CARTESIAN_POINT('',(-0.0338591543515691,0.0219801028054375,0.0222));
#633=CARTESIAN_POINT('',(-0.0344299443749819,0.0210528225902855,0.0222));
#634=CARTESIAN_POINT('',(-0.0344297683548974,0.0210531132647775,0.0232));
#635=CARTESIAN_POINT('',(-0.0344299443749819,0.0210528225902855,0.0232));
#636=CARTESIAN_POINT('',(-0.0338591543515691,0.0219801028054375,0.0232));
#637=CARTESIAN_POINT('',(-0.0338315134240808,0.0220656468700833,0.0232));
#638=CARTESIAN_POINT('',(-0.0338315134240808,0.0220656468700833,0.0222));
#639=CARTESIAN_POINT('',(-0.033806888264625,0.0208882332408818,0.0222));
#640=CARTESIAN_POINT('',(-0.033806888264625,0.0208882332408818,0.0232));
#641=CARTESIAN_POINT('',(-0.033806888264625,0.0208882332408818,0.0232));
#642=CARTESIAN_POINT('',(-0.0338315134240808,0.0220656468700833,0.0232));
#643=CARTESIAN_POINT('',(-0.0329172231356879,0.0212473816262656,0.0232));
#644=CARTESIAN_POINT('',(-0.0329172231356879,0.0212473816262656,0.0222));
#645=CARTESIAN_POINT('',(-0.0331317198334411,0.0210079493693431,0.0232));
#646=CARTESIAN_POINT('',(-0.0331317198334411,0.0210079493693431,0.0222));
#647=CARTESIAN_POINT('',(-0.0334282748764201,0.0208882332408818,0.0232));
#648=CARTESIAN_POINT('',(-0.0334282748764201,0.0208882332408818,0.0222));
#649=CARTESIAN_POINT('',(-0.033806888264625,0.0208882332408818,0.0232));
#650=CARTESIAN_POINT('',(-0.033806888264625,0.0208882332408818,0.0222));
#651=CARTESIAN_POINT('',(-0.0329172231356879,0.0212473816262656,0.0222));
#652=CARTESIAN_POINT('',(-0.0332389681823177,0.0208882332408818,0.0222));
#653=CARTESIAN_POINT('',(-0.033806888264625,0.0208882332408818,0.0222));
#654=CARTESIAN_POINT('',(-0.0329172231356879,0.0212473816262656,0.0232));
#655=CARTESIAN_POINT('',(-0.0332389681823177,0.0208882332408818,0.0232));
#656=CARTESIAN_POINT('',(-0.033806888264625,0.0208882332408818,0.0232));
#657=CARTESIAN_POINT('',(-0.0343866400153136,0.0214824883270057,0.0232));
#658=CARTESIAN_POINT('',(-0.0343866400153136,0.0214824883270057,0.0222));
#659=CARTESIAN_POINT('',(-0.0342530566626204,0.0213076849683386,0.0232));
#660=CARTESIAN_POINT('',(-0.0342530566626204,0.0213076849683386,0.0222));
#661=CARTESIAN_POINT('',(-0.0340567527452816,0.021220283289005,0.0232));
#662=CARTESIAN_POINT('',(-0.0340567527452816,0.021220283289005,0.0222));
#663=CARTESIAN_POINT('',(-0.0337977282632974,0.021220283289005,0.0232));
#664=CARTESIAN_POINT('',(-0.0337977282632974,0.021220283289005,0.0222));
#665=CARTESIAN_POINT('',(-0.0343866400153136,0.0214824883270057,0.0222));
#666=CARTESIAN_POINT('',(-0.0341862649862738,0.021220283289005,0.0222));
#667=CARTESIAN_POINT('',(-0.0337977282632974,0.021220283289005,0.0222));
#668=CARTESIAN_POINT('',(-0.0343866400153136,0.0214824883270057,0.0232));
#669=CARTESIAN_POINT('',(-0.0341862649862738,0.021220283289005,0.0232));
#670=CARTESIAN_POINT('',(-0.0337977282632974,0.021220283289005,0.0232));
#671=CARTESIAN_POINT('',(-0.035336010574676,0.0221931616239257,0.0232));
#672=CARTESIAN_POINT('',(-0.035336010574676,0.0221931616239257,0.0222));
#673=MECHANICAL_DESIGN_GEOMETRIC_PRESENTATION_REPRESENTATION('',(#348),
#674);
#674=(
GEOMETRIC_REPRESENTATION_CONTEXT(3)
GLOBAL_UNCERTAINTY_ASSIGNED_CONTEXT((#675))
GLOBAL_UNIT_ASSIGNED_CONTEXT((#678,#677,#676))
REPRESENTATION_CONTEXT('Part 14','TOP_LEVEL_ASSEMBLY_PART')
);
#675=UNCERTAINTY_MEASURE_WITH_UNIT(LENGTH_MEASURE(2.E-5),#678,
'DISTANCE_ACCURACY_VALUE','Maximum Tolerance applied to model');
#676=(
NAMED_UNIT(*)
SI_UNIT($,.STERADIAN.)
SOLID_ANGLE_UNIT()
);
#677=(
NAMED_UNIT(*)
PLANE_ANGLE_UNIT()
SI_UNIT($,.RADIAN.)
);
#678=(
LENGTH_UNIT()
NAMED_UNIT(*)
SI_UNIT($,.METRE.)
);
#679=PRODUCT_DEFINITION_SHAPE('','',#680);
#680=PRODUCT_DEFINITION('','',#682,#681);
#681=PRODUCT_DEFINITION_CONTEXT('',#688,'design');
#682=PRODUCT_DEFINITION_FORMATION_WITH_SPECIFIED_SOURCE('','',#684,
 .NOT_KNOWN.);
#683=PRODUCT_RELATED_PRODUCT_CATEGORY('','',(#684));
#684=PRODUCT('Part 14','Part 14','Part 14',(#686));
#685=PRODUCT_CATEGORY('','');
#686=PRODUCT_CONTEXT('',#688,'mechanical');
#687=APPLICATION_PROTOCOL_DEFINITION('international standard',
'ap242_managed_model_based_3d_engineering',2020,#688);
#688=APPLICATION_CONTEXT('managed model based 3d engineering');
ENDSEC;
END-ISO-10303-21;
