ISO-10303-21;
HEADER;
/* Generated by software containing ST-Developer
 * from STEP Tools, Inc. (www.steptools.com) 
 */
/* OPTION: using custom renumber hook */

FILE_DESCRIPTION(
/* description */ ('STEP AP242 Edition 2',
'CAx-IF Rec.Pracs.---Representation and Presentation of Product Manufa
cturing Information (PMI)---4.0---2014-10-13',
'CAx-IF Rec.Pracs.---3D Tessellated Geometry---0.4---2014-09-14','2;1',
'CAx-IF Rec.Pracs.---User Defined Attributes---1.5---2016-08-15'),
/* implementation_level */ '2;1');

FILE_NAME(
/* name */ 'Part Studio 1 - Part 15',
/* time_stamp */ '2026-09-06T11:57:17Z',
/* author */ (''),
/* organization */ (''),
/* preprocessor_version */ 'ST-DEVELOPER v20',
/* originating_system */ 'ONSHAPE BY PTC INC, 1.220',
/* authorisation */ '  ');

FILE_SCHEMA (('AP242_MANAGED_MODEL_BASED_3D_ENGINEERING_MIM_LF { 1 0 10303 442 3 1 4 }'));
ENDSEC;

DATA;
#10=SHAPE_REPRESENTATION_RELATIONSHIP('','',#505,#11);
#11=ADVANCED_BREP_SHAPE_REPRESENTATION('',(#503),#907);
#12=PLANE('',#510);
#13=PLANE('',#517);
#14=PLANE('',#518);
#15=PLANE('',#519);
#16=PLANE('',#520);
#17=PLANE('',#521);
#18=PLANE('',#525);
#19=PLANE('',#529);
#20=PLANE('',#530);
#21=CIRCLE('',#508,0.000609958689334298);
#22=CIRCLE('',#509,0.000609958689334298);
#23=CIRCLE('',#512,0.00113231081281319);
#24=CIRCLE('',#513,0.00113231081281319);
#25=CIRCLE('',#515,0.00108259375634914);
#26=CIRCLE('',#516,0.00108259375634914);
#27=CIRCLE('',#523,0.00346760516590024);
#28=CIRCLE('',#524,0.00346760516590024);
#29=CIRCLE('',#527,0.000872375402438742);
#30=CIRCLE('',#528,0.000872375402438742);
#31=CYLINDRICAL_SURFACE('',#507,0.000609958689334298);
#32=CYLINDRICAL_SURFACE('',#511,0.00113231081281319);
#33=CYLINDRICAL_SURFACE('',#514,0.00108259375634914);
#34=CYLINDRICAL_SURFACE('',#522,0.00346760516590024);
#35=CYLINDRICAL_SURFACE('',#526,0.000872375402438742);
#36=LINE('',#633,#74);
#37=LINE('',#639,#75);
#38=LINE('',#652,#76);
#39=LINE('',#669,#77);
#40=LINE('',#686,#78);
#41=LINE('',#694,#79);
#42=LINE('',#709,#80);
#43=LINE('',#726,#81);
#44=LINE('',#732,#82);
#45=LINE('',#734,#83);
#46=LINE('',#736,#84);
#47=LINE('',#741,#85);
#48=LINE('',#745,#86);
#49=LINE('',#758,#87);
#50=LINE('',#775,#88);
#51=LINE('',#792,#89);
#52=LINE('',#809,#90);
#53=LINE('',#817,#91);
#54=LINE('',#836,#92);
#55=LINE('',#846,#93);
#56=LINE('',#848,#94);
#57=LINE('',#850,#95);
#58=LINE('',#852,#96);
#59=LINE('',#854,#97);
#60=LINE('',#856,#98);
#61=LINE('',#858,#99);
#62=LINE('',#860,#100);
#63=LINE('',#862,#101);
#64=LINE('',#864,#102);
#65=LINE('',#866,#103);
#66=LINE('',#868,#104);
#67=LINE('',#870,#105);
#68=LINE('',#872,#106);
#69=LINE('',#874,#107);
#70=LINE('',#878,#108);
#71=LINE('',#882,#109);
#72=LINE('',#884,#110);
#73=LINE('',#886,#111);
#74=VECTOR('',#533,1.);
#75=VECTOR('',#534,1.);
#76=VECTOR('',#535,1.);
#77=VECTOR('',#536,1.);
#78=VECTOR('',#537,1.);
#79=VECTOR('',#542,1.);
#80=VECTOR('',#545,1.);
#81=VECTOR('',#546,1.);
#82=VECTOR('',#549,1.);
#83=VECTOR('',#550,1.);
#84=VECTOR('',#551,1.);
#85=VECTOR('',#556,1.);
#86=VECTOR('',#559,1.);
#87=VECTOR('',#560,1.);
#88=VECTOR('',#561,1.);
#89=VECTOR('',#562,1.);
#90=VECTOR('',#563,1.);
#91=VECTOR('',#568,1.);
#92=VECTOR('',#571,1.);
#93=VECTOR('',#574,1.);
#94=VECTOR('',#575,1.);
#95=VECTOR('',#576,1.);
#96=VECTOR('',#579,1.);
#97=VECTOR('',#580,1.);
#98=VECTOR('',#581,1.);
#99=VECTOR('',#584,1.);
#100=VECTOR('',#585,1.);
#101=VECTOR('',#586,1.);
#102=VECTOR('',#589,1.);
#103=VECTOR('',#590,1.);
#104=VECTOR('',#591,1.);
#105=VECTOR('',#594,1.);
#106=VECTOR('',#595,1.);
#107=VECTOR('',#596,1.);
#108=VECTOR('',#601,1.);
#109=VECTOR('',#606,1.);
#110=VECTOR('',#607,1.);
#111=VECTOR('',#608,1.);
#112=ORIENTED_EDGE('',*,*,#256,.F.);
#113=ORIENTED_EDGE('',*,*,#257,.F.);
#114=ORIENTED_EDGE('',*,*,#258,.T.);
#115=ORIENTED_EDGE('',*,*,#259,.T.);
#116=ORIENTED_EDGE('',*,*,#260,.F.);
#117=ORIENTED_EDGE('',*,*,#261,.F.);
#118=ORIENTED_EDGE('',*,*,#262,.T.);
#119=ORIENTED_EDGE('',*,*,#257,.T.);
#120=ORIENTED_EDGE('',*,*,#263,.F.);
#121=ORIENTED_EDGE('',*,*,#264,.F.);
#122=ORIENTED_EDGE('',*,*,#265,.T.);
#123=ORIENTED_EDGE('',*,*,#261,.T.);
#124=ORIENTED_EDGE('',*,*,#266,.F.);
#125=ORIENTED_EDGE('',*,*,#267,.F.);
#126=ORIENTED_EDGE('',*,*,#268,.T.);
#127=ORIENTED_EDGE('',*,*,#264,.T.);
#128=ORIENTED_EDGE('',*,*,#269,.F.);
#129=ORIENTED_EDGE('',*,*,#270,.F.);
#130=ORIENTED_EDGE('',*,*,#271,.T.);
#131=ORIENTED_EDGE('',*,*,#267,.T.);
#132=ORIENTED_EDGE('',*,*,#272,.F.);
#133=ORIENTED_EDGE('',*,*,#273,.F.);
#134=ORIENTED_EDGE('',*,*,#274,.T.);
#135=ORIENTED_EDGE('',*,*,#270,.T.);
#136=ORIENTED_EDGE('',*,*,#275,.F.);
#137=ORIENTED_EDGE('',*,*,#276,.F.);
#138=ORIENTED_EDGE('',*,*,#277,.T.);
#139=ORIENTED_EDGE('',*,*,#273,.T.);
#140=ORIENTED_EDGE('',*,*,#278,.F.);
#141=ORIENTED_EDGE('',*,*,#279,.F.);
#142=ORIENTED_EDGE('',*,*,#280,.T.);
#143=ORIENTED_EDGE('',*,*,#276,.T.);
#144=ORIENTED_EDGE('',*,*,#281,.F.);
#145=ORIENTED_EDGE('',*,*,#282,.F.);
#146=ORIENTED_EDGE('',*,*,#283,.T.);
#147=ORIENTED_EDGE('',*,*,#284,.T.);
#148=ORIENTED_EDGE('',*,*,#285,.F.);
#149=ORIENTED_EDGE('',*,*,#286,.F.);
#150=ORIENTED_EDGE('',*,*,#287,.T.);
#151=ORIENTED_EDGE('',*,*,#282,.T.);
#152=ORIENTED_EDGE('',*,*,#288,.F.);
#153=ORIENTED_EDGE('',*,*,#289,.F.);
#154=ORIENTED_EDGE('',*,*,#290,.T.);
#155=ORIENTED_EDGE('',*,*,#286,.T.);
#156=ORIENTED_EDGE('',*,*,#291,.F.);
#157=ORIENTED_EDGE('',*,*,#292,.F.);
#158=ORIENTED_EDGE('',*,*,#293,.T.);
#159=ORIENTED_EDGE('',*,*,#289,.T.);
#160=ORIENTED_EDGE('',*,*,#294,.F.);
#161=ORIENTED_EDGE('',*,*,#295,.F.);
#162=ORIENTED_EDGE('',*,*,#296,.T.);
#163=ORIENTED_EDGE('',*,*,#292,.T.);
#164=ORIENTED_EDGE('',*,*,#297,.F.);
#165=ORIENTED_EDGE('',*,*,#298,.F.);
#166=ORIENTED_EDGE('',*,*,#299,.T.);
#167=ORIENTED_EDGE('',*,*,#295,.T.);
#168=ORIENTED_EDGE('',*,*,#300,.F.);
#169=ORIENTED_EDGE('',*,*,#301,.F.);
#170=ORIENTED_EDGE('',*,*,#302,.T.);
#171=ORIENTED_EDGE('',*,*,#298,.T.);
#172=ORIENTED_EDGE('',*,*,#303,.F.);
#173=ORIENTED_EDGE('',*,*,#304,.F.);
#174=ORIENTED_EDGE('',*,*,#305,.T.);
#175=ORIENTED_EDGE('',*,*,#301,.T.);
#176=ORIENTED_EDGE('',*,*,#306,.F.);
#177=ORIENTED_EDGE('',*,*,#307,.F.);
#178=ORIENTED_EDGE('',*,*,#308,.T.);
#179=ORIENTED_EDGE('',*,*,#304,.T.);
#180=ORIENTED_EDGE('',*,*,#309,.F.);
#181=ORIENTED_EDGE('',*,*,#310,.F.);
#182=ORIENTED_EDGE('',*,*,#311,.T.);
#183=ORIENTED_EDGE('',*,*,#307,.T.);
#184=ORIENTED_EDGE('',*,*,#312,.F.);
#185=ORIENTED_EDGE('',*,*,#313,.F.);
#186=ORIENTED_EDGE('',*,*,#314,.T.);
#187=ORIENTED_EDGE('',*,*,#310,.T.);
#188=ORIENTED_EDGE('',*,*,#315,.F.);
#189=ORIENTED_EDGE('',*,*,#316,.F.);
#190=ORIENTED_EDGE('',*,*,#317,.T.);
#191=ORIENTED_EDGE('',*,*,#313,.T.);
#192=ORIENTED_EDGE('',*,*,#318,.F.);
#193=ORIENTED_EDGE('',*,*,#319,.F.);
#194=ORIENTED_EDGE('',*,*,#320,.T.);
#195=ORIENTED_EDGE('',*,*,#316,.T.);
#196=ORIENTED_EDGE('',*,*,#321,.F.);
#197=ORIENTED_EDGE('',*,*,#322,.F.);
#198=ORIENTED_EDGE('',*,*,#323,.T.);
#199=ORIENTED_EDGE('',*,*,#319,.T.);
#200=ORIENTED_EDGE('',*,*,#324,.F.);
#201=ORIENTED_EDGE('',*,*,#284,.F.);
#202=ORIENTED_EDGE('',*,*,#325,.T.);
#203=ORIENTED_EDGE('',*,*,#322,.T.);
#204=ORIENTED_EDGE('',*,*,#326,.F.);
#205=ORIENTED_EDGE('',*,*,#259,.F.);
#206=ORIENTED_EDGE('',*,*,#327,.T.);
#207=ORIENTED_EDGE('',*,*,#279,.T.);
#208=ORIENTED_EDGE('',*,*,#283,.F.);
#209=ORIENTED_EDGE('',*,*,#287,.F.);
#210=ORIENTED_EDGE('',*,*,#290,.F.);
#211=ORIENTED_EDGE('',*,*,#293,.F.);
#212=ORIENTED_EDGE('',*,*,#296,.F.);
#213=ORIENTED_EDGE('',*,*,#299,.F.);
#214=ORIENTED_EDGE('',*,*,#302,.F.);
#215=ORIENTED_EDGE('',*,*,#305,.F.);
#216=ORIENTED_EDGE('',*,*,#308,.F.);
#217=ORIENTED_EDGE('',*,*,#311,.F.);
#218=ORIENTED_EDGE('',*,*,#314,.F.);
#219=ORIENTED_EDGE('',*,*,#317,.F.);
#220=ORIENTED_EDGE('',*,*,#320,.F.);
#221=ORIENTED_EDGE('',*,*,#323,.F.);
#222=ORIENTED_EDGE('',*,*,#325,.F.);
#223=ORIENTED_EDGE('',*,*,#258,.F.);
#224=ORIENTED_EDGE('',*,*,#262,.F.);
#225=ORIENTED_EDGE('',*,*,#265,.F.);
#226=ORIENTED_EDGE('',*,*,#268,.F.);
#227=ORIENTED_EDGE('',*,*,#271,.F.);
#228=ORIENTED_EDGE('',*,*,#274,.F.);
#229=ORIENTED_EDGE('',*,*,#277,.F.);
#230=ORIENTED_EDGE('',*,*,#280,.F.);
#231=ORIENTED_EDGE('',*,*,#327,.F.);
#232=ORIENTED_EDGE('',*,*,#281,.T.);
#233=ORIENTED_EDGE('',*,*,#324,.T.);
#234=ORIENTED_EDGE('',*,*,#321,.T.);
#235=ORIENTED_EDGE('',*,*,#318,.T.);
#236=ORIENTED_EDGE('',*,*,#315,.T.);
#237=ORIENTED_EDGE('',*,*,#312,.T.);
#238=ORIENTED_EDGE('',*,*,#309,.T.);
#239=ORIENTED_EDGE('',*,*,#306,.T.);
#240=ORIENTED_EDGE('',*,*,#303,.T.);
#241=ORIENTED_EDGE('',*,*,#300,.T.);
#242=ORIENTED_EDGE('',*,*,#297,.T.);
#243=ORIENTED_EDGE('',*,*,#294,.T.);
#244=ORIENTED_EDGE('',*,*,#291,.T.);
#245=ORIENTED_EDGE('',*,*,#288,.T.);
#246=ORIENTED_EDGE('',*,*,#285,.T.);
#247=ORIENTED_EDGE('',*,*,#256,.T.);
#248=ORIENTED_EDGE('',*,*,#326,.T.);
#249=ORIENTED_EDGE('',*,*,#278,.T.);
#250=ORIENTED_EDGE('',*,*,#275,.T.);
#251=ORIENTED_EDGE('',*,*,#272,.T.);
#252=ORIENTED_EDGE('',*,*,#269,.T.);
#253=ORIENTED_EDGE('',*,*,#266,.T.);
#254=ORIENTED_EDGE('',*,*,#263,.T.);
#255=ORIENTED_EDGE('',*,*,#260,.T.);
#256=EDGE_CURVE('',#328,#329,#376,.T.);
#257=EDGE_CURVE('',#330,#328,#36,.T.);
#258=EDGE_CURVE('',#330,#331,#377,.T.);
#259=EDGE_CURVE('',#331,#329,#37,.T.);
#260=EDGE_CURVE('',#332,#328,#378,.T.);
#261=EDGE_CURVE('',#333,#332,#38,.T.);
#262=EDGE_CURVE('',#333,#330,#379,.T.);
#263=EDGE_CURVE('',#334,#332,#380,.T.);
#264=EDGE_CURVE('',#335,#334,#39,.T.);
#265=EDGE_CURVE('',#335,#333,#381,.T.);
#266=EDGE_CURVE('',#336,#334,#382,.T.);
#267=EDGE_CURVE('',#337,#336,#40,.T.);
#268=EDGE_CURVE('',#337,#335,#383,.T.);
#269=EDGE_CURVE('',#338,#336,#21,.F.);
#270=EDGE_CURVE('',#339,#338,#41,.T.);
#271=EDGE_CURVE('',#339,#337,#22,.F.);
#272=EDGE_CURVE('',#340,#338,#384,.T.);
#273=EDGE_CURVE('',#341,#340,#42,.T.);
#274=EDGE_CURVE('',#341,#339,#385,.T.);
#275=EDGE_CURVE('',#342,#340,#386,.T.);
#276=EDGE_CURVE('',#343,#342,#43,.T.);
#277=EDGE_CURVE('',#343,#341,#387,.T.);
#278=EDGE_CURVE('',#344,#342,#44,.T.);
#279=EDGE_CURVE('',#345,#344,#45,.T.);
#280=EDGE_CURVE('',#345,#343,#46,.T.);
#281=EDGE_CURVE('',#346,#347,#23,.T.);
#282=EDGE_CURVE('',#348,#346,#47,.T.);
#283=EDGE_CURVE('',#348,#349,#24,.T.);
#284=EDGE_CURVE('',#349,#347,#48,.T.);
#285=EDGE_CURVE('',#350,#346,#388,.T.);
#286=EDGE_CURVE('',#351,#350,#49,.T.);
#287=EDGE_CURVE('',#351,#348,#389,.T.);
#288=EDGE_CURVE('',#352,#350,#390,.T.);
#289=EDGE_CURVE('',#353,#352,#50,.T.);
#290=EDGE_CURVE('',#353,#351,#391,.T.);
#291=EDGE_CURVE('',#354,#352,#392,.T.);
#292=EDGE_CURVE('',#355,#354,#51,.T.);
#293=EDGE_CURVE('',#355,#353,#393,.T.);
#294=EDGE_CURVE('',#356,#354,#394,.T.);
#295=EDGE_CURVE('',#357,#356,#52,.T.);
#296=EDGE_CURVE('',#357,#355,#395,.T.);
#297=EDGE_CURVE('',#358,#356,#25,.T.);
#298=EDGE_CURVE('',#359,#358,#53,.T.);
#299=EDGE_CURVE('',#359,#357,#26,.T.);
#300=EDGE_CURVE('',#360,#358,#396,.T.);
#301=EDGE_CURVE('',#361,#360,#54,.T.);
#302=EDGE_CURVE('',#361,#359,#397,.T.);
#303=EDGE_CURVE('',#362,#360,#55,.T.);
#304=EDGE_CURVE('',#363,#362,#56,.T.);
#305=EDGE_CURVE('',#363,#361,#57,.T.);
#306=EDGE_CURVE('',#364,#362,#58,.T.);
#307=EDGE_CURVE('',#365,#364,#59,.T.);
#308=EDGE_CURVE('',#365,#363,#60,.T.);
#309=EDGE_CURVE('',#366,#364,#61,.T.);
#310=EDGE_CURVE('',#367,#366,#62,.T.);
#311=EDGE_CURVE('',#367,#365,#63,.T.);
#312=EDGE_CURVE('',#368,#366,#64,.T.);
#313=EDGE_CURVE('',#369,#368,#65,.T.);
#314=EDGE_CURVE('',#369,#367,#66,.T.);
#315=EDGE_CURVE('',#370,#368,#67,.T.);
#316=EDGE_CURVE('',#371,#370,#68,.T.);
#317=EDGE_CURVE('',#371,#369,#69,.T.);
#318=EDGE_CURVE('',#372,#370,#27,.T.);
#319=EDGE_CURVE('',#373,#372,#70,.T.);
#320=EDGE_CURVE('',#373,#371,#28,.T.);
#321=EDGE_CURVE('',#374,#372,#71,.T.);
#322=EDGE_CURVE('',#375,#374,#72,.T.);
#323=EDGE_CURVE('',#375,#373,#73,.T.);
#324=EDGE_CURVE('',#347,#374,#29,.T.);
#325=EDGE_CURVE('',#349,#375,#30,.T.);
#326=EDGE_CURVE('',#329,#344,#398,.T.);
#327=EDGE_CURVE('',#331,#345,#399,.T.);
#328=VERTEX_POINT('',#631);
#329=VERTEX_POINT('',#632);
#330=VERTEX_POINT('',#634);
#331=VERTEX_POINT('',#638);
#332=VERTEX_POINT('',#651);
#333=VERTEX_POINT('',#653);
#334=VERTEX_POINT('',#668);
#335=VERTEX_POINT('',#670);
#336=VERTEX_POINT('',#685);
#337=VERTEX_POINT('',#687);
#338=VERTEX_POINT('',#693);
#339=VERTEX_POINT('',#695);
#340=VERTEX_POINT('',#708);
#341=VERTEX_POINT('',#710);
#342=VERTEX_POINT('',#725);
#343=VERTEX_POINT('',#727);
#344=VERTEX_POINT('',#733);
#345=VERTEX_POINT('',#735);
#346=VERTEX_POINT('',#739);
#347=VERTEX_POINT('',#740);
#348=VERTEX_POINT('',#742);
#349=VERTEX_POINT('',#744);
#350=VERTEX_POINT('',#757);
#351=VERTEX_POINT('',#759);
#352=VERTEX_POINT('',#774);
#353=VERTEX_POINT('',#776);
#354=VERTEX_POINT('',#791);
#355=VERTEX_POINT('',#793);
#356=VERTEX_POINT('',#808);
#357=VERTEX_POINT('',#810);
#358=VERTEX_POINT('',#816);
#359=VERTEX_POINT('',#818);
#360=VERTEX_POINT('',#835);
#361=VERTEX_POINT('',#837);
#362=VERTEX_POINT('',#847);
#363=VERTEX_POINT('',#849);
#364=VERTEX_POINT('',#853);
#365=VERTEX_POINT('',#855);
#366=VERTEX_POINT('',#859);
#367=VERTEX_POINT('',#861);
#368=VERTEX_POINT('',#865);
#369=VERTEX_POINT('',#867);
#370=VERTEX_POINT('',#871);
#371=VERTEX_POINT('',#873);
#372=VERTEX_POINT('',#877);
#373=VERTEX_POINT('',#879);
#374=VERTEX_POINT('',#883);
#375=VERTEX_POINT('',#885);
#376=B_SPLINE_CURVE_WITH_KNOTS('',2,(#628,#629,#630),.UNSPECIFIED.,.F.,
 .F.,(3,3),(0.,1.),.PIECEWISE_BEZIER_KNOTS.);
#377=B_SPLINE_CURVE_WITH_KNOTS('',2,(#635,#636,#637),.UNSPECIFIED.,.F.,
 .F.,(3,3),(0.,1.),.PIECEWISE_BEZIER_KNOTS.);
#378=B_SPLINE_CURVE_WITH_KNOTS('',2,(#648,#649,#650),.UNSPECIFIED.,.F.,
 .F.,(3,3),(0.,1.),.PIECEWISE_BEZIER_KNOTS.);
#379=B_SPLINE_CURVE_WITH_KNOTS('',2,(#654,#655,#656),.UNSPECIFIED.,.F.,
 .F.,(3,3),(0.,1.),.PIECEWISE_BEZIER_KNOTS.);
#380=B_SPLINE_CURVE_WITH_KNOTS('',2,(#665,#666,#667),.UNSPECIFIED.,.F.,
 .F.,(3,3),(0.,1.),.PIECEWISE_BEZIER_KNOTS.);
#381=B_SPLINE_CURVE_WITH_KNOTS('',2,(#671,#672,#673),.UNSPECIFIED.,.F.,
 .F.,(3,3),(0.,1.),.PIECEWISE_BEZIER_KNOTS.);
#382=B_SPLINE_CURVE_WITH_KNOTS('',2,(#682,#683,#684),.UNSPECIFIED.,.F.,
 .F.,(3,3),(0.,1.),.PIECEWISE_BEZIER_KNOTS.);
#383=B_SPLINE_CURVE_WITH_KNOTS('',2,(#688,#689,#690),.UNSPECIFIED.,.F.,
 .F.,(3,3),(0.,1.),.PIECEWISE_BEZIER_KNOTS.);
#384=B_SPLINE_CURVE_WITH_KNOTS('',2,(#705,#706,#707),.UNSPECIFIED.,.F.,
 .F.,(3,3),(0.,1.),.PIECEWISE_BEZIER_KNOTS.);
#385=B_SPLINE_CURVE_WITH_KNOTS('',2,(#711,#712,#713),.UNSPECIFIED.,.F.,
 .F.,(3,3),(0.,1.),.PIECEWISE_BEZIER_KNOTS.);
#386=B_SPLINE_CURVE_WITH_KNOTS('',2,(#722,#723,#724),.UNSPECIFIED.,.F.,
 .F.,(3,3),(0.,1.),.PIECEWISE_BEZIER_KNOTS.);
#387=B_SPLINE_CURVE_WITH_KNOTS('',2,(#728,#729,#730),.UNSPECIFIED.,.F.,
 .F.,(3,3),(0.,1.),.PIECEWISE_BEZIER_KNOTS.);
#388=B_SPLINE_CURVE_WITH_KNOTS('',2,(#754,#755,#756),.UNSPECIFIED.,.F.,
 .F.,(3,3),(0.,1.),.PIECEWISE_BEZIER_KNOTS.);
#389=B_SPLINE_CURVE_WITH_KNOTS('',2,(#760,#761,#762),.UNSPECIFIED.,.F.,
 .F.,(3,3),(0.,1.),.PIECEWISE_BEZIER_KNOTS.);
#390=B_SPLINE_CURVE_WITH_KNOTS('',2,(#771,#772,#773),.UNSPECIFIED.,.F.,
 .F.,(3,3),(0.,1.),.PIECEWISE_BEZIER_KNOTS.);
#391=B_SPLINE_CURVE_WITH_KNOTS('',2,(#777,#778,#779),.UNSPECIFIED.,.F.,
 .F.,(3,3),(0.,1.),.PIECEWISE_BEZIER_KNOTS.);
#392=B_SPLINE_CURVE_WITH_KNOTS('',2,(#788,#789,#790),.UNSPECIFIED.,.F.,
 .F.,(3,3),(0.,1.),.PIECEWISE_BEZIER_KNOTS.);
#393=B_SPLINE_CURVE_WITH_KNOTS('',2,(#794,#795,#796),.UNSPECIFIED.,.F.,
 .F.,(3,3),(0.,1.),.PIECEWISE_BEZIER_KNOTS.);
#394=B_SPLINE_CURVE_WITH_KNOTS('',2,(#805,#806,#807),.UNSPECIFIED.,.F.,
 .F.,(3,3),(0.,1.),.PIECEWISE_BEZIER_KNOTS.);
#395=B_SPLINE_CURVE_WITH_KNOTS('',2,(#811,#812,#813),.UNSPECIFIED.,.F.,
 .F.,(3,3),(0.,1.),.PIECEWISE_BEZIER_KNOTS.);
#396=B_SPLINE_CURVE_WITH_KNOTS('',2,(#828,#829,#830,#831,#832,#833,#834),
 .UNSPECIFIED.,.F.,.F.,(3,2,2,3),(-0.0325106671383278,-0.0216221869194702,
0.,1.),.PIECEWISE_BEZIER_KNOTS.);
#397=B_SPLINE_CURVE_WITH_KNOTS('',2,(#838,#839,#840,#841,#842,#843,#844),
 .UNSPECIFIED.,.F.,.F.,(3,2,2,3),(-0.0325106671383278,-0.0216221869194702,
0.,1.),.PIECEWISE_BEZIER_KNOTS.);
#398=B_SPLINE_CURVE_WITH_KNOTS('',2,(#898,#899,#900),.UNSPECIFIED.,.F.,
 .F.,(3,3),(0.,1.),.PIECEWISE_BEZIER_KNOTS.);
#399=B_SPLINE_CURVE_WITH_KNOTS('',2,(#901,#902,#903),.UNSPECIFIED.,.F.,
 .F.,(3,3),(0.,1.),.PIECEWISE_BEZIER_KNOTS.);
#400=EDGE_LOOP('',(#112,#113,#114,#115));
#401=EDGE_LOOP('',(#116,#117,#118,#119));
#402=EDGE_LOOP('',(#120,#121,#122,#123));
#403=EDGE_LOOP('',(#124,#125,#126,#127));
#404=EDGE_LOOP('',(#128,#129,#130,#131));
#405=EDGE_LOOP('',(#132,#133,#134,#135));
#406=EDGE_LOOP('',(#136,#137,#138,#139));
#407=EDGE_LOOP('',(#140,#141,#142,#143));
#408=EDGE_LOOP('',(#144,#145,#146,#147));
#409=EDGE_LOOP('',(#148,#149,#150,#151));
#410=EDGE_LOOP('',(#152,#153,#154,#155));
#411=EDGE_LOOP('',(#156,#157,#158,#159));
#412=EDGE_LOOP('',(#160,#161,#162,#163));
#413=EDGE_LOOP('',(#164,#165,#166,#167));
#414=EDGE_LOOP('',(#168,#169,#170,#171));
#415=EDGE_LOOP('',(#172,#173,#174,#175));
#416=EDGE_LOOP('',(#176,#177,#178,#179));
#417=EDGE_LOOP('',(#180,#181,#182,#183));
#418=EDGE_LOOP('',(#184,#185,#186,#187));
#419=EDGE_LOOP('',(#188,#189,#190,#191));
#420=EDGE_LOOP('',(#192,#193,#194,#195));
#421=EDGE_LOOP('',(#196,#197,#198,#199));
#422=EDGE_LOOP('',(#200,#201,#202,#203));
#423=EDGE_LOOP('',(#204,#205,#206,#207));
#424=EDGE_LOOP('',(#208,#209,#210,#211,#212,#213,#214,#215,#216,#217,#218,
#219,#220,#221,#222));
#425=EDGE_LOOP('',(#223,#224,#225,#226,#227,#228,#229,#230,#231));
#426=EDGE_LOOP('',(#232,#233,#234,#235,#236,#237,#238,#239,#240,#241,#242,
#243,#244,#245,#246));
#427=EDGE_LOOP('',(#247,#248,#249,#250,#251,#252,#253,#254,#255));
#428=FACE_BOUND('',#400,.T.);
#429=FACE_BOUND('',#401,.T.);
#430=FACE_BOUND('',#402,.T.);
#431=FACE_BOUND('',#403,.T.);
#432=FACE_BOUND('',#404,.T.);
#433=FACE_BOUND('',#405,.T.);
#434=FACE_BOUND('',#406,.T.);
#435=FACE_BOUND('',#407,.T.);
#436=FACE_BOUND('',#408,.T.);
#437=FACE_BOUND('',#409,.T.);
#438=FACE_BOUND('',#410,.T.);
#439=FACE_BOUND('',#411,.T.);
#440=FACE_BOUND('',#412,.T.);
#441=FACE_BOUND('',#413,.T.);
#442=FACE_BOUND('',#414,.T.);
#443=FACE_BOUND('',#415,.T.);
#444=FACE_BOUND('',#416,.T.);
#445=FACE_BOUND('',#417,.T.);
#446=FACE_BOUND('',#418,.T.);
#447=FACE_BOUND('',#419,.T.);
#448=FACE_BOUND('',#420,.T.);
#449=FACE_BOUND('',#421,.T.);
#450=FACE_BOUND('',#422,.T.);
#451=FACE_BOUND('',#423,.T.);
#452=FACE_BOUND('',#424,.T.);
#453=FACE_BOUND('',#425,.T.);
#454=FACE_BOUND('',#426,.T.);
#455=FACE_BOUND('',#427,.T.);
#456=B_SPLINE_SURFACE_WITH_KNOTS('',3,1,((#620,#621),(#622,#623),(#624,
#625),(#626,#627)),.SURF_OF_LINEAR_EXTRUSION.,.F.,.F.,.F.,(4,4),(2,2),(0.,
1.),(0.,1.),.PIECEWISE_BEZIER_KNOTS.);
#457=B_SPLINE_SURFACE_WITH_KNOTS('',3,1,((#640,#641),(#642,#643),(#644,
#645),(#646,#647)),.SURF_OF_LINEAR_EXTRUSION.,.F.,.F.,.F.,(4,4),(2,2),(0.,
1.),(0.,1.),.PIECEWISE_BEZIER_KNOTS.);
#458=B_SPLINE_SURFACE_WITH_KNOTS('',3,1,((#657,#658),(#659,#660),(#661,
#662),(#663,#664)),.SURF_OF_LINEAR_EXTRUSION.,.F.,.F.,.F.,(4,4),(2,2),(0.,
1.),(0.,1.),.PIECEWISE_BEZIER_KNOTS.);
#459=B_SPLINE_SURFACE_WITH_KNOTS('',3,1,((#674,#675),(#676,#677),(#678,
#679),(#680,#681)),.SURF_OF_LINEAR_EXTRUSION.,.F.,.F.,.F.,(4,4),(2,2),(0.,
1.),(0.,1.),.PIECEWISE_BEZIER_KNOTS.);
#460=B_SPLINE_SURFACE_WITH_KNOTS('',3,1,((#697,#698),(#699,#700),(#701,
#702),(#703,#704)),.SURF_OF_LINEAR_EXTRUSION.,.F.,.F.,.F.,(4,4),(2,2),(0.,
1.),(0.,1.),.PIECEWISE_BEZIER_KNOTS.);
#461=B_SPLINE_SURFACE_WITH_KNOTS('',3,1,((#714,#715),(#716,#717),(#718,
#719),(#720,#721)),.SURF_OF_LINEAR_EXTRUSION.,.F.,.F.,.F.,(4,4),(2,2),(0.,
1.),(0.,1.),.PIECEWISE_BEZIER_KNOTS.);
#462=B_SPLINE_SURFACE_WITH_KNOTS('',3,1,((#746,#747),(#748,#749),(#750,
#751),(#752,#753)),.SURF_OF_LINEAR_EXTRUSION.,.F.,.F.,.F.,(4,4),(2,2),(0.,
1.),(0.,1.),.PIECEWISE_BEZIER_KNOTS.);
#463=B_SPLINE_SURFACE_WITH_KNOTS('',3,1,((#763,#764),(#765,#766),(#767,
#768),(#769,#770)),.SURF_OF_LINEAR_EXTRUSION.,.F.,.F.,.F.,(4,4),(2,2),(0.,
1.),(0.,1.),.PIECEWISE_BEZIER_KNOTS.);
#464=B_SPLINE_SURFACE_WITH_KNOTS('',3,1,((#780,#781),(#782,#783),(#784,
#785),(#786,#787)),.SURF_OF_LINEAR_EXTRUSION.,.F.,.F.,.F.,(4,4),(2,2),(0.,
1.),(0.,1.),.PIECEWISE_BEZIER_KNOTS.);
#465=B_SPLINE_SURFACE_WITH_KNOTS('',3,1,((#797,#798),(#799,#800),(#801,
#802),(#803,#804)),.SURF_OF_LINEAR_EXTRUSION.,.F.,.F.,.F.,(4,4),(2,2),(0.,
1.),(0.,1.),.PIECEWISE_BEZIER_KNOTS.);
#466=B_SPLINE_SURFACE_WITH_KNOTS('',3,1,((#820,#821),(#822,#823),(#824,
#825),(#826,#827)),.SURF_OF_LINEAR_EXTRUSION.,.F.,.F.,.F.,(4,4),(2,2),(-0.0325106671383198,
1.),(0.,1.),.PIECEWISE_BEZIER_KNOTS.);
#467=B_SPLINE_SURFACE_WITH_KNOTS('',3,1,((#890,#891),(#892,#893),(#894,
#895),(#896,#897)),.SURF_OF_LINEAR_EXTRUSION.,.F.,.F.,.F.,(4,4),(2,2),(0.,
1.),(0.,1.),.PIECEWISE_BEZIER_KNOTS.);
#468=ADVANCED_FACE('',(#428),#456,.T.);
#469=ADVANCED_FACE('',(#429),#457,.T.);
#470=ADVANCED_FACE('',(#430),#458,.T.);
#471=ADVANCED_FACE('',(#431),#459,.T.);
#472=ADVANCED_FACE('',(#432),#31,.F.);
#473=ADVANCED_FACE('',(#433),#460,.T.);
#474=ADVANCED_FACE('',(#434),#461,.T.);
#475=ADVANCED_FACE('',(#435),#12,.T.);
#476=ADVANCED_FACE('',(#436),#32,.T.);
#477=ADVANCED_FACE('',(#437),#462,.T.);
#478=ADVANCED_FACE('',(#438),#463,.T.);
#479=ADVANCED_FACE('',(#439),#464,.T.);
#480=ADVANCED_FACE('',(#440),#465,.T.);
#481=ADVANCED_FACE('',(#441),#33,.T.);
#482=ADVANCED_FACE('',(#442),#466,.T.);
#483=ADVANCED_FACE('',(#443),#13,.T.);
#484=ADVANCED_FACE('',(#444),#14,.T.);
#485=ADVANCED_FACE('',(#445),#15,.T.);
#486=ADVANCED_FACE('',(#446),#16,.T.);
#487=ADVANCED_FACE('',(#447),#17,.T.);
#488=ADVANCED_FACE('',(#448),#34,.T.);
#489=ADVANCED_FACE('',(#449),#18,.T.);
#490=ADVANCED_FACE('',(#450),#35,.T.);
#491=ADVANCED_FACE('',(#451),#467,.T.);
#492=ADVANCED_FACE('',(#452,#453),#19,.T.);
#493=ADVANCED_FACE('',(#454,#455),#20,.F.);
#494=CLOSED_SHELL('',(#468,#469,#470,#471,#472,#473,#474,#475,#476,#477,
#478,#479,#480,#481,#482,#483,#484,#485,#486,#487,#488,#489,#490,#491,#492,
#493));
#495=STYLED_ITEM('',(#496),#503);
#496=PRESENTATION_STYLE_ASSIGNMENT((#497));
#497=SURFACE_STYLE_USAGE(.BOTH.,#498);
#498=SURFACE_SIDE_STYLE('',(#499));
#499=SURFACE_STYLE_FILL_AREA(#500);
#500=FILL_AREA_STYLE('',(#501));
#501=FILL_AREA_STYLE_COLOUR('',#502);
#502=COLOUR_RGB('',0.325490196078431,0.529411764705882,0.752941176470588);
#503=MANIFOLD_SOLID_BREP('Part 15',#494);
#504=SHAPE_DEFINITION_REPRESENTATION(#912,#505);
#505=SHAPE_REPRESENTATION('Part 15',(#506),#907);
#506=AXIS2_PLACEMENT_3D('',#619,#531,#532);
#507=AXIS2_PLACEMENT_3D('',#691,#538,#539);
#508=AXIS2_PLACEMENT_3D('',#692,#540,#541);
#509=AXIS2_PLACEMENT_3D('',#696,#543,#544);
#510=AXIS2_PLACEMENT_3D('',#731,#547,#548);
#511=AXIS2_PLACEMENT_3D('',#737,#552,#553);
#512=AXIS2_PLACEMENT_3D('',#738,#554,#555);
#513=AXIS2_PLACEMENT_3D('',#743,#557,#558);
#514=AXIS2_PLACEMENT_3D('',#814,#564,#565);
#515=AXIS2_PLACEMENT_3D('',#815,#566,#567);
#516=AXIS2_PLACEMENT_3D('',#819,#569,#570);
#517=AXIS2_PLACEMENT_3D('',#845,#572,#573);
#518=AXIS2_PLACEMENT_3D('',#851,#577,#578);
#519=AXIS2_PLACEMENT_3D('',#857,#582,#583);
#520=AXIS2_PLACEMENT_3D('',#863,#587,#588);
#521=AXIS2_PLACEMENT_3D('',#869,#592,#593);
#522=AXIS2_PLACEMENT_3D('',#875,#597,#598);
#523=AXIS2_PLACEMENT_3D('',#876,#599,#600);
#524=AXIS2_PLACEMENT_3D('',#880,#602,#603);
#525=AXIS2_PLACEMENT_3D('',#881,#604,#605);
#526=AXIS2_PLACEMENT_3D('',#887,#609,#610);
#527=AXIS2_PLACEMENT_3D('',#888,#611,#612);
#528=AXIS2_PLACEMENT_3D('',#889,#613,#614);
#529=AXIS2_PLACEMENT_3D('',#904,#615,#616);
#530=AXIS2_PLACEMENT_3D('',#905,#617,#618);
#531=DIRECTION('',(0.,0.,1.));
#532=DIRECTION('',(1.,0.,0.));
#533=DIRECTION('',(0.,0.,-1.));
#534=DIRECTION('',(0.,0.,-1.));
#535=DIRECTION('',(0.,0.,-1.));
#536=DIRECTION('',(0.,0.,-1.));
#537=DIRECTION('',(0.,0.,-1.));
#538=DIRECTION('',(0.,0.,-1.));
#539=DIRECTION('',(0.460266956461374,-0.887780563421944,0.));
#540=DIRECTION('',(0.,0.,-1.));
#541=DIRECTION('',(-1.,0.,0.));
#542=DIRECTION('',(0.,0.,-1.));
#543=DIRECTION('',(0.,0.,-1.));
#544=DIRECTION('',(-1.,0.,0.));
#545=DIRECTION('',(0.,0.,-1.));
#546=DIRECTION('',(0.,0.,-1.));
#547=DIRECTION('',(1.,0.,0.));
#548=DIRECTION('',(0.,0.,-1.));
#549=DIRECTION('',(0.,-1.,0.));
#550=DIRECTION('',(0.,0.,-1.));
#551=DIRECTION('',(0.,-1.,0.));
#552=DIRECTION('',(0.,0.,-1.));
#553=DIRECTION('',(-0.201554764423479,-0.979477246769008,0.));
#554=DIRECTION('',(0.,0.,-1.));
#555=DIRECTION('',(-1.,0.,0.));
#556=DIRECTION('',(0.,0.,-1.));
#557=DIRECTION('',(0.,0.,-1.));
#558=DIRECTION('',(-1.,0.,0.));
#559=DIRECTION('',(0.,0.,-1.));
#560=DIRECTION('',(0.,0.,-1.));
#561=DIRECTION('',(0.,0.,-1.));
#562=DIRECTION('',(0.,0.,-1.));
#563=DIRECTION('',(0.,0.,-1.));
#564=DIRECTION('',(0.,0.,-1.));
#565=DIRECTION('',(-0.206808521295667,0.978381436618408,0.));
#566=DIRECTION('',(0.,0.,-1.));
#567=DIRECTION('',(-1.,0.,0.));
#568=DIRECTION('',(0.,0.,-1.));
#569=DIRECTION('',(0.,0.,-1.));
#570=DIRECTION('',(-1.,0.,0.));
#571=DIRECTION('',(0.,0.,-1.));
#572=DIRECTION('',(0.988420375365386,0.151740441420699,0.));
#573=DIRECTION('',(-0.151740441420699,0.988420375365386,0.));
#574=DIRECTION('',(0.151740441420699,-0.988420375365386,0.));
#575=DIRECTION('',(0.,0.,-1.));
#576=DIRECTION('',(0.151740441420699,-0.988420375365386,0.));
#577=DIRECTION('',(0.,1.,0.));
#578=DIRECTION('',(0.,0.,1.));
#579=DIRECTION('',(1.,0.,0.));
#580=DIRECTION('',(0.,0.,-1.));
#581=DIRECTION('',(1.,0.,0.));
#582=DIRECTION('',(-1.,0.,0.));
#583=DIRECTION('',(0.,0.,1.));
#584=DIRECTION('',(0.,1.,0.));
#585=DIRECTION('',(0.,0.,-1.));
#586=DIRECTION('',(0.,1.,0.));
#587=DIRECTION('',(0.,-1.,0.));
#588=DIRECTION('',(0.,0.,-1.));
#589=DIRECTION('',(-1.,0.,0.));
#590=DIRECTION('',(0.,0.,-1.));
#591=DIRECTION('',(-1.,0.,0.));
#592=DIRECTION('',(1.,0.,0.));
#593=DIRECTION('',(0.,0.,-1.));
#594=DIRECTION('',(0.,-1.,0.));
#595=DIRECTION('',(0.,0.,-1.));
#596=DIRECTION('',(0.,-1.,0.));
#597=DIRECTION('',(0.,0.,-1.));
#598=DIRECTION('',(0.997857743372585,0.065421128019725,0.));
#599=DIRECTION('',(0.,0.,-1.));
#600=DIRECTION('',(-1.,0.,0.));
#601=DIRECTION('',(0.,0.,-1.));
#602=DIRECTION('',(0.,0.,-1.));
#603=DIRECTION('',(-1.,0.,0.));
#604=DIRECTION('',(0.,-1.,0.));
#605=DIRECTION('',(0.,0.,-1.));
#606=DIRECTION('',(-1.,0.,0.));
#607=DIRECTION('',(0.,0.,-1.));
#608=DIRECTION('',(-1.,0.,0.));
#609=DIRECTION('',(0.,0.,-1.));
#610=DIRECTION('',(-0.632771373895155,-0.774338678085267,0.));
#611=DIRECTION('',(0.,0.,-1.));
#612=DIRECTION('',(-1.,0.,0.));
#613=DIRECTION('',(0.,0.,-1.));
#614=DIRECTION('',(-1.,0.,0.));
#615=DIRECTION('',(0.,0.,1.));
#616=DIRECTION('',(1.,0.,0.));
#617=DIRECTION('',(0.,0.,1.));
#618=DIRECTION('',(1.,0.,0.));
#619=CARTESIAN_POINT('',(0.,0.,0.));
#620=CARTESIAN_POINT('',(-0.0307413411536761,0.0232622002516017,0.0232));
#621=CARTESIAN_POINT('',(-0.0307413411536761,0.0232622002516017,0.0222));
#622=CARTESIAN_POINT('',(-0.0310085078590626,0.0232622002516017,0.0232));
#623=CARTESIAN_POINT('',(-0.0310085078590626,0.0232622002516017,0.0222));
#624=CARTESIAN_POINT('',(-0.0312017584426254,0.0231882841297781,0.0232));
#625=CARTESIAN_POINT('',(-0.0312017584426254,0.0231882841297781,0.0222));
#626=CARTESIAN_POINT('',(-0.0313210929043648,0.0230404518861309,0.0232));
#627=CARTESIAN_POINT('',(-0.0313210929043648,0.0230404518861309,0.0222));
#628=CARTESIAN_POINT('',(-0.0307413411536761,0.0232622002516017,0.0222));
#629=CARTESIAN_POINT('',(-0.0311420912117558,0.0232622002516017,0.0222));
#630=CARTESIAN_POINT('',(-0.0313210929043648,0.0230404518861309,0.0222));
#631=CARTESIAN_POINT('',(-0.0307413411536761,0.0232622002516017,0.0222));
#632=CARTESIAN_POINT('',(-0.0313210929043648,0.0230404518861309,0.0222));
#633=CARTESIAN_POINT('',(-0.0307413411536761,0.0232622002516017,0.0232));
#634=CARTESIAN_POINT('',(-0.0307413411536761,0.0232622002516017,0.0232));
#635=CARTESIAN_POINT('',(-0.0307413411536761,0.0232622002516017,0.0232));
#636=CARTESIAN_POINT('',(-0.0311420912117558,0.0232622002516017,0.0232));
#637=CARTESIAN_POINT('',(-0.0313210929043648,0.0230404518861309,0.0232));
#638=CARTESIAN_POINT('',(-0.0313210929043648,0.0230404518861309,0.0232));
#639=CARTESIAN_POINT('',(-0.0313210929043648,0.0230404518861309,0.0232));
#640=CARTESIAN_POINT('',(-0.0302012827420734,0.0230011402137669,0.0232));
#641=CARTESIAN_POINT('',(-0.0302012827420734,0.0230011402137669,0.0222));
#642=CARTESIAN_POINT('',(-0.0303292683161776,0.0231751802389901,0.0232));
#643=CARTESIAN_POINT('',(-0.0303292683161776,0.0231751802389901,0.0222));
#644=CARTESIAN_POINT('',(-0.0305092877867118,0.0232622002516017,0.0232));
#645=CARTESIAN_POINT('',(-0.0305092877867118,0.0232622002516017,0.0222));
#646=CARTESIAN_POINT('',(-0.0307413411536761,0.0232622002516017,0.0232));
#647=CARTESIAN_POINT('',(-0.0307413411536761,0.0232622002516017,0.0222));
#648=CARTESIAN_POINT('',(-0.0302012827420734,0.0230011402137669,0.0222));
#649=CARTESIAN_POINT('',(-0.0303932611032297,0.0232622002516017,0.0222));
#650=CARTESIAN_POINT('',(-0.0307413411536761,0.0232622002516017,0.0222));
#651=CARTESIAN_POINT('',(-0.0302012827420734,0.0230011402137669,0.0222));
#652=CARTESIAN_POINT('',(-0.0302012827420734,0.0230011402137669,0.0232));
#653=CARTESIAN_POINT('',(-0.0302012827420734,0.0230011402137669,0.0232));
#654=CARTESIAN_POINT('',(-0.0302012827420734,0.0230011402137669,0.0232));
#655=CARTESIAN_POINT('',(-0.0303932611032297,0.0232622002516017,0.0232));
#656=CARTESIAN_POINT('',(-0.0307413411536761,0.0232622002516017,0.0232));
#657=CARTESIAN_POINT('',(-0.0300093043809172,0.0222507834383529,0.0232));
#658=CARTESIAN_POINT('',(-0.0300093043809172,0.0222507834383529,0.0222));
#659=CARTESIAN_POINT('',(-0.0300093043809172,0.0225769812634057,0.0232));
#660=CARTESIAN_POINT('',(-0.0300093043809172,0.0225769812634057,0.0222));
#661=CARTESIAN_POINT('',(-0.0300732971679692,0.0228271001885437,0.0232));
#662=CARTESIAN_POINT('',(-0.0300732971679692,0.0228271001885437,0.0222));
#663=CARTESIAN_POINT('',(-0.0302012827420734,0.0230011402137669,0.0232));
#664=CARTESIAN_POINT('',(-0.0302012827420734,0.0230011402137669,0.0222));
#665=CARTESIAN_POINT('',(-0.0300093043809172,0.0222507834383529,0.0222));
#666=CARTESIAN_POINT('',(-0.0300093043809172,0.0227400801759321,0.0222));
#667=CARTESIAN_POINT('',(-0.0302012827420734,0.0230011402137669,0.0222));
#668=CARTESIAN_POINT('',(-0.0300093043809172,0.0222507834383529,0.0222));
#669=CARTESIAN_POINT('',(-0.0300093043809172,0.0222507834383529,0.0232));
#670=CARTESIAN_POINT('',(-0.0300093043809172,0.0222507834383529,0.0232));
#671=CARTESIAN_POINT('',(-0.0300093043809172,0.0222507834383529,0.0232));
#672=CARTESIAN_POINT('',(-0.0300093043809172,0.0227400801759321,0.0232));
#673=CARTESIAN_POINT('',(-0.0302012827420734,0.0230011402137669,0.0232));
#674=CARTESIAN_POINT('',(-0.0302012827420734,0.0214947016621092,0.0232));
#675=CARTESIAN_POINT('',(-0.0302012827420734,0.0214947016621092,0.0222));
#676=CARTESIAN_POINT('',(-0.0300732971679692,0.0216776472441786,0.0232));
#677=CARTESIAN_POINT('',(-0.0300732971679692,0.0216776472441786,0.0222));
#678=CARTESIAN_POINT('',(-0.0300093043809172,0.0219296745029265,0.0232));
#679=CARTESIAN_POINT('',(-0.0300093043809172,0.0219296745029265,0.0222));
#680=CARTESIAN_POINT('',(-0.0300093043809172,0.0222507834383529,0.0232));
#681=CARTESIAN_POINT('',(-0.0300093043809172,0.0222507834383529,0.0222));
#682=CARTESIAN_POINT('',(-0.0302012827420734,0.0214947016621092,0.0222));
#683=CARTESIAN_POINT('',(-0.0300093043809172,0.0217691200352132,0.0222));
#684=CARTESIAN_POINT('',(-0.0300093043809172,0.0222507834383529,0.0222));
#685=CARTESIAN_POINT('',(-0.0302012827420734,0.0214947016621092,0.0222));
#686=CARTESIAN_POINT('',(-0.0302012827420734,0.0214947016621092,0.0232));
#687=CARTESIAN_POINT('',(-0.0302012827420734,0.0214947016621092,0.0232));
#688=CARTESIAN_POINT('',(-0.0302012827420734,0.0214947016621092,0.0232));
#689=CARTESIAN_POINT('',(-0.0300093043809172,0.0217691200352132,0.0232));
#690=CARTESIAN_POINT('',(-0.0300093043809172,0.0222507834383529,0.0232));
#691=CARTESIAN_POINT('',(-0.0307109786930737,0.0218308570673083,0.0232));
#692=CARTESIAN_POINT('',(-0.0307109786930737,0.0218308570673083,0.0222));
#693=CARTESIAN_POINT('',(-0.0307321811523485,0.021220283289005,0.0222));
#694=CARTESIAN_POINT('',(-0.0307321811523485,0.021220283289005,0.0232));
#695=CARTESIAN_POINT('',(-0.0307321811523485,0.021220283289005,0.0232));
#696=CARTESIAN_POINT('',(-0.0307109786930737,0.0218308570673083,0.0232));
#697=CARTESIAN_POINT('',(-0.0313210929043648,0.021457679990077,0.0232));
#698=CARTESIAN_POINT('',(-0.0313210929043648,0.021457679990077,0.0222));
#699=CARTESIAN_POINT('',(-0.0311987051088496,0.0212994155226957,0.0232));
#700=CARTESIAN_POINT('',(-0.0311987051088496,0.0212994155226957,0.0222));
#701=CARTESIAN_POINT('',(-0.0310024011915109,0.021220283289005,0.0232));
#702=CARTESIAN_POINT('',(-0.0310024011915109,0.021220283289005,0.0222));
#703=CARTESIAN_POINT('',(-0.0307321811523485,0.021220283289005,0.0232));
#704=CARTESIAN_POINT('',(-0.0307321811523485,0.021220283289005,0.0222));
#705=CARTESIAN_POINT('',(-0.0313210929043648,0.021457679990077,0.0222));
#706=CARTESIAN_POINT('',(-0.031137511211092,0.021220283289005,0.0222));
#707=CARTESIAN_POINT('',(-0.0307321811523485,0.021220283289005,0.0222));
#708=CARTESIAN_POINT('',(-0.0313210929043648,0.021457679990077,0.0222));
#709=CARTESIAN_POINT('',(-0.0313210929043648,0.021457679990077,0.0232));
#710=CARTESIAN_POINT('',(-0.0313210929043648,0.021457679990077,0.0232));
#711=CARTESIAN_POINT('',(-0.0313210929043648,0.021457679990077,0.0232));
#712=CARTESIAN_POINT('',(-0.031137511211092,0.021220283289005,0.0232));
#713=CARTESIAN_POINT('',(-0.0307321811523485,0.021220283289005,0.0232));
#714=CARTESIAN_POINT('',(-0.0315046745976374,0.0222462034376891,0.0232));
#715=CARTESIAN_POINT('',(-0.0315046745976374,0.0222462034376891,0.0222));
#716=CARTESIAN_POINT('',(-0.0315046745976374,0.0218787856066624,0.0232));
#717=CARTESIAN_POINT('',(-0.0315046745976374,0.0218787856066624,0.0222));
#718=CARTESIAN_POINT('',(-0.0314434806998799,0.0216159444574583,0.0232));
#719=CARTESIAN_POINT('',(-0.0314434806998799,0.0216159444574583,0.0222));
#720=CARTESIAN_POINT('',(-0.0313210929043648,0.021457679990077,0.0232));
#721=CARTESIAN_POINT('',(-0.0313210929043648,0.021457679990077,0.0222));
#722=CARTESIAN_POINT('',(-0.0315046745976374,0.0222462034376891,0.0222));
#723=CARTESIAN_POINT('',(-0.0315046745976374,0.021695076691149,0.0222));
#724=CARTESIAN_POINT('',(-0.0313210929043648,0.021457679990077,0.0222));
#725=CARTESIAN_POINT('',(-0.0315046745976374,0.0222462034376891,0.0222));
#726=CARTESIAN_POINT('',(-0.0315046745976374,0.0222462034376891,0.0232));
#727=CARTESIAN_POINT('',(-0.0315046745976374,0.0222462034376891,0.0232));
#728=CARTESIAN_POINT('',(-0.0315046745976374,0.0222462034376891,0.0232));
#729=CARTESIAN_POINT('',(-0.0315046745976374,0.021695076691149,0.0232));
#730=CARTESIAN_POINT('',(-0.0313210929043648,0.021457679990077,0.0232));
#731=CARTESIAN_POINT('',(-0.0315046745976374,0.0222900951107169,0.0232));
#732=CARTESIAN_POINT('',(-0.0315046745976374,0.0222900951107169,0.0222));
#733=CARTESIAN_POINT('',(-0.0315046745976374,0.0223339867837446,0.0222));
#734=CARTESIAN_POINT('',(-0.0315046745976374,0.0223339867837446,0.0232));
#735=CARTESIAN_POINT('',(-0.0315046745976374,0.0223339867837446,0.0232));
#736=CARTESIAN_POINT('',(-0.0315046745976374,0.0222900951107169,0.0232));
#737=CARTESIAN_POINT('',(-0.0307004138190139,0.0220209109626036,0.0232));
#738=CARTESIAN_POINT('',(-0.0307004138190139,0.0220209109626036,0.0222));
#739=CARTESIAN_POINT('',(-0.030684091145379,0.0208882332408818,0.0222));
#740=CARTESIAN_POINT('',(-0.031150951203773,0.020982316371903,0.0222));
#741=CARTESIAN_POINT('',(-0.030684091145379,0.0208882332408818,0.0232));
#742=CARTESIAN_POINT('',(-0.030684091145379,0.0208882332408818,0.0232));
#743=CARTESIAN_POINT('',(-0.0307004138190139,0.0220209109626036,0.0232));
#744=CARTESIAN_POINT('',(-0.0311509512381306,0.0209823164244279,0.0232));
#745=CARTESIAN_POINT('',(-0.0311508695463613,0.020982504921211,0.0232));
#746=CARTESIAN_POINT('',(-0.0298860260297174,0.0212450916259337,0.0232));
#747=CARTESIAN_POINT('',(-0.0298860260297174,0.0212450916259337,0.0222));
#748=CARTESIAN_POINT('',(-0.0300776227241517,0.0210071860358991,0.0232));
#749=CARTESIAN_POINT('',(-0.0300776227241517,0.0210071860358991,0.0222));
#750=CARTESIAN_POINT('',(-0.0303436444293722,0.0208882332408818,0.0232));
#751=CARTESIAN_POINT('',(-0.0303436444293722,0.0208882332408818,0.0222));
#752=CARTESIAN_POINT('',(-0.030684091145379,0.0208882332408818,0.0232));
#753=CARTESIAN_POINT('',(-0.030684091145379,0.0208882332408818,0.0222));
#754=CARTESIAN_POINT('',(-0.0298860260297174,0.0212450916259337,0.0222));
#755=CARTESIAN_POINT('',(-0.0301734210713688,0.0208882332408818,0.0222));
#756=CARTESIAN_POINT('',(-0.030684091145379,0.0208882332408818,0.0222));
#757=CARTESIAN_POINT('',(-0.0298860260297174,0.0212450916259337,0.0222));
#758=CARTESIAN_POINT('',(-0.0298860260297174,0.0212450916259337,0.0232));
#759=CARTESIAN_POINT('',(-0.0298860260297174,0.0212450916259337,0.0232));
#760=CARTESIAN_POINT('',(-0.0298860260297174,0.0212450916259337,0.0232));
#761=CARTESIAN_POINT('',(-0.0301734210713688,0.0208882332408818,0.0232));
#762=CARTESIAN_POINT('',(-0.030684091145379,0.0208882332408818,0.0232));
#763=CARTESIAN_POINT('',(-0.0295986309880659,0.0222462034376891,0.0232));
#764=CARTESIAN_POINT('',(-0.0295986309880659,0.0222462034376891,0.0222));
#765=CARTESIAN_POINT('',(-0.0295986309880659,0.0218167011532202,0.0232));
#766=CARTESIAN_POINT('',(-0.0295986309880659,0.0218167011532202,0.0222));
#767=CARTESIAN_POINT('',(-0.0296944293352831,0.0214829972159684,0.0232));
#768=CARTESIAN_POINT('',(-0.0296944293352831,0.0214829972159684,0.0222));
#769=CARTESIAN_POINT('',(-0.0298860260297174,0.0212450916259337,0.0232));
#770=CARTESIAN_POINT('',(-0.0298860260297174,0.0212450916259337,0.0222));
#771=CARTESIAN_POINT('',(-0.0295986309880659,0.0222462034376891,0.0222));
#772=CARTESIAN_POINT('',(-0.0295986309880659,0.0216019500109857,0.0222));
#773=CARTESIAN_POINT('',(-0.0298860260297174,0.0212450916259337,0.0222));
#774=CARTESIAN_POINT('',(-0.0295986309880659,0.0222462034376891,0.0222));
#775=CARTESIAN_POINT('',(-0.0295986309880659,0.0222462034376891,0.0232));
#776=CARTESIAN_POINT('',(-0.0295986309880659,0.0222462034376891,0.0232));
#777=CARTESIAN_POINT('',(-0.0295986309880659,0.0222462034376891,0.0232));
#778=CARTESIAN_POINT('',(-0.0295986309880659,0.0216019500109857,0.0232));
#779=CARTESIAN_POINT('',(-0.0298860260297174,0.0212450916259337,0.0232));
#780=CARTESIAN_POINT('',(-0.0298814460290536,0.0232431169155027,0.0232));
#781=CARTESIAN_POINT('',(-0.0298814460290536,0.0232431169155027,0.0222));
#782=CARTESIAN_POINT('',(-0.0296929026683951,0.023005974658912,0.0232));
#783=CARTESIAN_POINT('',(-0.0296929026683951,0.023005974658912,0.0222));
#784=CARTESIAN_POINT('',(-0.0295986309880659,0.0226736701663075,0.0232));
#785=CARTESIAN_POINT('',(-0.0295986309880659,0.0226736701663075,0.0222));
#786=CARTESIAN_POINT('',(-0.0295986309880659,0.0222462034376891,0.0232));
#787=CARTESIAN_POINT('',(-0.0295986309880659,0.0222462034376891,0.0222));
#788=CARTESIAN_POINT('',(-0.0298814460290536,0.0232431169155027,0.0222));
#789=CARTESIAN_POINT('',(-0.0295986309880659,0.0228874035306167,0.0222));
#790=CARTESIAN_POINT('',(-0.0295986309880659,0.0222462034376891,0.0222));
#791=CARTESIAN_POINT('',(-0.0298814460290536,0.0232431169155027,0.0222));
#792=CARTESIAN_POINT('',(-0.0298814460290536,0.0232431169155027,0.0232));
#793=CARTESIAN_POINT('',(-0.0298814460290536,0.0232431169155027,0.0232));
#794=CARTESIAN_POINT('',(-0.0298814460290536,0.0232431169155027,0.0232));
#795=CARTESIAN_POINT('',(-0.0295986309880659,0.0228874035306167,0.0232));
#796=CARTESIAN_POINT('',(-0.0295986309880659,0.0222462034376891,0.0232));
#797=CARTESIAN_POINT('',(-0.030684091145379,0.0235988303003887,0.0232));
#798=CARTESIAN_POINT('',(-0.030684091145379,0.0235988303003887,0.0222));
#799=CARTESIAN_POINT('',(-0.0303375377618205,0.0235988303003887,0.0232));
#800=CARTESIAN_POINT('',(-0.0303375377618205,0.0235988303003887,0.0222));
#801=CARTESIAN_POINT('',(-0.0300699893897121,0.0234802591720933,0.0232));
#802=CARTESIAN_POINT('',(-0.0300699893897121,0.0234802591720933,0.0222));
#803=CARTESIAN_POINT('',(-0.0298814460290536,0.0232431169155027,0.0232));
#804=CARTESIAN_POINT('',(-0.0298814460290536,0.0232431169155027,0.0222));
#805=CARTESIAN_POINT('',(-0.030684091145379,0.0235988303003887,0.0222));
#806=CARTESIAN_POINT('',(-0.0301642610700413,0.0235988303003887,0.0222));
#807=CARTESIAN_POINT('',(-0.0298814460290536,0.0232431169155027,0.0222));
#808=CARTESIAN_POINT('',(-0.030684091145379,0.0235988303003887,0.0222));
#809=CARTESIAN_POINT('',(-0.030684091145379,0.0235988303003887,0.0232));
#810=CARTESIAN_POINT('',(-0.030684091145379,0.0235988303003887,0.0232));
#811=CARTESIAN_POINT('',(-0.030684091145379,0.0235988303003887,0.0232));
#812=CARTESIAN_POINT('',(-0.0301642610700413,0.0235988303003887,0.0232));
#813=CARTESIAN_POINT('',(-0.0298814460290536,0.0232431169155027,0.0232));
#814=CARTESIAN_POINT('',(-0.0307077962702831,0.0225157318681399,0.0232));
#815=CARTESIAN_POINT('',(-0.0307077962702831,0.0225157318681399,0.0222));
#816=CARTESIAN_POINT('',(-0.0311493428794734,0.0235034136198934,0.0222));
#817=CARTESIAN_POINT('',(-0.0311493428794734,0.0235034136198934,0.0232));
#818=CARTESIAN_POINT('',(-0.0311493428794734,0.0235034136198934,0.0232));
#819=CARTESIAN_POINT('',(-0.0307077962702831,0.0225157318681399,0.0232));
#820=CARTESIAN_POINT('',(-0.0315146011894423,0.0231787404137564,0.0232));
#821=CARTESIAN_POINT('',(-0.0315146011894423,0.0231787404137564,0.0222));
#822=CARTESIAN_POINT('',(-0.0314095145329819,0.0233269125993693,0.0232));
#823=CARTESIAN_POINT('',(-0.0314095145329819,0.0233269125993693,0.0222));
#824=CARTESIAN_POINT('',(-0.0312888454159283,0.023437734459604,0.0232));
#825=CARTESIAN_POINT('',(-0.0312888454159283,0.023437734459604,0.0222));
#826=CARTESIAN_POINT('',(-0.0311493428794734,0.0235034136198934,0.0232));
#827=CARTESIAN_POINT('',(-0.0311493428794734,0.0235034136198934,0.0222));
#828=CARTESIAN_POINT('',(-0.0315146011894423,0.0231787404137564,0.0222));
#829=CARTESIAN_POINT('',(-0.0315129388812214,0.0231810842683479,0.0222));
#830=CARTESIAN_POINT('',(-0.0315112765730003,0.0231834281229395,0.0222));
#831=CARTESIAN_POINT('',(-0.0315079755853189,0.0231880825155703,0.0222));
#832=CARTESIAN_POINT('',(-0.0315046745976374,0.0231927369082012,0.0222));
#833=CARTESIAN_POINT('',(-0.0313520079088452,0.0234079969393983,0.0222));
#834=CARTESIAN_POINT('',(-0.0311493428794734,0.0235034136198934,0.0222));
#835=CARTESIAN_POINT('',(-0.031517889061489,0.0231810722379029,0.0222));
#836=CARTESIAN_POINT('',(-0.031517889061489,0.0231810722379029,0.0232));
#837=CARTESIAN_POINT('',(-0.031517889061489,0.0231810722379029,0.0232));
#838=CARTESIAN_POINT('',(-0.0315146011894423,0.0231787404137564,0.0232));
#839=CARTESIAN_POINT('',(-0.0315129388812214,0.0231810842683479,0.0232));
#840=CARTESIAN_POINT('',(-0.0315112765730003,0.0231834281229395,0.0232));
#841=CARTESIAN_POINT('',(-0.0315079755853189,0.0231880825155703,0.0232));
#842=CARTESIAN_POINT('',(-0.0315046745976374,0.0231927369082012,0.0232));
#843=CARTESIAN_POINT('',(-0.0313520079088452,0.0234079969393983,0.0232));
#844=CARTESIAN_POINT('',(-0.0311493428794734,0.0235034136198934,0.0232));
#845=CARTESIAN_POINT('',(-0.0315512379377191,0.0233717386008102,0.0232));
#846=CARTESIAN_POINT('',(-0.0315512379377191,0.0233717386008102,0.0222));
#847=CARTESIAN_POINT('',(-0.0315787179417017,0.0235507402934191,0.0222));
#848=CARTESIAN_POINT('',(-0.0315787179417017,0.0235507402934191,0.0232));
#849=CARTESIAN_POINT('',(-0.0315787179417017,0.0235507402934191,0.0232));
#850=CARTESIAN_POINT('',(-0.0315512379377191,0.0233717386008102,0.0232));
#851=CARTESIAN_POINT('',(-0.0317397812983775,0.0235507402934191,0.0232));
#852=CARTESIAN_POINT('',(-0.0317397812983775,0.0235507402934191,0.0222));
#853=CARTESIAN_POINT('',(-0.0319008446550534,0.0235507402934191,0.0222));
#854=CARTESIAN_POINT('',(-0.0319008446550534,0.0235507402934191,0.0232));
#855=CARTESIAN_POINT('',(-0.0319008446550534,0.0235507402934191,0.0232));
#856=CARTESIAN_POINT('',(-0.0317397812983775,0.0235507402934191,0.0232));
#857=CARTESIAN_POINT('',(-0.0319008446550534,0.0216565283522289,0.0232));
#858=CARTESIAN_POINT('',(-0.0319008446550534,0.0216565283522289,0.0222));
#859=CARTESIAN_POINT('',(-0.0319008446550534,0.0197623164110388,0.0222));
#860=CARTESIAN_POINT('',(-0.0319008446550534,0.0197623164110388,0.0232));
#861=CARTESIAN_POINT('',(-0.0319008446550534,0.0197623164110388,0.0232));
#862=CARTESIAN_POINT('',(-0.0319008446550534,0.0216565283522289,0.0232));
#863=CARTESIAN_POINT('',(-0.0317027596263454,0.0197623164110388,0.0232));
#864=CARTESIAN_POINT('',(-0.0317027596263454,0.0197623164110388,0.0222));
#865=CARTESIAN_POINT('',(-0.0315046745976374,0.0197623164110388,0.0222));
#866=CARTESIAN_POINT('',(-0.0315046745976374,0.0197623164110388,0.0232));
#867=CARTESIAN_POINT('',(-0.0315046745976374,0.0197623164110388,0.0232));
#868=CARTESIAN_POINT('',(-0.0317027596263454,0.0197623164110388,0.0232));
#869=CARTESIAN_POINT('',(-0.0315046745976374,0.0203004664890316,0.0232));
#870=CARTESIAN_POINT('',(-0.0315046745976374,0.0203004664890316,0.0222));
#871=CARTESIAN_POINT('',(-0.0315046055825447,0.0208386168775706,0.0222));
#872=CARTESIAN_POINT('',(-0.0315046745976374,0.0208386165670243,0.0232));
#873=CARTESIAN_POINT('',(-0.0315046055825447,0.0208386168775706,0.0232));
#874=CARTESIAN_POINT('',(-0.0315046745976374,0.0203004664890316,0.0232));
#875=CARTESIAN_POINT('',(-0.0349721066292917,0.0208230142137016,0.0232));
#876=CARTESIAN_POINT('',(-0.0349721066292917,0.0208230142137016,0.0222));
#877=CARTESIAN_POINT('',(-0.031533681268508,0.0212729532966383,0.0222));
#878=CARTESIAN_POINT('',(-0.0315338162971318,0.0212729532966383,0.0232));
#879=CARTESIAN_POINT('',(-0.031533681268508,0.0212729532966383,0.0232));
#880=CARTESIAN_POINT('',(-0.0349721066292917,0.0208230142137016,0.0232));
#881=CARTESIAN_POINT('',(-0.0315191779330728,0.0212729532966383,0.0232));
#882=CARTESIAN_POINT('',(-0.0315191779330728,0.0212729532966383,0.0222));
#883=CARTESIAN_POINT('',(-0.031504248211951,0.0212729532966383,0.0222));
#884=CARTESIAN_POINT('',(-0.031504248211951,0.0212729532966383,0.0232));
#885=CARTESIAN_POINT('',(-0.031504248211951,0.0212729532966383,0.0232));
#886=CARTESIAN_POINT('',(-0.0315191779330728,0.0212729532966383,0.0232));
#887=CARTESIAN_POINT('',(-0.0307928010397909,0.0217778114589034,0.0232));
#888=CARTESIAN_POINT('',(-0.0307928010397909,0.0217778114589034,0.0222));
#889=CARTESIAN_POINT('',(-0.0307928010397909,0.0217778114589034,0.0232));
#890=CARTESIAN_POINT('',(-0.0313210929043648,0.0230404518861309,0.0232));
#891=CARTESIAN_POINT('',(-0.0313210929043648,0.0230404518861309,0.0222));
#892=CARTESIAN_POINT('',(-0.031440427366104,0.0228926196424837,0.0232));
#893=CARTESIAN_POINT('',(-0.031440427366104,0.0228926196424837,0.0222));
#894=CARTESIAN_POINT('',(-0.0315016212638616,0.0226571312750216,0.0232));
#895=CARTESIAN_POINT('',(-0.0315016212638616,0.0226571312750216,0.0222));
#896=CARTESIAN_POINT('',(-0.0315046745976374,0.0223339867837446,0.0232));
#897=CARTESIAN_POINT('',(-0.0315046745976374,0.0223339867837446,0.0222));
#898=CARTESIAN_POINT('',(-0.0313210929043648,0.0230404518861309,0.0222));
#899=CARTESIAN_POINT('',(-0.0315000945969737,0.0228187035206601,0.0222));
#900=CARTESIAN_POINT('',(-0.0315046745976374,0.0223339867837446,0.0222));
#901=CARTESIAN_POINT('',(-0.0313210929043648,0.0230404518861309,0.0232));
#902=CARTESIAN_POINT('',(-0.0315000945969737,0.0228187035206601,0.0232));
#903=CARTESIAN_POINT('',(-0.0315046745976374,0.0223339867837446,0.0232));
#904=CARTESIAN_POINT('',(-0.035336010574676,0.0221931616239257,0.0232));
#905=CARTESIAN_POINT('',(-0.035336010574676,0.0221931616239257,0.0222));
#906=MECHANICAL_DESIGN_GEOMETRIC_PRESENTATION_REPRESENTATION('',(#495),
#907);
#907=(
GEOMETRIC_REPRESENTATION_CONTEXT(3)
GLOBAL_UNCERTAINTY_ASSIGNED_CONTEXT((#908))
GLOBAL_UNIT_ASSIGNED_CONTEXT((#911,#910,#909))
REPRESENTATION_CONTEXT('Part 15','TOP_LEVEL_ASSEMBLY_PART')
);
#908=UNCERTAINTY_MEASURE_WITH_UNIT(LENGTH_MEASURE(2.E-5),#911,
'DISTANCE_ACCURACY_VALUE','Maximum Tolerance applied to model');
#909=(
NAMED_UNIT(*)
SI_UNIT($,.STERADIAN.)
SOLID_ANGLE_UNIT()
);
#910=(
NAMED_UNIT(*)
PLANE_ANGLE_UNIT()
SI_UNIT($,.RADIAN.)
);
#911=(
LENGTH_UNIT()
NAMED_UNIT(*)
SI_UNIT($,.METRE.)
);
#912=PRODUCT_DEFINITION_SHAPE('','',#913);
#913=PRODUCT_DEFINITION('','',#915,#914);
#914=PRODUCT_DEFINITION_CONTEXT('',#921,'design');
#915=PRODUCT_DEFINITION_FORMATION_WITH_SPECIFIED_SOURCE('','',#917,
 .NOT_KNOWN.);
#916=PRODUCT_RELATED_PRODUCT_CATEGORY('','',(#917));
#917=PRODUCT('Part 15','Part 15','Part 15',(#919));
#918=PRODUCT_CATEGORY('','');
#919=PRODUCT_CONTEXT('',#921,'mechanical');
#920=APPLICATION_PROTOCOL_DEFINITION('international standard',
'ap242_managed_model_based_3d_engineering',2020,#921);
#921=APPLICATION_CONTEXT('managed model based 3d engineering');
ENDSEC;
END-ISO-10303-21;
