ISO-10303-21;
HEADER;
/* Generated by software containing ST-Developer
 * from STEP Tools, Inc. (www.steptools.com) 
 */
/* OPTION: using custom renumber hook */

FILE_DESCRIPTION(
/* description */ ('STEP AP242 Edition 2',
'CAx-IF Rec.Pracs.---Representation and Presentation of Product Manufa
cturing Information (PMI)---4.0---2014-10-13',
'CAx-IF Rec.Pracs.---3D Tessellated Geometry---0.4---2014-09-14','2;1',
'CAx-IF Rec.Pracs.---User Defined Attributes---1.5---2016-08-15'),
/* implementation_level */ '2;1');

FILE_NAME(
/* name */ 'Part Studio 1 - Part 10',
/* time_stamp */ '2026-09-06T11:57:17Z',
/* author */ (''),
/* organization */ (''),
/* preprocessor_version */ 'ST-DEVELOPER v20',
/* originating_system */ 'ONSHAPE BY PTC INC, 1.220',
/* authorisation */ '  ');

FILE_SCHEMA (('AP242_MANAGED_MODEL_BASED_3D_ENGINEERING_MIM_LF { 1 0 10303 442 3 1 4 }'));
ENDSEC;

DATA;
#10=SHAPE_REPRESENTATION_RELATIONSHIP('','',#342,#11);
#11=ADVANCED_BREP_SHAPE_REPRESENTATION('',(#340),#544);
#12=CIRCLE('',#348,0.01148300215803);
#13=CIRCLE('',#349,0.01148300215803);
#14=CIRCLE('',#361,0.00982102568083353);
#15=CIRCLE('',#362,0.00982102568083353);
#16=CYLINDRICAL_SURFACE('',#347,0.01148300215803);
#17=CYLINDRICAL_SURFACE('',#360,0.00982102568083353);
#18=ORIENTED_EDGE('',*,*,#108,.F.);
#19=ORIENTED_EDGE('',*,*,#109,.F.);
#20=ORIENTED_EDGE('',*,*,#110,.T.);
#21=ORIENTED_EDGE('',*,*,#111,.T.);
#22=ORIENTED_EDGE('',*,*,#112,.F.);
#23=ORIENTED_EDGE('',*,*,#113,.F.);
#24=ORIENTED_EDGE('',*,*,#114,.T.);
#25=ORIENTED_EDGE('',*,*,#109,.T.);
#26=ORIENTED_EDGE('',*,*,#115,.F.);
#27=ORIENTED_EDGE('',*,*,#116,.F.);
#28=ORIENTED_EDGE('',*,*,#117,.T.);
#29=ORIENTED_EDGE('',*,*,#113,.T.);
#30=ORIENTED_EDGE('',*,*,#118,.F.);
#31=ORIENTED_EDGE('',*,*,#119,.F.);
#32=ORIENTED_EDGE('',*,*,#120,.T.);
#33=ORIENTED_EDGE('',*,*,#116,.T.);
#34=ORIENTED_EDGE('',*,*,#121,.F.);
#35=ORIENTED_EDGE('',*,*,#122,.F.);
#36=ORIENTED_EDGE('',*,*,#123,.T.);
#37=ORIENTED_EDGE('',*,*,#119,.T.);
#38=ORIENTED_EDGE('',*,*,#124,.F.);
#39=ORIENTED_EDGE('',*,*,#125,.F.);
#40=ORIENTED_EDGE('',*,*,#126,.T.);
#41=ORIENTED_EDGE('',*,*,#122,.T.);
#42=ORIENTED_EDGE('',*,*,#127,.F.);
#43=ORIENTED_EDGE('',*,*,#128,.F.);
#44=ORIENTED_EDGE('',*,*,#129,.T.);
#45=ORIENTED_EDGE('',*,*,#125,.T.);
#46=ORIENTED_EDGE('',*,*,#130,.F.);
#47=ORIENTED_EDGE('',*,*,#131,.F.);
#48=ORIENTED_EDGE('',*,*,#132,.T.);
#49=ORIENTED_EDGE('',*,*,#128,.T.);
#50=ORIENTED_EDGE('',*,*,#133,.F.);
#51=ORIENTED_EDGE('',*,*,#134,.F.);
#52=ORIENTED_EDGE('',*,*,#135,.T.);
#53=ORIENTED_EDGE('',*,*,#131,.T.);
#54=ORIENTED_EDGE('',*,*,#136,.F.);
#55=ORIENTED_EDGE('',*,*,#137,.F.);
#56=ORIENTED_EDGE('',*,*,#138,.T.);
#57=ORIENTED_EDGE('',*,*,#134,.T.);
#58=ORIENTED_EDGE('',*,*,#139,.F.);
#59=ORIENTED_EDGE('',*,*,#140,.F.);
#60=ORIENTED_EDGE('',*,*,#141,.T.);
#61=ORIENTED_EDGE('',*,*,#137,.T.);
#62=ORIENTED_EDGE('',*,*,#142,.F.);
#63=ORIENTED_EDGE('',*,*,#143,.F.);
#64=ORIENTED_EDGE('',*,*,#144,.T.);
#65=ORIENTED_EDGE('',*,*,#140,.T.);
#66=ORIENTED_EDGE('',*,*,#145,.F.);
#67=ORIENTED_EDGE('',*,*,#146,.F.);
#68=ORIENTED_EDGE('',*,*,#147,.T.);
#69=ORIENTED_EDGE('',*,*,#143,.T.);
#70=ORIENTED_EDGE('',*,*,#148,.F.);
#71=ORIENTED_EDGE('',*,*,#149,.F.);
#72=ORIENTED_EDGE('',*,*,#150,.T.);
#73=ORIENTED_EDGE('',*,*,#146,.T.);
#74=ORIENTED_EDGE('',*,*,#151,.F.);
#75=ORIENTED_EDGE('',*,*,#111,.F.);
#76=ORIENTED_EDGE('',*,*,#152,.T.);
#77=ORIENTED_EDGE('',*,*,#149,.T.);
#78=ORIENTED_EDGE('',*,*,#110,.F.);
#79=ORIENTED_EDGE('',*,*,#114,.F.);
#80=ORIENTED_EDGE('',*,*,#117,.F.);
#81=ORIENTED_EDGE('',*,*,#120,.F.);
#82=ORIENTED_EDGE('',*,*,#123,.F.);
#83=ORIENTED_EDGE('',*,*,#126,.F.);
#84=ORIENTED_EDGE('',*,*,#129,.F.);
#85=ORIENTED_EDGE('',*,*,#132,.F.);
#86=ORIENTED_EDGE('',*,*,#135,.F.);
#87=ORIENTED_EDGE('',*,*,#138,.F.);
#88=ORIENTED_EDGE('',*,*,#141,.F.);
#89=ORIENTED_EDGE('',*,*,#144,.F.);
#90=ORIENTED_EDGE('',*,*,#147,.F.);
#91=ORIENTED_EDGE('',*,*,#150,.F.);
#92=ORIENTED_EDGE('',*,*,#152,.F.);
#93=ORIENTED_EDGE('',*,*,#108,.T.);
#94=ORIENTED_EDGE('',*,*,#151,.T.);
#95=ORIENTED_EDGE('',*,*,#148,.T.);
#96=ORIENTED_EDGE('',*,*,#145,.T.);
#97=ORIENTED_EDGE('',*,*,#142,.T.);
#98=ORIENTED_EDGE('',*,*,#139,.T.);
#99=ORIENTED_EDGE('',*,*,#136,.T.);
#100=ORIENTED_EDGE('',*,*,#133,.T.);
#101=ORIENTED_EDGE('',*,*,#130,.T.);
#102=ORIENTED_EDGE('',*,*,#127,.T.);
#103=ORIENTED_EDGE('',*,*,#124,.T.);
#104=ORIENTED_EDGE('',*,*,#121,.T.);
#105=ORIENTED_EDGE('',*,*,#118,.T.);
#106=ORIENTED_EDGE('',*,*,#115,.T.);
#107=ORIENTED_EDGE('',*,*,#112,.T.);
#108=EDGE_CURVE('',#153,#154,#183,.T.);
#109=EDGE_CURVE('',#155,#153,#184,.T.);
#110=EDGE_CURVE('',#155,#156,#185,.T.);
#111=EDGE_CURVE('',#156,#154,#186,.T.);
#112=EDGE_CURVE('',#157,#153,#187,.T.);
#113=EDGE_CURVE('',#158,#157,#188,.T.);
#114=EDGE_CURVE('',#158,#155,#189,.T.);
#115=EDGE_CURVE('',#159,#157,#190,.T.);
#116=EDGE_CURVE('',#160,#159,#191,.T.);
#117=EDGE_CURVE('',#160,#158,#192,.T.);
#118=EDGE_CURVE('',#161,#159,#12,.T.);
#119=EDGE_CURVE('',#162,#161,#193,.T.);
#120=EDGE_CURVE('',#162,#160,#13,.T.);
#121=EDGE_CURVE('',#163,#161,#194,.T.);
#122=EDGE_CURVE('',#164,#163,#195,.T.);
#123=EDGE_CURVE('',#164,#162,#196,.T.);
#124=EDGE_CURVE('',#165,#163,#197,.T.);
#125=EDGE_CURVE('',#166,#165,#198,.T.);
#126=EDGE_CURVE('',#166,#164,#199,.T.);
#127=EDGE_CURVE('',#167,#165,#200,.T.);
#128=EDGE_CURVE('',#168,#167,#201,.T.);
#129=EDGE_CURVE('',#168,#166,#202,.T.);
#130=EDGE_CURVE('',#169,#167,#203,.T.);
#131=EDGE_CURVE('',#170,#169,#204,.T.);
#132=EDGE_CURVE('',#170,#168,#205,.T.);
#133=EDGE_CURVE('',#171,#169,#206,.T.);
#134=EDGE_CURVE('',#172,#171,#207,.T.);
#135=EDGE_CURVE('',#172,#170,#208,.T.);
#136=EDGE_CURVE('',#173,#171,#209,.T.);
#137=EDGE_CURVE('',#174,#173,#210,.T.);
#138=EDGE_CURVE('',#174,#172,#211,.T.);
#139=EDGE_CURVE('',#175,#173,#212,.T.);
#140=EDGE_CURVE('',#176,#175,#213,.T.);
#141=EDGE_CURVE('',#176,#174,#214,.T.);
#142=EDGE_CURVE('',#177,#175,#215,.T.);
#143=EDGE_CURVE('',#178,#177,#216,.T.);
#144=EDGE_CURVE('',#178,#176,#217,.T.);
#145=EDGE_CURVE('',#179,#177,#218,.T.);
#146=EDGE_CURVE('',#180,#179,#219,.T.);
#147=EDGE_CURVE('',#180,#178,#220,.T.);
#148=EDGE_CURVE('',#181,#179,#221,.T.);
#149=EDGE_CURVE('',#182,#181,#222,.T.);
#150=EDGE_CURVE('',#182,#180,#223,.T.);
#151=EDGE_CURVE('',#154,#181,#14,.T.);
#152=EDGE_CURVE('',#156,#182,#15,.T.);
#153=VERTEX_POINT('',#453);
#154=VERTEX_POINT('',#454);
#155=VERTEX_POINT('',#456);
#156=VERTEX_POINT('',#458);
#157=VERTEX_POINT('',#462);
#158=VERTEX_POINT('',#464);
#159=VERTEX_POINT('',#468);
#160=VERTEX_POINT('',#470);
#161=VERTEX_POINT('',#474);
#162=VERTEX_POINT('',#476);
#163=VERTEX_POINT('',#480);
#164=VERTEX_POINT('',#482);
#165=VERTEX_POINT('',#486);
#166=VERTEX_POINT('',#488);
#167=VERTEX_POINT('',#492);
#168=VERTEX_POINT('',#494);
#169=VERTEX_POINT('',#498);
#170=VERTEX_POINT('',#500);
#171=VERTEX_POINT('',#504);
#172=VERTEX_POINT('',#506);
#173=VERTEX_POINT('',#510);
#174=VERTEX_POINT('',#512);
#175=VERTEX_POINT('',#516);
#176=VERTEX_POINT('',#518);
#177=VERTEX_POINT('',#522);
#178=VERTEX_POINT('',#524);
#179=VERTEX_POINT('',#528);
#180=VERTEX_POINT('',#530);
#181=VERTEX_POINT('',#534);
#182=VERTEX_POINT('',#536);
#183=LINE('',#452,#224);
#184=LINE('',#455,#225);
#185=LINE('',#457,#226);
#186=LINE('',#459,#227);
#187=LINE('',#461,#228);
#188=LINE('',#463,#229);
#189=LINE('',#465,#230);
#190=LINE('',#467,#231);
#191=LINE('',#469,#232);
#192=LINE('',#471,#233);
#193=LINE('',#475,#234);
#194=LINE('',#479,#235);
#195=LINE('',#481,#236);
#196=LINE('',#483,#237);
#197=LINE('',#485,#238);
#198=LINE('',#487,#239);
#199=LINE('',#489,#240);
#200=LINE('',#491,#241);
#201=LINE('',#493,#242);
#202=LINE('',#495,#243);
#203=LINE('',#497,#244);
#204=LINE('',#499,#245);
#205=LINE('',#501,#246);
#206=LINE('',#503,#247);
#207=LINE('',#505,#248);
#208=LINE('',#507,#249);
#209=LINE('',#509,#250);
#210=LINE('',#511,#251);
#211=LINE('',#513,#252);
#212=LINE('',#515,#253);
#213=LINE('',#517,#254);
#214=LINE('',#519,#255);
#215=LINE('',#521,#256);
#216=LINE('',#523,#257);
#217=LINE('',#525,#258);
#218=LINE('',#527,#259);
#219=LINE('',#529,#260);
#220=LINE('',#531,#261);
#221=LINE('',#533,#262);
#222=LINE('',#535,#263);
#223=LINE('',#537,#264);
#224=VECTOR('',#369,1.);
#225=VECTOR('',#370,1.);
#226=VECTOR('',#371,1.);
#227=VECTOR('',#372,1.);
#228=VECTOR('',#375,1.);
#229=VECTOR('',#376,1.);
#230=VECTOR('',#377,1.);
#231=VECTOR('',#380,1.);
#232=VECTOR('',#381,1.);
#233=VECTOR('',#382,1.);
#234=VECTOR('',#387,1.);
#235=VECTOR('',#392,1.);
#236=VECTOR('',#393,1.);
#237=VECTOR('',#394,1.);
#238=VECTOR('',#397,1.);
#239=VECTOR('',#398,1.);
#240=VECTOR('',#399,1.);
#241=VECTOR('',#402,1.);
#242=VECTOR('',#403,1.);
#243=VECTOR('',#404,1.);
#244=VECTOR('',#407,1.);
#245=VECTOR('',#408,1.);
#246=VECTOR('',#409,1.);
#247=VECTOR('',#412,1.);
#248=VECTOR('',#413,1.);
#249=VECTOR('',#414,1.);
#250=VECTOR('',#417,1.);
#251=VECTOR('',#418,1.);
#252=VECTOR('',#419,1.);
#253=VECTOR('',#422,1.);
#254=VECTOR('',#423,1.);
#255=VECTOR('',#424,1.);
#256=VECTOR('',#427,1.);
#257=VECTOR('',#428,1.);
#258=VECTOR('',#429,1.);
#259=VECTOR('',#432,1.);
#260=VECTOR('',#433,1.);
#261=VECTOR('',#434,1.);
#262=VECTOR('',#437,1.);
#263=VECTOR('',#438,1.);
#264=VECTOR('',#439,1.);
#265=EDGE_LOOP('',(#18,#19,#20,#21));
#266=EDGE_LOOP('',(#22,#23,#24,#25));
#267=EDGE_LOOP('',(#26,#27,#28,#29));
#268=EDGE_LOOP('',(#30,#31,#32,#33));
#269=EDGE_LOOP('',(#34,#35,#36,#37));
#270=EDGE_LOOP('',(#38,#39,#40,#41));
#271=EDGE_LOOP('',(#42,#43,#44,#45));
#272=EDGE_LOOP('',(#46,#47,#48,#49));
#273=EDGE_LOOP('',(#50,#51,#52,#53));
#274=EDGE_LOOP('',(#54,#55,#56,#57));
#275=EDGE_LOOP('',(#58,#59,#60,#61));
#276=EDGE_LOOP('',(#62,#63,#64,#65));
#277=EDGE_LOOP('',(#66,#67,#68,#69));
#278=EDGE_LOOP('',(#70,#71,#72,#73));
#279=EDGE_LOOP('',(#74,#75,#76,#77));
#280=EDGE_LOOP('',(#78,#79,#80,#81,#82,#83,#84,#85,#86,#87,#88,#89,#90,
#91,#92));
#281=EDGE_LOOP('',(#93,#94,#95,#96,#97,#98,#99,#100,#101,#102,#103,#104,
#105,#106,#107));
#282=FACE_BOUND('',#265,.T.);
#283=FACE_BOUND('',#266,.T.);
#284=FACE_BOUND('',#267,.T.);
#285=FACE_BOUND('',#268,.T.);
#286=FACE_BOUND('',#269,.T.);
#287=FACE_BOUND('',#270,.T.);
#288=FACE_BOUND('',#271,.T.);
#289=FACE_BOUND('',#272,.T.);
#290=FACE_BOUND('',#273,.T.);
#291=FACE_BOUND('',#274,.T.);
#292=FACE_BOUND('',#275,.T.);
#293=FACE_BOUND('',#276,.T.);
#294=FACE_BOUND('',#277,.T.);
#295=FACE_BOUND('',#278,.T.);
#296=FACE_BOUND('',#279,.T.);
#297=FACE_BOUND('',#280,.T.);
#298=FACE_BOUND('',#281,.T.);
#299=PLANE('',#344);
#300=PLANE('',#345);
#301=PLANE('',#346);
#302=PLANE('',#350);
#303=PLANE('',#351);
#304=PLANE('',#352);
#305=PLANE('',#353);
#306=PLANE('',#354);
#307=PLANE('',#355);
#308=PLANE('',#356);
#309=PLANE('',#357);
#310=PLANE('',#358);
#311=PLANE('',#359);
#312=PLANE('',#363);
#313=PLANE('',#364);
#314=ADVANCED_FACE('',(#282),#299,.T.);
#315=ADVANCED_FACE('',(#283),#300,.T.);
#316=ADVANCED_FACE('',(#284),#301,.T.);
#317=ADVANCED_FACE('',(#285),#16,.T.);
#318=ADVANCED_FACE('',(#286),#302,.T.);
#319=ADVANCED_FACE('',(#287),#303,.T.);
#320=ADVANCED_FACE('',(#288),#304,.T.);
#321=ADVANCED_FACE('',(#289),#305,.T.);
#322=ADVANCED_FACE('',(#290),#306,.T.);
#323=ADVANCED_FACE('',(#291),#307,.T.);
#324=ADVANCED_FACE('',(#292),#308,.T.);
#325=ADVANCED_FACE('',(#293),#309,.T.);
#326=ADVANCED_FACE('',(#294),#310,.T.);
#327=ADVANCED_FACE('',(#295),#311,.T.);
#328=ADVANCED_FACE('',(#296),#17,.T.);
#329=ADVANCED_FACE('',(#297),#312,.T.);
#330=ADVANCED_FACE('',(#298),#313,.F.);
#331=CLOSED_SHELL('',(#314,#315,#316,#317,#318,#319,#320,#321,#322,#323,
#324,#325,#326,#327,#328,#329,#330));
#332=STYLED_ITEM('',(#333),#340);
#333=PRESENTATION_STYLE_ASSIGNMENT((#334));
#334=SURFACE_STYLE_USAGE(.BOTH.,#335);
#335=SURFACE_SIDE_STYLE('',(#336));
#336=SURFACE_STYLE_FILL_AREA(#337);
#337=FILL_AREA_STYLE('',(#338));
#338=FILL_AREA_STYLE_COLOUR('',#339);
#339=COLOUR_RGB('',0.325490196078431,0.529411764705882,0.752941176470588);
#340=MANIFOLD_SOLID_BREP('Part 10',#331);
#341=SHAPE_DEFINITION_REPRESENTATION(#549,#342);
#342=SHAPE_REPRESENTATION('Part 10',(#343),#544);
#343=AXIS2_PLACEMENT_3D('',#450,#365,#366);
#344=AXIS2_PLACEMENT_3D('',#451,#367,#368);
#345=AXIS2_PLACEMENT_3D('',#460,#373,#374);
#346=AXIS2_PLACEMENT_3D('',#466,#378,#379);
#347=AXIS2_PLACEMENT_3D('',#472,#383,#384);
#348=AXIS2_PLACEMENT_3D('',#473,#385,#386);
#349=AXIS2_PLACEMENT_3D('',#477,#388,#389);
#350=AXIS2_PLACEMENT_3D('',#478,#390,#391);
#351=AXIS2_PLACEMENT_3D('',#484,#395,#396);
#352=AXIS2_PLACEMENT_3D('',#490,#400,#401);
#353=AXIS2_PLACEMENT_3D('',#496,#405,#406);
#354=AXIS2_PLACEMENT_3D('',#502,#410,#411);
#355=AXIS2_PLACEMENT_3D('',#508,#415,#416);
#356=AXIS2_PLACEMENT_3D('',#514,#420,#421);
#357=AXIS2_PLACEMENT_3D('',#520,#425,#426);
#358=AXIS2_PLACEMENT_3D('',#526,#430,#431);
#359=AXIS2_PLACEMENT_3D('',#532,#435,#436);
#360=AXIS2_PLACEMENT_3D('',#538,#440,#441);
#361=AXIS2_PLACEMENT_3D('',#539,#442,#443);
#362=AXIS2_PLACEMENT_3D('',#540,#444,#445);
#363=AXIS2_PLACEMENT_3D('',#541,#446,#447);
#364=AXIS2_PLACEMENT_3D('',#542,#448,#449);
#365=DIRECTION('',(0.,0.,1.));
#366=DIRECTION('',(1.,0.,0.));
#367=DIRECTION('',(-0.93393866241466,-0.357433315245118,0.));
#368=DIRECTION('',(0.357433315245118,-0.93393866241466,0.));
#369=DIRECTION('',(-0.357433315245118,0.93393866241466,0.));
#370=DIRECTION('',(0.,0.,-1.));
#371=DIRECTION('',(-0.357433315245118,0.93393866241466,0.));
#372=DIRECTION('',(0.,0.,-1.));
#373=DIRECTION('',(0.,-1.,0.));
#374=DIRECTION('',(0.,0.,-1.));
#375=DIRECTION('',(-1.,0.,0.));
#376=DIRECTION('',(0.,0.,-1.));
#377=DIRECTION('',(-1.,0.,0.));
#378=DIRECTION('',(0.932755833182323,-0.360508745614238,0.));
#379=DIRECTION('',(0.360508745614238,0.932755833182323,0.));
#380=DIRECTION('',(-0.360508745614238,-0.932755833182323,0.));
#381=DIRECTION('',(0.,0.,-1.));
#382=DIRECTION('',(-0.360508745614238,-0.932755833182323,0.));
#383=DIRECTION('',(0.,0.,-1.));
#384=DIRECTION('',(-0.999226273695296,0.0393300642894601,0.));
#385=DIRECTION('',(0.,0.,-1.));
#386=DIRECTION('',(-1.,0.,0.));
#387=DIRECTION('',(0.,0.,-1.));
#388=DIRECTION('',(0.,0.,-1.));
#389=DIRECTION('',(-1.,0.,0.));
#390=DIRECTION('',(-1.,0.,0.));
#391=DIRECTION('',(0.,0.,1.));
#392=DIRECTION('',(0.,1.,0.));
#393=DIRECTION('',(0.,0.,-1.));
#394=DIRECTION('',(0.,1.,0.));
#395=DIRECTION('',(0.,-1.,0.));
#396=DIRECTION('',(0.,0.,-1.));
#397=DIRECTION('',(-1.,0.,0.));
#398=DIRECTION('',(0.,0.,-1.));
#399=DIRECTION('',(-1.,0.,0.));
#400=DIRECTION('',(1.,0.,0.));
#401=DIRECTION('',(0.,0.,-1.));
#402=DIRECTION('',(0.,-1.,0.));
#403=DIRECTION('',(0.,0.,-1.));
#404=DIRECTION('',(0.,-1.,0.));
#405=DIRECTION('',(0.,1.,0.));
#406=DIRECTION('',(0.,0.,1.));
#407=DIRECTION('',(1.,0.,0.));
#408=DIRECTION('',(0.,0.,-1.));
#409=DIRECTION('',(1.,0.,0.));
#410=DIRECTION('',(-0.932565411220615,0.361001044035784,0.));
#411=DIRECTION('',(-0.361001044035784,-0.932565411220615,0.));
#412=DIRECTION('',(0.361001044035784,0.932565411220615,0.));
#413=DIRECTION('',(0.,0.,-1.));
#414=DIRECTION('',(0.361001044035784,0.932565411220615,0.));
#415=DIRECTION('',(0.933562487920826,0.358414677639013,0.));
#416=DIRECTION('',(-0.358414677639013,0.933562487920826,0.));
#417=DIRECTION('',(0.358414677639013,-0.933562487920826,0.));
#418=DIRECTION('',(0.,0.,-1.));
#419=DIRECTION('',(0.358414677639013,-0.933562487920826,0.));
#420=DIRECTION('',(0.,1.,0.));
#421=DIRECTION('',(0.,0.,1.));
#422=DIRECTION('',(1.,0.,0.));
#423=DIRECTION('',(0.,0.,-1.));
#424=DIRECTION('',(1.,0.,0.));
#425=DIRECTION('',(-1.,0.,0.));
#426=DIRECTION('',(0.,0.,1.));
#427=DIRECTION('',(0.,1.,0.));
#428=DIRECTION('',(0.,0.,-1.));
#429=DIRECTION('',(0.,1.,0.));
#430=DIRECTION('',(0.,-1.,0.));
#431=DIRECTION('',(0.,0.,-1.));
#432=DIRECTION('',(-1.,0.,0.));
#433=DIRECTION('',(0.,0.,-1.));
#434=DIRECTION('',(-1.,0.,0.));
#435=DIRECTION('',(1.,0.,0.));
#436=DIRECTION('',(0.,0.,-1.));
#437=DIRECTION('',(0.,-1.,0.));
#438=DIRECTION('',(0.,0.,-1.));
#439=DIRECTION('',(0.,-1.,0.));
#440=DIRECTION('',(0.,0.,-1.));
#441=DIRECTION('',(0.999149605988627,0.0412318427040483,0.));
#442=DIRECTION('',(0.,0.,-1.));
#443=DIRECTION('',(-1.,0.,0.));
#444=DIRECTION('',(0.,0.,-1.));
#445=DIRECTION('',(-1.,0.,0.));
#446=DIRECTION('',(0.,0.,1.));
#447=DIRECTION('',(1.,0.,0.));
#448=DIRECTION('',(0.,0.,1.));
#449=DIRECTION('',(1.,0.,0.));
#450=CARTESIAN_POINT('',(0.,0.,0.));
#451=CARTESIAN_POINT('',(-0.0452881865952479,0.0224820734718731,0.0232));
#452=CARTESIAN_POINT('',(-0.0452881865952479,0.0224820734718731,0.0222));
#453=CARTESIAN_POINT('',(-0.0446966031761779,0.0209363232478514,0.0222));
#454=CARTESIAN_POINT('',(-0.0458909623247062,0.0240348001735091,0.0222));
#455=CARTESIAN_POINT('',(-0.0446966031761779,0.0209363232478514,0.0232));
#456=CARTESIAN_POINT('',(-0.0446966031761779,0.0209363232478514,0.0232));
#457=CARTESIAN_POINT('',(-0.0452881865952479,0.0224820734718731,0.0232));
#458=CARTESIAN_POINT('',(-0.0458912340556598,0.0240347777528711,0.0232));
#459=CARTESIAN_POINT('',(-0.0458909747514337,0.024033662105395,0.0232));
#460=CARTESIAN_POINT('',(-0.0445332498191701,0.0209363232478514,0.0232));
#461=CARTESIAN_POINT('',(-0.0445332498191701,0.0209363232478514,0.0222));
#462=CARTESIAN_POINT('',(-0.0443698964621623,0.0209363232478514,0.0222));
#463=CARTESIAN_POINT('',(-0.0443698964621623,0.0209363232478514,0.0232));
#464=CARTESIAN_POINT('',(-0.0443698964621623,0.0209363232478514,0.0232));
#465=CARTESIAN_POINT('',(-0.0445332498191701,0.0209363232478514,0.0232));
#466=CARTESIAN_POINT('',(-0.0437733513757066,0.0224797834715413,0.0232));
#467=CARTESIAN_POINT('',(-0.0437733513757066,0.0224797834715413,0.0222));
#468=CARTESIAN_POINT('',(-0.0431651720770733,0.0240306706000882,0.0222));
#469=CARTESIAN_POINT('',(-0.0431655387087155,0.0240294951289463,0.0232));
#470=CARTESIAN_POINT('',(-0.0431651720770733,0.0240306706000882,0.0232));
#471=CARTESIAN_POINT('',(-0.0437733513757066,0.0224797834715413,0.0232));
#472=CARTESIAN_POINT('',(-0.0317086194665036,0.0231391894796891,0.0232));
#473=CARTESIAN_POINT('',(-0.0317086194665036,0.0231391894796891,0.0222));
#474=CARTESIAN_POINT('',(-0.0431914227279732,0.0231835773440851,0.0222));
#475=CARTESIAN_POINT('',(-0.043191309624686,0.0231835769068736,0.0232));
#476=CARTESIAN_POINT('',(-0.0431914227279733,0.0231835773440851,0.02319999975));
#477=CARTESIAN_POINT('',(-0.0317086194665036,0.0231391894796891,0.0232));
#478=CARTESIAN_POINT('',(-0.043191309624686,0.0220599500773625,0.0232));
#479=CARTESIAN_POINT('',(-0.043191309624686,0.0220599500773625,0.0222));
#480=CARTESIAN_POINT('',(-0.043191309624686,0.0209363232478514,0.0222));
#481=CARTESIAN_POINT('',(-0.043191309624686,0.0209363232478514,0.0232));
#482=CARTESIAN_POINT('',(-0.043191309624686,0.0209363232478514,0.0232));
#483=CARTESIAN_POINT('',(-0.043191309624686,0.0220599500773625,0.0232));
#484=CARTESIAN_POINT('',(-0.0429886445953142,0.0209363232478514,0.0232));
#485=CARTESIAN_POINT('',(-0.0429886445953142,0.0209363232478514,0.0222));
#486=CARTESIAN_POINT('',(-0.0427859795659426,0.0209363232478514,0.0222));
#487=CARTESIAN_POINT('',(-0.0427859795659426,0.0209363232478514,0.0232));
#488=CARTESIAN_POINT('',(-0.0427859795659426,0.0209363232478514,0.0232));
#489=CARTESIAN_POINT('',(-0.0429886445953142,0.0209363232478514,0.0232));
#490=CARTESIAN_POINT('',(-0.0427859795659426,0.0226801585005811,0.0232));
#491=CARTESIAN_POINT('',(-0.0427859795659426,0.0226801585005811,0.0222));
#492=CARTESIAN_POINT('',(-0.0427859795659426,0.0244239937533109,0.0222));
#493=CARTESIAN_POINT('',(-0.0427859795659426,0.0244239937533109,0.0232));
#494=CARTESIAN_POINT('',(-0.0427859795659426,0.0244239937533109,0.0232));
#495=CARTESIAN_POINT('',(-0.0427859795659426,0.0226801585005811,0.0232));
#496=CARTESIAN_POINT('',(-0.0430890229431952,0.0244239937533109,0.0232));
#497=CARTESIAN_POINT('',(-0.0430890229431952,0.0244239937533109,0.0222));
#498=CARTESIAN_POINT('',(-0.0433920663204478,0.0244239937533109,0.0222));
#499=CARTESIAN_POINT('',(-0.0433920663204478,0.0244239937533109,0.0232));
#500=CARTESIAN_POINT('',(-0.0433920663204478,0.0244239937533109,0.0232));
#501=CARTESIAN_POINT('',(-0.0430890229431952,0.0244239937533109,0.0232));
#502=CARTESIAN_POINT('',(-0.0439489180678176,0.0229854918781657,0.0232));
#503=CARTESIAN_POINT('',(-0.0439489180678176,0.0229854918781657,0.0222));
#504=CARTESIAN_POINT('',(-0.0445153337268812,0.0215346189579611,0.0222));
#505=CARTESIAN_POINT('',(-0.0445153337268812,0.0215346189579611,0.0232));
#506=CARTESIAN_POINT('',(-0.0445153337268812,0.0215346189579611,0.0232));
#507=CARTESIAN_POINT('',(-0.0439489180678176,0.0229854918781657,0.0232));
#508=CARTESIAN_POINT('',(-0.0450771248979926,0.0229854918781657,0.0232));
#509=CARTESIAN_POINT('',(-0.0450771248979926,0.0229854918781657,0.0222));
#510=CARTESIAN_POINT('',(-0.0456293966446986,0.0244239937533109,0.0222));
#511=CARTESIAN_POINT('',(-0.0456293966446986,0.0244239937533109,0.0232));
#512=CARTESIAN_POINT('',(-0.0456293966446986,0.0244239937533109,0.0232));
#513=CARTESIAN_POINT('',(-0.0450771248979926,0.0229854918781657,0.0232));
#514=CARTESIAN_POINT('',(-0.0459347300222832,0.0244239937533109,0.0232));
#515=CARTESIAN_POINT('',(-0.0459347300222832,0.0244239937533109,0.0222));
#516=CARTESIAN_POINT('',(-0.0462400633998677,0.0244239937533109,0.0222));
#517=CARTESIAN_POINT('',(-0.0462400633998677,0.0244239937533109,0.0232));
#518=CARTESIAN_POINT('',(-0.0462400633998677,0.0244239937533109,0.0232));
#519=CARTESIAN_POINT('',(-0.0459347300222832,0.0244239937533109,0.0232));
#520=CARTESIAN_POINT('',(-0.0462400633998677,0.0226801585005811,0.0232));
#521=CARTESIAN_POINT('',(-0.0462400633998677,0.0226801585005811,0.0222));
#522=CARTESIAN_POINT('',(-0.0462400633998677,0.0209363232478514,0.0222));
#523=CARTESIAN_POINT('',(-0.0462400633998677,0.0209363232478514,0.0232));
#524=CARTESIAN_POINT('',(-0.0462400633998677,0.0209363232478514,0.0232));
#525=CARTESIAN_POINT('',(-0.0462400633998677,0.0226801585005811,0.0232));
#526=CARTESIAN_POINT('',(-0.0460526650393752,0.0209363232478514,0.0232));
#527=CARTESIAN_POINT('',(-0.0460526650393752,0.0209363232478514,0.0222));
#528=CARTESIAN_POINT('',(-0.0458652666788827,0.0209363232478514,0.0222));
#529=CARTESIAN_POINT('',(-0.0458652666788827,0.0209363232478514,0.0232));
#530=CARTESIAN_POINT('',(-0.0458652666788827,0.0209363232478514,0.0232));
#531=CARTESIAN_POINT('',(-0.0460526650393752,0.0209363232478514,0.0232));
#532=CARTESIAN_POINT('',(-0.0458652666788827,0.0220454467419272,0.0232));
#533=CARTESIAN_POINT('',(-0.0458652666788827,0.0220454467419272,0.0222));
#534=CARTESIAN_POINT('',(-0.0458655174863263,0.0231545720435454,0.0222));
#535=CARTESIAN_POINT('',(-0.0458652666788827,0.0231545702360031,0.0232));
#536=CARTESIAN_POINT('',(-0.0458655174863263,0.0231545720435454,0.0232));
#537=CARTESIAN_POINT('',(-0.0458652666788827,0.0220454467419272,0.0232));
#538=CARTESIAN_POINT('',(-0.0556865389359439,0.0232253510889945,0.0232));
#539=CARTESIAN_POINT('',(-0.0556865389359439,0.0232253510889945,0.0222));
#540=CARTESIAN_POINT('',(-0.0556865389359439,0.0232253510889945,0.0232));
#541=CARTESIAN_POINT('',(-0.035336010574676,0.0221931616239257,0.0232));
#542=CARTESIAN_POINT('',(-0.035336010574676,0.0221931616239257,0.0222));
#543=MECHANICAL_DESIGN_GEOMETRIC_PRESENTATION_REPRESENTATION('',(#332),
#544);
#544=(
GEOMETRIC_REPRESENTATION_CONTEXT(3)
GLOBAL_UNCERTAINTY_ASSIGNED_CONTEXT((#545))
GLOBAL_UNIT_ASSIGNED_CONTEXT((#548,#547,#546))
REPRESENTATION_CONTEXT('Part 10','TOP_LEVEL_ASSEMBLY_PART')
);
#545=UNCERTAINTY_MEASURE_WITH_UNIT(LENGTH_MEASURE(1.73142156651147E-5),
#548,'DISTANCE_ACCURACY_VALUE','Maximum Tolerance applied to model');
#546=(
NAMED_UNIT(*)
SI_UNIT($,.STERADIAN.)
SOLID_ANGLE_UNIT()
);
#547=(
NAMED_UNIT(*)
PLANE_ANGLE_UNIT()
SI_UNIT($,.RADIAN.)
);
#548=(
LENGTH_UNIT()
NAMED_UNIT(*)
SI_UNIT($,.METRE.)
);
#549=PRODUCT_DEFINITION_SHAPE('','',#550);
#550=PRODUCT_DEFINITION('','',#552,#551);
#551=PRODUCT_DEFINITION_CONTEXT('',#558,'design');
#552=PRODUCT_DEFINITION_FORMATION_WITH_SPECIFIED_SOURCE('','',#554,
 .NOT_KNOWN.);
#553=PRODUCT_RELATED_PRODUCT_CATEGORY('','',(#554));
#554=PRODUCT('Part 10','Part 10','Part 10',(#556));
#555=PRODUCT_CATEGORY('','');
#556=PRODUCT_CONTEXT('',#558,'mechanical');
#557=APPLICATION_PROTOCOL_DEFINITION('international standard',
'ap242_managed_model_based_3d_engineering',2020,#558);
#558=APPLICATION_CONTEXT('managed model based 3d engineering');
ENDSEC;
END-ISO-10303-21;
