ISO-10303-21;
HEADER;
/* Generated by software containing ST-Developer
 * from STEP Tools, Inc. (www.steptools.com) 
 */
/* OPTION: using custom renumber hook */

FILE_DESCRIPTION(
/* description */ ('STEP AP242 Edition 2',
'CAx-IF Rec.Pracs.---Representation and Presentation of Product Manufa
cturing Information (PMI)---4.0---2014-10-13',
'CAx-IF Rec.Pracs.---3D Tessellated Geometry---0.4---2014-09-14','2;1',
'CAx-IF Rec.Pracs.---User Defined Attributes---1.5---2016-08-15'),
/* implementation_level */ '2;1');

FILE_NAME(
/* name */ 'Part Studio 1 - Part 18',
/* time_stamp */ '2026-09-06T11:57:17Z',
/* author */ (''),
/* organization */ (''),
/* preprocessor_version */ 'ST-DEVELOPER v20',
/* originating_system */ 'ONSHAPE BY PTC INC, 1.220',
/* authorisation */ '  ');

FILE_SCHEMA (('AP242_MANAGED_MODEL_BASED_3D_ENGINEERING_MIM_LF { 1 0 10303 442 3 1 4 }'));
ENDSEC;

DATA;
#10=SHAPE_REPRESENTATION_RELATIONSHIP('','',#235,#11);
#11=ADVANCED_BREP_SHAPE_REPRESENTATION('',(#233),#385);
#12=B_SPLINE_CURVE_WITH_KNOTS('',2,(#341,#342,#343),.UNSPECIFIED.,.F.,.F.,
(3,3),(0.,1.),.PIECEWISE_BEZIER_KNOTS.);
#13=B_SPLINE_CURVE_WITH_KNOTS('',2,(#347,#348,#349),.UNSPECIFIED.,.F.,.F.,
(3,3),(0.,1.),.PIECEWISE_BEZIER_KNOTS.);
#14=B_SPLINE_CURVE_WITH_KNOTS('',2,(#364,#365,#366),.UNSPECIFIED.,.F.,.F.,
(3,3),(0.,1.),.PIECEWISE_BEZIER_KNOTS.);
#15=B_SPLINE_CURVE_WITH_KNOTS('',2,(#370,#371,#372),.UNSPECIFIED.,.F.,.F.,
(3,3),(0.,1.),.PIECEWISE_BEZIER_KNOTS.);
#16=B_SPLINE_SURFACE_WITH_KNOTS('',3,1,((#333,#334),(#335,#336),(#337,#338),
(#339,#340)),.SURF_OF_LINEAR_EXTRUSION.,.F.,.F.,.F.,(4,4),(2,2),(0.,1.),
(0.,1.),.PIECEWISE_BEZIER_KNOTS.);
#17=B_SPLINE_SURFACE_WITH_KNOTS('',3,1,((#356,#357),(#358,#359),(#360,#361),
(#362,#363)),.SURF_OF_LINEAR_EXTRUSION.,.F.,.F.,.F.,(4,4),(2,2),(0.,1.),
(0.,1.),.PIECEWISE_BEZIER_KNOTS.);
#18=CIRCLE('',#242,0.357217995113581);
#19=CIRCLE('',#243,0.357217995113581);
#20=CYLINDRICAL_SURFACE('',#241,0.357217995113581);
#21=ORIENTED_EDGE('',*,*,#81,.F.);
#22=ORIENTED_EDGE('',*,*,#82,.F.);
#23=ORIENTED_EDGE('',*,*,#83,.T.);
#24=ORIENTED_EDGE('',*,*,#84,.T.);
#25=ORIENTED_EDGE('',*,*,#85,.F.);
#26=ORIENTED_EDGE('',*,*,#86,.F.);
#27=ORIENTED_EDGE('',*,*,#87,.T.);
#28=ORIENTED_EDGE('',*,*,#82,.T.);
#29=ORIENTED_EDGE('',*,*,#88,.F.);
#30=ORIENTED_EDGE('',*,*,#89,.F.);
#31=ORIENTED_EDGE('',*,*,#90,.T.);
#32=ORIENTED_EDGE('',*,*,#86,.T.);
#33=ORIENTED_EDGE('',*,*,#91,.F.);
#34=ORIENTED_EDGE('',*,*,#92,.F.);
#35=ORIENTED_EDGE('',*,*,#93,.T.);
#36=ORIENTED_EDGE('',*,*,#89,.T.);
#37=ORIENTED_EDGE('',*,*,#94,.F.);
#38=ORIENTED_EDGE('',*,*,#95,.F.);
#39=ORIENTED_EDGE('',*,*,#96,.T.);
#40=ORIENTED_EDGE('',*,*,#92,.T.);
#41=ORIENTED_EDGE('',*,*,#97,.F.);
#42=ORIENTED_EDGE('',*,*,#98,.F.);
#43=ORIENTED_EDGE('',*,*,#99,.T.);
#44=ORIENTED_EDGE('',*,*,#95,.T.);
#45=ORIENTED_EDGE('',*,*,#100,.F.);
#46=ORIENTED_EDGE('',*,*,#101,.F.);
#47=ORIENTED_EDGE('',*,*,#102,.T.);
#48=ORIENTED_EDGE('',*,*,#98,.T.);
#49=ORIENTED_EDGE('',*,*,#103,.F.);
#50=ORIENTED_EDGE('',*,*,#104,.F.);
#51=ORIENTED_EDGE('',*,*,#105,.T.);
#52=ORIENTED_EDGE('',*,*,#101,.T.);
#53=ORIENTED_EDGE('',*,*,#106,.F.);
#54=ORIENTED_EDGE('',*,*,#107,.F.);
#55=ORIENTED_EDGE('',*,*,#108,.T.);
#56=ORIENTED_EDGE('',*,*,#104,.T.);
#57=ORIENTED_EDGE('',*,*,#109,.F.);
#58=ORIENTED_EDGE('',*,*,#84,.F.);
#59=ORIENTED_EDGE('',*,*,#110,.T.);
#60=ORIENTED_EDGE('',*,*,#107,.T.);
#61=ORIENTED_EDGE('',*,*,#83,.F.);
#62=ORIENTED_EDGE('',*,*,#87,.F.);
#63=ORIENTED_EDGE('',*,*,#90,.F.);
#64=ORIENTED_EDGE('',*,*,#93,.F.);
#65=ORIENTED_EDGE('',*,*,#96,.F.);
#66=ORIENTED_EDGE('',*,*,#99,.F.);
#67=ORIENTED_EDGE('',*,*,#102,.F.);
#68=ORIENTED_EDGE('',*,*,#105,.F.);
#69=ORIENTED_EDGE('',*,*,#108,.F.);
#70=ORIENTED_EDGE('',*,*,#110,.F.);
#71=ORIENTED_EDGE('',*,*,#81,.T.);
#72=ORIENTED_EDGE('',*,*,#109,.T.);
#73=ORIENTED_EDGE('',*,*,#106,.T.);
#74=ORIENTED_EDGE('',*,*,#103,.T.);
#75=ORIENTED_EDGE('',*,*,#100,.T.);
#76=ORIENTED_EDGE('',*,*,#97,.T.);
#77=ORIENTED_EDGE('',*,*,#94,.T.);
#78=ORIENTED_EDGE('',*,*,#91,.T.);
#79=ORIENTED_EDGE('',*,*,#88,.T.);
#80=ORIENTED_EDGE('',*,*,#85,.T.);
#81=EDGE_CURVE('',#111,#112,#131,.T.);
#82=EDGE_CURVE('',#113,#111,#132,.T.);
#83=EDGE_CURVE('',#113,#114,#133,.T.);
#84=EDGE_CURVE('',#114,#112,#134,.T.);
#85=EDGE_CURVE('',#115,#111,#135,.T.);
#86=EDGE_CURVE('',#116,#115,#136,.T.);
#87=EDGE_CURVE('',#116,#113,#137,.T.);
#88=EDGE_CURVE('',#117,#115,#138,.T.);
#89=EDGE_CURVE('',#118,#117,#139,.T.);
#90=EDGE_CURVE('',#118,#116,#140,.T.);
#91=EDGE_CURVE('',#119,#117,#141,.T.);
#92=EDGE_CURVE('',#120,#119,#142,.T.);
#93=EDGE_CURVE('',#120,#118,#143,.T.);
#94=EDGE_CURVE('',#121,#119,#18,.T.);
#95=EDGE_CURVE('',#122,#121,#144,.T.);
#96=EDGE_CURVE('',#122,#120,#19,.T.);
#97=EDGE_CURVE('',#123,#121,#12,.T.);
#98=EDGE_CURVE('',#124,#123,#145,.T.);
#99=EDGE_CURVE('',#124,#122,#13,.T.);
#100=EDGE_CURVE('',#125,#123,#146,.T.);
#101=EDGE_CURVE('',#126,#125,#147,.T.);
#102=EDGE_CURVE('',#126,#124,#148,.T.);
#103=EDGE_CURVE('',#127,#125,#14,.T.);
#104=EDGE_CURVE('',#128,#127,#149,.T.);
#105=EDGE_CURVE('',#128,#126,#15,.T.);
#106=EDGE_CURVE('',#129,#127,#150,.T.);
#107=EDGE_CURVE('',#130,#129,#151,.T.);
#108=EDGE_CURVE('',#130,#128,#152,.T.);
#109=EDGE_CURVE('',#112,#129,#153,.T.);
#110=EDGE_CURVE('',#114,#130,#154,.T.);
#111=VERTEX_POINT('',#302);
#112=VERTEX_POINT('',#303);
#113=VERTEX_POINT('',#305);
#114=VERTEX_POINT('',#307);
#115=VERTEX_POINT('',#311);
#116=VERTEX_POINT('',#313);
#117=VERTEX_POINT('',#317);
#118=VERTEX_POINT('',#319);
#119=VERTEX_POINT('',#323);
#120=VERTEX_POINT('',#325);
#121=VERTEX_POINT('',#329);
#122=VERTEX_POINT('',#331);
#123=VERTEX_POINT('',#344);
#124=VERTEX_POINT('',#346);
#125=VERTEX_POINT('',#352);
#126=VERTEX_POINT('',#354);
#127=VERTEX_POINT('',#367);
#128=VERTEX_POINT('',#369);
#129=VERTEX_POINT('',#375);
#130=VERTEX_POINT('',#377);
#131=LINE('',#301,#155);
#132=LINE('',#304,#156);
#133=LINE('',#306,#157);
#134=LINE('',#308,#158);
#135=LINE('',#310,#159);
#136=LINE('',#312,#160);
#137=LINE('',#314,#161);
#138=LINE('',#316,#162);
#139=LINE('',#318,#163);
#140=LINE('',#320,#164);
#141=LINE('',#322,#165);
#142=LINE('',#324,#166);
#143=LINE('',#326,#167);
#144=LINE('',#330,#168);
#145=LINE('',#345,#169);
#146=LINE('',#351,#170);
#147=LINE('',#353,#171);
#148=LINE('',#355,#172);
#149=LINE('',#368,#173);
#150=LINE('',#374,#174);
#151=LINE('',#376,#175);
#152=LINE('',#378,#176);
#153=LINE('',#380,#177);
#154=LINE('',#381,#178);
#155=VECTOR('',#253,1.);
#156=VECTOR('',#254,1.);
#157=VECTOR('',#255,1.);
#158=VECTOR('',#256,1.);
#159=VECTOR('',#259,1.);
#160=VECTOR('',#260,1.);
#161=VECTOR('',#261,1.);
#162=VECTOR('',#264,1.);
#163=VECTOR('',#265,1.);
#164=VECTOR('',#266,1.);
#165=VECTOR('',#269,1.);
#166=VECTOR('',#270,1.);
#167=VECTOR('',#271,1.);
#168=VECTOR('',#276,1.);
#169=VECTOR('',#279,1.);
#170=VECTOR('',#282,1.);
#171=VECTOR('',#283,1.);
#172=VECTOR('',#284,1.);
#173=VECTOR('',#285,1.);
#174=VECTOR('',#288,1.);
#175=VECTOR('',#289,1.);
#176=VECTOR('',#290,1.);
#177=VECTOR('',#293,1.);
#178=VECTOR('',#294,1.);
#179=EDGE_LOOP('',(#21,#22,#23,#24));
#180=EDGE_LOOP('',(#25,#26,#27,#28));
#181=EDGE_LOOP('',(#29,#30,#31,#32));
#182=EDGE_LOOP('',(#33,#34,#35,#36));
#183=EDGE_LOOP('',(#37,#38,#39,#40));
#184=EDGE_LOOP('',(#41,#42,#43,#44));
#185=EDGE_LOOP('',(#45,#46,#47,#48));
#186=EDGE_LOOP('',(#49,#50,#51,#52));
#187=EDGE_LOOP('',(#53,#54,#55,#56));
#188=EDGE_LOOP('',(#57,#58,#59,#60));
#189=EDGE_LOOP('',(#61,#62,#63,#64,#65,#66,#67,#68,#69,#70));
#190=EDGE_LOOP('',(#71,#72,#73,#74,#75,#76,#77,#78,#79,#80));
#191=FACE_BOUND('',#179,.T.);
#192=FACE_BOUND('',#180,.T.);
#193=FACE_BOUND('',#181,.T.);
#194=FACE_BOUND('',#182,.T.);
#195=FACE_BOUND('',#183,.T.);
#196=FACE_BOUND('',#184,.T.);
#197=FACE_BOUND('',#185,.T.);
#198=FACE_BOUND('',#186,.T.);
#199=FACE_BOUND('',#187,.T.);
#200=FACE_BOUND('',#188,.T.);
#201=FACE_BOUND('',#189,.T.);
#202=FACE_BOUND('',#190,.T.);
#203=PLANE('',#237);
#204=PLANE('',#238);
#205=PLANE('',#239);
#206=PLANE('',#240);
#207=PLANE('',#244);
#208=PLANE('',#245);
#209=PLANE('',#246);
#210=PLANE('',#247);
#211=PLANE('',#248);
#212=ADVANCED_FACE('',(#191),#203,.T.);
#213=ADVANCED_FACE('',(#192),#204,.T.);
#214=ADVANCED_FACE('',(#193),#205,.T.);
#215=ADVANCED_FACE('',(#194),#206,.T.);
#216=ADVANCED_FACE('',(#195),#20,.T.);
#217=ADVANCED_FACE('',(#196),#16,.T.);
#218=ADVANCED_FACE('',(#197),#207,.T.);
#219=ADVANCED_FACE('',(#198),#17,.T.);
#220=ADVANCED_FACE('',(#199),#208,.T.);
#221=ADVANCED_FACE('',(#200),#209,.T.);
#222=ADVANCED_FACE('',(#201),#210,.T.);
#223=ADVANCED_FACE('',(#202),#211,.F.);
#224=CLOSED_SHELL('',(#212,#213,#214,#215,#216,#217,#218,#219,#220,#221,
#222,#223));
#225=STYLED_ITEM('',(#226),#233);
#226=PRESENTATION_STYLE_ASSIGNMENT((#227));
#227=SURFACE_STYLE_USAGE(.BOTH.,#228);
#228=SURFACE_SIDE_STYLE('',(#229));
#229=SURFACE_STYLE_FILL_AREA(#230);
#230=FILL_AREA_STYLE('',(#231));
#231=FILL_AREA_STYLE_COLOUR('',#232);
#232=COLOUR_RGB('',0.325490196078431,0.529411764705882,0.752941176470588);
#233=MANIFOLD_SOLID_BREP('Part 18',#224);
#234=SHAPE_DEFINITION_REPRESENTATION(#390,#235);
#235=SHAPE_REPRESENTATION('Part 18',(#236),#385);
#236=AXIS2_PLACEMENT_3D('',#299,#249,#250);
#237=AXIS2_PLACEMENT_3D('',#300,#251,#252);
#238=AXIS2_PLACEMENT_3D('',#309,#257,#258);
#239=AXIS2_PLACEMENT_3D('',#315,#262,#263);
#240=AXIS2_PLACEMENT_3D('',#321,#267,#268);
#241=AXIS2_PLACEMENT_3D('',#327,#272,#273);
#242=AXIS2_PLACEMENT_3D('',#328,#274,#275);
#243=AXIS2_PLACEMENT_3D('',#332,#277,#278);
#244=AXIS2_PLACEMENT_3D('',#350,#280,#281);
#245=AXIS2_PLACEMENT_3D('',#373,#286,#287);
#246=AXIS2_PLACEMENT_3D('',#379,#291,#292);
#247=AXIS2_PLACEMENT_3D('',#382,#295,#296);
#248=AXIS2_PLACEMENT_3D('',#383,#297,#298);
#249=DIRECTION('',(0.,0.,1.));
#250=DIRECTION('',(1.,0.,0.));
#251=DIRECTION('',(-0.934919471953527,-0.354859945559003,0.));
#252=DIRECTION('',(0.354859945559003,-0.934919471953527,0.));
#253=DIRECTION('',(-0.354859945559003,0.934919471953527,0.));
#254=DIRECTION('',(0.,0.,-1.));
#255=DIRECTION('',(-0.354859945559003,0.934919471953527,0.));
#256=DIRECTION('',(0.,0.,-1.));
#257=DIRECTION('',(0.,-1.,0.));
#258=DIRECTION('',(0.,0.,-1.));
#259=DIRECTION('',(-1.,0.,0.));
#260=DIRECTION('',(0.,0.,-1.));
#261=DIRECTION('',(-1.,0.,0.));
#262=DIRECTION('',(0.934919471953527,-0.354859945559003,0.));
#263=DIRECTION('',(0.354859945559003,0.934919471953527,0.));
#264=DIRECTION('',(-0.354859945559003,-0.934919471953527,0.));
#265=DIRECTION('',(0.,0.,-1.));
#266=DIRECTION('',(-0.354859945559003,-0.934919471953527,0.));
#267=DIRECTION('',(0.,1.,0.));
#268=DIRECTION('',(0.,0.,1.));
#269=DIRECTION('',(1.,0.,0.));
#270=DIRECTION('',(0.,0.,-1.));
#271=DIRECTION('',(1.,0.,0.));
#272=DIRECTION('',(0.,0.,-1.));
#273=DIRECTION('',(-0.940760085029927,0.339072945565528,0.));
#274=DIRECTION('',(0.,0.,-1.));
#275=DIRECTION('',(-1.,0.,0.));
#276=DIRECTION('',(0.,0.,-1.));
#277=DIRECTION('',(0.,0.,-1.));
#278=DIRECTION('',(-1.,0.,0.));
#279=DIRECTION('',(0.,0.,-1.));
#280=DIRECTION('',(0.,1.,0.));
#281=DIRECTION('',(0.,0.,1.));
#282=DIRECTION('',(1.,0.,0.));
#283=DIRECTION('',(0.,0.,-1.));
#284=DIRECTION('',(1.,0.,0.));
#285=DIRECTION('',(0.,0.,-1.));
#286=DIRECTION('',(0.939874465259207,0.341520115884439,0.));
#287=DIRECTION('',(-0.341520115884439,0.939874465259207,0.));
#288=DIRECTION('',(0.341520115884439,-0.939874465259207,0.));
#289=DIRECTION('',(0.,0.,-1.));
#290=DIRECTION('',(0.341520115884439,-0.939874465259207,0.));
#291=DIRECTION('',(0.,1.,0.));
#292=DIRECTION('',(0.,0.,1.));
#293=DIRECTION('',(1.,0.,0.));
#294=DIRECTION('',(1.,0.,0.));
#295=DIRECTION('',(0.,0.,1.));
#296=DIRECTION('',(1.,0.,0.));
#297=DIRECTION('',(0.,0.,1.));
#298=DIRECTION('',(1.,0.,0.));
#299=CARTESIAN_POINT('',(0.,0.,0.));
#300=CARTESIAN_POINT('',(-0.0460141416637866,0.0122945046714625,0.0232));
#301=CARTESIAN_POINT('',(-0.0460141416637866,0.0122945046714625,0.0222));
#302=CARTESIAN_POINT('',(-0.0453088465248977,0.0104363232478514,0.0222));
#303=CARTESIAN_POINT('',(-0.0467194368026755,0.0141526860950736,0.0222));
#304=CARTESIAN_POINT('',(-0.0453088465248977,0.0104363232478514,0.0232));
#305=CARTESIAN_POINT('',(-0.0453088465248977,0.0104363232478514,0.0232));
#306=CARTESIAN_POINT('',(-0.0460141416637866,0.0122945046714625,0.0232));
#307=CARTESIAN_POINT('',(-0.0467194368026755,0.0141526860950736,0.0232));
#308=CARTESIAN_POINT('',(-0.0467194368026755,0.0141526860950736,0.0232));
#309=CARTESIAN_POINT('',(-0.044980070483231,0.0104363232478514,0.0232));
#310=CARTESIAN_POINT('',(-0.044980070483231,0.0104363232478514,0.0222));
#311=CARTESIAN_POINT('',(-0.0446512944415643,0.0104363232478514,0.0222));
#312=CARTESIAN_POINT('',(-0.0446512944415643,0.0104363232478514,0.0232));
#313=CARTESIAN_POINT('',(-0.0446512944415643,0.0104363232478514,0.0232));
#314=CARTESIAN_POINT('',(-0.044980070483231,0.0104363232478514,0.0232));
#315=CARTESIAN_POINT('',(-0.0439459993026754,0.0122945046714625,0.0232));
#316=CARTESIAN_POINT('',(-0.0439459993026754,0.0122945046714625,0.0222));
#317=CARTESIAN_POINT('',(-0.0432407041637866,0.0141526860950736,0.0222));
#318=CARTESIAN_POINT('',(-0.0432407041637866,0.0141526860950736,0.0232));
#319=CARTESIAN_POINT('',(-0.0432407041637866,0.0141526860950736,0.0232));
#320=CARTESIAN_POINT('',(-0.0439459993026754,0.0122945046714625,0.0232));
#321=CARTESIAN_POINT('',(-0.0435423534693421,0.0141526860950736,0.0232));
#322=CARTESIAN_POINT('',(-0.0435423534693421,0.0141526860950736,0.0222));
#323=CARTESIAN_POINT('',(-0.0438436212860833,0.0141526860950736,0.0222));
#324=CARTESIAN_POINT('',(-0.0438436212860833,0.0141526860950736,0.0232));
#325=CARTESIAN_POINT('',(-0.0438436212860833,0.0141526860950736,0.0232));
#326=CARTESIAN_POINT('',(-0.0435423534693421,0.0141526860950736,0.0232));
#327=CARTESIAN_POINT('',(0.291644482551158,-0.108535651641889,0.0232));
#328=CARTESIAN_POINT('',(0.291644482551158,-0.108535651641889,0.0222));
#329=CARTESIAN_POINT('',(-0.0447337597193422,0.0116890359214625,0.0222));
#330=CARTESIAN_POINT('',(-0.0447337597193422,0.0116890359214625,0.0232));
#331=CARTESIAN_POINT('',(-0.0447337597193422,0.0116890359214625,0.0232));
#332=CARTESIAN_POINT('',(0.291644482551158,-0.108535651641889,0.0232));
#333=CARTESIAN_POINT('',(-0.0449692197887865,0.0109452208172958,0.0232));
#334=CARTESIAN_POINT('',(-0.0449692197887865,0.0109452208172958,0.0222));
#335=CARTESIAN_POINT('',(-0.0449446248813792,0.0110645784561847,0.0232));
#336=CARTESIAN_POINT('',(-0.0449446248813792,0.0110645784561847,0.0222));
#337=CARTESIAN_POINT('',(-0.0448661381915644,0.0113125168242403,0.0232));
#338=CARTESIAN_POINT('',(-0.0448661381915644,0.0113125168242403,0.0222));
#339=CARTESIAN_POINT('',(-0.0447337597193422,0.0116890359214625,0.0232));
#340=CARTESIAN_POINT('',(-0.0447337597193422,0.0116890359214625,0.0222));
#341=CARTESIAN_POINT('',(-0.0449692197887865,0.0109452208172958,0.0222));
#342=CARTESIAN_POINT('',(-0.0449323274276755,0.0111242572756292,0.0222));
#343=CARTESIAN_POINT('',(-0.0447337597193422,0.0116890359214625,0.0222));
#344=CARTESIAN_POINT('',(-0.0449692197887865,0.0109452208172958,0.0222));
#345=CARTESIAN_POINT('',(-0.0449692197887865,0.0109452208172958,0.0232));
#346=CARTESIAN_POINT('',(-0.0449692197887865,0.0109452208172958,0.0232));
#347=CARTESIAN_POINT('',(-0.0449692197887865,0.0109452208172958,0.0232));
#348=CARTESIAN_POINT('',(-0.0449323274276755,0.0111242572756292,0.0232));
#349=CARTESIAN_POINT('',(-0.0447337597193422,0.0116890359214625,0.0232));
#350=CARTESIAN_POINT('',(-0.0449827831568421,0.0109452208172958,0.0232));
#351=CARTESIAN_POINT('',(-0.0449827831568421,0.0109452208172958,0.0222));
#352=CARTESIAN_POINT('',(-0.0449963465248977,0.0109452208172958,0.0222));
#353=CARTESIAN_POINT('',(-0.0449963465248977,0.0109452208172958,0.0232));
#354=CARTESIAN_POINT('',(-0.0449963465248977,0.0109452208172958,0.0232));
#355=CARTESIAN_POINT('',(-0.0449827831568421,0.0109452208172958,0.0232));
#356=CARTESIAN_POINT('',(-0.0453153569415643,0.0119489100534069,0.0232));
#357=CARTESIAN_POINT('',(-0.0453153569415643,0.0119489100534069,0.0222));
#358=CARTESIAN_POINT('',(-0.0451345120341569,0.011433140377481,0.0232));
#359=CARTESIAN_POINT('',(-0.0451345120341569,0.011433140377481,0.0222));
#360=CARTESIAN_POINT('',(-0.0450281752286014,0.0110985772987773,0.0232));
#361=CARTESIAN_POINT('',(-0.0450281752286014,0.0110985772987773,0.0222));
#362=CARTESIAN_POINT('',(-0.0449963465248977,0.0109452208172958,0.0232));
#363=CARTESIAN_POINT('',(-0.0449963465248977,0.0109452208172958,0.0222));
#364=CARTESIAN_POINT('',(-0.0453153569415643,0.0119489100534069,0.0222));
#365=CARTESIAN_POINT('',(-0.0450440895804532,0.011175255539518,0.0222));
#366=CARTESIAN_POINT('',(-0.0449963465248977,0.0109452208172958,0.0222));
#367=CARTESIAN_POINT('',(-0.0453153569415643,0.0119489100534069,0.0222));
#368=CARTESIAN_POINT('',(-0.0453153569415643,0.0119489100534069,0.0232));
#369=CARTESIAN_POINT('',(-0.0453153569415643,0.0119489100534069,0.0232));
#370=CARTESIAN_POINT('',(-0.0453153569415643,0.0119489100534069,0.0232));
#371=CARTESIAN_POINT('',(-0.0450440895804532,0.011175255539518,0.0232));
#372=CARTESIAN_POINT('',(-0.0449963465248977,0.0109452208172958,0.0232));
#373=CARTESIAN_POINT('',(-0.0457157475665643,0.0130507980742403,0.0232));
#374=CARTESIAN_POINT('',(-0.0457157475665643,0.0130507980742403,0.0222));
#375=CARTESIAN_POINT('',(-0.0461161381915643,0.0141526860950736,0.0222));
#376=CARTESIAN_POINT('',(-0.0461161381915643,0.0141526860950736,0.0232));
#377=CARTESIAN_POINT('',(-0.0461161381915643,0.0141526860950736,0.0232));
#378=CARTESIAN_POINT('',(-0.0457157475665643,0.0130507980742403,0.0232));
#379=CARTESIAN_POINT('',(-0.0464177874971199,0.0141526860950736,0.0232));
#380=CARTESIAN_POINT('',(-0.0464177874971199,0.0141526860950736,0.0222));
#381=CARTESIAN_POINT('',(-0.0464177874971199,0.0141526860950736,0.0232));
#382=CARTESIAN_POINT('',(-0.035336010574676,0.0221931616239257,0.0232));
#383=CARTESIAN_POINT('',(-0.035336010574676,0.0221931616239257,0.0222));
#384=MECHANICAL_DESIGN_GEOMETRIC_PRESENTATION_REPRESENTATION('',(#225),
#385);
#385=(
GEOMETRIC_REPRESENTATION_CONTEXT(3)
GLOBAL_UNCERTAINTY_ASSIGNED_CONTEXT((#386))
GLOBAL_UNIT_ASSIGNED_CONTEXT((#389,#388,#387))
REPRESENTATION_CONTEXT('Part 18','TOP_LEVEL_ASSEMBLY_PART')
);
#386=UNCERTAINTY_MEASURE_WITH_UNIT(LENGTH_MEASURE(2.E-5),#389,
'DISTANCE_ACCURACY_VALUE','Maximum Tolerance applied to model');
#387=(
NAMED_UNIT(*)
SI_UNIT($,.STERADIAN.)
SOLID_ANGLE_UNIT()
);
#388=(
NAMED_UNIT(*)
PLANE_ANGLE_UNIT()
SI_UNIT($,.RADIAN.)
);
#389=(
LENGTH_UNIT()
NAMED_UNIT(*)
SI_UNIT($,.METRE.)
);
#390=PRODUCT_DEFINITION_SHAPE('','',#391);
#391=PRODUCT_DEFINITION('','',#393,#392);
#392=PRODUCT_DEFINITION_CONTEXT('',#399,'design');
#393=PRODUCT_DEFINITION_FORMATION_WITH_SPECIFIED_SOURCE('','',#395,
 .NOT_KNOWN.);
#394=PRODUCT_RELATED_PRODUCT_CATEGORY('','',(#395));
#395=PRODUCT('Part 18','Part 18','Part 18',(#397));
#396=PRODUCT_CATEGORY('','');
#397=PRODUCT_CONTEXT('',#399,'mechanical');
#398=APPLICATION_PROTOCOL_DEFINITION('international standard',
'ap242_managed_model_based_3d_engineering',2020,#399);
#399=APPLICATION_CONTEXT('managed model based 3d engineering');
ENDSEC;
END-ISO-10303-21;
